<svg id="Group_3655" data-name="Group 3655" xmlns="http://www.w3.org/2000/svg" width="178.67" height="100" viewBox="0 0 178.67 100">
  <path id="Path_1" data-name="Path 1" d="M220.077,648.985h-27.3s-.553-8.115,2.72-8.207,2.9,3.6,7.009-1.475,9.083-4.8,9.729-1.8-1.245,5.395,2.213,4.657S222.889,643.36,220.077,648.985Z" transform="translate(-182.475 -549.366)" fill="#e6e6e6"/>
  <path id="Path_2" data-name="Path 2" d="M260.471,648.791l-.092,0a28.107,28.107,0,0,1,2.235-10.715,9.722,9.722,0,0,1,1.93-2.966l.061.069a9.66,9.66,0,0,0-1.911,2.943A28.027,28.027,0,0,0,260.471,648.791Z" transform="translate(-236.979 -549.169)" fill="#fff"/>
  <path id="Path_3" data-name="Path 3" d="M311.372,680.67l-.089-.026a14.3,14.3,0,0,1,3.6-5.992l.062.068a14.208,14.208,0,0,0-3.575,5.949Z" transform="translate(-278.001 -581.038)" fill="#fff"/>
  <path id="Path_4" data-name="Path 4" d="M205.029,672.283l-.091-.013a10.043,10.043,0,0,0-.9-5.87,8.084,8.084,0,0,0-1.425-2.08l.064-.067a8.184,8.184,0,0,1,1.445,2.106A10.136,10.136,0,0,1,205.029,672.283Z" transform="translate(-190.424 -572.658)" fill="#fff"/>
  <path id="Path_5" data-name="Path 5" d="M211.479,635.229H177.534l-.008-.115c-.019-.286-.453-7.033,1.734-9.441a2.4,2.4,0,0,1,1.75-.84,5.209,5.209,0,0,1,3.043.922c1.362.808,2.261,1.341,5.531-2.7,3.543-4.378,7.365-5.321,9.562-4.8a3.41,3.41,0,0,1,2.685,2.625,11.623,11.623,0,0,1,.115,3.393c-.074,1.017-.133,1.82.285,2.185.349.3,1.045.331,2.19.087,2.33-.5,5.581-.072,7.213,2.037.878,1.134,1.57,3.2-.121,6.578Zm-33.713-.247h33.56c1.26-2.556,1.3-4.715.113-6.248-1.5-1.934-4.638-2.443-6.966-1.946-1.245.266-1.986.222-2.4-.142-.511-.445-.448-1.3-.369-2.388a11.444,11.444,0,0,0-.11-3.323,3.172,3.172,0,0,0-2.5-2.437c-2.127-.508-5.844.423-9.313,4.712-3.4,4.207-4.43,3.6-5.849,2.757a4.946,4.946,0,0,0-2.91-.887,2.157,2.157,0,0,0-1.574.759c-1.964,2.164-1.725,8.231-1.677,9.143Z" transform="translate(-170.173 -535.486)" fill="#2f2e41"/>
  <path id="Path_8" data-name="Path 8" d="M778.473,516.624H745.039l-.006-.187-1.6-45.658h36.64Zm-33.059-.388H778.1l1.576-45.069H743.838Z" transform="translate(-626.254 -416.744)" fill="#3f3d56"/>
  <g id="Group_1" data-name="Group 1" transform="translate(124.217 62.494)">
    <rect id="Rectangle_17" data-name="Rectangle 17" width="2.543" height="31.47" fill="#3f3d56"/>
    <rect id="Rectangle_18" data-name="Rectangle 18" width="2.543" height="31.47" transform="translate(10.013)" fill="#3f3d56"/>
    <rect id="Rectangle_19" data-name="Rectangle 19" width="2.543" height="31.47" transform="translate(20.026)" fill="#3f3d56"/>
  </g>
  <path id="Path_3278" data-name="Path 3278" d="M868.532,406.809l-.164-.1-41.53-26.245,3.6-5.7.164.1,41.53,26.245Zm-41.158-26.469,41.037,25.933,3.187-5.044L830.561,375.3Z" transform="translate(-693.464 -339.367)" fill="#3f3d56"/>
  <path id="Path_10" data-name="Path 10" d="M942.383,388.422A7.467,7.467,0,0,0,931,395.813l1.98,1.251a5.891,5.891,0,1,1,5.626,3.557l1.98,1.251a7.467,7.467,0,0,0,1.8-13.451Z" transform="translate(-777.342 -349.444)" fill="#3f3d56"/>
  <rect id="Rectangle_21" data-name="Rectangle 21" width="176.475" height="0.388" transform="translate(0 99.612)" fill="#3f3d56"/>
  <g id="Group_6" data-name="Group 6" transform="translate(56.058)">
    <path id="Path_111" data-name="Path 111" d="M519.562,646.628h-2.827l-1.346-10.906h4.174Z" transform="translate(-498.539 -549.666)" fill="#feb8b8"/>
    <path id="Path_112" data-name="Path 112" d="M494.234,691.167h8.886v-3.433h-5.5a3.386,3.386,0,0,0-3.386,3.386h0Z" transform="translate(-481.491 -591.58)" fill="#2f2e41"/>
    <path id="Path_113" data-name="Path 113" d="M531.766,573.628l1.95,2.047,8.824-6.548-2.878-3.021Z" transform="translate(-511.736 -493.565)" fill="#feb8b8"/>
    <path id="Path_114" data-name="Path 114" d="M526.09,603.7l-3.8-3.982-2.486,2.369,6.131,6.433.034-.033a3.386,3.386,0,0,0,.115-4.787Z" transform="translate(-502.101 -520.649)" fill="#2f2e41"/>
    <path id="Path_115" data-name="Path 115" d="M428.945,319.5a2.319,2.319,0,0,1,1.11-3.378l11.1-28.292,4.327,2.591-12.332,27.141a2.332,2.332,0,0,1-4.206,1.938Z" transform="translate(-428.596 -269.311)" fill="#feb8b8"/>
    <path id="Path_116" data-name="Path 116" d="M570.806,334.944a2.319,2.319,0,0,1-2.083-2.883l-16.377-25.6,4.638-1.98L571.708,330.4a2.332,2.332,0,0,1-.9,4.543Z" transform="translate(-528.322 -282.731)" fill="#feb8b8"/>
    <path id="Path_117" data-name="Path 117" d="M493.853,427.9l2.9,43.083,6.927-.611,1.426-31.785,3.871,13.651,8.354.611-3.306-26.986Z" transform="translate(-481.184 -380.552)" fill="#2f2e41"/>
    <path id="Path_118" data-name="Path 118" d="M537.455,551.224l-1.223,2.038-8.556,5.909,6.112,3.26s11.817-6.52,10.8-8.557Z" transform="translate(-508.44 -481.572)" fill="#2f2e41"/>
    <path id="Path_119" data-name="Path 119" d="M462.607,285.186l2.411-6.795a12.133,12.133,0,0,1,6.277-6.925h0a17.362,17.362,0,0,1,10.189-.558l.878.218a16.961,16.961,0,0,1,6.432,3.106c1.486,1.171,2.823,2.655,2.942,4.25a.047.047,0,0,0,0,.01c.412,1.8.615,11.176.615,11.176h-3.63L489.3,302.3l-.046-.091s-20.939,3.963-20.939,1.925v-13.04l-.429-4.722Z" transform="translate(-456.004 -255.265)" fill="#ccc"/>
    <circle id="Ellipse_12" data-name="Ellipse 12" cx="5.803" cy="5.803" r="5.803" transform="translate(20.345 2.272)" fill="#feb8b8"/>
    <path id="Path_120" data-name="Path 120" d="M539.951,197.929l4.506.181a2.46,2.46,0,0,0,1.618-.388,2.056,2.056,0,0,0,.193-2.376c-.971-2.171-3.136-2.949-5.514-2.885s-4.869.87-6.149,2.873a9.337,9.337,0,0,0-1.144,6.862,7.481,7.481,0,0,1,6.117-4.265Z" transform="translate(-512.934 -192.457)" fill="#2f2e41"/>
  </g>
  <g id="Group_4" data-name="Group 4" transform="translate(93.225 31.267)">
    <path id="Path_81" data-name="Path 81" d="M636.644,384.473l-16.308-11.43a.7.7,0,0,1-.171-.974l12.8-18.263a.7.7,0,0,1,.974-.171l16.308,11.43a.7.7,0,0,1,.171.974l-12.8,18.263A.7.7,0,0,1,636.644,384.473Z" transform="translate(-620.038 -353.509)" fill="#3f88f5"/>
    <path id="Path_82" data-name="Path 82" d="M682.921,413.512l-9.569-6.707a1.029,1.029,0,0,1,1.181-1.685l9.569,6.707a1.029,1.029,0,0,1-1.181,1.685Z" transform="translate(-662.647 -394.949)" fill="#fff"/>
    <path id="Path_83" data-name="Path 83" d="M671.608,429.652l-9.569-6.707a1.029,1.029,0,1,1,1.181-1.685l9.569,6.707a1.029,1.029,0,0,1-1.181,1.685Z" transform="translate(-653.531 -407.957)" fill="#fff"/>
    <path id="Path_84" data-name="Path 84" d="M660.174,445.967,650.6,439.26a1.029,1.029,0,1,1,1.181-1.685l9.569,6.707a1.029,1.029,0,1,1-1.181,1.685Z" transform="translate(-644.317 -421.104)" fill="#fff"/>
    <path id="Path_85" data-name="Path 85" d="M707.118,398.638l-3.707-2.6a1.029,1.029,0,0,1,1.181-1.685l3.706,2.6a1.029,1.029,0,1,1-1.181,1.685Z" transform="translate(-686.872 -386.274)" fill="#fff"/>
  </g>
</svg>
