<svg xmlns="http://www.w3.org/2000/svg" width="230.794" height="153.647" viewBox="0 0 230.794 153.647">
  <g id="g12" transform="translate(0 0)">
    <g id="g18" transform="translate(54.782 134.472)">
      <path id="path20" d="M1082.38-275.559c-37.879,0-68.586-4.292-68.586-9.587s30.707-9.588,68.586-9.588,68.586,4.293,68.586,9.588-30.706,9.587-68.586,9.587" transform="translate(-1013.793 294.734)" fill="#fbc55d"/>
    </g>
    <path id="path22" d="M568.881-1463.312c-9.084,4.839-11.528,8.076-13.7,18.136-4.839-9.083-8.075-11.529-18.136-13.7,9.084-4.839,11.528-8.076,13.7-18.136,4.839,9.083,8.075,11.529,18.136,13.7" transform="translate(-530.187 1517.36)" fill="#fde19f"/>
    <path id="path24" d="M479.655-1585.7c-3.176,1.691-4.031,2.823-4.789,6.341-1.692-3.176-2.824-4.03-6.341-4.79,3.176-1.691,4.031-2.823,4.789-6.34,1.692,3.176,2.824,4.03,6.341,4.789" transform="translate(-468.524 1619.479)" fill="#fde19f"/>
    <path id="path26" d="M658.775-1724.075c-3.653,1.946-4.635,3.248-5.508,7.293-1.946-3.653-3.247-4.636-7.293-5.509,3.653-1.945,4.635-3.246,5.508-7.292,1.946,3.652,3.247,4.636,7.293,5.507" transform="translate(-628.209 1744.646)" fill="#fde19f"/>
    <g id="g28" transform="translate(198.818 57.792)">
      <path id="path30" d="M2454.484-1289.165c10.07-2.126,13.317-4.557,18.195-13.619,2.125,10.07,4.556,13.316,13.62,18.193-10.072,2.126-13.318,4.557-18.2,13.621-2.126-10.07-4.556-13.318-13.62-18.2" transform="translate(-2454.484 1302.784)" fill="#fde19f"/>
    </g>
    <g id="g32" transform="translate(219.669 93.774)">
      <path id="path34" d="M2662.758-938.6c3.521-.744,4.658-1.594,6.362-4.763.745,3.521,1.595,4.656,4.763,6.362-3.521.743-4.656,1.594-6.362,4.763-.745-3.521-1.595-4.657-4.763-6.362" transform="translate(-2662.758 943.36)" fill="#fde19f"/>
    </g>
    <g id="g36" transform="translate(197.331 100.352)">
      <path id="path38" d="M2439.629-872.188c4.05-.854,5.355-1.831,7.317-5.475.854,4.048,1.832,5.354,5.476,7.315-4.049.856-5.355,1.833-7.317,5.477-.854-4.048-1.832-5.354-5.477-7.316" transform="translate(-2439.629 877.663)" fill="#fde19f"/>
    </g>
    <g id="g40" transform="translate(47.278 11.281)">
      <path id="path42" d="M943.625-1729.658c-1.433-6.087-1.417-18.936-2.85-25.022q35.139-4.754,70.621-6.192.206-3.249.411-6.5l65.425,2.413c1.771.066,3.9.357,4.629,1.973a5.255,5.255,0,0,1,.12,2.812c-1.372,11.118.243,22.352-.136,33.367l-138.221-2.85" transform="translate(-940.776 1767.373)" fill="#f8a40f"/>
    </g>
    <g id="g44" transform="translate(58.57 24.302)">
      <path id="path46" d="M1175.679-1592.26l-120.562,2.4-1.545-44.369,121.211-3.074.9,45.046" transform="translate(-1053.572 1637.305)" fill="#e9ebef"/>
    </g>
    <g id="g48" transform="translate(57.462 23.189)">
      <path id="path50" d="M1046.223-1601l118.36-2.355-.852-42.821-118.976,3.018,1.467,42.158m119.514-.159-120.562,2.4a1.109,1.109,0,0,1-1.13-1.071l-1.545-44.37a1.112,1.112,0,0,1,.3-.8,1.112,1.112,0,0,1,.78-.348l121.211-3.074a1.037,1.037,0,0,1,.794.307,1.112,1.112,0,0,1,.342.779l.9,45.045a1.108,1.108,0,0,1-1.086,1.131" transform="translate(-1042.499 1648.421)" fill="#81191c"/>
    </g>
    <g id="g52" transform="translate(62.314 31.43)">
      <path id="path54" d="M1213.08-1521.058l-120.562,2.4-1.546-44.369,121.212-3.074.9,45.046" transform="translate(-1090.972 1566.104)" fill="#fff"/>
    </g>
    <g id="g56" transform="translate(61.205 30.323)">
      <path id="path58" d="M1083.619-1529.747l118.361-2.355-.851-42.821-118.977,3.018,1.467,42.158m119.515-.159-120.563,2.4a1.109,1.109,0,0,1-1.13-1.071l-1.545-44.369a1.113,1.113,0,0,1,.3-.8,1.116,1.116,0,0,1,.78-.348l121.211-3.073h.006a1.112,1.112,0,0,1,.789.307,1.107,1.107,0,0,1,.342.78l.9,45.044a1.111,1.111,0,0,1-1.087,1.131" transform="translate(-1079.894 1577.168)" fill="#81191c"/>
    </g>
    <g id="g60" transform="translate(46.353 9.905)">
      <path id="path62" d="M1075.046-1739.207c.252-8.281-.542-16.545-.413-24.825.031-1.984.115-3.968.281-5.945.141-1.666.683-3.614.259-5.276-.728-2.864-3.74-3.465-6.288-3.592-3.726-.186-7.462-.275-11.191-.413l-45.136-1.664c-1.76-.066-3.535-.2-5.3-.2a5.385,5.385,0,0,0-4.49,2.121c-1.226,1.655-1.086,3.822-1.21,5.786q.745-.773,1.488-1.548-20.815.852-41.561,2.832-10.275.987-20.52,2.254c-2.526.313-5.746.167-7.728,2.037-1.768,1.669-1.843,3.73-1.613,6,.613,6.041.842,12.205,2.188,18.145a1.477,1.477,0,0,0,1.081,1.039l23.873,3.858,38.014,6.142c2.845.46,5.691,1.005,8.549,1.381,2.373.312,4.822.291,7.208.415l37.992,1.979,6.884.359a23.062,23.062,0,0,0,3.209.167c1.449-.135,2.9-1.8,4-2.639l7.561-5.814q.8-.615,1.6-1.23c1.533-1.178-.032-3.784-1.584-2.591l-5.116,3.935a75.257,75.257,0,0,0-6.756,5.2c-.258.25-.4.23-.336.211a.659.659,0,0,1,.284.008c.811.151.694.067.483-.019a1.647,1.647,0,0,0-.3-.1,2.156,2.156,0,0,0-.86-.071c-.144.007-.277.012-.377.007l-5.508-.287-37.733-1.966c-3.357-.175-6.718-.328-10.074-.525-.122-.007-.052.007.044.019.151.021.37.042.023-.016-.363-.06-.725-.117-1.089-.175l-4.617-.746-36.222-5.853-18-2.909-6.387-1.032a25.974,25.974,0,0,0-3.547-.573,3.359,3.359,0,0,1-.467-.075l1.081,1.039a73.253,73.253,0,0,1-1.286-9.04c-.316-3.2-.856-6.51-.928-9.726-.042-1.881,1-2.785,2.792-3.042,1.981-.284,3.973-.5,5.959-.744q5.962-.718,11.935-1.344,23.893-2.5,47.91-3.468a1.558,1.558,0,0,0,1.488-1.549c.092-1.44-.191-3.633,1.235-4.5a3.034,3.034,0,0,1,1.8-.3c1.587.033,3.174.118,4.761.176l19.437.716q18.225.673,36.447,1.345a13.934,13.934,0,0,1,2,.149c.924.167,1.8.387,1.99,1.453a9.37,9.37,0,0,1-.213,2.462c-.242,2.22-.381,4.449-.44,6.683-.227,8.651.654,17.289.392,25.941-.06,1.955,2.976,1.889,3.036-.06" transform="translate(-931.533 1781.118)" fill="#81191c"/>
    </g>
    <g id="g64" transform="translate(49.721 38.534)">
      <path id="path66" d="M1098.084-1480.8a7.251,7.251,0,0,1,7.4,7.353c-.219,14.794.921,31.577.13,45.533-.232,4.1-.635,8.592-3.543,11.486-2.951,2.934-7.524,3.278-11.68,3.449l-84.681,3.479c-8.68.356-17.4.713-26.037-.176-1.958-.2-4.048-.53-5.486-1.874-1.614-1.508-1.985-3.888-2.265-6.08-2.236-17.537-4.514-49.615-6.75-67.153l5.83-6.743,82.1-3.62,2.952,15.183,42.024-.836" transform="translate(-965.177 1495.142)" fill="#facc08"/>
    </g>
    <g id="g68" transform="translate(167.214 57.476)">
      <path id="path70" d="M2155.036-1299.473l-13.324.264a2.839,2.839,0,0,1-2.9-2.783l-.016-.79a2.839,2.839,0,0,1,2.782-2.9l13.323-.266a2.84,2.84,0,0,1,2.9,2.783l.017.79a2.843,2.843,0,0,1-2.784,2.9" transform="translate(-2138.8 1305.944)" fill="#f8a40f"/>
    </g>
    <g id="g72" transform="translate(55.965 111.786)">
      <path id="path74" d="M1094.687-763.129c-22.439,1.241-44.982,4.25-67.139-.28.169,1.475.338,2.9.507,4.226.279,2.192.651,4.572,2.265,6.08,1.438,1.344,3.528,1.673,5.486,1.874,8.642.889,17.357.533,26.037.176l84.681-3.478c4.157-.171,8.73-.515,11.68-3.449a9.707,9.707,0,0,0,2.094-3.254c-21.879-.514-43.7-3.107-65.611-1.894" transform="translate(-1027.548 763.449)" fill="#f8a40f"/>
    </g>
    <g id="g76" transform="translate(48.169 37.282)">
      <path id="path78" d="M1084.254-1490.536a5.8,5.8,0,0,1,4.671,2.287c1.3,1.745,1.088,3.781,1.077,5.832-.028,4.6.053,9.19.151,13.783.193,9.2.5,18.41.1,27.6-.165,3.713-.11,8.192-2.391,11.343-2.456,3.392-7.036,3.731-10.87,3.914-10.015.478-20.039.825-30.057,1.236-20.381.838-40.762,1.819-61.15,2.5-4.96.165-9.929.243-14.887-.012a39.227,39.227,0,0,1-7.151-.707c-2.387-.579-3.447-2.026-3.954-4.339a89.013,89.013,0,0,1-1.183-9.5q-.562-5.226-1.055-10.461c-1.565-16.333-2.74-32.723-4.8-49l-.423,1.082,5.83-6.743-1.064.466,33.847-1.493,41.446-1.828c2.908-.129,5.583.567,6.35,3.9.752,3.269,1.285,6.6,1.924,9.9a1.527,1.527,0,0,0,1.486,1.085q18.411-.364,36.823-.732l5.287-.105a1.519,1.519,0,0,0-.062-3.036l-36.823.732-5.285.105,1.485,1.085c-.67-3.446-1.085-7.058-2.051-10.434-1.138-3.986-4.818-5.727-8.677-5.558l-19.852.877-53.514,2.361c-1.591.069-2.9-.137-4.013,1.155l-4.416,5.107a6.315,6.315,0,0,0-1.215,1.548c-.446,1.15.214,3.284.353,4.492,1.773,15.368,2.948,30.8,4.436,46.2.349,3.607.71,7.214,1.107,10.815.357,3.242.434,6.818,1.43,9.938,1.3,4.066,4.661,5.329,8.6,5.742a127.732,127.732,0,0,0,15.611.524c21.117-.378,42.249-1.655,63.351-2.523,10.585-.435,21.171-.84,31.756-1.3,3.774-.167,7.92-.416,11.147-2.61s4.643-5.777,5.168-9.5c1.241-8.808.723-18.007.543-26.87-.1-4.884-.228-9.767-.282-14.652-.025-2.268-.035-4.536-.015-6.8a11.872,11.872,0,0,0-.8-5.4,8.847,8.847,0,0,0-8.051-5.021c-1.954-.031-1.89,3,.062,3.036" transform="translate(-949.68 1507.651)" fill="#81191c"/>
    </g>
    <path id="path80" d="M1065.01-1089.731q.4,6.746,1.433,13.43a2.28,2.28,0,0,0,2.262,2.174c1.068-.069,2.363-1.033,2.174-2.263q-1.03-6.677-1.433-13.43a2.253,2.253,0,0,0-2.262-2.174,2.252,2.252,0,0,0-2.174,2.262" transform="translate(-1005.292 1170.891)" fill="#fff"/>
    <path id="path82" d="M1085.506-882.042l.007.336a1.668,1.668,0,0,0,.208.85,1.655,1.655,0,0,0,.473.7,1.665,1.665,0,0,0,.723.444,1.673,1.673,0,0,0,.858.174l.588-.091a2.21,2.21,0,0,0,.967-.59l.338-.455a2.207,2.207,0,0,0,.28-1.125q0-.168-.006-.336a1.669,1.669,0,0,0-.208-.85,1.658,1.658,0,0,0-.473-.7,1.665,1.665,0,0,0-.723-.444,1.676,1.676,0,0,0-.858-.175l-.588.092a2.2,2.2,0,0,0-.968.59l-.338.455a2.208,2.208,0,0,0-.281,1.125" transform="translate(-1023.739 983.994)" fill="#fff"/>
    <path id="path84" d="M1558.729-1850.205c5.454-8.213,15.122-13.665,25.536-14.955a32.378,32.378,0,0,1,3.97-.248,30.175,30.175,0,0,1,22.266,9.87q-16.769-.616-33.537-1.236c-1.749-.064-3.508-.2-5.258-.2h-.039a5.386,5.386,0,0,0-4.49,2.122,7.528,7.528,0,0,0-1.141,4.3q-3.654.156-7.307.347" transform="translate(-1449.587 1866.875)" fill="#fef5da"/>
    <path id="path86" d="M1521.183-1738.633a27.04,27.04,0,0,1,1.951-5.274q5.3-.288,10.593-.506a1.558,1.558,0,0,0,1.488-1.548c.091-1.439-.191-3.633,1.235-4.5a2.37,2.37,0,0,1,1.316-.311c.159,0,.319.005.485.008,1.587.033,3.174.118,4.761.176l19.436.717q8.429.31,16.86.615a36.343,36.343,0,0,1,3.559,5.955q.713,1.5,1.276,3.069l-62.961,1.6" transform="translate(-1415.799 1763.712)" fill="#fcda85"/>
    <path id="path88" d="M1512.726-1616.874a27.83,27.83,0,0,1,.372-5.015l64.138-1.627a34.063,34.063,0,0,1,1.023,4.98l-65.533,1.662" transform="translate(-1408.186 1649.199)" fill="#f7f9fa"/>
    <path id="path90" d="M1516.476-1641.662q.19-1.133.471-2.23l62.961-1.6q.39,1.087.706,2.2l-64.138,1.627" transform="translate(-1411.564 1668.972)" fill="#c89196"/>
    <g id="g92" transform="translate(104.658 32.877)">
      <path id="path94" d="M1551.129-1532.36c-.558-3.1-.981-6.309-1.844-9.323a7.253,7.253,0,0,0-2.2-3.535l-.152-.782-.864.039a9.479,9.479,0,0,0-4.945-1.29c-.17,0-.34,0-.513.011q-9.924.438-19.851.875l-6.25.276q-.324-1.624-.513-3.312c-.023-.2-.043-.4-.06-.593l65.626-1.665a30.747,30.747,0,0,1-4.787,18.827l-19.637.391-4.008.08" transform="translate(-1513.934 1551.658)" fill="#fff"/>
    </g>
    <path id="path96" d="M1512.875-1569.892q-.1-1.121-.119-2.216l65.533-1.662q.142,1.1.212,2.213l-65.626,1.665" transform="translate(-1408.216 1604.432)" fill="#c89196"/>
    <path id="path98" d="M1540.676-1771.215a28.4,28.4,0,0,1,1.807-3.135q3.652-.19,7.307-.347a7.527,7.527,0,0,1,1.141-4.3,5.385,5.385,0,0,1,4.49-2.122h.039c1.75,0,3.509.131,5.258.195l33.537,1.236a34.955,34.955,0,0,1,2.595,3.124q-8.431-.307-16.86-.615l-19.436-.717c-1.587-.059-3.174-.143-4.761-.176-.166,0-.326-.008-.485-.008a2.369,2.369,0,0,0-1.316.311c-1.426.864-1.144,3.058-1.235,4.5a1.557,1.557,0,0,1-1.488,1.548q-5.3.218-10.593.506" transform="translate(-1433.341 1791.021)" fill="#c89196"/>
    <path id="path100" d="M1558.667-1467.81c-14.7,0-27.463-9.715-31.7-24.417l24.912-1.1c.209-.009.419-.015.626-.015,2.659,0,5.012.822,5.724,3.915.753,3.269,1.286,6.6,1.925,9.9a1.527,1.527,0,0,0,1.461,1.087h.024l22.526-.447a30.588,30.588,0,0,1-10.452,7.687,36.073,36.073,0,0,1-15.049,3.393m.144-26.552a7.479,7.479,0,0,0-1.016-.744l.864-.037.152.781" transform="translate(-1421.007 1533.677)" fill="#fbec77"/>
    <path id="path102" d="M1555.042-1489.7a1.527,1.527,0,0,1-1.462-1.087c-.639-3.293-1.172-6.627-1.925-9.9-.711-3.093-3.065-3.915-5.724-3.915-.207,0-.417.005-.626.015l-24.912,1.1q-.422-1.47-.731-3.006l6.25-.276,19.852-.876c.172-.007.343-.011.512-.011a9.492,9.492,0,0,1,4.944,1.289,7.466,7.466,0,0,1,1.016.744,7.257,7.257,0,0,1,2.205,3.536c.862,3.014,1.285,6.218,1.843,9.322l4.007-.08,19.638-.39a28.252,28.252,0,0,1-2.337,3.083l-22.527.447h-.024m1.45-1.951h0" transform="translate(-1414.432 1544.932)" fill="#c89196"/>
    <path id="path104" d="M1496.211-1415.516a20.845,20.845,0,0,0-4.274,4.19,3.883,3.883,0,0,0-.873,1.733,4.165,4.165,0,0,0,1.3,3.034,54.4,54.4,0,0,0,4.333,4.661,3.551,3.551,0,0,0,2.6,1.315,3.33,3.33,0,0,0,1.738-.922c1.4-1.193,2.52-1.466,3.529-3" transform="translate(-1388.675 1462.022)" fill="#fff"/>
    <path id="path106" d="M1351.488-1396.523c-1.463-3.95-7.156.57-8.9,1.976-3.8,3.075-8.612,6.019-8.466,11.2.156,5.546,5.2,11.776,10.995,11.925,5.486.141,16.063-8.783,14.551-12.537" transform="translate(-1247.467 1446.354)" fill="#fff"/>
    <path id="path108" d="M1709.057-1658.089a9.4,9.4,0,0,0-6.142,5.6" transform="translate(-1579.339 1680.311)" fill="#fff"/>
    <g id="g110" transform="translate(104.536 1.468)">
      <path id="path112" d="M1548.806-1813.5c-9.061,1.855-18.142-3.306-22.566-11.115a20.668,20.668,0,0,1-2.619-12.865,19.86,19.86,0,0,1,5.353-10.571c5.53-5.873,14.321-9.084,22.149-6.266a2.545,2.545,0,0,1,.409.2,21.591,21.591,0,0,1,15.849,21.353C1567.131-1822.594,1558.187-1815.421,1548.806-1813.5Zm26.441-32.943c-5.555-11.69-17.346-20.562-32.39-18.7-16.975,2.1-31.972,15.267-29.961,33.417,2.6,23.482,25.579,37.6,47.991,27.342,17.745-8.12,21.213-27.636,14.359-42.06" transform="translate(-1512.715 1865.39)" fill="#c0b2b7"/>
    </g>
    <g id="g114" transform="translate(114.87 22.504)">
      <path id="path116" d="M1669.037-1655.268a23.666,23.666,0,0,1,.8,6.963c-.332,7.808-3.335,17.71-8.578,23.3a32.183,32.183,0,0,1-22.073,10.21c-7.578.379-16.3-3.378-23.243-6.438,9.332,9.172,23.695,12.414,37.839,5.94,16.9-7.734,20.845-25.8,15.258-39.971" transform="translate(-1615.941 1655.268)" fill="#a6949d"/>
    </g>
    <path id="path118" d="M1733.87-1722.2a21.047,21.047,0,0,0,4.071-23.289,21.579,21.579,0,0,0-9.495-10.422,21.754,21.754,0,0,0-7.2-2.363c.375.108.75.215,1.123.348a2.593,2.593,0,0,1,.41.195,21.593,21.593,0,0,1,15.85,21.353c-.251,10.175-9.2,17.349-18.575,19.27a20.511,20.511,0,0,1-17.042-4.584,23.591,23.591,0,0,0,11.785,5.641,22.28,22.28,0,0,0,19.076-6.149" transform="translate(-1579.423 1770.467)" fill="#c0b2b7"/>
    <path id="path120" d="M1496.211-1415.516a20.845,20.845,0,0,0-4.274,4.19,3.883,3.883,0,0,0-.873,1.733,4.165,4.165,0,0,0,1.3,3.034,54.4,54.4,0,0,0,4.333,4.661,3.551,3.551,0,0,0,2.6,1.315,3.33,3.33,0,0,0,1.738-.922c1.4-1.193,2.52-1.466,3.529-3" transform="translate(-1388.675 1462.022)" fill="#fff"/>
    <path id="path122" d="M1345.122-1371.344c3.818.1,7.81-2.891,10.481-5.319a14.958,14.958,0,0,0,3.595-4.325c1.516-3.2-.693-2.568-2.7-3.9a5.232,5.232,0,0,1-1.1-1.107l-3.392-4.179a7.525,7.525,0,0,1-1.815-3.194c-.328-1.747,1.774-2.668.717-4.041-.645-.836-1.907-.627-2.774-.422-2.049.484-3.94,2.07-5.542,3.366-3.8,3.074-8.612,6.017-8.465,11.2.156,5.546,5.2,11.776,10.995,11.925" transform="translate(-1247.467 1446.277)" fill="#9bddcf"/>
    <path id="path124" d="M1340.373-1390.81a96.926,96.926,0,0,1,9.8-7.14,4.545,4.545,0,0,0-1.8.137c-2.049.484-3.94,2.07-5.542,3.366-3.611,2.919-8.123,5.725-8.443,10.44a27.857,27.857,0,0,1,5.989-6.8" transform="translate(-1247.701 1446.254)" fill="#6fceb6"/>
    <path id="path126" d="M1413.105-1254.463a14.955,14.955,0,0,0,3.595-4.325c1.3-2.739-.136-2.672-1.834-3.436a51.7,51.7,0,0,1-9.6,8.371,28.518,28.518,0,0,1-7.247,3.273,9.4,9.4,0,0,0,4.6,1.436c3.818.1,7.81-2.891,10.481-5.319" transform="translate(-1304.969 1324.076)" fill="#6fceb6"/>
    <path id="path128" d="M1709.057-1658.089a9.4,9.4,0,0,0-6.142,5.6" transform="translate(-1579.339 1680.311)" fill="#c0b2b7"/>
    <g id="g130" transform="translate(103.017 0)">
      <path id="path132" d="M1560.3-1858.851c4.958,10.62,3.989,23.991-4.019,32.88-8.706,9.666-23.944,12.9-35.908,7.949-11.789-4.88-19.548-16.961-19.786-29.644-.251-13.335,9.821-23.815,22.012-27.682,7.343-2.33,15.379-2.442,22.449.873a32.616,32.616,0,0,1,15.252,15.624c.851,1.757,3.436.165,2.592-1.585a35.684,35.684,0,0,0-14.522-15.749,32.464,32.464,0,0,0-21.645-3.3c-13.584,2.417-26.517,12.364-28.787,26.555-2.217,13.861,5.1,28.626,17.134,35.658,12.4,7.245,28.9,5.637,40-3.385,11.838-9.615,14.08-26.361,7.819-39.775-.825-1.767-3.411-.173-2.592,1.585" transform="translate(-1497.544 1880.057)" fill="#81191c"/>
    </g>
    <path id="path134" d="M1651.74-1761.174c3.344,7.977,1.763,17.318-5.014,23.016a21.061,21.061,0,0,1-24.543,1.4c-7.358-4.6-12.139-13.855-9.671-22.5,2.158-7.559,9.986-12.681,17.479-13.694a20.684,20.684,0,0,1,21.908,12.134c.8,1.778,3.382.18,2.591-1.584a23.466,23.466,0,0,0-22.3-13.77c-8.706.306-17.745,5.262-21.547,13.327-4.362,9.253-.391,20.478,7.235,26.708a24.389,24.389,0,0,0,27.584,2.535c9.918-5.708,13.544-18.045,9.189-28.44-.746-1.782-3.668-.941-2.911.865" transform="translate(-1494.677 1786.583)" fill="#81191c"/>
    <path id="path136" d="M1481.982-1430.549a23.831,23.831,0,0,0-3.23,2.838,11.63,11.63,0,0,0-2.331,3.17c-1.233,2.918,1.471,5.466,3.266,7.428a37,37,0,0,0,2.861,2.891,4.39,4.39,0,0,0,3.983,1.315c1.235-.331,2.133-1.313,3.166-2.008a9.727,9.727,0,0,0,2.751-2.59,1.531,1.531,0,0,0-.586-2.066,1.552,1.552,0,0,0-2.066.586,5.839,5.839,0,0,1-1.683,1.479c-.382.256-.754.518-1.115.8a4.888,4.888,0,0,1-1.1.816c-.67.255-1.37-.623-1.8-1.034q-1.2-1.153-2.316-2.38a27.608,27.608,0,0,1-2.029-2.371c-.511-.7-.844-1.257-.363-2.045a16.166,16.166,0,0,1,4.167-4.241,1.562,1.562,0,0,0,.5-2.088,1.532,1.532,0,0,0-2.088-.5" transform="translate(-1375.238 1475.759)" fill="#81191c"/>
    <path id="path138" d="M1339.293-1410.116c-2.145-5.162-7.883-1.476-10.8.838-4.075,3.233-9.442,6.614-9.537,12.434-.088,5.417,3.838,10.966,8.8,12.977,4.573,1.854,8.993-.176,12.732-2.9a24.476,24.476,0,0,0,5.512-5.339c1.085-1.507,2.157-3.544,1.478-5.441-.655-1.83-3.572-.981-2.911.866.13.359.142.414-.019.948a6.425,6.425,0,0,1-.913,1.742,19.035,19.035,0,0,1-3.589,3.75c-2.325,1.93-5.741,4.388-8.943,4.13-4.286-.344-7.743-4.425-8.8-8.355-1.26-4.7,2.074-7.751,5.472-10.4.941-.736,7.658-6.656,8.606-4.377.741,1.783,3.663.942,2.911-.865" transform="translate(-1233.816 1459.515)" fill="#81191c"/>
    <path id="path140" d="M1694.9-1673.173a11.038,11.038,0,0,0-4.384,2.488,10.983,10.983,0,0,0-2.8,4.191,1.518,1.518,0,0,0,.176,1.167,1.547,1.547,0,0,0,.921.679,1.532,1.532,0,0,0,1.167-.176,1.786,1.786,0,0,0,.679-.921c-.179.459.059-.125.108-.231.065-.139.135-.276.207-.412a9.21,9.21,0,0,1,.53-.869c.052-.076.108-.15.16-.227-.243.36-.064.089-.007.017.1-.12.195-.239.3-.355a9.505,9.505,0,0,1,.746-.76c.125-.113.261-.218.386-.334-.1.092-.232.183-.048.043.073-.056.147-.111.223-.164a9.1,9.1,0,0,1,.857-.549q.222-.126.45-.239a1.4,1.4,0,0,0,.251-.119c-.091.073-.292.125-.063.031a9.432,9.432,0,0,1,1.005-.35,1.534,1.534,0,0,0,1.022-1.887,1.549,1.549,0,0,0-1.889-1.024" transform="translate(-1565.62 1693.938)" fill="#fff"/>
    <path id="path142" d="M1673.442-1557.4a1.519,1.519,0,0,0-.06-3.035,1.519,1.519,0,0,0,.06,3.035" transform="translate(-1551.469 1592.437)" fill="#fff"/>
  </g>
</svg>
