<svg width="828" height="828" viewBox="0 0 828 828" fill="none" xmlns="http://www.w3.org/2000/svg">
<rect width="827.04" height="827.04" fill="#CCCCCC"/>
<path d="M636.372 604.723C636.029 600.811 635.575 596.911 635.006 593.025C635.005 593.019 632.734 580.413 632.296 578.49C627.245 556.33 613.477 540.081 594.877 527.476C591.398 525.119 587.788 523.074 584.132 521.153C579.314 518.62 506.49 494.688 504.594 494.094C505.042 496.583 505.348 499.338 505.449 502.329C515.589 509.45 545.478 535.15 531.905 583.241C531.905 583.241 510.448 557.663 488.558 554.376C467.709 590.719 432.216 636.724 413.1 648.799C393.984 636.724 358.493 590.719 337.644 554.374C315.752 557.663 294.296 583.239 294.296 583.239C280.723 535.151 310.612 509.45 320.753 502.329C320.854 499.338 321.16 496.583 321.607 494.094C319.711 494.688 246.886 518.62 242.068 521.152C238.414 523.074 234.803 525.118 231.324 527.476C212.723 540.08 198.955 556.328 193.905 578.489C193.466 580.416 191.195 593.021 191.195 593.024C190.627 596.911 190.172 600.812 189.83 604.724C189.815 604.887 188.999 625.245 189 625.362C189 625.362 189.21 634.901 189.328 637.179C189.982 649.832 192.636 661.6 201.872 671.406C213.641 683.897 227.936 689.01 244.701 689.001C300.833 688.976 356.968 688.969 413.1 688.967C469.235 688.969 525.368 688.976 581.5 689.001C598.264 689.011 612.56 683.897 624.329 671.406C633.563 661.6 636.219 649.834 636.872 637.179C636.991 634.901 637.201 625.362 637.201 625.362C637.201 625.245 636.387 604.886 636.372 604.723Z" fill="#F2F2F2"/>
<path d="M281.01 375.851C282.754 382.149 283.869 388.076 283.827 393.703C283.812 395.578 283.669 397.42 283.377 399.23C281.802 404.555 270.581 422.502 268.79 425.518C288.56 446.833 314.744 451.777 340.568 457.218C348.203 458.826 355.987 459.792 364.26 460.863C366.927 461.347 369.614 461.846 372.318 462.361L359.197 500.713C359.197 500.713 358.824 556.675 412.924 590.729H413.263C467.363 556.673 466.99 500.713 466.99 500.713L453.87 462.362C456.574 461.847 459.261 461.349 461.928 460.864C470.201 459.794 477.985 458.826 485.62 457.221C511.444 451.779 537.627 446.834 557.399 425.52C555.608 422.504 544.386 404.556 542.81 399.231C542.518 397.421 542.376 395.579 542.361 393.704C542.318 388.077 543.434 382.151 545.177 375.852C546.834 369.865 548.743 363.907 550.562 357.92C559.303 338.442 564.17 316.817 564.17 294.044C564.17 209.362 496.864 140.552 413.262 139.012V139C413.204 139.001 413.149 139.004 413.092 139.005C413.035 139.004 412.98 139.001 412.923 139V139.01C329.322 140.55 262.016 209.361 262.016 294.042C262.016 316.814 266.883 338.44 275.625 357.919C277.445 363.905 279.354 369.862 281.01 375.851Z" fill="#F2F2F2"/>
</svg>
