<svg width="56" height="30" viewBox="0 0 56 30" fill="none" xmlns="http://www.w3.org/2000/svg">
<path d="M5.53742 20.0744C8.59566 20.0744 11.0748 17.5952 11.0748 14.5369C11.0748 11.4787 8.59566 8.99951 5.53742 8.99951C2.47919 8.99951 0 11.4787 0 14.5369C0 17.5952 2.47919 20.0744 5.53742 20.0744Z" fill="white"/>
<path d="M9.32137 7.59923C9.48539 7.59923 9.64214 7.53843 9.76717 7.43218C11.4993 5.96046 13.7404 5.07068 16.1859 5.07068C18.3349 5.07068 20.3762 5.74393 22.094 7.0187C23.0025 7.69295 24.2769 7.6875 25.0958 6.9072C26.1482 5.90451 26.0167 4.2514 24.9067 3.41475C22.377 1.50774 19.3612 0.5 16.1857 0.5C11.356 0.5 7.07219 2.87462 4.43598 6.51635C4.10956 6.96719 4.43942 7.59943 4.99611 7.59943L9.32137 7.59923Z" fill="white"/>
<path d="M36.1115 10.1204C35.1987 9.24884 33.7522 9.28176 32.8802 10.195C32.4227 10.6741 31.5586 11.7544 30.0707 13.6224C27.7518 16.5337 23.8705 21.406 22.3534 22.6268C20.8681 23.8224 19.0926 24.9289 16.1859 24.9289C13.294 24.9289 10.6889 23.6844 8.8728 21.7047C8.7409 21.5609 8.55729 21.4754 8.36196 21.4754H4.38271C3.84965 21.4754 3.51657 22.0596 3.7937 22.5149C6.33961 26.6986 10.9406 29.4998 16.1857 29.4998C20.5449 29.4998 23.3033 27.7297 25.219 26.1877C26.9865 24.7653 30.081 20.9452 33.6458 16.4701C34.7282 15.1109 35.8477 13.7054 36.1858 13.3515C37.0574 12.4389 37.0243 10.9922 36.1115 10.1204Z" fill="white"/>
<path d="M49.4974 20.9992C52.5556 20.9992 55.0348 18.52 55.0348 15.4617C55.0348 12.4035 52.5556 9.92432 49.4974 9.92432C46.4391 9.92432 43.96 12.4035 43.96 15.4617C43.96 18.52 46.4391 20.9992 49.4974 20.9992Z" fill="#F1B20C"/>
<path d="M45.7137 22.4006C45.5496 22.4006 45.3929 22.4614 45.2679 22.5676C43.5358 24.0394 41.2947 24.9291 38.8491 24.9291C36.7001 24.9291 34.659 24.2559 32.9411 22.9811C32.0325 22.3069 30.7581 22.3123 29.939 23.0928C28.8867 24.0955 29.0182 25.7486 30.1281 26.5853C32.6579 28.4921 35.6736 29.5 38.8491 29.5C43.6788 29.5 47.9626 27.1254 50.5988 23.4835C50.9253 23.0326 50.5954 22.4004 50.0387 22.4004L45.7137 22.4006Z" fill="#F1B20C"/>
<path d="M18.9233 19.8794C19.8361 20.751 21.2825 20.718 22.1545 19.8048C22.612 19.3257 23.4762 18.2454 24.964 16.3774C27.2829 13.4661 31.1642 8.59384 32.6814 7.373C34.1666 6.1774 35.9421 5.07089 38.8488 5.07089C41.7407 5.07089 44.3458 6.31536 46.162 8.29509C46.2939 8.43891 46.4775 8.52435 46.6728 8.52435H50.6518C51.1849 8.52435 51.518 7.94019 51.2409 7.4849C48.6949 3.30123 44.0939 0.5 38.8488 0.5C34.4896 0.5 31.7312 2.27006 29.8155 3.81207C28.0481 5.2345 24.9535 9.05458 21.3888 13.5297C20.3063 14.8889 19.1869 16.2944 18.8487 16.6483C17.9773 17.5609 18.0105 19.0076 18.9233 19.8794Z" fill="#F1B20C"/>
</svg>
