<svg width="828" height="828" viewBox="0 0 828 828" fill="none" xmlns="http://www.w3.org/2000/svg">
<rect width="827.04" height="827.04" fill="#CCCCCC"/>
<path d="M666.579 641.206C666.228 638.817 665.665 636.57 664.893 634.392C659.344 613.041 646.631 574.128 640.872 556.708C640.24 553.688 639.256 550.738 637.991 547.999C637.991 547.929 637.991 547.929 637.991 547.929C634.479 540.343 628.72 534.021 621.626 529.807C621.205 529.526 620.292 529.034 619.098 528.402C618.605 528.191 618.114 527.911 617.621 527.7C603.645 521.097 560.728 503.958 560.728 503.958C539.235 494.688 517.04 486.75 494.352 478.673C490.279 495.53 451.858 607.421 445.748 622.943L440.901 518.99C442.517 516.531 443.641 513.722 444.906 511.053L460.919 479.374C449.611 488.786 432.684 494.756 413.789 494.756C395.316 494.756 378.741 489.067 367.431 480.006L383.165 511.052C384.429 513.721 385.553 516.53 387.169 518.989L382.322 622.942C376.141 607.419 337.65 495.459 333.647 478.602C310.96 486.679 288.764 494.616 267.271 503.887C267.271 503.887 224.355 521.096 210.378 527.628C209.886 527.839 209.394 528.05 208.903 528.331C207.709 528.892 206.796 529.384 206.374 529.735C199.28 534.021 193.52 540.342 190.009 547.927V547.997C188.744 550.737 187.761 553.687 187.129 556.707C181.369 574.126 168.656 612.968 163.107 634.391C162.334 636.569 161.773 638.886 161.421 641.204C161.07 643.241 160.93 645.418 160.93 647.526C160.93 670.423 179.473 688.966 202.371 688.966H241.915C298.527 688.966 355.14 689.037 411.752 688.966C412.525 688.966 413.227 688.966 414 688.966C414.772 688.966 415.475 688.966 416.247 688.966C472.86 688.966 529.472 688.966 586.085 688.966H625.629C648.527 688.966 667.07 670.423 667.07 647.526C667.07 645.42 666.86 643.242 666.579 641.206Z" fill="#F2F2F2"/>
<path d="M522.172 286.15C522.172 278.845 523.576 252.295 523.576 246.184C523.647 186.973 475.603 139 416.391 139C416.32 139 416.251 139 416.181 139C416.11 139 416.039 139 415.969 139C415.267 139 414.635 139 413.932 139C413.23 139 412.598 139 411.896 139C411.825 139 411.756 139 411.685 139C411.614 139 411.545 139 411.474 139C352.263 139 304.219 187.043 304.219 246.255C304.219 252.365 305.624 278.845 305.624 286.22C303.025 286.361 279.004 280.601 281.603 309.329C287.081 370.296 310.33 358.496 311.033 358.496C322.481 395.231 340.252 418.691 357.671 433.651C384.853 456.971 411.193 459.499 411.684 459.499C412.457 459.499 413.16 459.57 413.932 459.57C414.634 459.57 415.407 459.57 416.18 459.499C416.601 459.499 442.8 456.971 469.842 433.933C487.33 419.042 505.241 395.512 516.761 358.497C517.463 358.497 540.712 370.297 546.191 309.33C548.791 280.531 524.77 286.291 522.172 286.15Z" fill="#F2F2F2"/>
</svg>
