<svg width="24" height="24" viewBox="0 0 24 24" fill="none" xmlns="http://www.w3.org/2000/svg">
<path d="M21 24H4.875C4.77554 24 4.68016 23.9605 4.60984 23.8902C4.53951 23.8198 4.5 23.7245 4.5 23.625V0.375C4.5 0.275544 4.53951 0.180161 4.60984 0.109835C4.68016 0.0395088 4.77554 0 4.875 0L17.1232 0C17.2227 2.1239e-05 17.3181 0.039544 17.3884 0.109875L21.2651 3.98662C21.3355 4.05693 21.375 4.1523 21.375 4.25175V23.625C21.375 23.7245 21.3355 23.8198 21.2652 23.8902C21.1948 23.9605 21.0995 24 21 24Z" fill="url(#paint0_linear_2223_19993)"/>
<path d="M2.625 12.3548L4.125 11.6921L5.172 13.299H2.625V12.3548Z" fill="url(#paint1_linear_2223_19993)"/>
<path d="M20.625 24H4.5C4.40054 24 4.30516 23.9605 4.23484 23.8902C4.16451 23.8198 4.125 23.7245 4.125 23.625V0.375C4.125 0.275544 4.16451 0.180161 4.23484 0.109835C4.30516 0.0395088 4.40054 0 4.5 0L16.9035 0L21 4.0965V23.625C21 23.7245 20.9605 23.8198 20.8902 23.8902C20.8198 23.9605 20.7245 24 20.625 24Z" fill="url(#paint2_linear_2223_19993)"/>
<path d="M16.9036 0V3.7215C16.9036 3.82096 16.9431 3.91634 17.0134 3.98666C17.0837 4.05699 17.1791 4.0965 17.2786 4.0965H21.0001L19.1626 1.884L16.9036 0Z" fill="url(#paint3_linear_2223_19993)"/>
<path d="M17.2582 19.6875H3.28875C3.20157 19.6876 3.11524 19.6704 3.03469 19.6371C2.95413 19.6037 2.88094 19.5549 2.8193 19.4932C2.75765 19.4316 2.70876 19.3584 2.67542 19.2778C2.64209 19.1973 2.62495 19.1109 2.625 19.0238V13.0178H17.2582C17.4343 13.0179 17.603 13.0878 17.7275 13.2123C17.8519 13.3367 17.9219 13.5055 17.922 13.6815V19.0238C17.922 19.1998 17.8521 19.3686 17.7276 19.4931C17.6031 19.6176 17.4343 19.6875 17.2582 19.6875Z" fill="url(#paint4_linear_2223_19993)"/>
<path d="M4.125 11.6921H3.288C3.20095 11.6921 3.11475 11.7092 3.03431 11.7425C2.95387 11.7757 2.88078 11.8245 2.81921 11.8861C2.75764 11.9476 2.7088 12.0207 2.67548 12.1011C2.64215 12.1815 2.625 12.2677 2.625 12.3548C2.62495 12.4418 2.64207 12.5281 2.67537 12.6085C2.70867 12.689 2.7575 12.7621 2.81908 12.8237C2.88065 12.8853 2.95376 12.9341 3.03422 12.9674C3.11468 13.0007 3.20092 13.0178 3.288 13.0178H4.125V11.6921Z" fill="url(#paint5_linear_2223_19993)"/>
<path d="M5.625 17.6381V15.0679C5.62495 15.0251 5.63333 14.9828 5.64967 14.9432C5.66601 14.9037 5.68997 14.8678 5.7202 14.8375C5.75043 14.8072 5.78633 14.7832 5.82585 14.7668C5.86537 14.7505 5.90772 14.742 5.9505 14.742C6.44814 14.7229 6.94652 14.7391 7.44187 14.7904C7.64232 14.8486 7.81653 14.9741 7.93508 15.1459C8.05363 15.3177 8.10923 15.5251 8.0925 15.7331C8.10729 15.9537 8.04312 16.1723 7.91148 16.3498C7.77984 16.5273 7.58931 16.6522 7.374 16.7021C7.04418 16.7416 6.71193 16.757 6.37988 16.7483C6.35213 16.7483 6.32552 16.7593 6.30589 16.7789C6.28627 16.7985 6.27525 16.8251 6.27525 16.8529V17.6381C6.27525 17.6808 6.26684 17.7231 6.2505 17.7626C6.23416 17.802 6.21021 17.8379 6.18002 17.868C6.14983 17.8982 6.11399 17.9222 6.07454 17.9385C6.0351 17.9549 5.99282 17.9633 5.95013 17.9633C5.8639 17.9633 5.7812 17.929 5.72023 17.868C5.65925 17.8071 5.625 17.7244 5.625 17.6381ZM6.27525 15.3919V16.0965C6.27525 16.1243 6.28627 16.1509 6.30589 16.1705C6.32552 16.1901 6.35213 16.2011 6.37988 16.2011C6.63612 16.2188 6.89357 16.2018 7.14525 16.1505C7.23425 16.1151 7.30926 16.0516 7.35885 15.9697C7.40844 15.8877 7.4299 15.7918 7.41996 15.6965C7.41003 15.6013 7.36924 15.5119 7.30381 15.4419C7.23838 15.372 7.15189 15.3253 7.0575 15.309C6.83218 15.2896 6.60598 15.2822 6.37988 15.2869C6.36614 15.2869 6.35254 15.2897 6.33987 15.295C6.32719 15.3003 6.31568 15.3081 6.306 15.3178C6.29632 15.3276 6.28866 15.3391 6.28345 15.3518C6.27823 15.3645 6.27558 15.3782 6.27563 15.3919H6.27525Z" fill="white"/>
<path d="M8.625 15.0679C8.62495 15.0251 8.63333 14.9827 8.64967 14.9432C8.66601 14.9037 8.68997 14.8677 8.7202 14.8375C8.75043 14.8072 8.78633 14.7832 8.82585 14.7668C8.86537 14.7504 8.90772 14.742 8.9505 14.742C9.44331 14.7126 9.93784 14.7332 10.4265 14.8035C10.6156 14.8647 10.7869 14.9713 10.9252 15.114C11.0635 15.2567 11.1648 15.4312 11.22 15.6221C11.2961 15.8685 11.3317 16.1256 11.3254 16.3834C11.3303 16.6158 11.2969 16.8474 11.2264 17.0689C11.1747 17.2636 11.0737 17.4418 10.9333 17.5863C10.7928 17.7308 10.6175 17.8367 10.4243 17.8939C9.93624 17.9629 9.4428 17.9858 8.9505 17.9621C8.86437 17.9621 8.78174 17.928 8.72073 17.8672C8.65972 17.8064 8.6253 17.7239 8.625 17.6377V15.0679ZM9.27525 15.3919V17.316C9.27525 17.3437 9.28627 17.3704 9.30589 17.39C9.32552 17.4096 9.35213 17.4206 9.37988 17.4206C9.63839 17.4349 9.89768 17.4246 10.1542 17.3899C10.2625 17.3671 10.3614 17.3126 10.4385 17.2333C10.5156 17.154 10.5673 17.0536 10.587 16.9447C10.6368 16.7522 10.659 16.5536 10.653 16.3549C10.6599 16.1615 10.6377 15.9682 10.587 15.7815C10.5586 15.6657 10.4975 15.5604 10.4111 15.4782C10.3247 15.396 10.2166 15.3403 10.0995 15.3176C9.85996 15.2913 9.61892 15.281 9.378 15.2869C9.35045 15.2873 9.32416 15.2985 9.30486 15.3182C9.28555 15.3378 9.27515 15.3643 9.27525 15.3919Z" fill="white"/>
<path d="M11.8809 17.6381V15.0679C11.8809 14.9815 11.9152 14.8986 11.9763 14.8375C12.0374 14.7763 12.1203 14.742 12.2067 14.742H13.8166C13.8889 14.742 13.9583 14.7707 14.0094 14.8219C14.0605 14.873 14.0892 14.9423 14.0892 15.0146C14.0892 15.0504 14.0822 15.0858 14.0685 15.1189C14.0548 15.152 14.0347 15.182 14.0094 15.2073C13.984 15.2326 13.954 15.2526 13.9209 15.2663C13.8878 15.2799 13.8524 15.2869 13.8166 15.2869H12.6376C12.6238 15.2869 12.6102 15.2896 12.5975 15.2949C12.5848 15.3002 12.5732 15.3079 12.5635 15.3177C12.5538 15.3274 12.5461 15.339 12.5408 15.3517C12.5356 15.3645 12.5329 15.3781 12.533 15.3919V15.9446C12.5329 15.9584 12.5356 15.972 12.5408 15.9848C12.5461 15.9975 12.5538 16.0091 12.5635 16.0189C12.5732 16.0286 12.5848 16.0363 12.5975 16.0416C12.6102 16.0469 12.6238 16.0496 12.6376 16.0496H13.6051C13.6773 16.0496 13.7466 16.0783 13.7978 16.1293C13.8489 16.1804 13.8776 16.2496 13.8777 16.3219C13.8776 16.3942 13.8489 16.4634 13.7978 16.5145C13.7467 16.5656 13.6774 16.5944 13.6051 16.5945H12.6376C12.6239 16.5945 12.6103 16.5972 12.5976 16.6025C12.5849 16.6077 12.5733 16.6154 12.5636 16.6251C12.5539 16.6349 12.5462 16.6464 12.5409 16.6591C12.5357 16.6718 12.533 16.6854 12.533 16.6991V17.6366C12.5329 17.7229 12.4985 17.8056 12.4375 17.8666C12.3765 17.9275 12.2937 17.9618 12.2075 17.9618C12.1648 17.962 12.1225 17.9537 12.083 17.9376C12.0434 17.9214 12.0075 17.8976 11.9771 17.8676C11.9468 17.8375 11.9227 17.8018 11.9062 17.7624C11.8897 17.7231 11.8811 17.6808 11.8809 17.6381Z" fill="white"/>
<defs>
<linearGradient id="paint0_linear_2223_19993" x1="12.9375" y1="-11.9951" x2="12.9375" y2="-11.0329" gradientUnits="userSpaceOnUse">
<stop stop-color="#F3F7FF"/>
<stop offset="0.99" stop-color="#D8E7FF"/>
</linearGradient>
<linearGradient id="paint1_linear_2223_19993" x1="3.8985" y1="11.4184" x2="3.8985" y2="44.8871" gradientUnits="userSpaceOnUse">
<stop stop-color="#FF5252"/>
<stop offset="1" stop-color="#D50000"/>
</linearGradient>
<linearGradient id="paint2_linear_2223_19993" x1="12.5625" y1="-2.03587" x2="12.5625" y2="57.7414" gradientUnits="userSpaceOnUse">
<stop stop-color="#F8F8F8"/>
<stop offset="0.99" stop-color="#D8E7FF"/>
</linearGradient>
<linearGradient id="paint3_linear_2223_19993" x1="18.9518" y1="-8.78588" x2="18.9518" y2="-1.49963" gradientUnits="userSpaceOnUse">
<stop stop-color="white"/>
<stop offset="0.99" stop-color="#DAE8FF"/>
</linearGradient>
<linearGradient id="paint4_linear_2223_19993" x1="10.2735" y1="12.1943" x2="10.2735" y2="31.857" gradientUnits="userSpaceOnUse">
<stop stop-color="#FF5F5F"/>
<stop offset="1" stop-color="#F42E2E"/>
</linearGradient>
<linearGradient id="paint5_linear_2223_19993" x1="3.375" y1="6.12039" x2="3.375" y2="16.3725" gradientUnits="userSpaceOnUse">
<stop stop-color="#FF8585"/>
<stop offset="1" stop-color="#F32E2E"/>
</linearGradient>
</defs>
</svg>
