<svg width="137" height="100" viewBox="0 0 137 100" fill="none" xmlns="http://www.w3.org/2000/svg">
	<path d="M124.382 0H12.6176C6.12014 0 0.852905 5.26724 0.852905 11.7647V88.2353C0.852905 94.7328 6.12014 100 12.6176 100H124.382C130.88 100 136.147 94.7328 136.147 88.2353V11.7647C136.147 5.26724 130.88 0 124.382 0Z" fill="#EFF3F9" />
	<path d="M133.206 91.1762H15.5588C12.3088 91.1762 9.67643 88.5439 9.67643 85.2939V2.94091C9.67643 2.03503 9.79996 1.16444 9.99408 0.317383C4.76467 1.5115 0.852905 6.17327 0.852905 11.7644V88.235C0.852905 94.7321 6.12055 99.9997 12.6176 99.9997H124.382C129.973 99.9997 134.635 96.088 135.829 90.8586C134.982 91.0527 134.112 91.1762 133.206 91.1762Z" fill="#CFE0F3" />
	<path d="M0.852905 17.6471V11.7647C0.852905 5.26765 6.12055 0 12.6176 0H124.382C130.879 0 136.147 5.26765 136.147 11.7647V17.6471H0.852905Z" fill="#0CA0F2" />
	<path d="M9.67644 2.94091C9.67644 2.03503 9.79996 1.16444 9.99408 0.317383C4.76467 1.5115 0.852905 6.17326 0.852905 11.7644V17.6468H9.67644V2.94091Z" fill="#0588E2" />
	<path d="M53.7935 29.4116H24.3817C21.133 29.4116 18.4994 32.0452 18.4994 35.294V76.4704C18.4994 79.7192 21.133 82.3528 24.3817 82.3528H53.7935C57.0422 82.3528 59.6759 79.7192 59.6759 76.4704V35.294C59.6759 32.0452 57.0422 29.4116 53.7935 29.4116Z" fill="#CFE0F3" />
	<path d="M39.0859 61.7645C29.3388 61.7645 21.4388 69.6645 21.4388 79.4116C21.4388 80.1616 21.5006 80.8939 21.5918 81.6204C22.4241 82.0733 23.3653 82.3528 24.38 82.3528H53.7918C54.8065 82.3528 55.7477 82.0733 56.58 81.6204C56.6712 80.8939 56.733 80.1616 56.733 79.4116C56.733 69.6645 48.833 61.7645 39.0859 61.7645Z" fill="#7EAFD0" />
	<path d="M39.0865 61.7644C44.7718 61.7644 49.3806 57.1556 49.3806 51.4703C49.3806 45.785 44.7718 41.1761 39.0865 41.1761C33.4012 41.1761 28.7924 45.785 28.7924 51.4703C28.7924 57.1556 33.4012 61.7644 39.0865 61.7644Z" fill="#7EAFD0" />
	<path d="M106.735 32.3521H77.3234C75.699 32.3521 74.3822 33.6689 74.3822 35.2932C74.3822 36.9176 75.699 38.2344 77.3234 38.2344H106.735C108.36 38.2344 109.676 36.9176 109.676 35.2932C109.676 33.6689 108.36 32.3521 106.735 32.3521Z" fill="#AECEE8" />
	<path d="M115.559 49.9991H77.3234C75.699 49.9991 74.3822 51.316 74.3822 52.9403C74.3822 54.5647 75.699 55.8815 77.3234 55.8815H115.559C117.183 55.8815 118.5 54.5647 118.5 52.9403C118.5 51.316 117.183 49.9991 115.559 49.9991Z" fill="#AECEE8" />
	<path d="M109.676 61.7637H77.3234C75.699 61.7637 74.3822 63.0805 74.3822 64.7048C74.3822 66.3292 75.699 67.646 77.3234 67.646H109.676C111.301 67.646 112.617 66.3292 112.617 64.7048C112.617 63.0805 111.301 61.7637 109.676 61.7637Z" fill="#AECEE8" />
	<path d="M115.559 73.5288H77.3234C75.699 73.5288 74.3822 74.8456 74.3822 76.47C74.3822 78.0944 75.699 79.4112 77.3234 79.4112H115.559C117.183 79.4112 118.5 78.0944 118.5 76.47C118.5 74.8456 117.183 73.5288 115.559 73.5288Z" fill="#AECEE8" />
</svg>
