<svg width="253" height="208" viewBox="0 0 253 208" fill="none" xmlns="http://www.w3.org/2000/svg">
	<path d="M220.856 87.2582C221.148 90.3457 220.651 93.0866 220.156 95.9016C219.998 96.7992 219.798 97.6873 219.555 98.5627C219.445 98.9571 219.336 99.3441 219.227 99.7322C217.819 104.739 215.081 109.297 211.12 112.99C210.994 113.108 210.866 113.225 210.737 113.342C206.936 116.733 202.793 119.773 197.789 122.048C192.843 124.549 187.52 126.628 181.986 128.687C181.277 128.95 180.581 129.234 179.898 129.535C177.708 130.498 175.663 131.414 173.793 132.564C166.104 136.831 161.837 143.201 159.155 150.355C157.814 153.931 156.861 157.697 156.051 161.483C155.976 191.247 122.967 213.018 86.932 206.994C85.5097 206.71 84.341 206.225 82.966 205.812C78.5702 204.333 74.5694 202.265 71.0107 199.479C64.9958 194.697 61.5301 188.958 58.9901 182.836C58.1435 180.796 57.3997 178.713 56.6985 176.608C54.6575 170.329 52.9829 163.62 47.2493 158.683C38.6489 151.277 27.5372 147.79 17.2662 141.761C1.00467 132.232 2.12535 114.203 13.7333 105.048C15.554 103.506 17.3836 102.186 19.2585 100.734C28.9704 93.8245 42.2195 93.1864 54.8276 90.8655C62.2937 89.3507 68.9596 86.097 71.9081 80.0013C78.2644 67.5352 82.4682 54.819 92.6356 44.8051C94.0423 43.2929 95.5186 41.8323 97.0659 40.4393C101.708 36.2601 106.987 32.6892 112.938 30.1591C115.319 29.1471 117.806 28.3015 120.404 27.6503C148.397 19.6201 184.837 27.9715 203.611 52.2235C207.024 56.633 210.231 61.1153 212.82 65.8161C214.906 69.6839 216.832 73.4956 218.355 77.6745C218.773 78.9871 219.237 80.1706 219.629 81.4798C220.277 83.6092 220.694 85.5506 220.856 87.2582ZM74.977 53.47C74.9866 50.0604 73.5651 47.0645 70.6721 45.3059C67.7791 43.5473 63.9432 43.3666 60.121 44.4802C56.2989 45.5937 52.5308 47.9893 49.7665 51.3856C47.0022 54.7818 45.7518 58.54 45.9255 61.8853C46.0992 65.2306 47.6712 68.1704 50.5628 69.927C53.4544 71.6835 57.1197 71.9243 60.7463 70.8793C64.3729 69.8344 67.9897 67.4952 70.7703 64.0957C73.551 60.6962 74.9675 56.8797 74.977 53.47ZM187.522 142.382C179.574 141.712 170.856 145.065 167.958 150.942C166.686 153.571 166.746 156.447 168.441 158.941C170.135 161.435 173.15 163.077 176.664 163.723C180.177 164.369 184.213 164.005 188.003 162.409C195.158 159.435 199.699 152.4 196.304 146.742C194.625 144.185 191.353 142.738 187.522 142.382Z" fill="#FFCF3D" fill-opacity="0.15" />
	<path d="M58.5812 148.068C58.0996 149.613 56.273 150.38 54.6582 150.281C53.0392 150.181 51.5447 149.438 50.0212 148.886C48.5018 148.334 46.779 147.968 45.2887 148.608C43.8607 149.226 42.935 150.671 42.5032 152.17L41.3699 147.778C42.416 144.751 45.0728 142.344 48.1863 141.596C51.2956 140.849 54.7579 141.791 57.0661 144.008C58.1619 145.063 59.0378 146.615 58.5812 148.068Z" fill="#71C687" />
	<path d="M29.6958 158.662C27.3239 156.409 27.4424 152.487 28.6255 149.437C29.8086 146.387 32.391 144.045 35.2754 142.501C40.8667 139.509 47.8561 139.282 53.6293 141.906C50.7924 142 48.05 143.61 46.5858 146.042C45.2859 148.201 44.9971 150.821 43.9233 153.1C42.7271 155.64 40.5314 157.692 37.9168 158.714C35.3026 159.736 32.2972 159.717 29.6958 158.662Z" fill="#7CD194" />
	<path d="M28.5556 145.125C25.9298 142.026 25.58 137.05 25.9668 133.006C26.3535 128.962 27.291 124.891 26.6531 120.879C26.2752 118.502 25.353 116.233 25.0415 113.846C24.7299 111.46 25.1716 108.761 27.0207 107.221C29.1463 105.45 32.493 105.868 34.704 107.53C36.9149 109.193 38.1959 111.804 39.1321 114.407C41.1886 120.126 41.9438 126.468 40.2542 132.306C38.5646 138.143 34.6002 143.363 28.7838 145.125" fill="#7CD194" />
	<path d="M27.2931 170.641C27.2015 170.639 27.2015 170.614 27.2023 170.201L27.2039 170.008C27.2055 169.79 27.2072 169.509 27.2218 169.173C27.2522 168.37 27.3325 167.066 27.5408 165.412C27.7772 163.55 28.1169 161.697 28.5515 159.905C29.0599 157.775 29.9303 155.566 31.0687 153.519C32.1576 151.567 33.5412 149.717 35.1814 148.021C36.4888 146.672 37.9394 145.465 39.4929 144.436C40.0118 144.077 40.5242 143.782 40.9766 143.522L41.3334 143.316C41.8977 143.02 42.3874 142.778 42.7888 142.584L43.7374 142.185C44.0606 142.054 44.0796 142.054 44.1019 142.054H44.1582L44.1814 142.107C44.2151 142.189 44.1931 142.199 43.823 142.377L42.8962 142.811C42.5066 143.013 42.0254 143.265 41.474 143.567L41.0897 143.798C40.6567 144.056 40.1662 144.349 39.6728 144.7C38.1448 145.74 36.7231 146.943 35.4449 148.275C33.8342 149.958 32.4741 151.785 31.403 153.706C29.0265 157.864 28.3612 162.183 27.876 165.337L27.8574 165.455C27.6835 166.712 27.5537 167.968 27.4723 169.187L27.4119 170.207C27.3863 170.617 27.3851 170.641 27.2955 170.641L27.2931 170.641Z" fill="#61BA76" />
	<path d="M27.2954 170.558C27.288 170.558 27.2847 170.435 27.2855 170.201C27.2887 169.967 27.2855 169.621 27.3049 169.177C27.3385 168.288 27.4241 167.002 27.6232 165.422C27.8233 163.844 28.1358 161.972 28.6322 159.925C29.1214 157.874 29.9578 155.687 31.141 153.56C32.3281 151.431 33.7761 149.593 35.2407 148.079C36.7092 146.564 38.2115 145.385 39.5386 144.505C40.1946 144.051 40.8291 143.707 41.3752 143.388C41.9353 143.094 42.4242 142.853 42.8246 142.659C43.2208 142.493 43.5356 142.36 43.7695 142.262C43.9862 142.174 44.1014 142.13 44.1042 142.137C44.1071 142.144 43.9975 142.201 43.7867 142.302C43.5576 142.41 43.2492 142.554 42.8611 142.736C42.4676 142.94 41.9862 143.192 41.4345 143.494C40.8966 143.822 40.2711 144.173 39.6245 144.632C38.3161 145.523 36.8345 146.706 35.385 148.218C33.9391 149.729 32.5079 151.555 31.3307 153.666C28.9164 157.889 28.2552 162.33 27.7757 165.443C27.5577 167.015 27.449 168.295 27.3895 169.181C27.3644 169.609 27.3443 169.949 27.3294 170.202C27.3144 170.436 27.303 170.558 27.2954 170.558Z" fill="#61BA76" />
	<path d="M4.64723 132.895L15.9429 137.142C14.9507 137.021 13.8714 137.37 13.0411 137.968C11.829 138.844 11.0195 140.152 10.1518 141.372C9.28831 142.592 8.27545 143.809 6.88052 144.34C4.40636 145.282 1.42578 143.535 0.612112 141.015C-0.197366 138.495 -0.213983 135.83 4.64723 132.895Z" fill="#71C687" />
	<path d="M15.9429 137.142C16.3995 137.196 16.8395 137.35 17.2256 137.624L15.9429 137.142Z" fill="#71C687" />
	<path d="M1.00781 136.111C2.278 134.356 5.41649 133.847 7.39827 134.723C9.38004 135.599 10.8317 137.336 12.131 139.07C13.4303 140.804 14.695 142.635 16.4948 143.841C18.2945 145.048 20.8088 145.485 22.6025 144.269C23.7807 143.471 24.4636 142.084 24.6774 140.677C24.8911 139.27 24.6851 137.833 24.392 136.44C23.9634 134.403 23.2633 132.275 21.6327 130.98C19.8154 129.537 17.2938 129.469 14.9745 129.545C12.3133 129.632 9.61237 129.831 7.11462 130.754C4.61679 131.676 2.06802 133.669 1.00781 136.111Z" fill="#7CD194" />
	<path d="M23.2572 166.75C23.1741 166.75 23.1689 166.677 23.1616 166.566L23.1446 166.251L23.1028 165.044L22.9755 160.609C22.9135 158.628 22.8377 156.461 22.7056 154.038C22.5665 151.556 22.3861 148.868 22.0095 146.028C21.8287 144.691 21.6065 143.274 21.2072 141.97C20.8488 140.805 20.3636 139.644 19.7243 138.421C19.1514 137.339 18.5223 136.351 17.8537 135.485C17.2152 134.665 16.5281 133.911 15.8113 133.243C14.4176 131.969 13.0757 131.199 12.196 130.778C12.1072 130.738 12.0217 130.697 11.9402 130.658C11.8076 130.594 11.6848 130.536 11.5705 130.489L11.097 130.306L10.8051 130.188C10.6985 130.142 10.6349 130.115 10.6608 130.037L10.6794 129.98L10.7418 129.979C10.7572 129.979 10.7751 129.982 10.8675 130.01L11.1676 130.108L11.6524 130.274C11.7797 130.32 11.9138 130.38 12.0602 130.445L12.2998 130.55C13.1985 130.953 14.5733 131.705 16.0271 133.007C16.7641 133.679 17.4707 134.441 18.1271 135.272C18.813 136.148 19.4597 137.149 20.0483 138.25C20.7026 139.489 21.2 140.669 21.5697 141.857C21.9816 143.196 22.2071 144.628 22.3895 145.976C22.7738 148.877 22.9502 151.67 23.0718 154.019C23.2024 156.627 23.2599 158.906 23.2956 160.6C23.335 162.547 23.3491 164.089 23.354 165.039L23.3547 166.246L23.3499 166.561C23.3456 166.676 23.3432 166.75 23.2572 166.75Z" fill="#61BA76" />
	<path d="M23.2571 166.667C23.2534 166.667 23.2491 166.631 23.2441 166.56C23.2397 166.477 23.2343 166.374 23.2277 166.247C23.2175 165.954 23.2034 165.551 23.1857 165.041C23.1552 163.975 23.1118 162.465 23.0584 160.606C22.9996 158.734 22.9232 156.505 22.7882 154.033C22.6497 151.563 22.4664 148.845 22.0915 146.017C21.9008 144.605 21.6776 143.224 21.2865 141.945C20.8926 140.666 20.368 139.474 19.7976 138.383C19.2214 137.293 18.5895 136.302 17.9192 135.434C17.2456 134.569 16.5504 133.818 15.8681 133.182C14.4895 131.922 13.1705 131.152 12.2316 130.703C11.9942 130.595 11.7875 130.488 11.6013 130.412C11.418 130.341 11.2602 130.28 11.1268 130.228C11.009 130.18 10.9133 130.142 10.836 130.11C10.7708 130.083 10.7379 130.067 10.739 130.063C10.7402 130.06 10.7753 130.069 10.843 130.089C10.9223 130.115 11.0205 130.147 11.1415 130.187C11.2776 130.233 11.4385 130.288 11.6254 130.352C11.8152 130.422 12.0257 130.523 12.2673 130.626C13.223 131.055 14.5666 131.811 15.9715 133.069C16.667 133.703 17.3756 134.455 18.0616 135.324C18.7446 136.195 19.3882 137.192 19.9746 138.289C20.5556 139.389 21.0877 140.586 21.4899 141.882C21.8905 143.183 22.1151 144.569 22.3069 145.987C22.6833 148.827 22.8604 151.548 22.9883 154.023C23.1124 156.498 23.1729 158.729 23.2121 160.602C23.2503 162.475 23.2652 163.991 23.2704 165.039C23.271 165.55 23.2713 165.953 23.2716 166.246C23.2695 166.373 23.2678 166.476 23.2665 166.56C23.264 166.631 23.2609 166.667 23.2571 166.667Z" fill="#61BA76" />
	<path d="M24.9272 168.892C24.9248 168.885 24.6503 168.148 24.3917 166.792C24.161 165.55 23.9348 163.522 24.1679 160.907C24.3742 158.442 25.016 155.495 26.023 152.384C26.5131 150.848 27.0823 149.277 27.6856 147.614C28.303 145.911 28.9419 144.149 29.5297 142.323C30.1617 140.342 30.617 138.604 30.9227 137.009C31.2341 135.402 31.459 133.744 31.6107 131.938C31.8859 128.637 31.8434 125.7 31.7647 123.262C31.693 121.134 31.5843 119.335 31.5049 118.021L31.3739 115.814L31.3541 115.398C31.3492 115.234 31.3476 115.179 31.4287 115.17C31.429 115.17 31.4294 115.17 31.4299 115.17C31.5179 115.17 31.524 115.224 31.5418 115.383L31.5831 115.798L31.7177 117.388C31.8219 118.722 31.9793 120.737 32.0846 123.25C32.1758 125.537 32.246 128.594 31.9755 131.968C31.8296 133.785 31.607 135.457 31.2944 137.081C30.9888 138.693 30.5311 140.446 29.895 142.439C29.2906 144.317 28.6338 146.119 27.9989 147.861C27.4095 149.478 26.8529 151.005 26.3717 152.497C25.3618 155.581 24.7099 158.5 24.4861 160.936C24.2384 163.492 24.4318 165.507 24.6381 166.748C24.7585 167.434 24.8676 167.956 24.9612 168.298L25.0593 168.704C25.095 168.858 25.1084 168.916 25.0314 168.942L24.9556 168.967L24.9272 168.892Z" fill="#61BA76" />
	<path d="M25.0054 168.863C25.0054 168.863 24.7336 168.141 24.4733 166.776C24.2202 165.413 24.0301 163.392 24.2507 160.914C24.4583 158.437 25.0922 155.53 26.1022 152.409C27.0992 149.284 28.4529 145.941 29.6092 142.348C30.1828 140.55 30.6701 138.771 31.0044 137.025C31.343 135.279 31.5572 133.574 31.6936 131.945C31.9658 128.685 31.9274 125.732 31.8483 123.259C31.7644 120.785 31.6328 118.784 31.5508 117.401C31.5107 116.72 31.4792 116.187 31.457 115.809C31.449 115.636 31.4425 115.499 31.4376 115.394C31.4344 115.301 31.4347 115.253 31.4384 115.252C31.4422 115.252 31.4494 115.3 31.4598 115.393C31.4702 115.497 31.4837 115.633 31.5007 115.806C31.5326 116.183 31.5777 116.716 31.6353 117.395C31.7432 118.777 31.8983 120.776 32.0019 123.253C32.1008 125.729 32.1554 128.689 31.8931 131.962C31.7618 133.597 31.551 135.31 31.2134 137.065C30.8802 138.822 30.3916 140.611 29.8163 142.414C28.6561 146.019 27.2973 149.357 26.2928 152.471C25.2756 155.579 24.6299 158.467 24.4039 160.928C24.1649 163.39 24.3305 165.4 24.5568 166.762C24.6761 167.442 24.7852 167.969 24.8811 168.32C24.922 168.488 24.9544 168.621 24.9792 168.723C25.0001 168.814 25.009 168.862 25.0054 168.863Z" fill="#61BA76" />
	<path d="M15.0188 165.015L18.2433 179.907H32.2574L35.2742 165.015H15.0188Z" fill="#D1DCF8" />
	<path d="M36.5926 165.58H13.539C12.8046 165.58 12.1863 165.031 12.0997 164.302L11.8548 162.236C11.7525 161.374 12.4259 160.616 13.294 160.616H36.5926C37.3931 160.616 38.0419 161.265 38.0419 162.066V164.131C38.0419 164.931 37.3931 165.58 36.5926 165.58Z" fill="#E4ECF9" />
	<path d="M196.922 87.1717L121.13 156.87L45.345 87.1717L114.512 38.4365C118.481 35.6398 123.78 35.6396 127.749 38.4362L196.922 87.1717Z" fill="#FFD964" />
	<path d="M183.558 156.87H58.7043V64.0573C58.7043 60.8074 61.339 58.1729 64.5888 58.1729H177.673C180.923 58.1729 183.558 60.8075 183.558 64.0573V156.87Z" fill="#F3F6FD" />
	<path d="M176.627 91.4346C176.627 91.8756 176.449 92.2737 176.158 92.5583C175.873 92.8498 175.475 93.0275 175.034 93.0275H71.9916C71.1099 93.0275 70.3916 92.3093 70.3916 91.4346C70.3916 90.9936 70.5694 90.5955 70.8609 90.304C71.1525 90.0123 71.5507 89.8345 71.9917 89.8345H175.034C175.916 89.8346 176.627 90.5528 176.627 91.4346Z" fill="#D1DCF8" />
	<path d="M148.474 102.464C148.474 102.905 148.296 103.303 148.004 103.595C147.713 103.879 147.314 104.057 146.874 104.057H100.693C99.8181 104.057 99.0999 103.346 99.0999 102.464C99.0999 102.023 99.2776 101.625 99.5692 101.333C99.8537 101.042 100.252 100.864 100.693 100.864H146.874C147.755 100.864 148.474 101.582 148.474 102.464Z" fill="#D1DCF8" />
	<path d="M176.627 80.3976C176.627 80.8386 176.449 81.2369 176.158 81.5283C175.873 81.8198 175.475 81.9976 175.034 81.9976H71.9916C71.1099 81.9976 70.3916 81.2794 70.3916 80.3976C70.3916 79.9566 70.5694 79.5586 70.8609 79.274C71.1525 78.9825 71.5507 78.8047 71.9917 78.8047H175.034C175.916 78.8047 176.627 79.5158 176.627 80.3976Z" fill="#D1DCF8" />
	<path d="M70.3916 69.3679C70.3916 68.927 70.5694 68.5288 70.8609 68.2371C71.1525 67.9527 71.5507 67.7749 71.9917 67.7749H175.034C175.916 67.7749 176.627 68.486 176.627 69.3679C176.627 69.8088 176.45 70.2069 176.158 70.4986C175.874 70.783 175.475 70.9608 175.034 70.9608H71.9916C71.1099 70.9607 70.3916 70.2496 70.3916 69.3679Z" fill="#D1DCF8" />
	<path d="M196.92 87.1768V172.363C196.92 176.637 193.456 180.1 189.183 180.1H53.0794C48.8055 180.1 45.3423 176.637 45.3423 172.363V87.1768L121.134 139.534L196.92 87.1768Z" fill="#FFCF3D" />
	<path d="M121.134 139.534L69.0842 180.1L112.599 133.638L121.134 139.534Z" fill="#FCC230" />
	<path d="M211.93 6.945C211.962 6.61299 212.611 6.38462 213.882 6.39176L217.075 6.75955C218.314 7.04156 218.896 7.41199 218.854 7.75114C218.811 8.09028 218.156 8.30973 216.892 8.31167L213.72 7.94605C212.487 7.65643 211.897 7.29354 211.93 6.945Z" fill="#BBCAEA" />
	<path d="M198.014 6.8754C197.972 6.54813 198.558 6.15752 199.826 5.91315C200.908 5.82481 201.992 5.77474 203.075 5.75635C204.355 5.87504 204.977 6.19626 204.971 6.53517C204.966 6.87959 204.34 7.15314 203.102 7.31887C202.049 7.3368 200.999 7.3854 199.952 7.47079C198.707 7.42716 198.059 7.22595 198.014 6.8754Z" fill="#BBCAEA" />
	<path d="M184.922 11.356C184.745 11.0803 185.108 10.4674 186.184 9.72572C187.151 9.20462 188.147 8.73996 189.163 8.32963C190.417 7.97651 191.117 8.08045 191.223 8.40004C191.332 8.72894 190.833 9.186 189.749 9.77836C188.784 10.1683 187.84 10.6091 186.925 11.1019C185.78 11.5561 185.113 11.6557 184.922 11.356Z" fill="#BBCAEA" />
	<path d="M176.142 21.8708C175.829 21.7585 175.803 21.0753 176.218 19.8173C176.634 18.7869 177.223 17.8332 177.856 16.9222C178.729 15.9305 179.396 15.6638 179.648 15.8823C179.913 16.1098 179.713 16.7503 179.135 17.8196C178.551 18.6619 178.009 19.536 177.627 20.4921C177 21.5312 176.471 21.989 176.142 21.8708Z" fill="#BBCAEA" />
	<path d="M175.077 35.6381C174.75 35.6866 174.362 35.1085 174.08 33.8413C173.977 32.7543 173.921 31.6615 173.923 30.5667C174.067 29.2731 174.43 28.6622 174.765 28.6862C175.112 28.7102 175.344 29.343 175.486 30.5689C175.484 31.61 175.537 32.6527 175.636 33.6921C175.629 34.931 175.426 35.5866 175.077 35.6381Z" fill="#BBCAEA" />
	<path d="M178.61 49.1092C178.29 49.2139 177.818 48.7115 177.315 47.5406L176.368 44.4624C176.129 43.2133 176.236 42.5357 176.565 42.4448C176.895 42.3539 177.36 42.8703 177.869 44.0268L178.806 47.0735C179.033 48.3162 178.94 49.0014 178.61 49.1092Z" fill="#BBCAEA" />
	<path d="M184.149 61.8691C183.874 62.0497 183.26 61.6918 182.502 60.6336C181.965 59.6806 181.476 58.7053 181.024 57.7171C180.618 56.492 180.669 55.793 180.982 55.6642C181.301 55.5327 181.798 56.0004 182.444 57.0661C182.881 58.0211 183.352 58.9577 183.864 59.8669C184.341 61.0087 184.446 61.6746 184.149 61.8691Z" fill="#BBCAEA" />
	<path d="M194.908 70.2547C194.818 70.567 194.115 70.7095 192.838 70.3528C191.815 69.9238 190.785 69.4563 189.883 68.7959C188.869 67.9319 188.536 67.3338 188.751 67.0693C188.966 66.8046 189.656 66.9202 190.723 67.4777C191.544 68.0868 192.482 68.5071 193.423 68.9034C194.489 69.4845 195.008 69.9114 194.908 70.2547Z" fill="#BBCAEA" />
	<path d="M208.729 70.7332C208.789 71.0562 208.224 71.4848 206.957 71.7803C205.872 71.9034 204.78 72.0034 203.69 71.9995C202.4 71.8774 201.777 71.5832 201.786 71.2417C201.796 70.9001 202.42 70.5989 203.648 70.4373C204.695 70.4422 205.735 70.3457 206.771 70.2286C208.008 70.2243 208.664 70.3845 208.729 70.7332Z" fill="#BBCAEA" />
	<path d="M220.829 64.38C221.083 64.5786 220.945 65.2989 220.075 66.3219C219.257 67.0945 218.359 67.7738 217.411 68.3617C216.215 68.9338 215.497 68.9121 215.352 68.6124C215.199 68.2982 215.638 67.7897 216.585 67.0351C217.453 66.4965 218.268 65.8796 219.003 65.1848C219.965 64.4702 220.548 64.1555 220.829 64.38Z" fill="#BBCAEA" />
	<path d="M222.805 51.2023C223.103 51.0812 223.663 51.5573 224.112 52.8285C224.37 53.9286 224.499 55.0576 224.494 56.1869C224.342 57.5245 223.905 58.1146 223.58 58.0631C223.232 58.0113 223.067 57.369 222.931 56.1828C222.936 55.1745 222.821 54.1649 222.59 53.1839C222.456 51.9972 222.47 51.335 222.805 51.2023Z" fill="#BBCAEA" />
	<path d="M212.244 43.1229C212.281 42.8035 212.966 42.5411 214.296 42.7514C215.386 43.0482 216.44 43.4723 217.432 44.0158C218.536 44.7888 218.845 45.457 218.643 45.7173C218.43 45.998 217.789 45.8328 216.683 45.3871C215.799 44.9028 214.857 44.5235 213.884 44.2586C212.775 43.8106 212.2 43.4805 212.244 43.1229Z" fill="#BBCAEA" />
	<path d="M199.975 48.3291C199.723 48.1279 199.858 47.4181 200.703 46.3838C201.502 45.5987 202.388 44.893 203.348 44.2993C204.564 43.7205 205.296 43.7816 205.423 44.0855C205.562 44.4092 205.104 44.8854 204.172 45.6275C203.315 46.1567 202.52 46.7894 201.796 47.5004C200.844 48.2376 200.255 48.5543 199.975 48.3291Z" fill="#BBCAEA" />
	<path d="M195.236 61.2255C194.909 61.2081 194.622 60.5548 194.658 59.2434C194.808 58.1516 195.028 57.0697 195.318 56.0059C195.798 54.7857 196.32 54.2976 196.634 54.4129C196.961 54.5314 197.008 55.2025 196.826 56.4156C196.553 57.4141 196.347 58.4313 196.206 59.4571C195.898 60.6462 195.592 61.2454 195.236 61.2255Z" fill="#BBCAEA" />
	<path d="M196.635 75.0627C196.308 75.128 195.91 74.5692 195.566 73.3379L195.037 70.1496C194.967 68.8765 195.164 68.2239 195.503 68.1845C195.843 68.1451 196.235 68.7237 196.585 69.9343L197.105 73.067C197.165 74.3244 196.979 74.9941 196.635 75.0627Z" fill="#BBCAEA" />
	<path d="M198.878 88.8156C198.545 88.8347 198.176 88.2374 197.903 87.0186C197.779 85.9739 197.696 84.928 197.538 83.8839C197.467 82.632 197.66 81.966 197.996 81.9044C198.332 81.8429 198.725 82.4076 199.081 83.6378C199.243 84.7045 199.331 85.7904 199.458 86.8659C199.452 88.154 199.227 88.7953 198.878 88.8156Z" fill="#BBCAEA" />
	<path d="M196.76 102.457C196.453 102.31 196.466 101.639 196.75 100.453C197.099 99.4845 197.375 98.4867 197.587 97.4723C197.967 96.3052 198.328 95.7293 198.672 95.7755C199.005 95.8195 199.233 96.4874 199.116 97.7925C198.891 98.871 198.596 99.9389 198.221 100.982C197.633 102.166 197.068 102.606 196.76 102.457Z" fill="#BBCAEA" />
	<path d="M186.845 111.822C186.705 111.512 187.153 111.003 188.159 110.302C189.067 109.807 189.939 109.252 190.758 108.634C191.803 108.014 192.438 107.799 192.676 108.055C192.905 108.298 192.655 108.97 191.699 109.882C190.813 110.55 189.876 111.146 188.908 111.673C187.691 112.164 186.985 112.135 186.845 111.822Z" fill="#BBCAEA" />
	<path d="M173.363 115.132C173.327 114.801 173.909 114.423 175.128 114.129C176.176 113.994 177.201 113.762 178.24 113.585C179.485 113.496 180.163 113.678 180.24 114.011C180.318 114.344 179.768 114.743 178.538 115.119C177.471 115.302 176.408 115.54 175.338 115.677C174.055 115.693 173.401 115.48 173.363 115.132Z" fill="#BBCAEA" />
	<path d="M159.443 115.449C159.465 115.116 160.105 114.829 161.358 114.716L164.529 114.783C165.774 114.948 166.402 115.262 166.41 115.604C166.418 115.945 165.799 116.226 164.527 116.346L161.294 116.278C160.027 116.104 159.42 115.798 159.443 115.449Z" fill="#BBCAEA" />
	<path d="M145.674 113.362C145.753 113.038 146.433 112.864 147.687 112.968L150.8 113.578C152 113.954 152.564 114.372 152.513 114.71C152.462 115.048 151.804 115.217 150.53 115.118L147.356 114.496C146.137 114.107 145.592 113.702 145.674 113.362Z" fill="#BBCAEA" />
	<path d="M132.471 108.938C132.605 108.632 133.305 108.578 134.521 108.898L137.482 110.035C138.598 110.613 139.081 111.121 138.973 111.445C138.865 111.77 138.188 111.823 136.951 111.505L133.931 110.345C132.798 109.752 132.331 109.258 132.471 108.938Z" fill="#BBCAEA" />
	<path d="M252.792 10.9392L205.995 3.62109L207.548 7.5314L252.792 10.9392Z" fill="#E4ECF9" />
	<path d="M252.792 10.9394L191.168 15.9307L203.73 5.97852L252.792 10.9394Z" fill="#F3F6FD" />
	<path d="M252.792 10.9394L216.317 0L205.995 3.6213L252.792 10.9394Z" fill="#F3F6FD" />
	<path d="M203.863 14.8917L206.75 20.9177L252.79 10.9399L203.863 14.8917Z" fill="#E4ECF9" />
	<path d="M203.863 14.8917L205.047 17.3639L252.79 10.9399L203.863 14.8917Z" fill="#D1DCF8" />
</svg>
