<svg xmlns="http://www.w3.org/2000/svg" width="139.635" height="80.524" viewBox="0 0 139.635 80.524">
  <g id="request" transform="translate(-78.642 0)">
    <path id="Path_3292" data-name="Path 3292" d="M666.706,274.341h-.031l-17.653,7.538L624.87,292.192a.779.779,0,0,1-.6,0l-24.919-10.338-18.087-7.5-.028-.012h-.031a1.078,1.078,0,0,0-1.076,1.076v46.746a1.078,1.078,0,0,0,1.076,1.076h85.5a1.078,1.078,0,0,0,1.076-1.076V275.417a1.078,1.078,0,0,0-1.076-1.076Z" transform="translate(-475.9 -242.716)" fill="#fff"/>
    <path id="Path_3293" data-name="Path 3293" d="M668.893,183.821a.154.154,0,0,1-.088-.028l-42.527-29.617a.771.771,0,0,0-.881,0l-42.221,29.615a.154.154,0,0,1-.177-.252l42.221-29.615a1.08,1.08,0,0,1,1.233,0l42.527,29.617a.154.154,0,0,1-.088.28Z" transform="translate(-478.01 -151.889)" fill="#3f3d56"/>
    <path id="Path_3294" data-name="Path 3294" d="M435.67,42.5l40.29-29.86,40.6,31.984-38.52,22.835L457.123,62.7Z" transform="translate(-328.091 -9.522)" fill="#e6e6e6"/>
    <path id="Path_3295" data-name="Path 3295" d="M624.171,432.365h-19.9a.93.93,0,1,1,0-1.86h19.907a.93.93,0,0,1,0,1.86Z" transform="translate(-493.373 -360.319)" fill="#1F71DF"/>
    <path id="Path_3296" data-name="Path 3296" d="M611.408,416.174h-7.141a.93.93,0,1,1,0-1.86h7.144a.93.93,0,1,1,0,1.86Z" transform="translate(-493.373 -348.126)" fill="#1F71DF"/>
    <path id="Path_3297" data-name="Path 3297" d="M682.019,213.778a1.163,1.163,0,0,1-.441-.086l-24.848-10.31V171.108a1.078,1.078,0,0,1,1.076-1.076h47.669a1.078,1.078,0,0,1,1.076,1.076v32.3l-.047.02-24.031,10.263a1.172,1.172,0,0,1-.455.091Z" transform="translate(-533.583 -164.164)" fill="#fff"/>
    <path id="Path_3298" data-name="Path 3298" d="M681.784,213.62a1.241,1.241,0,0,1-.471-.092l-24.9-10.33V170.874a1.155,1.155,0,0,1,1.153-1.153h47.669a1.155,1.155,0,0,1,1.153,1.153V203.22l-24.125,10.3A1.247,1.247,0,0,1,681.784,213.62Zm-25.059-10.628,24.705,10.251a.941.941,0,0,0,.718,0l23.938-10.223V170.874a.847.847,0,0,0-.846-.846H657.572a.847.847,0,0,0-.846.846Z" transform="translate(-533.349 -163.929)" fill="#3f3d56"/>
    <path id="Path_3299" data-name="Path 3299" d="M665.772,274.341h-.031l-17.653,7.538-24.153,10.313a.779.779,0,0,1-.6,0L598.42,281.857l-18.087-7.5-.028-.012h-.031a1.078,1.078,0,0,0-1.076,1.076v46.746a1.078,1.078,0,0,0,1.076,1.076h85.5a1.078,1.078,0,0,0,1.076-1.076V275.417A1.078,1.078,0,0,0,665.772,274.341Zm.769,47.823a.769.769,0,0,1-.769.769h-85.5a.769.769,0,0,1-.769-.769V275.417a.771.771,0,0,1,.74-.769l18.174,7.541,24.8,10.29a1.1,1.1,0,0,0,.836,0l24.031-10.263,17.714-7.564a.771.771,0,0,1,.738.769Z" transform="translate(-475.197 -242.716)" fill="#3f3d56"/>
    <path id="Path_3300" data-name="Path 3300" d="M688.141,211.383H671.226a1.23,1.23,0,0,1,0-2.46h16.915a1.23,1.23,0,0,1,0,2.46Z" transform="translate(-543.573 -193.451)" fill="#1F71DF"/>
    <path id="Path_3301" data-name="Path 3301" d="M679.376,190.21h-8.15a1.23,1.23,0,0,1,0-2.46h8.15a1.23,1.23,0,0,1,0,2.46Z" transform="translate(-543.573 -177.507)" fill="#1F71DF"/>
    <path id="Path_3302" data-name="Path 3302" d="M726.309,261.2H700.475a1.23,1.23,0,0,1,0-2.46h25.834a1.23,1.23,0,0,1,0,2.46Z" transform="translate(-565.6 -230.969)" fill="#ccc"/>
    <path id="Path_3303" data-name="Path 3303" d="M726.309,284.243H700.475a1.23,1.23,0,1,1,0-2.46h25.834a1.23,1.23,0,1,1,0,2.46Z" transform="translate(-565.6 -248.32)" fill="#ccc"/>
    <circle id="Ellipse_151" data-name="Ellipse 151" cx="11.697" cy="11.697" r="11.697" transform="translate(178.401 20.373)" fill="#1F71DF"/>
    <path id="Path_3319" data-name="Path 3319" d="M479.177,193.337a.494.494,0,0,0-.74.492l.381,2.8a.322.322,0,0,1-.008.123.3.3,0,0,1-.059.108l-2.135,2.529a.482.482,0,0,0-.031.6l0,0a.482.482,0,0,0,.564.186l1.542-.523a.3.3,0,0,1,.3.067.287.287,0,0,1,.092.211l.06,5.494a.493.493,0,0,0,.668.455l11.509-4.4a.493.493,0,0,0,.076-.886l-.157-.093-12.062-7.156Zm-.545.465a.3.3,0,0,1,.445-.295l12.058,7.154.161.1a.3.3,0,0,1-.045.531l-11.509,4.4a.3.3,0,0,1-.4-.273l-.06-5.494a.473.473,0,0,0-.028-.16l11.717,1.346a.2.2,0,0,0,.118-.37.172.172,0,0,0-.031-.013l-12.04-4.019a.485.485,0,0,0,0-.109Z" transform="translate(-397.855 -181.662)" fill="#f1f1f1"/>
    <path id="Path_3320" data-name="Path 3320" d="M479.177,193.337a.494.494,0,0,0-.74.492l.381,2.8a.322.322,0,0,1-.008.123.3.3,0,0,1-.059.108l-2.135,2.529a.482.482,0,0,0-.031.6l0,0a.482.482,0,0,0,.564.186l1.542-.523a.3.3,0,0,1,.3.067.287.287,0,0,1,.092.211l.06,5.494a.493.493,0,0,0,.668.455l11.509-4.4a.493.493,0,0,0,.076-.886l-.157-.093-12.062-7.156Zm-.545.465a.3.3,0,0,1,.445-.295l12.058,7.154.161.1a.3.3,0,0,1-.045.531l-11.509,4.4a.3.3,0,0,1-.4-.273l-.06-5.494a.474.474,0,0,0-.028-.16.481.481,0,0,0-.126-.193l-.025-.022h0a.492.492,0,0,0-.471-.087l-1.543.524a.287.287,0,0,1-.338-.113v0a.286.286,0,0,1,.019-.357l2.135-2.529a.467.467,0,0,0,.059-.086h0A.473.473,0,0,0,479,196.8a.457.457,0,0,0,.017-.1.487.487,0,0,0,0-.109l-.381-2.8Z" transform="translate(-397.855 -181.662)" fill="#e5e5e5"/>
    <path id="Path_3321" data-name="Path 3321" d="M486.373,207.147l12.04,4.019a.171.171,0,0,1,.031.013.2.2,0,0,1-.118.37L486.609,210.2l-.207-.024.023-.2.032,0h0l11.891,1.365-12.03-4.017h0l-.052-.018.062-.187Z" transform="translate(-405.211 -192.102)" fill="#e5e5e5"/>
    <path id="Path_3322" data-name="Path 3322" d="M993.126,146.337l-12.062,7.156-.157.093a.493.493,0,0,0,.076.886l11.509,4.4a.493.493,0,0,0,.668-.455l.06-5.494a.287.287,0,0,1,.092-.211.3.3,0,0,1,.3-.067l1.542.523a.482.482,0,0,0,.564-.186l0,0a.483.483,0,0,0-.031-.6l-2.135-2.529a.3.3,0,0,1-.058-.108.322.322,0,0,1-.008-.123l.381-2.8a.494.494,0,0,0-.74-.492Zm.545.465-.381,2.8a.487.487,0,0,0,0,.109l-12.04,4.019a.17.17,0,0,0-.031.013.2.2,0,0,0,.118.37l11.717-1.346a.473.473,0,0,0-.028.16l-.06,5.494a.3.3,0,0,1-.4.273l-11.509-4.4a.3.3,0,0,1-.045-.531l.161-.1,12.058-7.154a.3.3,0,0,1,.445.294Z" transform="translate(-777.53 -146.268)" fill="#f1f1f1"/>
    <path id="Path_3323" data-name="Path 3323" d="M993.126,146.337l-12.062,7.156-.157.093a.493.493,0,0,0,.076.886l11.509,4.4a.493.493,0,0,0,.668-.455l.06-5.494a.287.287,0,0,1,.092-.211.3.3,0,0,1,.3-.067l1.542.523a.482.482,0,0,0,.564-.186l0,0a.483.483,0,0,0-.031-.6l-2.135-2.529a.3.3,0,0,1-.058-.108.322.322,0,0,1-.008-.123l.381-2.8a.494.494,0,0,0-.74-.492Zm.545.465-.381,2.8a.487.487,0,0,0,0,.109.463.463,0,0,0,.017.1.481.481,0,0,0,.038.093h0a.467.467,0,0,0,.059.086l2.135,2.529a.286.286,0,0,1,.019.357v0a.287.287,0,0,1-.338.113l-1.543-.524a.492.492,0,0,0-.471.087h0l-.025.022a.479.479,0,0,0-.126.193.474.474,0,0,0-.028.16l-.06,5.494a.3.3,0,0,1-.4.273l-11.509-4.4a.3.3,0,0,1-.045-.531l.161-.1,12.058-7.154a.3.3,0,0,1,.445.294Z" transform="translate(-777.53 -146.268)" fill="#e5e5e5"/>
    <path id="Path_3324" data-name="Path 3324" d="M994.694,160.131l.062.187-.052.018h0l-12.03,4.017,11.891-1.365h0l.032,0,.023.2-.207.024L982.7,164.549a.2.2,0,0,1-.118-.37.173.173,0,0,1,.031-.013l12.04-4.019Z" transform="translate(-778.892 -156.708)" fill="#e5e5e5"/>
    <g id="Group_3717" data-name="Group 3717" transform="translate(-25 -28.041)">
      <path id="Path_3325" data-name="Path 3325" d="M612.323,531.644a.494.494,0,0,0,.02.888l2.567,1.172a.321.321,0,0,1,.1.073.3.3,0,0,1,.06.107l1,3.156a.482.482,0,0,0,.487.345h0a.482.482,0,0,0,.458-.377l.382-1.583a.3.3,0,0,1,.216-.216.287.287,0,0,1,.227.035l4.676,2.885a.49.49,0,0,0,.455.033.5.5,0,0,0,.286-.354l2.43-12.08a.493.493,0,0,0-.708-.537l-.162.083Zm.1.709a.3.3,0,0,1-.011-.534l12.491-6.368.166-.085a.3.3,0,0,1,.425.322l-2.43,12.079a.3.3,0,0,1-.445.193l-4.676-2.885a.473.473,0,0,0-.15-.062l7.4-9.184a.2.2,0,0,0-.249-.3.169.169,0,0,0-.028.019l-9.832,8.029a.487.487,0,0,0-.094-.055Z" transform="translate(-504.853 -431.583)" fill="#f1f1f1"/>
      <path id="Path_3326" data-name="Path 3326" d="M612.323,531.644a.494.494,0,0,0,.02.888l2.567,1.172a.321.321,0,0,1,.1.073.3.3,0,0,1,.06.107l1,3.156a.482.482,0,0,0,.487.345h0a.482.482,0,0,0,.458-.377l.382-1.583a.3.3,0,0,1,.216-.216.287.287,0,0,1,.227.035l4.676,2.885a.49.49,0,0,0,.455.033.5.5,0,0,0,.286-.354l2.43-12.08a.493.493,0,0,0-.708-.537l-.162.083Zm.1.709a.3.3,0,0,1-.011-.534l12.491-6.368.166-.085a.3.3,0,0,1,.425.322l-2.43,12.079a.3.3,0,0,1-.445.193l-4.676-2.885a.473.473,0,0,0-.15-.062.48.48,0,0,0-.231,0l-.032.009h0a.492.492,0,0,0-.325.352l-.382,1.584a.287.287,0,0,1-.276.226h0a.286.286,0,0,1-.292-.207l-1-3.156a.468.468,0,0,0-.042-.1h0a.472.472,0,0,0-.059-.081.458.458,0,0,0-.072-.066.486.486,0,0,0-.094-.055l-2.567-1.172Z" transform="translate(-504.853 -431.583)" fill="#e5e5e5"/>
      <path id="Path_3327" data-name="Path 3327" d="M624.215,534.712l9.832-8.029a.172.172,0,0,1,.028-.019.2.2,0,0,1,.249.3l-7.4,9.184-.13.162-.153-.124.02-.026h0l7.509-9.32-9.824,8.022h0l-.043.034-.125-.153Z" transform="translate(-513.983 -432.714)" fill="#e5e5e5"/>
    </g>
    <path id="Icon_ionic-ios-send" data-name="Icon ionic-ios-send" d="M16.124,4.53l-11.473,5a.263.263,0,0,0,.009.478l3.1,1.753a.5.5,0,0,0,.572-.056L14.455,6.43c.041-.034.138-.1.175-.063s-.022.134-.056.175L9.28,12.505a.5.5,0,0,0-.05.6l2.028,3.253a.264.264,0,0,0,.475-.006L16.477,4.877A.263.263,0,0,0,16.124,4.53Z" transform="translate(179.596 21.568)" fill="#fff"/>
  </g>
</svg>
