<?xml version="1.0"?>
<svg xmlns="http://www.w3.org/2000/svg" xmlns:xlink="http://www.w3.org/1999/xlink" xmlns:svgjs="http://svgjs.com/svgjs" version="1.1" width="512" height="512" x="0" y="0" viewBox="0 0 173.397 173.397" style="enable-background:new 0 0 512 512" xml:space="preserve" class=""><g><g id="Layer_x0020_1"><circle cx="86.699" cy="86.699" fill="#c5c5c5" r="84.667" data-original="#777878" class=""/><g id="_395070192" fill="#fff"><path id="_395070960" d="m88.8154 79.0533v7.6341.8763l-.6202.6203-3.5736 3.5737-2.9931-2.9932 2.9535-2.9535v-6.7577z" fill-rule="nonzero" fill="#f0f0f0" data-original="#ffffff" class=""/><path id="_395070024" d="m141.127 69.4577h-32.8971v63.334h32.8971zm-8.5888 49.0878c-5.2398 0-10.4797 0-15.7195 0v7.897h15.7195c0-2.6323 0-5.2647 0-7.897zm0-14.2462c-5.2398 0-10.4797 0-15.7195 0v7.897h15.7195c0-2.6323 0-5.2646 0-7.897zm0-14.2462c-5.2398 0-10.4797 0-15.7195 0v7.897h15.7195c0-2.6324 0-5.2647 0-7.897zm0-14.2461c-5.2398 0-10.4797 0-15.7195 0v7.897h15.7195c0-2.6323 0-5.2647 0-7.897z" fill="#f0f0f0" data-original="#ffffff" class=""/><path id="_395070624" d="m67.5862 108.316h8.1227v24.4759h-8.1227zm19.1125-31.9719c-5.7126 0-10.3435 4.631-10.3435 10.3435s4.6309 10.3434 10.3435 10.3434c5.7125 0 10.3434-4.6309 10.3434-10.3434s-4.6309-10.3435-10.3434-10.3435zm-.0001-23.1917c-3.8696 0-7.0065 3.1369-7.0065 7.0065 0 3.8695 3.1369 7.0065 7.0065 7.0065s7.0065-3.137 7.0065-7.0065c0-3.8696-3.1369-7.0065-7.0065-7.0065zm-8.5706 55.1636h7.4277v24.4759h-7.4277zm9.8468 0h7.2944v24.4759h-7.2944zm9.7135 0h8.1227v24.4759h-8.1227zm8.1227-2.4191c-12.7416 0-25.4832 0-38.2248 0v-38.858l19.1124-26.4332 19.1124 26.4332z" fill="#f0f0f0" data-original="#ffffff" class=""/><path id="_395070336" d="m32.2701 69.4577h32.8971v63.334h-32.8971zm24.3083 6.3493c-5.2398 0-10.4797 0-15.7195 0v7.897h15.7195c0-2.6323 0-5.2647 0-7.897zm0 14.2461c-5.2398 0-10.4797 0-15.7195 0v7.897h15.7195c0-2.6324 0-5.2647 0-7.897zm0 14.2462c-5.2398 0-10.4797 0-15.7195 0v7.897h15.7195c0-2.6323 0-5.2646 0-7.897zm0 14.2462c-5.2398 0-10.4797 0-15.7195 0v7.897h15.7195c0-2.6323 0-5.2647 0-7.897z" fill="#f0f0f0" data-original="#ffffff" class=""/></g></g></g></svg>
