<svg width="42" height="42" viewBox="0 0 42 42" fill="none" xmlns="http://www.w3.org/2000/svg">
	<g clip-path="url(#clip0_12216_83534)">
		<path d="M28.5594 34.2384C28.5594 34.2384 28.5582 34.2384 28.5571 34.2384C27.8943 34.2396 27.3571 34.778 27.3582 35.4419L27.3594 36.6419L15.3477 36.6595L15.3465 35.4583C15.3453 34.7956 14.808 34.2595 14.1453 34.2595C14.1453 34.2595 14.1441 34.2595 14.143 34.2595C13.4803 34.2607 12.943 34.799 12.9442 35.4629L12.9477 37.8641C12.9489 38.5268 13.4861 39.0629 14.1488 39.0629H14.15L28.5641 39.043C29.2239 39.043 29.7641 38.5069 29.7641 37.8395L29.7606 35.4372C29.7594 34.7744 29.2221 34.2384 28.5594 34.2384ZM35.716 11.2777C34.6403 6.95625 30.7928 3.89703 26.2849 3.89703C24.5383 3.89703 22.8702 4.34746 21.404 5.20726C19.8322 3.78436 17.7922 2.98438 15.6667 2.98438C11.0626 2.98438 7.2996 6.65003 7.14241 11.2166C3.52712 12.2185 0.835938 15.5721 0.835938 19.4161C0.835938 24.1188 4.74127 27.9451 9.44386 27.9451H18.9336C19.5975 27.9451 20.1348 27.4079 20.1348 26.744V21.0502C20.1348 20.3862 19.5975 19.849 18.9336 19.849H18.7718L21.3371 15.9863L23.8967 19.8244H23.7383C23.0744 19.8244 22.5371 20.3617 22.5371 21.0256V26.744C22.5371 27.408 23.0744 27.9452 23.7383 27.9452H33.228C37.9306 27.9451 41.8359 24.1188 41.8359 19.4161C41.8359 15.6554 39.2597 12.3534 35.716 11.2777Z" fill="url(#paint0_linear_12216_83534)" />
		<path d="M27.1401 20.3591L22.3355 13.1521C22.1126 12.8178 21.7372 12.6172 21.3361 12.6172H21.3349C20.9337 12.6172 20.5584 12.819 20.3355 13.1532L15.5308 20.3849C15.2856 20.7544 15.2634 21.2272 15.4733 21.6178C15.6821 22.0072 16.0891 22.2512 16.5314 22.2512H17.7326L17.756 33.0665C17.7585 33.7307 18.2992 34.2629 18.9572 34.2629H18.9631L23.7677 34.2383C24.4305 34.2348 24.9654 33.6952 24.9631 33.0324L24.9396 22.2266H26.1408C26.5842 22.2266 26.9912 21.9826 27.2 21.5919C27.4089 21.2013 27.3853 20.7274 27.1401 20.3591Z" fill="url(#paint1_linear_12216_83534)" />
	</g>
	<defs>
		<linearGradient id="paint0_linear_12216_83534" x1="21.3359" y1="39.063" x2="21.3359" y2="2.98446" gradientUnits="userSpaceOnUse">
			<stop stop-color="#5558FF" />
			<stop offset="1" stop-color="#00C0FF" />
		</linearGradient>
		<linearGradient id="paint1_linear_12216_83534" x1="21.3359" y1="34.2629" x2="21.3359" y2="12.6172" gradientUnits="userSpaceOnUse">
			<stop stop-color="#ADDCFF" />
			<stop offset="0.5028" stop-color="#EAF6FF" />
			<stop offset="1" stop-color="#EAF6FF" />
		</linearGradient>
		<clipPath id="clip0_12216_83534">
			<rect width="41" height="41" fill="white" transform="translate(0.835938 0.523438)" />
		</clipPath>
	</defs>
</svg>
