<svg>
	<defs>
		<svg id="add_new" width="22" height="22" viewBox="0 0 22 22" fill="none" xmlns="http://www.w3.org/2000/svg">
			<path d="M11 7V15M7 11H15M21 11C21 16.5228 16.5228 21 11 21C5.47715 21 1 16.5228 1 11C1 5.47715 5.47715 1 11 1C16.5228 1 21 5.47715 21 11Z" stroke="white" stroke-width="1.6" stroke-linecap="round" stroke-linejoin="round" />
		</svg>
	</defs>
	<defs>
		<svg id="visibility-color" width="28" height="21" viewBox="0 0 28 21" fill="none" xmlns="http://www.w3.org/2000/svg">
			<path d="M1.22683 11.4509C1.04525 11.1634 0.954456 11.0196 0.903632 10.7979C0.865456 10.6314 0.865456 10.3687 0.903632 10.2021C0.954456 9.9804 1.04525 9.83664 1.22683 9.54912C2.72737 7.17314 7.19387 1.16669 14.0005 1.16669C20.8072 1.16669 25.2737 7.17314 26.7742 9.54912C26.9558 9.83664 27.0466 9.9804 27.0974 10.2021C27.1356 10.3687 27.1356 10.6314 27.0974 10.7979C27.0466 11.0196 26.9558 11.1634 26.7742 11.4509C25.2737 13.8269 20.8072 19.8334 14.0005 19.8334C7.19387 19.8334 2.72737 13.8269 1.22683 11.4509Z" stroke="#E4CE00" stroke-width="1.6" stroke-linecap="round" stroke-linejoin="round" />
			<path d="M14.0005 14.5C16.2097 14.5 18.0005 12.7092 18.0005 10.5C18.0005 8.29088 16.2097 6.50002 14.0005 6.50002C11.7914 6.50002 10.0005 8.29088 10.0005 10.5C10.0005 12.7092 11.7914 14.5 14.0005 14.5Z" stroke="#E4CE00" stroke-width="1.6" stroke-linecap="round" stroke-linejoin="round" />
		</svg>
	</defs>
	<defs>
		<svg id="visibility" width="28" height="21" viewBox="0 0 28 21" fill="none" xmlns="http://www.w3.org/2000/svg">
			<path d="M1.22683 11.4509C1.04525 11.1634 0.954456 11.0196 0.903632 10.7979C0.865456 10.6314 0.865456 10.3687 0.903632 10.2021C0.954456 9.9804 1.04525 9.83664 1.22683 9.54912C2.72737 7.17314 7.19387 1.16669 14.0005 1.16669C20.8072 1.16669 25.2737 7.17314 26.7742 9.54912C26.9558 9.83664 27.0466 9.9804 27.0974 10.2021C27.1356 10.3687 27.1356 10.6314 27.0974 10.7979C27.0466 11.0196 26.9558 11.1634 26.7742 11.4509C25.2737 13.8269 20.8072 19.8334 14.0005 19.8334C7.19387 19.8334 2.72737 13.8269 1.22683 11.4509Z" stroke="#007FFF" stroke-width="1.6" stroke-linecap="round" stroke-linejoin="round" />
			<path d="M14.0005 14.5C16.2097 14.5 18.0005 12.7092 18.0005 10.5C18.0005 8.29088 16.2097 6.50002 14.0005 6.50002C11.7914 6.50002 10.0005 8.29088 10.0005 10.5C10.0005 12.7092 11.7914 14.5 14.0005 14.5Z" stroke="#007FFF" stroke-width="1.6" stroke-linecap="round" stroke-linejoin="round" />
		</svg>
	</defs>
	<defs>
		<svg id="filter" viewBox="0 0 17 17" fill="none" xmlns="http://www.w3.org/2000/svg">
			<path d="M1.48741 1.5H14.7234C14.9428 1.5 15.1532 1.5878 15.3084 1.74408C15.4635 1.90036 15.5507 2.11232 15.5507 2.33333V3.655C15.5506 3.876 15.4634 4.08792 15.3083 4.24417L10.0015 9.58917C9.84662 9.74555 9.75974 9.95746 9.75991 10.1783V15.4325C9.75991 15.5592 9.73124 15.6842 9.67608 15.798C9.62092 15.9118 9.54073 16.0115 9.4416 16.0894C9.34246 16.1674 9.227 16.2215 9.10398 16.2477C8.98096 16.274 8.85362 16.2716 8.73164 16.2408L7.07714 15.8242C6.89825 15.779 6.73946 15.675 6.626 15.5285C6.51254 15.3821 6.45092 15.2016 6.45091 15.0158V10.1783C6.45086 9.95734 6.36368 9.74541 6.20853 9.58917L0.901714 4.24417C0.746867 4.08779 0.659984 3.87588 0.660157 3.655V2.33333C0.660157 2.11232 0.747313 1.90036 0.902453 1.74408C1.05759 1.5878 1.26801 1.5 1.48741 1.5V1.5Z" stroke="black" stroke-width="1.25" stroke-linecap="round" stroke-linejoin="round" />
		</svg>
	</defs>
	<defs>
		<svg id="search" viewBox="0 0 21 21" fill="none" xmlns="http://www.w3.org/2000/svg">
			<path d="M9.11214 15.617C10.5805 15.6167 12.0065 15.111 13.1632 14.1804L16.7998 17.9217L17.9695 16.7183L14.3329 12.977C15.2379 11.7869 15.7298 10.3195 15.7301 8.80851C15.7301 5.05447 12.7611 2 9.11214 2C5.46314 2 2.49414 5.05447 2.49414 8.80851C2.49414 12.5626 5.46314 15.617 9.11214 15.617ZM9.11214 3.70213C11.8495 3.70213 14.0756 5.99234 14.0756 8.80851C14.0756 11.6247 11.8495 13.9149 9.11214 13.9149C6.37477 13.9149 4.14864 11.6247 4.14864 8.80851C4.14864 5.99234 6.37477 3.70213 9.11214 3.70213Z" fill="#8F8F8F" />
			<path d="M10.2803 7.60503C10.5938 7.92844 10.7667 8.35567 10.7667 8.80844H12.4212C12.422 8.36114 12.3365 7.91813 12.1698 7.50502C12.0031 7.09191 11.7585 6.71688 11.45 6.40163C10.1976 5.11482 8.02604 5.11482 6.77441 6.40163L7.94249 7.60674C8.5712 6.96163 9.6549 6.96333 10.2803 7.60503Z" fill="#8F8F8F" />
		</svg>
	</defs>
	<defs>
		<svg id="save" width="20" height="20" viewBox="0 0 20 20" fill="none" xmlns="http://www.w3.org/2000/svg">
			<path d="M5 1V4.4C5 4.96005 5 5.24008 5.10899 5.45399C5.20487 5.64215 5.35785 5.79513 5.54601 5.89101C5.75992 6 6.03995 6 6.6 6H13.4C13.9601 6 14.2401 6 14.454 5.89101C14.6422 5.79513 14.7951 5.64215 14.891 5.45399C15 5.24008 15 4.96005 15 4.4V2M15 19V12.6C15 12.0399 15 11.7599 14.891 11.546C14.7951 11.3578 14.6422 11.2049 14.454 11.109C14.2401 11 13.9601 11 13.4 11H6.6C6.03995 11 5.75992 11 5.54601 11.109C5.35785 11.2049 5.20487 11.3578 5.10899 11.546C5 11.7599 5 12.0399 5 12.6V19M19 7.32548V14.2C19 15.8802 19 16.7202 18.673 17.362C18.3854 17.9265 17.9265 18.3854 17.362 18.673C16.7202 19 15.8802 19 14.2 19H5.8C4.11984 19 3.27976 19 2.63803 18.673C2.07354 18.3854 1.6146 17.9265 1.32698 17.362C1 16.7202 1 15.8802 1 14.2V5.8C1 4.11984 1 3.27976 1.32698 2.63803C1.6146 2.07354 2.07354 1.6146 2.63803 1.32698C3.27976 1 4.11984 1 5.8 1H12.6745C13.1637 1 13.4083 1 13.6385 1.05526C13.8425 1.10425 14.0376 1.18506 14.2166 1.29472C14.4184 1.4184 14.5914 1.59135 14.9373 1.93726L18.0627 5.06274C18.4086 5.40865 18.5816 5.5816 18.7053 5.78343C18.8149 5.96237 18.8957 6.15746 18.9447 6.36154C19 6.59171 19 6.8363 19 7.32548Z" stroke="white" stroke-width="1.5" stroke-linecap="round" stroke-linejoin="round" />
		</svg>
	</defs>
	<defs>
		<svg id="delete-color" width="26" height="27" viewBox="0 0 26 27" fill="none" xmlns="http://www.w3.org/2000/svg">
			<path d="M9 1.5H17M1 5.5H25M22.3333 5.5L21.3983 19.5257C21.258 21.63 21.1879 22.6822 20.7334 23.48C20.3332 24.1824 19.7297 24.747 19.0022 25.0996C18.176 25.5 17.1215 25.5 15.0125 25.5H10.9875C8.87854 25.5 7.82404 25.5 6.99778 25.0996C6.27034 24.747 5.66678 24.1824 5.26664 23.48C4.81215 22.6822 4.742 21.63 4.60171 19.5257L3.66667 5.5M10.3333 11.5V18.1667M15.6667 11.5V18.1667" stroke="#E91111" stroke-opacity="0.9" stroke-width="2" stroke-linecap="round" stroke-linejoin="round" />
		</svg>
	</defs>
	<defs>
		<svg id="arrow" width="8" height="10" viewBox="0 0 8 10" fill="none" xmlns="http://www.w3.org/2000/svg">
			<path d="M0.148501 3.86807C0.247392 3.95605 0.364616 4 0.500065 4L7.49996 4C7.63547 4 7.75261 3.95605 7.85158 3.86807C7.95055 3.78 8 3.67588 8 3.55551C8 3.43516 7.95055 3.33104 7.85158 3.24304L4.35162 0.132023C4.25254 0.0440485 4.13539 3.77401e-07 4 3.65565e-07C3.86461 3.53728e-07 3.74735 0.0440484 3.64846 0.132023L0.148501 3.24306C0.0496369 3.33103 4.93799e-08 3.43516 3.88567e-08 3.55553C2.83356e-08 3.67588 0.0496369 3.78 0.148501 3.86807Z" fill="black" fill-opacity="0.5" />
			<path d="M7.8515 6.13193C7.75261 6.04395 7.63538 6 7.49994 6H0.500038C0.364534 6 0.247392 6.04395 0.148419 6.13193C0.0494455 6.22 0 6.32412 0 6.44449C0 6.56484 0.0494455 6.66897 0.148419 6.75696L3.64838 9.86798C3.74746 9.95595 3.86461 10 4 10C4.13539 10 4.25265 9.95595 4.35154 9.86798L7.8515 6.75694C7.95036 6.66897 8 6.56484 8 6.44447C8 6.32412 7.95036 6.22 7.8515 6.13193Z" fill="black" fill-opacity="0.5" />
		</svg>
	</defs>
	<defs>
		<svg id="cancel" width="16" height="16" viewBox="0 0 16 16" fill="none" xmlns="http://www.w3.org/2000/svg">
			<path d="M14.6654 1.3335L1.33203 14.6668M1.33203 1.3335L14.6654 14.6668" stroke="#53535F" stroke-width="1.5" stroke-linecap="round" stroke-linejoin="round" />
		</svg>
	</defs>
	<defs>
		<svg id="check" width="25" height="25" viewBox="0 0 25 25" fill="none" xmlns="http://www.w3.org/2000/svg">
			<path d="M22.5 11.5857V12.5057C22.4988 14.6621 21.8005 16.7604 20.5093 18.4875C19.2182 20.2147 17.4033 21.4782 15.3354 22.0896C13.2674 22.701 11.0573 22.6276 9.03447 21.8803C7.01168 21.133 5.28465 19.7518 4.11096 17.9428C2.93727 16.1338 2.37979 13.9938 2.52168 11.842C2.66356 9.69029 3.49721 7.64205 4.89828 6.0028C6.29935 4.36354 8.19279 3.22111 10.2962 2.74587C12.3996 2.27063 14.6003 2.48806 16.57 3.36572M22.5 4.5L12.5 14.51L9.5 11.51" stroke="#1FDB00" stroke-opacity="0.9" stroke-width="2" stroke-linecap="round" stroke-linejoin="round" />
		</svg>
	</defs>
	<defs>
		<svg id="checked" width="25" height="25" viewBox="0 0 25 25" fill="none" xmlns="http://www.w3.org/2000/svg">
			<path d="M22.5 11.5857V12.5057C22.4988 14.6621 21.8005 16.7604 20.5093 18.4875C19.2182 20.2147 17.4033 21.4782 15.3354 22.0896C13.2674 22.701 11.0573 22.6276 9.03447 21.8803C7.01168 21.133 5.28465 19.7518 4.11096 17.9428C2.93727 16.1338 2.37979 13.9938 2.52168 11.842C2.66356 9.69029 3.49721 7.64205 4.89828 6.0028C6.29935 4.36354 8.19279 3.22111 10.2962 2.74587C12.3996 2.27063 14.6003 2.48806 16.57 3.36572M22.5 4.5L12.5 14.51L9.5 11.51" stroke="#fff" stroke-opacity="0.9" stroke-width="2" stroke-linecap="round" stroke-linejoin="round" />
		</svg>
	</defs>
	<defs>
		<svg id="horizontal-dots" width="24" height="24" viewBox="0 0 24 24" fill="none" xmlns="http://www.w3.org/2000/svg">
			<path d="M12 13C12.5523 13 13 12.5523 13 12C13 11.4477 12.5523 11 12 11C11.4477 11 11 11.4477 11 12C11 12.5523 11.4477 13 12 13Z" stroke="#53535F" stroke-width="2" stroke-linecap="round" stroke-linejoin="round" />
			<path d="M19 13C19.5523 13 20 12.5523 20 12C20 11.4477 19.5523 11 19 11C18.4477 11 18 11.4477 18 12C18 12.5523 18.4477 13 19 13Z" stroke="#53535F" stroke-width="2" stroke-linecap="round" stroke-linejoin="round" />
			<path d="M5 13C5.55228 13 6 12.5523 6 12C6 11.4477 5.55228 11 5 11C4.44772 11 4 11.4477 4 12C4 12.5523 4.44772 13 5 13Z" stroke="#53535F" stroke-width="2" stroke-linecap="round" stroke-linejoin="round" />
		</svg>
	</defs>
	<defs>
		<svg id="edit-color" width="26" height="25" viewBox="0 0 26 25" fill="none" xmlns="http://www.w3.org/2000/svg">
			<path d="M13 24.1666H25M1 24.1666H3.23272C3.88497 24.1666 4.21109 24.1666 4.51799 24.0929C4.79008 24.0276 5.0502 23.9199 5.2888 23.7737C5.55791 23.6088 5.78851 23.3781 6.24971 22.9169L23 6.16662C24.1046 5.06205 24.1046 3.27119 23 2.16662C21.8955 1.06205 20.1046 1.06205 19 2.16662L2.24968 18.9169C1.78847 19.3781 1.55787 19.6088 1.39296 19.8779C1.24675 20.1165 1.13901 20.3766 1.07368 20.6487C1 20.9556 1 21.2817 1 21.9339V24.1666Z" stroke="#3F419F" stroke-width="1.6" stroke-linecap="round" stroke-linejoin="round" />
		</svg>
	</defs>
	<defs>
		<svg id="edit" width="20" height="21" viewBox="0 2.2 20 20" fill="none" xmlns="http://www.w3.org/2000/svg">
			<path d="M10 17.1667H17.5M13.75 3.41666C14.0815 3.08514 14.5312 2.8989 15 2.8989C15.2321 2.8989 15.462 2.94462 15.6765 3.03346C15.891 3.1223 16.0858 3.25251 16.25 3.41666C16.4142 3.58081 16.5444 3.77569 16.6332 3.99017C16.722 4.20464 16.7678 4.43452 16.7678 4.66666C16.7678 4.89881 16.722 5.12868 16.6332 5.34316C16.5444 5.55763 16.4142 5.75251 16.25 5.91666L5.83333 16.3333L2.5 17.1667L3.33333 13.8333L13.75 3.41666Z" stroke="white" stroke-width="2" stroke-linecap="round" stroke-linejoin="round" />
		</svg>
	</defs>
	<defs>
		<svg id="delete" width="24" height="24" viewBox="0 0 24 24" fill="none" xmlns="http://www.w3.org/2000/svg">
			<path d="M3 6H5M5 6H21M5 6V20C5 20.5304 5.21071 21.0391 5.58579 21.4142C5.96086 21.7893 6.46957 22 7 22H17C17.5304 22 18.0391 21.7893 18.4142 21.4142C18.7893 21.0391 19 20.5304 19 20V6H5ZM8 6V4C8 3.46957 8.21071 2.96086 8.58579 2.58579C8.96086 2.21071 9.46957 2 10 2H14C14.5304 2 15.0391 2.21071 15.4142 2.58579C15.7893 2.96086 16 3.46957 16 4V6M10 11V17M14 11V17" stroke="white" stroke-width="2" stroke-linecap="round" stroke-linejoin="round" />
		</svg>
	</defs>
	<defs>
		<svg id="upload-photo" width="24" height="24" viewBox="0 0 24 24" fill="none" xmlns="http://www.w3.org/2000/svg">
			<path d="M22 11.5V14.6C22 16.8402 22 17.9603 21.564 18.816C21.1805 19.5686 20.5686 20.1805 19.816 20.564C18.9603 21 17.8402 21 15.6 21H8.4C6.15979 21 5.03969 21 4.18404 20.564C3.43139 20.1805 2.81947 19.5686 2.43597 18.816C2 17.9603 2 16.8402 2 14.6V9.4C2 7.15979 2 6.03969 2.43597 5.18404C2.81947 4.43139 3.43139 3.81947 4.18404 3.43597C5.03969 3 6.15979 3 8.4 3H12.5M19 8V2M16 5H22M16 12C16 14.2091 14.2091 16 12 16C9.79086 16 8 14.2091 8 12C8 9.79086 9.79086 8 12 8C14.2091 8 16 9.79086 16 12Z" stroke="white" stroke-width="1.6" stroke-linecap="round" stroke-linejoin="round" />
		</svg>
	</defs>
	<defs>
		<svg id="highlight_off_white" width="24" height="24" viewBox="0 0 25 24" fill="none" xmlns="http://www.w3.org/2000/svg">
			<path d="M7.34 17.16C7.56 17.38 7.84 17.49 8.18 17.49C8.52 17.49 8.8 17.38 9.02 17.16L12.5 13.68L16.01 17.19C16.23 17.41 16.5052 17.5148 16.8356 17.5044C17.1652 17.4948 17.44 17.38 17.66 17.16C17.88 16.94 17.99 16.66 17.99 16.32C17.99 15.98 17.88 15.7 17.66 15.48L14.18 12L17.69 8.49C17.91 8.27 18.0148 7.9948 18.0044 7.6644C17.9948 7.3348 17.88 7.06 17.66 6.84C17.44 6.62 17.16 6.51 16.82 6.51C16.48 6.51 16.2 6.62 15.98 6.84L12.5 10.32L8.99 6.81C8.77 6.59 8.4952 6.4848 8.1656 6.4944C7.8352 6.5048 7.56 6.62 7.34 6.84C7.12 7.06 7.01 7.34 7.01 7.68C7.01 8.02 7.12 8.3 7.34 8.52L10.82 12L7.31 15.51C7.09 15.73 6.9852 16.0048 6.9956 16.3344C7.0052 16.6648 7.12 16.94 7.34 17.16ZM12.5 24C10.84 24 9.28 23.6848 7.82 23.0544C6.36 22.4248 5.09 21.57 4.01 20.49C2.93 19.41 2.0752 18.14 1.4456 16.68C0.8152 15.22 0.5 13.66 0.5 12C0.5 10.34 0.8152 8.78 1.4456 7.32C2.0752 5.86 2.93 4.59 4.01 3.51C5.09 2.43 6.36 1.5748 7.82 0.9444C9.28 0.3148 10.84 0 12.5 0C14.16 0 15.72 0.3148 17.18 0.9444C18.64 1.5748 19.91 2.43 20.99 3.51C22.07 4.59 22.9248 5.86 23.5544 7.32C24.1848 8.78 24.5 10.34 24.5 12C24.5 13.66 24.1848 15.22 23.5544 16.68C22.9248 18.14 22.07 19.41 20.99 20.49C19.91 21.57 18.64 22.4248 17.18 23.0544C15.72 23.6848 14.16 24 12.5 24ZM12.5 21.6C15.16 21.6 17.4252 20.6652 19.2956 18.7956C21.1652 16.9252 22.1 14.66 22.1 12C22.1 9.34 21.1652 7.0748 19.2956 5.2044C17.4252 3.3348 15.16 2.4 12.5 2.4C9.84 2.4 7.5752 3.3348 5.7056 5.2044C3.8352 7.0748 2.9 9.34 2.9 12C2.9 14.66 3.8352 16.9252 5.7056 18.7956C7.5752 20.6652 9.84 21.6 12.5 21.6Z" fill="#fff" fill-opacity="0.8" />
		</svg>
	</defs>
	<defs>
		<svg id="vertical-dots" width="20" height="20" viewBox="0 0 20 20" fill="none" xmlns="http://www.w3.org/2000/svg">
			<path d="M10.8334 9.99999C10.8334 9.53975 10.4603 9.16666 10.0001 9.16666C9.53984 9.16666 9.16675 9.53975 9.16675 9.99999C9.16675 10.4602 9.53984 10.8333 10.0001 10.8333C10.4603 10.8333 10.8334 10.4602 10.8334 9.99999Z" stroke="#53535F" stroke-opacity="0.7" stroke-width="2" stroke-linecap="round" stroke-linejoin="round" />
			<path d="M10.8334 4.16666C10.8334 3.70642 10.4603 3.33332 10.0001 3.33332C9.53984 3.33332 9.16675 3.70642 9.16675 4.16666C9.16675 4.62689 9.53984 4.99999 10.0001 4.99999C10.4603 4.99999 10.8334 4.62689 10.8334 4.16666Z" stroke="#53535F" stroke-opacity="0.7" stroke-width="2" stroke-linecap="round" stroke-linejoin="round" />
			<path d="M10.8334 15.8333C10.8334 15.3731 10.4603 15 10.0001 15C9.53984 15 9.16675 15.3731 9.16675 15.8333C9.16675 16.2936 9.53984 16.6667 10.0001 16.6667C10.4603 16.6667 10.8334 16.2936 10.8334 15.8333Z" stroke="#53535F" stroke-opacity="0.7" stroke-width="2" stroke-linecap="round" stroke-linejoin="round" />
		</svg>
	</defs>
	<defs>
		<svg id="download" width="20" height="20" viewBox="0 0 20 20" fill="none" xmlns="http://www.w3.org/2000/svg">
			<path d="M19 13V17C19 17.5304 18.7893 18.0391 18.4142 18.4142C18.0391 18.7893 17.5304 19 17 19H3C2.46957 19 1.96086 18.7893 1.58579 18.4142C1.21071 18.0391 1 17.5304 1 17V13M5 8L10 13M10 13L15 8M10 13V1" stroke="#3F419F" stroke-width="1.6" stroke-linecap="round" stroke-linejoin="round" />
		</svg>
	</defs>
	<defs>
		<svg id="export_file" width="20" height="21" viewBox="0 0 20 21" fill="none" xmlns="http://www.w3.org/2000/svg">
			<path d="M2.92969 8.35156H9.57031C9.89391 8.35156 10.1562 8.08922 10.1562 7.76562C10.1562 7.44203 9.89391 7.17969 9.57031 7.17969H2.92969C2.60609 7.17969 2.34375 7.44203 2.34375 7.76562C2.34375 8.08922 2.60609 8.35156 2.92969 8.35156Z" fill="#53535F" />
			<path d="M2.92969 10.6953H8.00781C8.33141 10.6953 8.59375 10.433 8.59375 10.1094C8.59375 9.78578 8.33141 9.52344 8.00781 9.52344H2.92969C2.60609 9.52344 2.34375 9.78578 2.34375 10.1094C2.34375 10.433 2.60609 10.6953 2.92969 10.6953Z" fill="#53535F" />
			<path d="M2.92969 13.0391H8.00781C8.33141 13.0391 8.59375 12.7767 8.59375 12.4531C8.59375 12.1295 8.33141 11.8672 8.00781 11.8672H2.92969C2.60609 11.8672 2.34375 12.1295 2.34375 12.4531C2.34375 12.7767 2.60609 13.0391 2.92969 13.0391Z" fill="#53535F" />
			<path d="M9.57031 14.2109H2.92969C2.60609 14.2109 2.34375 14.4733 2.34375 14.7969C2.34375 15.1205 2.60609 15.3828 2.92969 15.3828H9.57031C9.89391 15.3828 10.1562 15.1205 10.1562 14.7969C10.1562 14.4733 9.89391 14.2109 9.57031 14.2109Z" fill="#53535F" />
			<path d="M19.8284 10.867L17.4846 8.5232C17.2558 8.29437 16.8848 8.29437 16.656 8.5232C16.4271 8.75203 16.4271 9.12301 16.656 9.35184L17.9995 10.6953H15.2344V4.99219C15.2344 4.8368 15.1727 4.68777 15.0627 4.57789L11.1566 0.671641C11.0468 0.561758 10.8977 0.5 10.7423 0.5H2.14844C0.963789 0.5 0 1.46379 0 2.64844V18.3516C0 19.5362 0.963789 20.5 2.14844 20.5H13.0859C14.2706 20.5 15.2344 19.5362 15.2344 18.3516V11.8672H17.9995L16.656 13.2107C16.4271 13.4395 16.4271 13.8105 16.656 14.0393C16.7704 14.1537 16.9204 14.2109 17.0703 14.2109C17.2203 14.2109 17.3702 14.1537 17.4846 14.0393L19.8284 11.6955C20.0572 11.4668 20.0572 11.0958 19.8284 10.867ZM13.2339 4.40625H11.3281V2.50055L13.2339 4.40625ZM14.0625 18.3516C14.0625 18.89 13.6244 19.3281 13.0859 19.3281H2.14844C1.60996 19.3281 1.17188 18.89 1.17188 18.3516V2.64844C1.17188 2.10996 1.60996 1.67188 2.14844 1.67188H10.1562V4.99219C10.1562 5.31578 10.4186 5.57812 10.7422 5.57812H14.0625V10.6953H10.0391C9.71547 10.6953 9.45312 10.9577 9.45312 11.2812C9.45312 11.6048 9.71547 11.8672 10.0391 11.8672H14.0625V18.3516Z" fill="#53535F" />
		</svg>
	</defs>
	<defs>
		<svg id="attendance" width="22" height="22" viewBox="0 0 22 22" fill="none" xmlns="http://www.w3.org/2000/svg">
			<path d="M21.5 4.99993C21.5 4.20428 21.1839 3.44122 20.6213 2.87861C20.0587 2.316 19.2956 1.99993 18.5 1.99993H17.75V1.27103C17.75 0.867432 17.4397 0.521025 17.0361 0.500869C16.9347 0.495983 16.8333 0.511737 16.7382 0.547175C16.6431 0.582613 16.5561 0.636999 16.4826 0.707035C16.4091 0.777072 16.3506 0.861302 16.3106 0.954621C16.2706 1.04794 16.25 1.14841 16.25 1.24993V1.99993H5.75V1.27103C5.75 0.867432 5.43969 0.521025 5.03609 0.500869C4.93469 0.495983 4.83334 0.511737 4.7382 0.547175C4.64307 0.582613 4.55611 0.636999 4.48261 0.707035C4.40911 0.777072 4.3506 0.861302 4.31062 0.954621C4.27063 1.04794 4.25001 1.14841 4.25 1.24993V1.99993H3.5C2.70435 1.99993 1.94129 2.316 1.37868 2.87861C0.816071 3.44122 0.5 4.20428 0.5 4.99993V5.56243C0.5 5.61216 0.519754 5.65985 0.554918 5.69501C0.590081 5.73018 0.637772 5.74993 0.6875 5.74993H21.3125C21.3622 5.74993 21.4099 5.73018 21.4451 5.69501C21.4802 5.65985 21.5 5.61216 21.5 5.56243V4.99993ZM0.5 18.4999C0.5 19.2956 0.816071 20.0586 1.37868 20.6213C1.94129 21.1839 2.70435 21.4999 3.5 21.4999H18.5C19.2956 21.4999 20.0587 21.1839 20.6213 20.6213C21.1839 20.0586 21.5 19.2956 21.5 18.4999V7.39056C21.5 7.35326 21.4852 7.31749 21.4588 7.29112C21.4324 7.26475 21.3967 7.24993 21.3594 7.24993H0.640625C0.603329 7.24993 0.56756 7.26475 0.541188 7.29112C0.514816 7.31749 0.5 7.35326 0.5 7.39056V18.4999ZM16.625 8.74993C16.8475 8.74993 17.065 8.81591 17.25 8.93953C17.435 9.06314 17.5792 9.23885 17.6644 9.44441C17.7495 9.64998 17.7718 9.87618 17.7284 10.0944C17.685 10.3126 17.5778 10.5131 17.4205 10.6704C17.2632 10.8278 17.0627 10.9349 16.8445 10.9783C16.6262 11.0217 16.4 10.9994 16.1945 10.9143C15.9889 10.8291 15.8132 10.685 15.6896 10.4999C15.566 10.3149 15.5 10.0974 15.5 9.87493C15.5 9.57656 15.6185 9.29041 15.8295 9.07944C16.0405 8.86846 16.3266 8.74993 16.625 8.74993ZM16.625 12.4999C16.8475 12.4999 17.065 12.5659 17.25 12.6895C17.435 12.8131 17.5792 12.9888 17.6644 13.1944C17.7495 13.4 17.7718 13.6262 17.7284 13.8444C17.685 14.0626 17.5778 14.2631 17.4205 14.4204C17.2632 14.5778 17.0627 14.6849 16.8445 14.7283C16.6262 14.7717 16.4 14.7494 16.1945 14.6643C15.9889 14.5791 15.8132 14.435 15.6896 14.2499C15.566 14.0649 15.5 13.8474 15.5 13.6249C15.5 13.3266 15.6185 13.0404 15.8295 12.8294C16.0405 12.6185 16.3266 12.4999 16.625 12.4999ZM12.875 8.74993C13.0975 8.74993 13.315 8.81591 13.5 8.93953C13.685 9.06314 13.8292 9.23885 13.9144 9.44441C13.9995 9.64998 14.0218 9.87618 13.9784 10.0944C13.935 10.3126 13.8278 10.5131 13.6705 10.6704C13.5132 10.8278 13.3127 10.9349 13.0945 10.9783C12.8762 11.0217 12.65 10.9994 12.4445 10.9143C12.2389 10.8291 12.0632 10.685 11.9396 10.4999C11.816 10.3149 11.75 10.0974 11.75 9.87493C11.75 9.57656 11.8685 9.29041 12.0795 9.07944C12.2905 8.86846 12.5766 8.74993 12.875 8.74993ZM12.875 12.4999C13.0975 12.4999 13.315 12.5659 13.5 12.6895C13.685 12.8131 13.8292 12.9888 13.9144 13.1944C13.9995 13.4 14.0218 13.6262 13.9784 13.8444C13.935 14.0626 13.8278 14.2631 13.6705 14.4204C13.5132 14.5778 13.3127 14.6849 13.0945 14.7283C12.8762 14.7717 12.65 14.7494 12.4445 14.6643C12.2389 14.5791 12.0632 14.435 11.9396 14.2499C11.816 14.0649 11.75 13.8474 11.75 13.6249C11.75 13.3266 11.8685 13.0404 12.0795 12.8294C12.2905 12.6185 12.5766 12.4999 12.875 12.4999ZM12.875 16.2499C13.0975 16.2499 13.315 16.3159 13.5 16.4395C13.685 16.5631 13.8292 16.7388 13.9144 16.9444C13.9995 17.15 14.0218 17.3762 13.9784 17.5944C13.935 17.8126 13.8278 18.0131 13.6705 18.1704C13.5132 18.3278 13.3127 18.4349 13.0945 18.4783C12.8762 18.5217 12.65 18.4994 12.4445 18.4143C12.2389 18.3291 12.0632 18.185 11.9396 17.9999C11.816 17.8149 11.75 17.5974 11.75 17.3749C11.75 17.0766 11.8685 16.7904 12.0795 16.5794C12.2905 16.3685 12.5766 16.2499 12.875 16.2499ZM9.125 12.4999C9.3475 12.4999 9.56501 12.5659 9.75002 12.6895C9.93502 12.8131 10.0792 12.9888 10.1644 13.1944C10.2495 13.4 10.2718 13.6262 10.2284 13.8444C10.185 14.0626 10.0778 14.2631 9.9205 14.4204C9.76316 14.5778 9.56271 14.6849 9.34448 14.7283C9.12625 14.7717 8.90005 14.7494 8.69448 14.6643C8.48891 14.5791 8.31321 14.435 8.1896 14.2499C8.06598 14.0649 8 13.8474 8 13.6249C8 13.3266 8.11853 13.0404 8.3295 12.8294C8.54048 12.6185 8.82663 12.4999 9.125 12.4999ZM9.125 16.2499C9.3475 16.2499 9.56501 16.3159 9.75002 16.4395C9.93502 16.5631 10.0792 16.7388 10.1644 16.9444C10.2495 17.15 10.2718 17.3762 10.2284 17.5944C10.185 17.8126 10.0778 18.0131 9.9205 18.1704C9.76316 18.3278 9.56271 18.4349 9.34448 18.4783C9.12625 18.5217 8.90005 18.4994 8.69448 18.4143C8.48891 18.3291 8.31321 18.185 8.1896 17.9999C8.06598 17.8149 8 17.5974 8 17.3749C8 17.0766 8.11853 16.7904 8.3295 16.5794C8.54048 16.3685 8.82663 16.2499 9.125 16.2499ZM5.375 12.4999C5.5975 12.4999 5.81501 12.5659 6.00002 12.6895C6.18502 12.8131 6.32922 12.9888 6.41436 13.1944C6.49951 13.4 6.52179 13.6262 6.47838 13.8444C6.43498 14.0626 6.32783 14.2631 6.1705 14.4204C6.01316 14.5778 5.81271 14.6849 5.59448 14.7283C5.37625 14.7717 5.15005 14.7494 4.94448 14.6643C4.73891 14.5791 4.56321 14.435 4.4396 14.2499C4.31598 14.0649 4.25 13.8474 4.25 13.6249C4.25 13.3266 4.36853 13.0404 4.5795 12.8294C4.79048 12.6185 5.07663 12.4999 5.375 12.4999ZM5.375 16.2499C5.5975 16.2499 5.81501 16.3159 6.00002 16.4395C6.18502 16.5631 6.32922 16.7388 6.41436 16.9444C6.49951 17.15 6.52179 17.3762 6.47838 17.5944C6.43498 17.8126 6.32783 18.0131 6.1705 18.1704C6.01316 18.3278 5.81271 18.4349 5.59448 18.4783C5.37625 18.5217 5.15005 18.4994 4.94448 18.4143C4.73891 18.3291 4.56321 18.185 4.4396 17.9999C4.31598 17.8149 4.25 17.5974 4.25 17.3749C4.25 17.0766 4.36853 16.7904 4.5795 16.5794C4.79048 16.3685 5.07663 16.2499 5.375 16.2499Z" fill="#FE9300" />
		</svg>
	</defs>
	<defs>
		<svg id="edit-square" width="20" height="20" viewBox="0 0 20 20" fill="none" xmlns="http://www.w3.org/2000/svg">
			<g clip-path="url(#clip0_10152_1725)">
				<path d="M9.16669 3.33344H3.33335C2.89133 3.33344 2.4674 3.50904 2.15484 3.8216C1.84228 4.13416 1.66669 4.55808 1.66669 5.00011V16.6668C1.66669 17.1088 1.84228 17.5327 2.15484 17.8453C2.4674 18.1578 2.89133 18.3334 3.33335 18.3334H15C15.442 18.3334 15.866 18.1578 16.1785 17.8453C16.4911 17.5327 16.6667 17.1088 16.6667 16.6668V10.8334M15.4167 2.08344C15.7482 1.75192 16.1978 1.56567 16.6667 1.56567C17.1355 1.56567 17.5852 1.75192 17.9167 2.08344C18.2482 2.41496 18.4345 2.8646 18.4345 3.33344C18.4345 3.80228 18.2482 4.25192 17.9167 4.58344L10 12.5001L6.66669 13.3334L7.50002 10.0001L15.4167 2.08344Z" stroke="white" stroke-width="1.5" stroke-linecap="round" stroke-linejoin="round" />
			</g>
			<defs>
				<clipPath id="clip0_10152_1725">
					<rect width="20" height="20" fill="white" />
				</clipPath>
			</defs>
		</svg>
	</defs>
	<defs>
		<svg id="power" width="20" height="20" viewBox="0 0 20 20" fill="none" xmlns="http://www.w3.org/2000/svg">
			<path d="M14.0625 2.96375C15.6115 3.85805 16.8221 5.23846 17.5065 6.8909C18.191 8.54335 18.3111 10.3755 17.8481 12.1031C17.3852 13.8308 16.3652 15.3574 14.9462 16.4462C13.5272 17.535 11.7886 18.1252 10 18.1252C8.21141 18.1252 6.4728 17.535 5.05382 16.4462C3.63483 15.3574 2.61478 13.8308 2.15186 12.1031C1.68893 10.3755 1.80902 8.54335 2.49348 6.8909C3.17795 5.23846 4.38854 3.85805 5.9375 2.96375M10 1.875V8.125" stroke="white" stroke-width="1.5" stroke-linecap="round" stroke-linejoin="round" />
		</svg>
	</defs>
	<defs>
		<svg id="arrow-left" width="10" height="18" viewBox="0 0 10 18" fill="none" xmlns="http://www.w3.org/2000/svg">
			<path d="M2.06617 9.00019L9.66948 1.39671C9.989 1.07718 9.989 0.559166 9.66948 0.239639C9.34995 -0.0798886 8.83193 -0.0798887 8.5124 0.239693L0.330584 8.42173C0.177094 8.57511 0.0909119 8.7832 0.0909119 9.00019C0.0909119 9.21722 0.177148 9.42531 0.330584 9.57875L8.5124 17.7603C8.67211 17.9201 8.88151 18 9.09091 18C9.30031 18 9.50971 17.9201 9.66948 17.7603C9.989 17.4408 9.989 16.9228 9.66948 16.6032L2.06617 9.00019Z" fill="#1F71DF" />
		</svg>
	</defs>
	<defs>
		<svg id="arrow-right" width="10" height="18" viewBox="0 0 10 18" fill="none" xmlns="http://www.w3.org/2000/svg">
			<path d="M7.93383 8.99981L0.330524 16.6033C0.0109978 16.9228 0.0109978 17.4408 0.330524 17.7604C0.650052 18.0799 1.16807 18.0799 1.4876 17.7603L9.66942 9.57827C9.82291 9.42489 9.90909 9.2168 9.90909 8.99981C9.90909 8.78278 9.82285 8.57469 9.66942 8.42125L1.4876 0.239651C1.32789 0.0798874 1.11849 3.24249e-05 0.909088 3.24249e-05C0.699688 3.24249e-05 0.490289 0.0798874 0.330524 0.239706C0.0109978 0.559233 0.0109978 1.07725 0.330524 1.39678L7.93383 8.99981Z" fill="#1F71DF" />
		</svg>
	</defs>
	<defs>
		<svg id="image-placeholder" width="18" height="14" viewBox="0 0 18 14" fill="none" xmlns="http://www.w3.org/2000/svg">
			<path d="M18 2.31255V11.6875C18 12.8276 17.0776 13.75 15.9375 13.75H2.06255C1.87495 13.75 1.69505 13.7275 1.52998 13.675C0.645035 13.4425 0 12.64 0 11.6875V2.31255C0 1.17244 0.92244 0.25 2.06255 0.25H15.9375C17.0776 0.25 18 1.17244 18 2.31255Z" fill="#ECEFF1" />
			<path d="M5.24995 4.00005C5.24995 4.82841 4.57841 5.49995 3.75005 5.49995C2.92154 5.49995 2.25 4.82841 2.25 4.00005C2.25 3.17154 2.92154 2.5 3.75005 2.5C4.57841 2.5 5.24995 3.17154 5.24995 4.00005Z" fill="#FFC107" />
			<path d="M18 9.95497V11.6874C18 12.8275 17.0775 13.7499 15.9374 13.7499H2.06253C1.87494 13.7499 1.69504 13.7274 1.52997 13.6749L10.695 4.50987C11.2049 3.99997 12.045 3.99997 12.555 4.50987L18 9.95497Z" fill="#388E3C" />
			<path d="M12.795 13.75H2.06255C1.87495 13.75 1.69505 13.7275 1.52998 13.675C0.645035 13.4425 0 12.6399 0 11.6874V11.4549L4.31996 7.13497C4.83 6.62493 5.67004 6.62493 6.17995 7.13497L12.795 13.75Z" fill="#4CAF50" />
		</svg>
	</defs>
	<defs>
		<svg id="donwload" width="17" height="16" viewBox="0 0 17 16" fill="none" xmlns="http://www.w3.org/2000/svg">
			<g clip-path="url(#clip0_9952_3909)">
				<path d="M12.8871 14.9678H4.37098C4.22845 14.9678 4.11292 15.0833 4.11292 15.2258V15.4839C4.11292 15.6264 4.22845 15.742 4.37098 15.742H12.8871C13.0296 15.742 13.1452 15.6264 13.1452 15.4839V15.2258C13.1452 15.0833 13.0296 14.9678 12.8871 14.9678Z" fill="#B4E77A" />
				<path d="M13.1243 6.96775H10.8225V0.258063C10.8225 0.115531 10.707 0 10.5645 0H6.69351L6.36798 7.17294L4.10101 7.38703L8.37023 12.9625L8.7902 13.0565L13.3258 7.38703C13.461 7.21803 13.3407 6.96775 13.1243 6.96775Z" fill="#B4E77A" />
				<path d="M4.88705 15.4839C4.60198 15.4839 4.37092 15.2528 4.37092 14.9678H4.11286C3.97033 14.9678 3.8548 15.0833 3.8548 15.2258V15.742C3.8548 15.8845 3.97033 16 4.11286 16H12.887C13.0296 16 13.1451 15.8845 13.1451 15.742V15.4839H4.88705Z" fill="#94D77B" />
				<path d="M5.46961 7.48387H6.17739C6.46245 7.48387 6.69351 7.25278 6.69351 6.96775V0H6.43545C6.29292 0 6.17739 0.115531 6.17739 0.258063V6.96775H3.8756C3.65923 6.96775 3.53892 7.21806 3.67411 7.38703L8.29845 13.1675C8.40176 13.2966 8.59817 13.2966 8.70148 13.1675L8.79023 13.0565L5.06395 8.31909C4.79761 7.98047 5.03882 7.48387 5.46961 7.48387Z" fill="#94D77B" />
			</g>
			<defs>
				<clipPath id="clip0_9952_3909">
					<rect width="16" height="16" fill="white" transform="translate(0.5)" />
				</clipPath>
			</defs>
		</svg>
	</defs>
	<defs>
		<svg id="browse-image" width="16" height="14" viewBox="0 0 16 14" fill="none" xmlns="http://www.w3.org/2000/svg">
			<path d="M13.625 0.25H2.375C1.77846 0.250651 1.20654 0.487914 0.784729 0.909729C0.362913 1.33154 0.125651 1.90346 0.125 2.5V11.5C0.125651 12.0965 0.362913 12.6685 0.784729 13.0903C1.20654 13.5121 1.77846 13.7493 2.375 13.75H13.625C14.2215 13.7493 14.7935 13.5121 15.2153 13.0903C15.6371 12.6685 15.8743 12.0965 15.875 11.5V2.5C15.8743 1.90346 15.6371 1.33154 15.2153 0.909729C14.7935 0.487914 14.2215 0.250651 13.625 0.25ZM10.8125 2.5C11.1463 2.5 11.4725 2.59897 11.75 2.7844C12.0275 2.96982 12.2438 3.23337 12.3715 3.54172C12.4993 3.85007 12.5327 4.18937 12.4676 4.51672C12.4025 4.84406 12.2417 5.14474 12.0057 5.38074C11.7697 5.61674 11.4691 5.77746 11.1417 5.84258C10.8144 5.90769 10.4751 5.87427 10.1667 5.74655C9.85837 5.61882 9.59482 5.40253 9.40939 5.12502C9.22397 4.84752 9.125 4.52126 9.125 4.1875C9.12547 3.74009 9.3034 3.31114 9.61977 2.99477C9.93614 2.6784 10.3651 2.50047 10.8125 2.5ZM2.375 12.625C2.07663 12.625 1.79048 12.5065 1.5795 12.2955C1.36853 12.0845 1.25 11.7984 1.25 11.5V9.12238L4.58422 6.15871C4.90591 5.8734 5.32428 5.72148 5.75409 5.73389C6.1839 5.7463 6.5928 5.92211 6.8975 6.22551L9.1809 8.50398L5.05988 12.625H2.375ZM14.75 11.5C14.75 11.7984 14.6315 12.0845 14.4205 12.2955C14.2095 12.5065 13.9234 12.625 13.625 12.625H6.65105L10.9197 8.35633C11.222 8.09931 11.6055 7.95772 12.0022 7.95669C12.3989 7.95566 12.7832 8.09526 13.0868 8.3507L14.75 9.73656V11.5Z" fill="white" />
		</svg>
	</defs>
	<defs>
		<svg id="pdf" data-name="pdf (2)" xmlns="http://www.w3.org/2000/svg" width="20" height="22.857" viewBox="0 0 20 22.857">
			<path id="Path_946" data-name="Path 946" d="M20.758,0H32.9l6.434,6.409v15.02A1.429,1.429,0,0,1,37.9,22.857H20.758a1.429,1.429,0,0,1-1.429-1.429v-20A1.429,1.429,0,0,1,20.758,0Z" transform="translate(-19.329)" fill="#e2574c" />
			<path id="Path_947" data-name="Path 947" d="M209.365,6.607h-4.979a1.429,1.429,0,0,1-1.429-1.429V.193Z" transform="translate(-189.385 -0.179)" fill="#b53629" />
			<path id="Path_948" data-name="Path 948" d="M96.712,136.242a.415.415,0,0,0,0-.822H95.349a.426.426,0,0,0-.415.464v3.349c0,.3.17.464.4.464s.4-.166.4-.464v-.919h.824a.387.387,0,0,0,.384-.417.38.38,0,0,0-.384-.406h-.824v-1.249Zm-4.606-.822h-1a.441.441,0,0,0-.463.461v3.355a.439.439,0,0,0,.474.449h1.046a1.941,1.941,0,0,0,2.056-2.073A1.992,1.992,0,0,0,92.106,135.42Zm.048,3.439h-.608v-2.611h.548c.829,0,1.19.556,1.19,1.324C93.284,138.29,92.929,138.859,92.154,138.859ZM88.5,135.42h-.988a.415.415,0,0,0-.435.464v3.349a.421.421,0,1,0,.837,0v-.978h.619a1.352,1.352,0,0,0,1.4-1.412A1.368,1.368,0,0,0,88.5,135.42Zm-.016,2.05h-.569v-1.264h.569a.635.635,0,0,1,0,1.264Z" transform="translate(-82.071 -125.411)" fill="#fff" />
		</svg>
	</defs>
	<defs>
		<svg id="csv" data-name="pdf (2)" xmlns="http://www.w3.org/2000/svg" width="20" height="22.857" viewBox="0 0 20 22.857">
			<path id="Path_946" data-name="Path 946" d="M20.758,0H32.9l6.434,6.409v15.02A1.429,1.429,0,0,1,37.9,22.857H20.758a1.429,1.429,0,0,1-1.429-1.429v-20A1.429,1.429,0,0,1,20.758,0Z" transform="translate(-19.329)" fill="#259a60" />
			<path id="Path_947" data-name="Path 947" d="M209.365,6.607h-4.979a1.429,1.429,0,0,1-1.429-1.429V.193Z" transform="translate(-189.385 -0.179)" fill="#0d6b3f" />
			<text id="CSV" transform="translate(4 14.336)" fill="#fff" font-size="6" font-family="SegoeUI-Bold, Segoe UI" font-weight="700">
				<tspan x="0" y="0">
					CSV
				</tspan>
			</text>
		</svg>
	</defs>
	<defs>
		<svg id="courses" width="24" height="24" viewBox="0 0 24 24" fill="none" xmlns="http://www.w3.org/2000/svg">
			<g clip-path="url(#clip0_10549_2641)">
				<path d="M20.9785 7.13058H13.63L15.0889 6.6443L16.2168 5.59452L17.5645 5.1453L18.3349 5.56227L18.9121 4.69608L19.7991 4.40036C20.0742 4.3089 20.2598 4.05159 20.2598 3.76139C20.2598 3.4712 20.0742 3.21389 19.7991 3.12242L11.7132 0.427112C11.575 0.381067 11.425 0.381067 11.2868 0.427112L3.20086 3.12242C2.92581 3.21398 2.74023 3.47124 2.74023 3.76144C2.74023 4.05163 2.92581 4.30895 3.20086 4.40041L6.7832 5.59452L8.05157 6.69115L9.37003 7.13062H2.02148C1.64935 7.13062 1.34766 7.43223 1.34766 7.80445V19.2595H21.6523V7.80445C21.6523 7.43223 21.3506 7.13058 20.9785 7.13058Z" fill="url(#paint0_linear_10549_2641)" />
				<path d="M7.08328 9.71294C7.17277 9.77282 9.29955 11.1738 11.5 11.1738C13.7005 11.1738 15.8272 9.77282 15.9167 9.71294C16.1043 9.58792 16.2168 9.37733 16.2168 9.15231V5.59473L11.7132 7.09593C11.6441 7.11897 11.5717 7.13079 11.5 7.13079C11.4283 7.13079 11.3559 7.11893 11.2868 7.09593L6.7832 5.59473V9.15231C6.7832 9.37733 6.89573 9.58792 7.08328 9.71294ZM18.2383 11.1738C18.6107 11.1738 18.9121 10.8724 18.9121 10.4999V4.69629L17.5645 5.14551V10.4999C17.5645 10.8724 17.8658 11.1738 18.2383 11.1738ZM22.3262 17.912H0.673828C0.301695 17.912 0 18.2137 0 18.5859C0 19.7023 0.905041 20.6073 2.02148 20.6073H20.9785C22.095 20.6073 23 19.7023 23 18.5859C23 18.2137 22.6983 17.912 22.3262 17.912Z" fill="url(#paint1_linear_10549_2641)" />
			</g>
			<defs>
				<linearGradient id="paint0_linear_10549_2641" x1="11.5" y1="19.2595" x2="11.5" y2="0.392657" gradientUnits="userSpaceOnUse">
					<stop stop-color="#5558FF" />
					<stop offset="1" stop-color="#00C0FF" />
				</linearGradient>
				<linearGradient id="paint1_linear_10549_2641" x1="11.5" y1="20.6073" x2="11.5" y2="4.69633" gradientUnits="userSpaceOnUse">
					<stop stop-color="#ADDCFF" />
					<stop offset="0.5028" stop-color="#EAF6FF" />
					<stop offset="1" stop-color="#EAF6FF" />
				</linearGradient>
				<clipPath id="clip0_10549_2641">
					<rect width="24" height="24" fill="white" />
				</clipPath>
			</defs>
		</svg>
	</defs>
	<defs>
		<svg id="disable" width="20" height="20" viewBox="0 0 20 20" fill="none" xmlns="http://www.w3.org/2000/svg">
			<g clip-path="url(#clip0_10603_6967)">
				<path d="M13.6661 2.42977C13.2444 2.24551 12.7531 2.43805 12.5689 2.85981C12.3846 3.28157 12.5771 3.77283 12.9989 3.95709C15.7103 5.14163 17.5 7.82341 17.5 10.8335C17.5 14.9755 14.1417 18.3336 9.99996 18.3336C5.85767 18.3336 2.49991 14.9758 2.49991 10.8335C2.49991 7.82407 4.28898 5.14229 6.99963 3.95697C7.42131 3.77259 7.6137 3.28126 7.42928 2.85958C7.2449 2.4379 6.75357 2.24551 6.33189 2.42993C3.01979 3.87818 0.833252 7.15578 0.833252 10.8335C0.833252 15.8962 4.93723 20.0002 10 20.0002C15.0622 20.0002 19.1668 15.896 19.1668 10.8335C19.1668 7.15493 16.9793 3.87716 13.6661 2.42977Z" fill="white" />
				<path d="M9.99971 9.16675C10.4599 9.16675 10.833 8.79366 10.833 8.33342V0.833366C10.8331 0.373089 10.4599 0 9.99971 0C9.53947 0 9.16638 0.373089 9.16638 0.833327V8.33339C9.16638 8.79362 9.53947 9.16675 9.99971 9.16675Z" fill="white" />
			</g>
			<defs>
				<clipPath id="clip0_10603_6967">
					<rect width="20" height="20" fill="white" />
				</clipPath>
			</defs>
		</svg>
	</defs>
	<defs>
		<svg id="poor-id" width="24" height="24" viewBox="0 0 24 24" fill="none" xmlns="http://www.w3.org/2000/svg">
			<g clip-path="url(#clip0_10717_5966)">
				<path d="M21.0376 0H12.0001C10.3638 0 9.0376 1.32385 9.0376 2.96246V16.5187C9.0376 17.0938 9.69714 17.4302 10.1626 17.0812L12.9875 14.9625H21.0376C22.6738 14.9625 24.0001 13.6386 24.0001 12V2.96246C24.0001 1.32623 22.6762 0 21.0376 0Z" fill="#EFF6FE" />
				<path d="M21.0374 0H16.5186V14.9625H21.0374C22.6738 14.9625 23.9999 13.6388 23.9999 12V2.96246C23.9999 1.32605 22.6762 0 21.0374 0Z" fill="#D9E4EF" />
				<path d="M17.2217 10.8701C17.2217 11.2585 16.9069 11.5732 16.5186 11.5732C16.1304 11.5732 15.8154 11.2585 15.8154 10.8701C15.8154 10.4819 16.1304 10.167 16.5186 10.167C16.9069 10.167 17.2217 10.4819 17.2217 10.8701Z" fill="#00D66A" />
				<path d="M16.5177 3.38867C15.0904 3.38867 13.9326 4.5437 13.9326 5.97375V5.97467C13.9326 6.36285 14.2474 6.67743 14.6357 6.67743C15.0241 6.67743 15.3389 6.36212 15.3389 5.97375C15.3389 5.32373 15.8646 4.79492 16.5186 4.79492C17.169 4.79492 17.6982 5.3241 17.6982 5.97467C17.6982 6.62506 17.169 7.15424 16.5186 7.15424C16.1302 7.15424 15.8155 7.46918 15.8155 7.85736V8.61047C15.8155 8.99884 16.1302 9.3136 16.5186 9.3136C16.9068 9.3136 17.2217 8.99884 17.2217 8.61047V8.46344C18.307 8.15637 19.1044 7.1568 19.1044 5.97467C19.1044 4.54865 17.9445 3.38867 16.5177 3.38867Z" fill="#00D66A" />
				<path d="M17.2217 10.8701C17.2217 11.2583 16.9067 11.5732 16.5186 11.5732V10.167C16.9067 10.167 17.2217 10.4821 17.2217 10.8701Z" fill="#00B85E" />
				<path d="M19.1047 5.97467C19.1047 7.15698 18.3069 8.15637 17.2217 8.46326V8.61047C17.2217 8.99866 16.9067 9.3136 16.5186 9.3136V7.15405C17.1693 7.15405 17.6985 6.62488 17.6985 5.97467C17.6985 5.3241 17.1693 4.79492 16.5186 4.79492V3.38867C17.9449 3.38904 19.1047 4.54919 19.1047 5.97467Z" fill="#00B85E" />
				<path d="M7.79248 14.6198C7.79248 16.4554 6.30438 17.9435 4.46875 17.9435C2.63312 17.9435 1.14502 16.4554 1.14502 14.6198C1.14502 12.784 2.63312 11.2959 4.46875 11.2959C6.30438 11.2959 7.79248 12.784 7.79248 14.6198Z" fill="#FFCFBE" />
				<path d="M7.79218 14.6198C7.79218 16.4554 6.30389 17.9434 4.46826 17.9434V11.2959C6.30389 11.2959 7.79218 12.7842 7.79218 14.6198Z" fill="#F9BCAA" />
				<path d="M4.46869 17.9443C2.00079 17.9443 0 19.9451 0 22.413V23.2972C0 23.6856 0.314758 24.0004 0.703125 24.0004H8.23444C8.62262 24.0004 8.93756 23.6856 8.93756 23.2972V22.413C8.93756 19.9451 6.93677 17.9443 4.46869 17.9443Z" fill="#FFCC4B" />
				<path d="M4.46844 17.9443C4.46844 17.9443 4.46844 17.9443 4.46826 17.9443V24.0004H8.23401C8.62238 24.0004 8.93713 23.6856 8.93713 23.2972V22.413C8.93732 19.9451 6.93652 17.9443 4.46844 17.9443Z" fill="#FFB826" />
			</g>
			<defs>
				<clipPath id="clip0_10717_5966">
					<rect width="24" height="24" fill="white" />
				</clipPath>
			</defs>
		</svg>
	</defs>
	<defs>
		<svg id="setting" width="24" height="22" viewBox="0 0 24 22" fill="none" xmlns="http://www.w3.org/2000/svg">
			<path d="M23.2943 2.88224V15.5281H0.706055V2.88224C0.706055 1.61523 1.73308 0.581055 3.00371 0.581055H20.9896C22.2602 0.581055 23.2943 1.61523 23.2943 2.88224Z" fill="#435E88" />
			<path d="M23.2943 2.88224V15.5281H0.706055L20.9896 0.581055C22.2602 0.581055 23.2943 1.61523 23.2943 2.88224Z" fill="#33527D" />
			<path d="M2.08984 14.1434V2.88113C2.08984 2.37643 2.50046 1.96582 3.00515 1.96582H20.9895C21.4973 1.96582 21.9106 2.37643 21.9106 2.88113V14.1434H2.08984Z" fill="white" />
			<path d="M23.2943 15.5273C23.2943 16.7992 22.2617 17.8265 20.9897 17.8265H3.00533C1.73327 17.8265 0.706055 16.7992 0.706055 15.5273H23.2943Z" fill="#E5E8EF" />
			<path d="M16.7851 20.9611C16.7851 21.2111 16.5829 21.4188 16.3274 21.4188H7.68916C7.43903 21.4188 7.23145 21.2111 7.23145 20.9611C7.23145 20.7109 7.43903 20.5087 7.68916 20.5087C7.68916 20.5087 8.0032 20.5245 8.10965 20.5087C9.96716 20.2106 10.0949 17.8262 10.0949 17.8262H13.9217C13.9217 17.8262 14.0494 20.2106 15.9069 20.5087C16.0134 20.5245 16.3274 20.5087 16.3274 20.5087C16.5829 20.5087 16.7851 20.7109 16.7851 20.9611Z" fill="#E5E8EF" />
			<path d="M14.0697 18.6279C13.9415 18.1783 13.9216 17.8262 13.9216 17.8262H10.0948C10.0948 17.8262 10.075 18.1783 9.94678 18.6279H14.0697Z" fill="#CDD4DF" />
			<path d="M12.5324 16.6748C12.5324 16.9716 12.2969 17.2119 12 17.2119C11.7033 17.2119 11.4678 16.9716 11.4678 16.6748C11.4678 16.3827 11.7033 16.1426 12 16.1426C12.2969 16.1426 12.5324 16.3827 12.5324 16.6748Z" fill="#CDD4DF" />
			<path d="M4.50334 3.52861C4.50334 3.61421 4.46856 3.69155 4.41272 3.74785C4.35643 3.8037 4.27908 3.83847 4.19348 3.83847H3.66728C3.49609 3.83847 3.35742 3.6998 3.35742 3.52861C3.35742 3.44304 3.39221 3.36567 3.44804 3.30937C3.50434 3.25355 3.58169 3.21875 3.66728 3.21875H4.19348C4.36466 3.21875 4.50334 3.35744 4.50334 3.52861Z" fill="#CDD4DF" />
			<path d="M7.89497 3.52861C7.89497 3.61421 7.86018 3.69155 7.80434 3.74785C7.74805 3.8037 7.6707 3.83847 7.5851 3.83847H5.43047C5.25928 3.83847 5.12061 3.6998 5.12061 3.52861C5.12061 3.44304 5.15539 3.36567 5.21123 3.30937C5.26752 3.25355 5.34487 3.21875 5.43047 3.21875H7.5851C7.75628 3.21875 7.89497 3.35744 7.89497 3.52861Z" fill="#CDD4DF" />
			<path d="M6.15522 4.94463C6.15522 5.03022 6.12043 5.10757 6.0646 5.16386C6.0083 5.21971 5.93095 5.25449 5.84536 5.25449H3.69072C3.51953 5.25449 3.38086 5.11582 3.38086 4.94463C3.38086 4.85905 3.41564 4.78168 3.47148 4.72539C3.52778 4.66956 3.60513 4.63477 3.69072 4.63477H5.84536C6.01654 4.63477 6.15522 4.77346 6.15522 4.94463Z" fill="#CDD4DF" />
			<path d="M13.003 3.48868L13.1653 4.82598H10.8354L10.9977 3.48868C11.0135 3.35849 11.1173 3.25603 11.2478 3.24291C11.7495 3.19247 12.2512 3.19247 12.7529 3.24291C12.8834 3.25603 12.9872 3.35849 13.003 3.48868Z" fill="#C175FF" />
			<path d="M10.9977 12.6205L10.8354 11.2832H13.1653L13.003 12.6205C12.9872 12.7507 12.8834 12.8532 12.7529 12.8663C12.2512 12.9167 11.7495 12.9167 11.2478 12.8663C11.1173 12.8532 11.0135 12.7507 10.9977 12.6205Z" fill="#C175FF" />
			<path d="M9.4808 4.11658L10.5412 4.94745L8.89375 6.59489L8.06287 5.53453C7.98198 5.43131 7.98293 5.28546 8.06591 5.18392C8.385 4.79349 8.73976 4.43872 9.13019 4.11963C9.23173 4.03664 9.37758 4.03569 9.4808 4.11658Z" fill="#C175FF" />
			<path d="M14.5198 11.991L13.4595 11.1601L15.1069 9.5127L15.9378 10.5731C16.0187 10.6763 16.0177 10.8221 15.9347 10.9237C15.6156 11.3141 15.2609 11.6689 14.8704 11.988C14.7689 12.0709 14.6231 12.0719 14.5198 11.991Z" fill="#C175FF" />
			<path d="M7.43446 7.05192L8.77177 6.88965L8.7718 9.21946L7.4345 9.0572C7.30431 9.0414 7.20185 8.93761 7.18872 8.80712C7.13827 8.30542 7.13826 7.8037 7.1887 7.302C7.20182 7.17152 7.30428 7.06772 7.43446 7.05192Z" fill="#C175FF" />
			<path d="M16.5659 9.05719L15.2286 9.21946L15.2285 6.88965L16.5658 7.05191C16.696 7.06771 16.7985 7.1715 16.8116 7.30199C16.862 7.80369 16.8621 8.30541 16.8116 8.80711C16.7985 8.93759 16.696 9.04139 16.5659 9.05719Z" fill="#C175FF" />
			<path d="M8.06286 10.574L8.89373 9.51367L10.5412 11.1611L9.48084 11.992C9.37762 12.0728 9.23177 12.0719 9.13023 11.9889C8.73979 11.6698 8.38502 11.3151 8.06592 10.9246C7.98293 10.8231 7.98198 10.6773 8.06286 10.574Z" fill="#C175FF" />
			<path d="M15.9378 5.53451L15.1069 6.59487L13.4595 4.94746L14.5198 4.11658C14.623 4.03569 14.7689 4.03664 14.8704 4.11962C15.2609 4.43871 15.6156 4.79347 15.9347 5.18389C16.0177 5.28543 16.0187 5.43128 15.9378 5.53451Z" fill="#C175FF" />
			<path d="M12 11.8848C14.1154 11.8848 15.8302 10.17 15.8302 8.05473C15.8302 5.93941 14.1154 4.22461 12 4.22461C9.88472 4.22461 8.16992 5.93941 8.16992 8.05473C8.16992 10.17 9.88472 11.8848 12 11.8848Z" fill="#C175FF" />
			<path d="M12.0002 10.4897C13.3452 10.4897 14.4355 9.39941 14.4355 8.05443C14.4355 6.70946 13.3452 5.61914 12.0002 5.61914C10.6553 5.61914 9.56494 6.70946 9.56494 8.05443C9.56494 9.39941 10.6553 10.4897 12.0002 10.4897Z" fill="#B244F1" />
			<path d="M12.0001 9.77174C12.9486 9.77174 13.7175 9.00283 13.7175 8.05433C13.7175 7.10583 12.9486 6.33691 12.0001 6.33691C11.0516 6.33691 10.2827 7.10583 10.2827 8.05433C10.2827 9.00283 11.0516 9.77174 12.0001 9.77174Z" fill="white" />
		</svg>
	</defs>
	<defs>
		<svg id="edit-square-color" width="20" height="20" viewBox="0 0 20 20" fill="none" xmlns="http://www.w3.org/2000/svg">
			<g clip-path="url(#clip0_10959_16351)">
				<path d="M9.16663 3.3332H3.33329C2.89127 3.3332 2.46734 3.50879 2.15478 3.82135C1.84222 4.13391 1.66663 4.55784 1.66663 4.99986V16.6665C1.66663 17.1086 1.84222 17.5325 2.15478 17.845C2.46734 18.1576 2.89127 18.3332 3.33329 18.3332H15C15.442 18.3332 15.8659 18.1576 16.1785 17.845C16.491 17.5325 16.6666 17.1086 16.6666 16.6665V10.8332M15.4166 2.0832C15.7481 1.75168 16.1978 1.56543 16.6666 1.56543C17.1355 1.56543 17.5851 1.75168 17.9166 2.0832C18.2481 2.41472 18.4344 2.86436 18.4344 3.3332C18.4344 3.80204 18.2481 4.25168 17.9166 4.5832L9.99996 12.4999L6.66663 13.3332L7.49996 9.99986L15.4166 2.0832Z" stroke="#F1B20C" stroke-width="1.5" stroke-linecap="round" stroke-linejoin="round" />
			</g>
			<defs>
				<clipPath id="clip0_10959_16351">
					<rect width="20" height="20" fill="white" />
				</clipPath>
			</defs>
		</svg>
	</defs>
	<defs>
		<svg id="present-header" width="20" height="20" viewBox="0 0 20 20" fill="none" xmlns="http://www.w3.org/2000/svg">
			<path d="M7.49996 13.4752L4.60829 10.5835C4.45248 10.4277 4.24115 10.3402 4.02079 10.3402C3.80044 10.3402 3.58911 10.4277 3.43329 10.5835C3.27748 10.7393 3.18994 10.9507 3.18994 11.171C3.18994 11.2801 3.21143 11.3882 3.25319 11.489C3.29494 11.5898 3.35614 11.6814 3.43329 11.7585L6.91663 15.2419C7.24163 15.5669 7.76663 15.5669 8.09163 15.2419L16.9083 6.42519C17.0641 6.26937 17.1516 6.05804 17.1516 5.83769C17.1516 5.61733 17.0641 5.406 16.9083 5.25019C16.7525 5.09437 16.5411 5.00684 16.3208 5.00684C16.1004 5.00684 15.8891 5.09437 15.7333 5.25019L7.49996 13.4752Z" fill="#1F71DF" />
		</svg>
	</defs>
	<defs>
		<svg id="absent-header" width="20" height="20" viewBox="0 0 20 20" fill="none" xmlns="http://www.w3.org/2000/svg">
			<path d="M5.63171 14.3692L10.0009 10L14.37 14.3692M14.37 5.63086L10 10L5.63171 5.63086" stroke="#C71010" stroke-width="1.25" stroke-linecap="round" stroke-linejoin="round" />
		</svg>
	</defs>
	<defs>
		<svg id="permission-header" width="20" height="20" viewBox="0 0 20 20" fill="none" xmlns="http://www.w3.org/2000/svg">
			<path d="M11.1624 8.235L8.29994 8.59375L8.19744 9.06875L8.75994 9.1725C9.12744 9.26 9.19994 9.3925 9.11994 9.75875L8.19744 14.0938C7.95494 15.215 8.32869 15.7425 9.20744 15.7425C9.88869 15.7425 10.6799 15.4275 11.0387 14.995L11.1487 14.475C10.8987 14.695 10.5337 14.7825 10.2912 14.7825C9.94744 14.7825 9.82244 14.5413 9.91119 14.1163L11.1624 8.235ZM11.2499 5.625C11.2499 5.95652 11.1182 6.27446 10.8838 6.50888C10.6494 6.7433 10.3315 6.875 9.99994 6.875C9.66842 6.875 9.35048 6.7433 9.11606 6.50888C8.88164 6.27446 8.74994 5.95652 8.74994 5.625C8.74994 5.29348 8.88164 4.97554 9.11606 4.74112C9.35048 4.5067 9.66842 4.375 9.99994 4.375C10.3315 4.375 10.6494 4.5067 10.8838 4.74112C11.1182 4.97554 11.2499 5.29348 11.2499 5.625Z" fill="#453D83" />
		</svg>
	</defs>
	<defs>
		<svg id="add_new_color" width="20" height="20" viewBox="0 0 20 20" fill="none" xmlns="http://www.w3.org/2000/svg">
			<g clip-path="url(#clip0_10959_16957)">
				<g clip-path="url(#clip1_10959_16957)">
					<path d="M9.99999 6.66699V13.3337M6.66666 10.0003H13.3333M18.3333 10.0003C18.3333 14.6027 14.6024 18.3337 9.99999 18.3337C5.39762 18.3337 1.66666 14.6027 1.66666 10.0003C1.66666 5.39795 5.39762 1.66699 9.99999 1.66699C14.6024 1.66699 18.3333 5.39795 18.3333 10.0003Z" stroke="#1F71DF" stroke-width="1.5" stroke-linecap="round" stroke-linejoin="round" />
				</g>
			</g>
			<defs>
				<clipPath id="clip0_10959_16957">
					<rect width="20" height="20" fill="white" />
				</clipPath>
				<clipPath id="clip1_10959_16957">
					<rect width="20" height="20" fill="white" />
				</clipPath>
			</defs>
		</svg>
	</defs>
	<defs>
		<svg id="send" width="20" height="20" viewBox="0 0 20 20" fill="none" xmlns="http://www.w3.org/2000/svg">
			<g clip-path="url(#clip0_11221_7458)">
				<path d="M18.3334 1.66699L9.16669 10.8337M18.3334 1.66699L12.5 18.3337L9.16669 10.8337M18.3334 1.66699L1.66669 7.50033L9.16669 10.8337" stroke="white" stroke-width="1.5" stroke-linecap="round" stroke-linejoin="round" />
			</g>
			<defs>
				<clipPath id="clip0_11221_7458">
					<rect width="20" height="20" fill="white" />
				</clipPath>
			</defs>
		</svg>
	</defs>
	<defs>
		<svg id="save-color" width="24" height="24" viewBox="0 0 24 24" fill="none" xmlns="http://www.w3.org/2000/svg">
			<path d="M17 21V13H7V21M7 3V8H15M19 21H5C4.46957 21 3.96086 20.7893 3.58579 20.4142C3.21071 20.0391 3 19.5304 3 19V5C3 4.46957 3.21071 3.96086 3.58579 3.58579C3.96086 3.21071 4.46957 3 5 3H16L21 8V19C21 19.5304 20.7893 20.0391 20.4142 20.4142C20.0391 20.7893 19.5304 21 19 21Z" stroke="#1F71DF" stroke-width="1.5" stroke-linecap="round" stroke-linejoin="round" />
		</svg>
	</defs>
	<defs>
		<svg id="mat-payment" width="22" height="16" viewBox="0 0 22 16" fill="none" xmlns="http://www.w3.org/2000/svg">
			<path d="M22 4V14C22 15.1 21.1 16 20 16H4C3.45 16 3 15.55 3 15C3 14.45 3.45 14 4 14H20V4C20 3.45 20.45 3 21 3C21.55 3 22 3.45 22 4ZM3 12C1.34 12 0 10.66 0 9V3C0 1.34 1.34 0 3 0H15C16.66 0 18 1.34 18 3V10C18 11.1 17.1 12 16 12H3ZM6 6C6 7.66 7.34 9 9 9C10.66 9 12 7.66 12 6C12 4.34 10.66 3 9 3C7.34 3 6 4.34 6 6Z" fill="#0FA958" />
		</svg>
	</defs>
	<defs>
		<svg id="resend" width="20" height="20" viewBox="0 0 20 20" fill="none" xmlns="http://www.w3.org/2000/svg">
			<path d="M18.3333 1.66666L9.16663 10.8333M18.3333 1.66666L12.5 18.3333L9.16663 10.8333M18.3333 1.66666L1.66663 7.49999L9.16663 10.8333" stroke="white" stroke-width="1.5" stroke-linecap="round" stroke-linejoin="round" />
		</svg>
	</defs>
	<defs>
		<svg id="sector" enable-background="new 0 0 512 512" height="512" viewBox="0 0 512 512" width="512" xmlns="http://www.w3.org/2000/svg">
			<g>
				<path d="m274.4 324.6v57.9c-15 0-27.3 12.2-27.3 27.3 0 15 12.2 27.3 27.3 27.3v57.9h-153.6c-9.3 0-16.8-7.5-16.8-16.7v-153.7h58c0-15.1 12.2-27.3 27.3-27.3s27.3 12.2 27.3 27.3z" fill="#ffa91e" />
				<path d="m465.1 143.5-44.9 147-55.4-16.9c-4.4 14.4-19.6 22.5-34 18.1s-22.5-19.6-18.1-34l-19.3-5.9-36.1-11 16.9-55.3c14.4 4.4 29.6-3.8 34-18.2s-3.7-29.6-18.1-34l17-55.4 92.2 28.2 54.6 16.7c8.9 2.5 13.9 11.9 11.2 20.7z" fill="#48bbed" />
				<path d="m211.9 185.8 11.3 56.8-56.9 11.3c-2.9-14.8-17.2-24.4-32-21.5s-24.3 17.2-21.5 32l-46.2 9.2-10.6 2.2-29.9-150.8c-1.8-9 4.1-17.9 13.2-19.6l150.8-29.9 2.8 14.3 8.4 42.5c14.8-2.9 29.1 6.7 32 21.5 3 14.7-6.6 29.1-21.4 32z" fill="#676fce" />
				<path d="m511 333.9-10.1 111-3.8 42.1c-.9 9.2-9 16-18.3 15.1l-152.9-13.9 5.2-57.6c-15-1.4-26-14.7-24.7-29.7 1.4-14.9 14.6-26 29.6-24.7l2.3-25.9 2.9-31.8 57.7 5.2c-1.4 15 9.7 28.2 24.7 29.6s28.3-9.7 29.7-24.7z" fill="#d9e0ed" />
				<g>
					<path d="m189.2 50.5c-5.5 0-9.9-4.4-9.9-9.9v-20.9c0-5.5 4.4-9.9 9.9-9.9s9.9 4.4 9.9 9.9v20.9c0 5.5-4.4 9.9-9.9 9.9z" fill="#5656b2" />
				</g>
				<g>
					<path d="m220.4 68.2c-2.7 0-5.4-1.1-7.3-3.3-3.6-4.1-3.3-10.3.7-13.9l15.5-14c4.1-3.6 10.3-3.3 13.9.7 3.6 4.1 3.3 10.3-.7 13.9l-15.5 14c-1.9 1.8-4.2 2.6-6.6 2.6z" fill="#5656b2" />
				</g>
				<g>
					<path d="m57.6 341.4c-5.5 0-9.9-4.4-9.9-9.9v-20.9c0-5.5 4.4-9.9 9.9-9.9s9.9 4.4 9.9 9.9v20.9c0 5.5-4.4 9.9-9.9 9.9z" fill="#5656b2" />
				</g>
				<g>
					<path d="m10.9 316.8c-2.7 0-5.4-1.1-7.3-3.3-3.6-4.1-3.3-10.3.7-13.9l15.5-14c4.1-3.6 10.3-3.3 13.9.7 3.6 4.1 3.3 10.3-.7 13.9l-15.5 14c-1.9 1.7-4.3 2.6-6.6 2.6z" fill="#5656b2" />
				</g>
				<path d="m192.9 89.8c-21.6 6.7-59.7 23-89.5 61.6-36.8 47.6-38.2 99.6-36.8 122.3l-10.6 2.1-29.9-150.8c-1.8-9 4.1-17.9 13.2-19.6l150.8-29.9z" fill="#5656b2" />
				<path d="m465.1 143.5-44.9 147-55.4-16.9c-4.4 14.4-19.6 22.5-34 18.1s-22.5-19.6-18.1-34l-19.3-5.9c21.4-10.9 46.1-28.2 67.1-55.4 23.9-30.9 34.5-63.5 38.8-90.3l54.6 16.7c8.9 2.5 13.9 11.9 11.2 20.7z" fill="#0082bd" />
				<path d="m500.9 444.9-3.8 42.1c-.9 9.2-9 16-18.3 15.1l-152.9-13.9 5.2-57.6c-15-1.4-26-14.7-24.7-29.7 1.4-14.9 14.6-26 29.6-24.7l2.3-25.9c11.8 19.3 29.2 40.5 54.4 58.3 38.7 27.3 78.9 35.1 108.2 36.3z" fill="#d9e0ed" />
				<path d="m274.4 345.6v36.9c-15 0-27.3 12.2-27.3 27.3 0 15 12.2 27.3 27.3 27.3v57.9h-153.6c-9.3 0-16.8-7.5-16.8-16.7v-54.3c19.1 1.2 40.9-.2 64.1-6.5 54.1-14.7 88.3-48.6 106.3-71.9z" fill="#f79303" />
			</g>
		</svg>
	</defs>
	<defs>
		<svg id="mat-approved" width="20" height="21" viewBox="0 0 20 21" fill="none" xmlns="http://www.w3.org/2000/svg">
			<path d="M18.75 10.4998C18.7503 10.309 18.7078 10.1206 18.6256 9.94844C18.5434 9.77627 18.4236 9.62471 18.2751 9.50494L17.1481 8.56619L17.6642 7.22341C17.7311 7.04536 17.7577 6.85468 17.7421 6.6651C17.7265 6.47553 17.669 6.29177 17.5739 6.12706C17.4788 5.96235 17.3483 5.82078 17.1919 5.71253C17.0354 5.60429 16.857 5.53207 16.6693 5.50106L15.2237 5.25143L14.9991 3.8305C14.9681 3.64279 14.8958 3.46429 14.7876 3.30785C14.6793 3.15141 14.5377 3.02092 14.3729 2.92578C14.2082 2.83063 14.0244 2.7732 13.8348 2.75761C13.6452 2.74202 13.4544 2.76867 13.2764 2.83563L11.8997 3.34283L10.9949 2.22467C10.8711 2.08238 10.7182 1.9683 10.5466 1.89012C10.375 1.81194 10.1886 1.77148 10 1.77148C9.81141 1.77148 9.62501 1.81194 9.45338 1.89012C9.28176 1.9683 9.1289 2.08238 9.00512 2.22467L8.06637 3.35138L6.72394 2.83563C6.54584 2.76862 6.3551 2.74193 6.16545 2.75749C5.9758 2.77306 5.79196 2.83048 5.62717 2.92563C5.46238 3.02078 5.32074 3.15129 5.21245 3.30776C5.10416 3.46422 5.03191 3.64276 5.00091 3.8305L4.75159 5.27643L3.3313 5.50044C3.14355 5.53146 2.96502 5.60371 2.80854 5.71199C2.65206 5.82027 2.52152 5.96189 2.42632 6.12666C2.33113 6.29143 2.27364 6.47525 2.25798 6.6649C2.24233 6.85454 2.26891 7.0453 2.33581 7.22345L2.84302 8.6004L1.72427 9.50494C1.57731 9.62578 1.45896 9.77769 1.37772 9.94974C1.29648 10.1218 1.25438 10.3097 1.25444 10.5C1.2545 10.6902 1.29672 10.8781 1.37807 11.0501C1.45941 11.2221 1.57786 11.3739 1.72489 11.4947L2.8519 12.4334L2.33581 13.7762C2.2689 13.9542 2.24229 14.1449 2.2579 14.3345C2.27352 14.5241 2.33096 14.7078 2.4261 14.8726C2.52124 15.0373 2.65172 15.1789 2.80813 15.2871C2.96454 15.3954 3.14301 15.4676 3.33069 15.4986L4.77631 15.7482L5.00092 17.1691C5.03199 17.3568 5.10427 17.5353 5.21256 17.6917C5.32085 17.8481 5.46245 17.9785 5.62718 18.0737C5.79191 18.1688 5.97568 18.2262 6.16527 18.2419C6.35486 18.2575 6.54555 18.2309 6.72364 18.164L8.10029 17.6568L9.00513 18.775C9.12585 18.9221 9.2777 19.0406 9.44973 19.122C9.62176 19.2033 9.8097 19.2455 10 19.2455C10.1903 19.2455 10.3782 19.2033 10.5503 19.122C10.7223 19.0406 10.8742 18.9221 10.9949 18.775L11.9336 17.6483L13.2761 18.164C13.4542 18.231 13.645 18.2576 13.8346 18.2421C14.0242 18.2265 14.2081 18.1691 14.3729 18.0739C14.5376 17.9788 14.6793 17.8483 14.7876 17.6918C14.8959 17.5354 14.9681 17.3569 14.9992 17.1691L15.2485 15.7232L16.6688 15.4992C16.8565 15.4682 17.035 15.3959 17.1915 15.2876C17.348 15.1794 17.4785 15.0377 17.5737 14.873C17.6689 14.7082 17.7264 14.5244 17.7421 14.3347C17.7577 14.1451 17.7311 13.9543 17.6643 13.7762L17.157 12.3992L18.2758 11.4947C18.4241 11.3748 18.5437 11.2232 18.6257 11.051C18.7078 10.8789 18.7503 10.6905 18.75 10.4998Z" fill="#20D57E" />
			<path d="M8.82477 13.4476C8.42107 13.4486 8.02802 13.3181 7.70508 13.0759L6.18744 11.9376C6.05486 11.8381 5.96723 11.6901 5.94383 11.526C5.92042 11.3619 5.96315 11.1952 6.06263 11.0627C6.1621 10.9301 6.31016 10.8425 6.47425 10.819C6.63833 10.7956 6.80499 10.8384 6.93756 10.9378L8.4549 12.0761C8.58642 12.1734 8.75066 12.2156 8.91278 12.1939C9.07491 12.1721 9.2222 12.0881 9.32343 11.9596L12.9441 7.30381C12.9945 7.239 13.0572 7.18477 13.1285 7.14419C13.1999 7.10361 13.2786 7.07749 13.3601 7.06732C13.4415 7.05714 13.5242 7.06312 13.6034 7.0849C13.6825 7.10668 13.7566 7.14384 13.8214 7.19425C13.8862 7.24467 13.9405 7.30735 13.9811 7.37873C14.0216 7.45011 14.0477 7.52878 14.0579 7.61025C14.0681 7.69172 14.0621 7.7744 14.0403 7.85357C14.0186 7.93273 13.9814 8.00683 13.931 8.07163L10.3101 12.7274C10.1336 12.9525 9.90811 13.1345 9.65071 13.2593C9.39332 13.3841 9.11083 13.4485 8.82477 13.4476Z" fill="#F5F5F5" />
		</svg>
	</defs>
	<defs>
		<svg id="mat-pending" width="20" height="21" viewBox="0 0 20 21" fill="none" xmlns="http://www.w3.org/2000/svg">
			<path d="M18.75 10.4998C18.7503 10.309 18.7078 10.1206 18.6256 9.94844C18.5434 9.77627 18.4236 9.62471 18.2751 9.50494L17.1481 8.56619L17.6642 7.22341C17.7311 7.04536 17.7577 6.85468 17.7421 6.6651C17.7265 6.47553 17.669 6.29177 17.5739 6.12706C17.4788 5.96235 17.3483 5.82078 17.1919 5.71253C17.0354 5.60429 16.857 5.53207 16.6693 5.50106L15.2237 5.25143L14.9991 3.8305C14.9681 3.64279 14.8958 3.46429 14.7876 3.30785C14.6793 3.15141 14.5377 3.02092 14.3729 2.92578C14.2082 2.83063 14.0244 2.7732 13.8348 2.75761C13.6452 2.74202 13.4544 2.76867 13.2764 2.83563L11.8997 3.34283L10.9949 2.22467C10.8711 2.08238 10.7182 1.9683 10.5466 1.89012C10.375 1.81194 10.1886 1.77148 10 1.77148C9.81141 1.77148 9.62501 1.81194 9.45338 1.89012C9.28176 1.9683 9.1289 2.08238 9.00512 2.22467L8.06637 3.35138L6.72394 2.83563C6.54584 2.76862 6.3551 2.74193 6.16545 2.75749C5.9758 2.77306 5.79196 2.83048 5.62717 2.92563C5.46238 3.02078 5.32074 3.15129 5.21245 3.30776C5.10416 3.46422 5.03191 3.64276 5.00091 3.8305L4.75159 5.27643L3.3313 5.50044C3.14355 5.53146 2.96502 5.60371 2.80854 5.71199C2.65206 5.82027 2.52152 5.96189 2.42632 6.12666C2.33113 6.29143 2.27364 6.47525 2.25798 6.6649C2.24233 6.85454 2.26891 7.0453 2.33581 7.22345L2.84302 8.6004L1.72427 9.50494C1.57731 9.62578 1.45896 9.77769 1.37772 9.94974C1.29648 10.1218 1.25438 10.3097 1.25444 10.5C1.2545 10.6902 1.29672 10.8781 1.37807 11.0501C1.45941 11.2221 1.57786 11.3739 1.72489 11.4947L2.8519 12.4334L2.33581 13.7762C2.2689 13.9542 2.24229 14.1449 2.2579 14.3345C2.27352 14.5241 2.33096 14.7078 2.4261 14.8726C2.52124 15.0373 2.65172 15.1789 2.80813 15.2871C2.96454 15.3954 3.14301 15.4676 3.33069 15.4986L4.77631 15.7482L5.00092 17.1691C5.03199 17.3568 5.10427 17.5353 5.21256 17.6917C5.32085 17.8481 5.46245 17.9785 5.62718 18.0737C5.79191 18.1688 5.97568 18.2262 6.16527 18.2419C6.35486 18.2575 6.54555 18.2309 6.72364 18.164L8.10029 17.6568L9.00513 18.775C9.12585 18.9221 9.2777 19.0406 9.44973 19.122C9.62176 19.2033 9.8097 19.2455 10 19.2455C10.1903 19.2455 10.3782 19.2033 10.5503 19.122C10.7223 19.0406 10.8742 18.9221 10.9949 18.775L11.9336 17.6483L13.2761 18.164C13.4542 18.231 13.645 18.2576 13.8346 18.2421C14.0242 18.2265 14.2081 18.1691 14.3729 18.0739C14.5376 17.9788 14.6793 17.8483 14.7876 17.6918C14.8959 17.5354 14.9681 17.3569 14.9992 17.1691L15.2485 15.7232L16.6688 15.4992C16.8565 15.4682 17.035 15.3959 17.1915 15.2876C17.348 15.1794 17.4785 15.0377 17.5737 14.873C17.6689 14.7082 17.7264 14.5244 17.7421 14.3347C17.7577 14.1451 17.7311 13.9543 17.6643 13.7762L17.157 12.3992L18.2758 11.4947C18.4241 11.3748 18.5437 11.2232 18.6257 11.051C18.7078 10.8789 18.7503 10.6905 18.75 10.4998Z" fill="#F1B20C" />
			<path d="M9.75 7.5C9.75 7.08579 9.41421 6.75 9 6.75C8.58579 6.75 8.25 7.08579 8.25 7.5L9.75 7.5ZM8.25 7.5L8.25 11.6545L9.75 11.6545L9.75 7.5L8.25 7.5Z" fill="white" />
			<path d="M9 11.6543H13.15" stroke="white" stroke-width="1.5" stroke-linecap="round" />
		</svg>
	</defs>
	<defs>
		<svg id="mat-rejected" width="20" height="21" viewBox="0 0 20 21" fill="none" xmlns="http://www.w3.org/2000/svg">
			<path d="M10.5132 2.34376C10.2117 2.10807 9.78834 2.10807 9.48684 2.34376L8.10406 3.42455L6.36616 3.17994C5.98717 3.12659 5.62058 3.33824 5.47729 3.69313L4.82018 5.3205L3.19281 5.97761C2.83792 6.1209 2.62627 6.48749 2.67962 6.86648L2.92423 8.60438L1.84344 9.98716C1.60775 10.2887 1.60775 10.712 1.84344 11.0135L2.92423 12.3962L2.67962 14.1342C2.62627 14.5132 2.83792 14.8797 3.19281 15.0231L4.82018 15.6802L5.47729 17.3075C5.62058 17.6624 5.98717 17.8741 6.36616 17.8207L8.10406 17.5761L9.48684 18.6569C9.78834 18.8926 10.2117 18.8926 10.5132 18.6569L11.8959 17.5761L13.6338 17.8207C14.0128 17.8741 14.3794 17.6624 14.5228 17.3075L15.1798 15.6802L16.8072 15.0231C17.1621 14.8797 17.3738 14.5132 17.3204 14.1342L17.0758 12.3962L18.1566 11.0135C18.3923 10.712 18.3923 10.2887 18.1566 9.98716L17.0758 8.60438L17.3204 6.86648C17.3738 6.48749 17.1621 6.1209 16.8072 5.97761L15.1798 5.3205L14.5228 3.69313C14.3794 3.33824 14.0128 3.12659 13.6338 3.17994L11.8959 3.42455L10.5132 2.34376Z" fill="#FA1228" />
			<path fill-rule="evenodd" clip-rule="evenodd" d="M8.82149 8.14252C8.49599 7.81708 7.96839 7.81708 7.64296 8.14252C7.31752 8.46795 7.31752 8.99561 7.64296 9.32103L8.82149 10.4995L7.64296 11.678C7.31752 12.0035 7.31752 12.5311 7.64296 12.8565C7.96839 13.182 8.49599 13.182 8.82149 12.8565L9.99999 11.678L11.1785 12.8565C11.5039 13.182 12.0316 13.182 12.357 12.8565C12.6824 12.5311 12.6824 12.0035 12.357 11.678L11.1785 10.4995L12.357 9.32103C12.6824 8.99561 12.6824 8.46795 12.357 8.14252C12.0316 7.81709 11.5039 7.81709 11.1785 8.14252L9.99999 9.32103L8.82149 8.14252Z" fill="white" />
		</svg>
	</defs>
	<defs>
		<svg id="mat-draft" width="20" height="21" viewBox="0 0 20 21" fill="none" xmlns="http://www.w3.org/2000/svg">
			<g clip-path="url(#clip0_11929_17633)">
				<path d="M18.75 10.4998C18.7503 10.309 18.7078 10.1206 18.6256 9.94844C18.5434 9.77627 18.4236 9.62471 18.2751 9.50494L17.1481 8.56619L17.6642 7.22341C17.7311 7.04536 17.7577 6.85468 17.7421 6.6651C17.7265 6.47553 17.669 6.29177 17.5739 6.12706C17.4788 5.96235 17.3483 5.82078 17.1919 5.71253C17.0354 5.60429 16.857 5.53207 16.6693 5.50106L15.2237 5.25143L14.9991 3.8305C14.9681 3.64279 14.8958 3.46429 14.7876 3.30785C14.6793 3.15141 14.5377 3.02092 14.3729 2.92578C14.2082 2.83063 14.0244 2.7732 13.8348 2.75761C13.6452 2.74202 13.4544 2.76867 13.2764 2.83563L11.8997 3.34283L10.9949 2.22467C10.8711 2.08238 10.7182 1.9683 10.5466 1.89012C10.375 1.81194 10.1886 1.77148 10 1.77148C9.81141 1.77148 9.62501 1.81194 9.45338 1.89012C9.28176 1.9683 9.1289 2.08238 9.00512 2.22467L8.06637 3.35138L6.72394 2.83563C6.54584 2.76862 6.3551 2.74193 6.16545 2.75749C5.9758 2.77306 5.79196 2.83048 5.62717 2.92563C5.46238 3.02078 5.32074 3.15129 5.21245 3.30776C5.10416 3.46422 5.03191 3.64276 5.00091 3.8305L4.75159 5.27643L3.3313 5.50044C3.14355 5.53146 2.96502 5.60371 2.80854 5.71199C2.65206 5.82027 2.52152 5.96189 2.42632 6.12666C2.33113 6.29143 2.27364 6.47525 2.25798 6.6649C2.24233 6.85454 2.26891 7.0453 2.33581 7.22345L2.84302 8.6004L1.72427 9.50494C1.57731 9.62578 1.45896 9.77769 1.37772 9.94974C1.29648 10.1218 1.25438 10.3097 1.25444 10.5C1.2545 10.6902 1.29672 10.8781 1.37807 11.0501C1.45941 11.2221 1.57786 11.3739 1.72489 11.4947L2.8519 12.4334L2.33581 13.7762C2.2689 13.9542 2.24229 14.1449 2.2579 14.3345C2.27352 14.5241 2.33096 14.7078 2.4261 14.8726C2.52124 15.0373 2.65172 15.1789 2.80813 15.2871C2.96454 15.3954 3.14301 15.4676 3.33069 15.4986L4.77631 15.7482L5.00092 17.1691C5.03199 17.3568 5.10427 17.5353 5.21256 17.6917C5.32085 17.8481 5.46245 17.9785 5.62718 18.0737C5.79191 18.1688 5.97568 18.2262 6.16527 18.2419C6.35486 18.2575 6.54555 18.2309 6.72364 18.164L8.10029 17.6568L9.00513 18.775C9.12585 18.9221 9.2777 19.0406 9.44973 19.122C9.62176 19.2033 9.8097 19.2455 10 19.2455C10.1903 19.2455 10.3782 19.2033 10.5503 19.122C10.7223 19.0406 10.8742 18.9221 10.9949 18.775L11.9336 17.6483L13.2761 18.164C13.4542 18.231 13.645 18.2576 13.8346 18.2421C14.0242 18.2265 14.2081 18.1691 14.3729 18.0739C14.5376 17.9788 14.6793 17.8483 14.7876 17.6918C14.8959 17.5354 14.9681 17.3569 14.9992 17.1691L15.2485 15.7232L16.6688 15.4992C16.8565 15.4682 17.035 15.3959 17.1915 15.2876C17.348 15.1794 17.4785 15.0377 17.5737 14.873C17.6689 14.7082 17.7264 14.5244 17.7421 14.3347C17.7577 14.1451 17.7311 13.9543 17.6643 13.7762L17.157 12.3992L18.2758 11.4947C18.4241 11.3748 18.5437 11.2232 18.6257 11.051C18.7078 10.8789 18.7503 10.6905 18.75 10.4998Z" fill="#838383" />
				<g clip-path="url(#clip1_11929_17633)">
					<path d="M11.6694 6.80957L10.9132 7.56582L12.9444 9.59707L13.7007 8.84082C14.0913 8.4502 14.0913 7.81738 13.7007 7.42676L13.085 6.80957C12.6944 6.41895 12.0616 6.41895 11.671 6.80957H11.6694ZM10.56 7.91895L6.91785 11.5627C6.75535 11.7252 6.6366 11.9268 6.57098 12.1471L6.01785 14.0268C5.97879 14.1596 6.01473 14.3018 6.1116 14.3986C6.20848 14.4955 6.35066 14.5314 6.48191 14.4939L8.3616 13.9408C8.58191 13.8752 8.78348 13.7564 8.94598 13.5939L12.5913 9.9502L10.56 7.91895Z" fill="white" />
				</g>
			</g>
			<defs>
				<clipPath id="clip0_11929_17633">
					<rect width="20" height="20" fill="white" transform="translate(0 0.5)" />
				</clipPath>
				<clipPath id="clip1_11929_17633">
					<rect width="8" height="8" fill="white" transform="translate(6.00223 6.50781)" />
				</clipPath>
			</defs>
		</svg>
	</defs>
	<defs>
		<svg id="add-poor-id" width="21" height="21" viewBox="0 0 21 21" fill="none" xmlns="http://www.w3.org/2000/svg">
			<path d="M12.1667 2.16669H5.50004C5.05801 2.16669 4.63409 2.34228 4.32153 2.65484C4.00897 2.9674 3.83337 3.39133 3.83337 3.83335V17.1667C3.83337 17.6087 4.00897 18.0326 4.32153 18.3452C4.63409 18.6578 5.05801 18.8334 5.50004 18.8334H15.5C15.9421 18.8334 16.366 18.6578 16.6786 18.3452C16.9911 18.0326 17.1667 17.6087 17.1667 17.1667V7.16669M12.1667 2.16669L17.1667 7.16669M12.1667 2.16669V7.16669H17.1667M10.5 15.5V10.5M8.00004 13H13" stroke="white" stroke-width="1.5" stroke-linecap="round" stroke-linejoin="round" />
		</svg>
	</defs>
</svg>
