<svg id="Group_2655" data-name="Group 2655" xmlns="http://www.w3.org/2000/svg" width="601.797" height="539" viewBox="0 0 601.797 539">
  <path id="Path_2495" data-name="Path 2495" d="M895.568,624.143c-5.474,33.682-30.138,59.763-56.4,82.555q-5.5,4.774-11.025,9.363c-.026.015-.05.044-.076.059-.177.146-.355.293-.519.439-.76.63-1.521,1.261-2.275,1.884l.473.148,1.474.453c-.506-.139-1.005-.271-1.511-.41-.151-.043-.308-.079-.458-.122-17.409-4.7-35.172-9.863-49.4-20.88-14.765-11.442-24.934-30.949-19.841-48.922a32.915,32.915,0,0,1,2.775-6.776c.48-.9,1.009-1.768,1.566-2.626a35.277,35.277,0,0,1,61.435,3.418c-.248-19.8-18.337-34.245-35.3-44.465s-36.189-21.248-41.525-40.331c-2.975-10.617-.472-21.552,5.369-30.791.181-.281.363-.562.551-.837a51.483,51.483,0,0,1,30.737-21.572c23.5-5.332,48.135,4.489,67.413,18.96C880.055,546.972,901.79,585.847,895.568,624.143Z" transform="translate(-299.101 -180.5)" fill="#f2f2f2"/>
  <path id="Path_2496" data-name="Path 2496" d="M845.717,586.935a87.517,87.517,0,0,1,13.168,21.71,75.992,75.992,0,0,1,5.284,21.971c1.428,15.5-1.513,31.17-7.377,45.515a140.13,140.13,0,0,1-17.62,30.568q-5.5,4.774-11.025,9.363c-.026.015-.05.044-.076.059-.177.146-.355.293-.519.439-.76.63-1.521,1.261-2.275,1.884l.473.148,1.474.453c-.506-.139-1.005-.271-1.511-.41-.151-.043-.308-.079-.458-.122a76.778,76.778,0,0,0-66.47-76.578c.48-.9,1.009-1.768,1.566-2.626a81.006,81.006,0,0,1,13.878,3.429,79.369,79.369,0,0,1,39.756,30.072,81.145,81.145,0,0,1,14.082,43.157c.608-.7,1.215-1.414,1.8-2.119,11.2-13.279,20.79-28.128,26.5-44.622a90.579,90.579,0,0,0,4.307-43.682c-2.55-16-10.742-30.118-21.571-41.965-11.6-12.678-25.526-23.455-40.1-32.49a215.441,215.441,0,0,0-47.671-22.069,1.549,1.549,0,0,1-1.011-1.881,1.317,1.317,0,0,1,.551-.837,1.147,1.147,0,0,1,.994-.077c2.066.666,4.12,1.346,6.162,2.068a217.891,217.891,0,0,1,48.237,24.115C820.775,562.043,834.7,573.37,845.717,586.935Z" transform="translate(-299.101 -180.5)" fill="#fff"/>
  <path id="Path_2497" data-name="Path 2497" d="M549.794,510.018a6.6,6.6,0,0,1-6.573-6.166l-.979-14.948a6.6,6.6,0,0,1,6.152-7.014L665.5,474.22a14.087,14.087,0,1,1,1.841,28.115L550.235,510Q550.014,510.018,549.794,510.018Z" transform="translate(-299.101 -180.5)" fill="#4368b2"/>
  <path id="Path_2498" data-name="Path 2498" d="M572.886,511.946a6.606,6.606,0,0,1-6.59-6.351l-.835-22.327a6.6,6.6,0,0,1,6.346-6.838l96.3-3.6a6.6,6.6,0,0,1,6.839,6.346l.834,22.327a6.6,6.6,0,0,1-6.346,6.838l-96.3,3.6C573.052,511.944,572.969,511.946,572.886,511.946Z" transform="translate(-299.101 -180.5)" fill="#2f2e41"/>
  <path id="Path_2499" data-name="Path 2499" d="M685.739,717.756h-14.98a6.6,6.6,0,0,1-6.6-6.6V586.307a6.6,6.6,0,0,1,6.6-6.6h14.98a6.6,6.6,0,0,1,6.6,6.6V711.159a6.6,6.6,0,0,1-6.6,6.6Z" transform="translate(-299.101 -180.5)" fill="#2f2e41"/>
  <path id="Path_2500" data-name="Path 2500" d="M619.248,651.76,606.437,644a6.6,6.6,0,0,1-2.222-9.061l64.717-106.77a6.6,6.6,0,0,1,9.061-2.222l12.811,7.765a6.6,6.6,0,0,1,2.222,9.061l-64.717,106.77a6.6,6.6,0,0,1-9.061,2.222Z" transform="translate(-299.101 -180.5)" fill="#2f2e41"/>
  <circle id="Ellipse_294" data-name="Ellipse 294" cx="51.762" cy="51.762" r="51.762" transform="translate(312.124 165.389)" fill="#4368b2"/>
  <path id="Path_2501" data-name="Path 2501" d="M634.969,415.325a12.277,12.277,0,0,1-4.483-2.632,8.255,8.255,0,0,1-2.413-6.535,5.553,5.553,0,0,1,2.469-4.274c1.851-1.187,4.327-1.191,6.847-.08l-.1-20.207,2.03-.01.112,23.756-1.564-.984c-1.814-1.139-4.4-1.941-6.234-.766a3.566,3.566,0,0,0-1.544,2.76,6.238,6.238,0,0,0,1.794,4.873c2.241,2.141,5.512,2.811,9.241,3.409l-.322,2A33.457,33.457,0,0,1,634.969,415.325Z" transform="translate(-299.101 -180.5)" fill="#2f2e41"/>
  <rect id="Rectangle_1937" data-name="Rectangle 1937" width="2.03" height="10.933" transform="translate(317.003 202.09) rotate(-82.477)" fill="#2f2e41"/>
  <rect id="Rectangle_1938" data-name="Rectangle 1938" width="2.03" height="10.933" transform="translate(351.214 206.607) rotate(-82.477)" fill="#2f2e41"/>
  <path id="Path_2502" data-name="Path 2502" d="M706.209,619.805H618.924a8.637,8.637,0,0,1-8.627-8.627L628.57,471.051a8.617,8.617,0,0,1,8.623-8.562h30.976a46.72,46.72,0,0,1,46.667,46.667V611.178a8.637,8.637,0,0,1-8.627,8.627Z" transform="translate(-299.101 -180.5)" fill="#2f2e41"/>
  <path id="Path_2503" data-name="Path 2503" d="M684.229,612.335a6.608,6.608,0,0,1-6.057,3.854l-14.98-.13a6.6,6.6,0,0,1-6.539-6.654l1.018-117.358a14.087,14.087,0,0,1,28.173.244l-1.017,117.358A6.561,6.561,0,0,1,684.229,612.335Z" transform="translate(-299.101 -180.5)" fill="#4368b2"/>
  <path id="Path_2504" data-name="Path 2504" d="M690.847,581.005a6.607,6.607,0,0,1-6.057,3.854l-25.586-.222a6.6,6.6,0,0,1-6.539-6.654l.836-96.368a6.6,6.6,0,0,1,6.654-6.54l25.586.222a6.6,6.6,0,0,1,6.539,6.654l-.835,96.368a6.569,6.569,0,0,1-.6,2.686Z" transform="translate(-299.101 -180.5)" fill="#2f2e41"/>
  <path id="Path_2505" data-name="Path 2505" d="M663.955,366.951c-6.919-5.726-16.169-.31-23.994-1.079-7.486-.735-13.512-7.324-15.154-14.413-1.916-8.271,2.237-16.673,8.492-21.972,6.851-5.8,16.049-7.607,24.814-6.724,10.046,1.012,19.3,5.51,27.635,11.005a123.672,123.672,0,0,1,22.108,18.024c5.958,6.335,11.049,13.923,12.793,22.567,1.585,7.855.655,16.61-3.878,23.376a24.566,24.566,0,0,1-9.464,8.1c-3.958,2.038-8.194,3.521-12.022,5.813-5.789,3.465-11.346,10.528-9.375,17.731a9.94,9.94,0,0,0,2.34,4.209c1.337,1.429,3.663-.537,2.322-1.97-2.355-2.516-2.329-5.933-1.158-9.013A16.516,16.516,0,0,1,696.6,414.4c4.008-2.394,8.454-3.909,12.567-6.1a27.426,27.426,0,0,0,9.9-8.526c4.839-7,6.155-16.02,4.87-24.314-1.391-8.976-6.17-17.066-12.1-23.809-6.45-7.338-14.318-13.5-22.341-19.025-8.609-5.924-18.091-10.89-28.51-12.554-9.032-1.442-18.769-.264-26.547,4.791-7.26,4.718-12.745,12.7-13.138,21.513a22.568,22.568,0,0,0,10.914,20.036,19.386,19.386,0,0,0,11.629,2.462c4.319-.359,8.623-1.766,12.982-1.481a9.074,9.074,0,0,1,5.387,2.058c1.512,1.251,3.238-1.26,1.738-2.5Z" transform="translate(-299.101 -180.5)" fill="#2f2e41"/>
  <path id="Path_2506" data-name="Path 2506" d="M603.09,636.738q.028-.172.065-.343a6.552,6.552,0,0,1,2.873-4.152l12.588-8.12a6.6,6.6,0,0,1,9.12,1.968L666.569,686.3a6.6,6.6,0,0,1-1.968,9.12l-12.589,8.12a6.605,6.605,0,0,1-9.12-1.968L604.06,641.363A6.55,6.55,0,0,1,603.09,636.738Z" transform="translate(-299.101 -180.5)" fill="#2f2e41"/>
  <path id="Path_336" data-name="Path 336" d="M555.944,239.95a12.742,12.742,0,0,0-11.652-7.8H311.709A12.615,12.615,0,0,0,299.1,244.761V539a12.615,12.615,0,0,0,12.608,12.608H544.3A12.625,12.625,0,0,0,556.908,539V244.761a12.384,12.384,0,0,0-.956-4.812ZM554.1,539a9.82,9.82,0,0,1-9.808,9.808H311.709A9.809,9.809,0,0,1,301.9,539V244.763a9.821,9.821,0,0,1,9.808-9.808H544.3a9.857,9.857,0,0,1,9.1,6.17,10.869,10.869,0,0,1,.369,1.107,9.726,9.726,0,0,1,.335,2.532Z" transform="translate(-299.101 -180.5)" fill="#3f3d56"/>
  <path id="Path_337" data-name="Path 337" d="M507.407,301.623H437.35a5.6,5.6,0,0,1,0-11.21h70.057a5.6,5.6,0,1,1,0,11.21Z" transform="translate(-299.101 -180.5)" fill="#3f3d56"/>
  <path id="Path_338" data-name="Path 338" d="M507.407,331.047H437.35a5.6,5.6,0,1,1,0-11.21h70.057a5.6,5.6,0,1,1,0,11.21Z" transform="translate(-299.101 -180.5)" fill="#3f3d56"/>
  <path id="Path_339" data-name="Path 339" d="M401.4,347.8h-51.2a6.312,6.312,0,0,1-6.306-6.306V281.078a6.312,6.312,0,0,1,6.306-6.306h51.2a6.312,6.312,0,0,1,6.306,6.306v60.417A6.312,6.312,0,0,1,401.4,347.8Z" transform="translate(-299.101 -180.5)" fill="#4368b2"/>
  <path id="Path_340" data-name="Path 340" d="M506.921,391.3H348.592a5.6,5.6,0,0,1,0-11.21H506.921a5.6,5.6,0,1,1,0,11.21Z" transform="translate(-299.101 -180.5)" fill="#ccc"/>
  <path id="Path_341" data-name="Path 341" d="M506.921,420.72H348.592a5.6,5.6,0,0,1,0-11.21H506.921a5.6,5.6,0,1,1,0,11.21Z" transform="translate(-299.101 -180.5)" fill="#ccc"/>
  <path id="Path_342" data-name="Path 342" d="M506.921,450.144H348.592a5.6,5.6,0,0,1,0-11.21H506.921a5.6,5.6,0,1,1,0,11.21Z" transform="translate(-299.101 -180.5)" fill="#ccc"/>
  <path id="Path_343" data-name="Path 343" d="M506.921,479.568H348.592a5.6,5.6,0,0,1,0-11.21H506.921a5.6,5.6,0,1,1,0,11.21Z" transform="translate(-299.101 -180.5)" fill="#ccc"/>
  <path id="Path_344" data-name="Path 344" d="M506.921,508.992H348.592a5.6,5.6,0,0,1,0-11.21H506.921a5.6,5.6,0,1,1,0,11.21Z" transform="translate(-299.101 -180.5)" fill="#ccc"/>
  <circle id="Ellipse_44" data-name="Ellipse 44" cx="54.09" cy="54.09" r="54.09" transform="translate(204.492 0)" fill="#4368b2"/>
  <path id="Path_395" data-name="Path 395" d="M552.323,255.223a5.61,5.61,0,0,1-3.375-1.122l-.06-.045-12.712-9.724a5.649,5.649,0,1,1,6.874-8.966l8.234,6.314L570.74,216.3a5.647,5.647,0,0,1,7.917-1.046h0l-.121.168.124-.168a5.654,5.654,0,0,1,1.044,7.918l-22.885,29.843a5.65,5.65,0,0,1-4.493,2.2Z" transform="translate(-299.101 -180.5)" fill="#fff"/>
  <path id="Path_2507" data-name="Path 2507" d="M899.9,719.5h-368a1,1,0,0,1,0-2h368a1,1,0,0,1,0,2Z" transform="translate(-299.101 -180.5)" fill="#3f3d56"/>
</svg>
