<svg width="207" height="209" viewBox="0 0 207 209" fill="none" xmlns="http://www.w3.org/2000/svg">
<path d="M206.685 71.0947C206.964 74.603 206.488 77.7175 206.015 80.9161C205.864 81.9361 205.672 82.9452 205.44 83.9399C205.335 84.3881 205.231 84.8278 205.126 85.2688C203.779 90.9576 201.161 96.1372 197.372 100.334C197.251 100.468 197.129 100.601 197.005 100.734C193.369 104.587 189.406 108.041 184.62 110.626C179.889 113.468 174.797 115.83 169.503 118.169C168.825 118.469 168.159 118.791 167.505 119.133C165.411 120.228 163.455 121.268 161.666 122.575C154.311 127.424 150.229 134.662 147.664 142.791C146.381 146.855 145.469 151.134 144.695 155.436C144.623 189.256 113.048 213.994 78.5777 207.149C77.2172 206.827 76.0992 206.275 74.784 205.806C70.5791 204.126 66.7521 201.776 63.348 198.61C57.5943 193.177 54.2792 186.656 51.8495 179.699C51.0396 177.381 50.3281 175.014 49.6574 172.622C47.705 165.487 46.1032 157.864 40.6186 152.254C32.3918 143.838 21.7627 139.877 11.9378 133.025C-3.6174 122.198 -2.5454 101.712 8.55835 91.3092C10.3 89.5573 12.0501 88.0571 13.8436 86.407C23.1336 78.5559 35.8073 77.8308 47.8678 75.1936C55.0095 73.4723 61.3859 69.7752 64.2064 62.8487C70.2866 48.6837 74.3078 34.2342 84.0336 22.8556C85.3792 21.1373 86.7914 19.4776 88.2715 17.8947C92.7116 13.146 97.7621 9.08843 103.454 6.21348C105.731 5.06347 108.111 4.10269 110.595 3.36271C137.373 -5.76188 172.23 3.72773 190.188 31.2851C193.454 36.2955 196.522 41.3887 198.998 46.7302C200.993 51.1251 202.836 55.4564 204.293 60.2048C204.692 61.6963 205.136 63.0411 205.511 64.5288C206.131 66.9484 206.53 69.1544 206.685 71.0947Z" fill="#C9C9F2"/>
<path d="M63.118 44.7754C60.4582 48.6381 56.9986 51.2962 53.5294 52.4835C50.0603 53.6708 46.5542 53.3973 43.7882 51.4014C41.0222 49.4055 39.5185 46.065 39.3523 42.2637C39.1862 38.4625 40.3823 34.192 43.0265 30.3329C45.6707 26.4738 49.2751 23.7517 52.9313 22.4864C56.5873 21.221 60.2568 21.4265 63.0241 23.4247C65.7915 25.423 67.1512 28.8271 67.1421 32.7015C67.1328 36.5759 65.7778 40.9126 63.118 44.7754Z" fill="#C9C9F2"/>
<path d="M183.199 138.686C186.446 145.115 182.103 153.109 175.259 156.488C171.634 158.302 167.773 158.715 164.412 157.981C161.051 157.247 158.167 155.381 156.546 152.547C154.925 149.713 154.867 146.446 156.084 143.458C158.856 136.78 167.196 132.97 174.799 133.731C178.464 134.136 181.593 135.78 183.199 138.686Z" fill="#C9C9F2"/>
<mask id="mask0_10969_18463" style="mask-type:luminance" maskUnits="userSpaceOnUse" x="0" y="0" width="207" height="209">
<path d="M206.685 71.0947C206.964 74.603 206.488 77.7175 206.015 80.9161C205.864 81.9361 205.672 82.9452 205.44 83.9399C205.335 84.3881 205.231 84.8278 205.126 85.2688C203.779 90.9576 201.161 96.1372 197.372 100.334C197.251 100.468 197.129 100.601 197.005 100.734C193.369 104.587 189.406 108.041 184.62 110.626C179.889 113.468 174.797 115.83 169.503 118.169C168.825 118.469 168.159 118.791 167.505 119.133C165.411 120.228 163.455 121.268 161.666 122.575C154.311 127.424 150.229 134.662 147.664 142.791C146.381 146.855 145.469 151.134 144.695 155.436C144.623 189.256 113.048 213.994 78.5777 207.149C77.2172 206.827 76.0992 206.275 74.784 205.806C70.5791 204.126 66.7521 201.776 63.348 198.61C57.5943 193.177 54.2792 186.656 51.8495 179.699C51.0396 177.381 50.3281 175.014 49.6574 172.622C47.705 165.487 46.1032 157.864 40.6186 152.254C32.3918 143.838 21.7627 139.877 11.9378 133.025C-3.6174 122.198 -2.5454 101.712 8.55835 91.3092C10.3 89.5573 12.0501 88.0571 13.8436 86.407C23.1336 78.5559 35.8073 77.8308 47.8678 75.1936C55.0095 73.4723 61.3859 69.7752 64.2064 62.8487C70.2866 48.6837 74.3078 34.2342 84.0336 22.8556C85.3792 21.1373 86.7914 19.4776 88.2715 17.8947C92.7116 13.146 97.7621 9.08843 103.454 6.21348C105.731 5.06347 108.111 4.10269 110.595 3.36271C137.373 -5.76188 172.23 3.72773 190.188 31.2851C193.454 36.2955 196.522 41.3887 198.998 46.7302C200.993 51.1251 202.836 55.4564 204.293 60.2048C204.692 61.6963 205.136 63.0411 205.511 64.5288C206.131 66.9484 206.53 69.1544 206.685 71.0947ZM67.142 32.7015C67.1511 28.8271 65.7914 25.4229 63.0241 23.4247C60.2567 21.4263 56.5874 21.221 52.9312 22.4863C49.2752 23.7517 45.6707 26.4738 43.0265 30.3329C40.3823 34.192 39.1861 38.4625 39.3523 42.2637C39.5184 46.0649 41.0222 49.4054 43.7882 51.4014C46.5542 53.3972 50.0603 53.6709 53.5293 52.4835C56.9984 51.2962 60.4582 48.6381 63.118 44.7753C65.7779 40.9125 67.1329 36.5759 67.142 32.7015ZM174.799 133.731C167.196 132.97 158.856 136.78 156.084 143.458C154.867 146.446 154.925 149.713 156.546 152.547C158.167 155.381 161.051 157.247 164.412 157.981C167.773 158.715 171.633 158.302 175.259 156.488C182.103 153.109 186.446 145.115 183.199 138.686C181.593 135.78 178.464 134.136 174.799 133.731Z" fill="white"/>
</mask>
<g mask="url(#mask0_10969_18463)">
<path opacity="0.19" d="M158.141 169.247H71.2565C64.1698 169.247 58.4248 163.502 58.4248 156.415V50.1973C58.4248 43.1107 64.1697 37.3657 71.2565 37.3657H158.141C165.227 37.3657 170.972 43.1106 170.972 50.1973V156.415C170.972 163.502 165.227 169.247 158.141 169.247Z" fill="#3636CF"/>
</g>
<path d="M149.413 160.697H62.5285C55.4418 160.697 49.6968 154.952 49.6968 147.865V41.6475C49.6968 34.5608 55.4417 28.8158 62.5285 28.8158H149.413C156.499 28.8158 162.244 34.5607 162.244 41.6475V147.865C162.244 154.952 156.499 160.697 149.413 160.697Z" fill="#F5F5F5"/>
<path d="M78.281 125.265H136.731" stroke="#D4D4D4" stroke-width="5" stroke-miterlimit="10" stroke-linecap="square"/>
<path d="M87.6387 134.939H127.373" stroke="#D4D4D4" stroke-width="5" stroke-miterlimit="10" stroke-linecap="square"/>
<path d="M107.362 102.907C120.798 102.907 131.689 92.0153 131.689 78.5801C131.689 65.1449 120.798 54.2535 107.362 54.2535C93.9273 54.2535 83.0359 65.1449 83.0359 78.5801C83.0359 92.0153 93.9273 102.907 107.362 102.907Z" stroke="#E1BAEB" stroke-width="6" stroke-miterlimit="10" stroke-linecap="round"/>
<path d="M96.6868 78.5798L104.923 86.8156L135.852 54.2531" stroke="#05BD6B" stroke-width="6" stroke-miterlimit="10" stroke-linecap="square"/>
</svg>
