<svg id="confirm-normal-ic" xmlns="http://www.w3.org/2000/svg" width="212.85" height="150" viewBox="0 0 212.85 150">
  <circle id="Ellipse_142" data-name="Ellipse 142" cx="11.592" cy="11.592" r="11.592" transform="translate(97.115 126.499)" fill="#139487"/>
  <path id="Path_3232" data-name="Path 3232" d="M448.112,336.479c6.485-1.948,13.379-3.978,18.522-8.608,4.6-4.137,7.7-10.455,5.794-16.659s-7.591-10.321-13.467-12.374a55.249,55.249,0,0,0-10.3-2.318c-3.789-.552-7.594-1-11.4-1.439q-23.1-2.642-46.377-3.228c-7.657-.193-15.312-.188-22.97-.077-6.839.1-14.041.1-20.386-2.81-4.934-2.26-9.411-6.373-10.786-11.776-1.587-6.238,1.34-12.59,5.539-17.108a44.845,44.845,0,0,1,7.468-6.229c2.895-2,5.89-3.857,8.951-5.591a124.642,124.642,0,0,1,18.841-8.686c3.212-1.168,6.471-2.175,9.759-3.1a83.507,83.507,0,0,0,8.244-2.64c5.187-2.067,10.12-5.569,11.439-11.31,1.25-5.441-.858-11.347-4.552-15.389-4.274-4.676-10.72-6.726-16.9-7.058-6.937-.372-13.714,1.364-20.234,3.567-6.954,2.35-13.758,5.052-20.859,6.956a140.349,140.349,0,0,1-21.468,3.991,58.237,58.237,0,0,1-10.774.515,13.028,13.028,0,0,1-8.173-3.246,8.083,8.083,0,0,1-2.63-6.963c.07-.48.8-.276.729.2-.471,3.214,1.714,6.176,4.406,7.693,3.112,1.753,6.9,1.756,10.362,1.555a135.53,135.53,0,0,0,22.3-3.224,179.251,179.251,0,0,0,21.093-6.511c6.591-2.387,13.329-4.716,20.371-5.233,6.11-.449,12.537.442,17.86,3.634a19.757,19.757,0,0,1,9.214,12.856,14.9,14.9,0,0,1-4.385,14.191c-4.113,3.792-9.752,5.413-15.008,6.905a137.492,137.492,0,0,0-19.5,6.981,122.425,122.425,0,0,0-18.345,10.313c-5.606,3.831-11.138,8.651-12.911,15.485a14.265,14.265,0,0,0,.708,9.567,17.483,17.483,0,0,0,5.61,6.657c5.625,4.139,12.714,4.989,19.508,5.073,7.631.095,15.262-.163,22.895-.037q23.334.383,46.572,2.841,5.823.616,11.631,1.363a105.168,105.168,0,0,1,10.4,1.687c6.089,1.413,12.013,4.131,15.8,9.293a14.695,14.695,0,0,1,1.252,16.069c-2.906,5.718-8.349,9.355-14.13,11.744a100.26,100.26,0,0,1-9.513,3.212.378.378,0,0,1-.2-.729Z" transform="translate(-270.157 -187.448)" fill="#f2f2f2"/>
  <circle id="Ellipse_143" data-name="Ellipse 143" cx="6.048" cy="6.048" r="6.048" transform="translate(25.676 11.466)" fill="#f2f2f2"/>
  <circle id="Ellipse_144" data-name="Ellipse 144" cx="6.048" cy="6.048" r="6.048" transform="translate(67.632 22.931)" fill="#f2f2f2"/>
  <circle id="Ellipse_145" data-name="Ellipse 145" cx="6.048" cy="6.048" r="6.048" transform="translate(103.163)" fill="#f2f2f2"/>
  <circle id="Ellipse_146" data-name="Ellipse 146" cx="6.048" cy="6.048" r="6.048" transform="translate(125.338 25.703)" fill="#f2f2f2"/>
  <circle id="Ellipse_147" data-name="Ellipse 147" cx="6.048" cy="6.048" r="6.048" transform="translate(95.351 55.438)" fill="#f2f2f2"/>
  <circle id="Ellipse_148" data-name="Ellipse 148" cx="6.048" cy="6.048" r="6.048" transform="translate(57.301 69.801)" fill="#f2f2f2"/>
  <circle id="Ellipse_149" data-name="Ellipse 149" cx="6.048" cy="6.048" r="6.048" transform="translate(97.619 92.228)" fill="#f2f2f2"/>
  <circle id="Ellipse_150" data-name="Ellipse 150" cx="6.048" cy="6.048" r="6.048" transform="translate(140.961 104.828)" fill="#f2f2f2"/>
  <circle id="Ellipse_151" data-name="Ellipse 151" cx="6.048" cy="6.048" r="6.048" transform="translate(191.611 102.056)" fill="#f2f2f2"/>
  <path id="Path_3233" data-name="Path 3233" d="M505.547,220.37a33.544,33.544,0,0,0-33.207,32.964c0,.167,0,1.343,0,2.881a8.5,8.5,0,0,0,8.5,8.5h0a8.509,8.509,0,0,0,8.507-8.515c0-1.048,0-1.772,0-1.817a16.127,16.127,0,1,1,24.826,13.577l0,0s-12.1,7.791-15.792,18.48h0a23.687,23.687,0,0,0-.976,6.745c0,.939.055,9.153.162,15.819a8.766,8.766,0,0,0,8.767,8.624h0a8.768,8.768,0,0,0,8.768-8.822c-.037-6.105-.057-13.215-.057-13.731,0-6.563,6.331-13.1,11.532-17.366a34.977,34.977,0,0,0,12.029-19.151,21.865,21.865,0,0,0,.63-4.746,33.452,33.452,0,0,0-33.693-33.451Z" transform="translate(-398.082 -203.234)" fill="#139487"/>
  <path id="Path_3234" data-name="Path 3234" d="M390.212,745.849H177.962a.3.3,0,0,1,0-.6h212.25a.3.3,0,0,1,0,.6Z" transform="translate(-177.662 -595.849)" fill="#3f3d56"/>
  <circle id="Ellipse_152" data-name="Ellipse 152" cx="7.56" cy="7.56" r="7.56" transform="translate(150.803 53.673)" fill="#2f2e41"/>
  <path id="Path_3235" data-name="Path 3235" d="M559.479,546.757H556.39l-1.47-11.916h4.56Z" transform="translate(-415.086 -400.066)" fill="#a0616a"/>
  <path id="Path_3236" data-name="Path 3236" d="M540.86,578.626h5.958v3.751h-9.709A3.751,3.751,0,0,1,540.86,578.626Z" transform="translate(-401.763 -432.818)" fill="#2f2e41"/>
  <path id="Path_3237" data-name="Path 3237" d="M654.479,546.757H651.39l-1.47-11.916h4.56Z" transform="translate(-486.147 -400.066)" fill="#a0616a"/>
  <path id="Path_3238" data-name="Path 3238" d="M635.86,578.626h5.958v3.751h-9.709A3.751,3.751,0,0,1,635.86,578.626Z" transform="translate(-472.824 -432.818)" fill="#2f2e41"/>
  <circle id="Ellipse_153" data-name="Ellipse 153" cx="6.189" cy="6.189" r="6.189" transform="translate(151.025 56.458)" fill="#a0616a"/>
  <path id="Path_3239" data-name="Path 3239" d="M750.5,452.347l2.769-6.363a7.908,7.908,0,0,0-1.751-8.971,8.024,8.024,0,0,0-.774-.673,7.8,7.8,0,0,0-4.785-1.656,8.11,8.11,0,0,0-3.377.751c-.091.04-.179.083-.27.126-.174.083-.345.174-.512.267a7.983,7.983,0,0,0-3.956,6.018l-1.222,10.241c-.307.8-11.274,29.833-7.439,52a1.126,1.126,0,0,0,.963.925l3.888.529a1.133,1.133,0,0,0,1.262-.89l6.524-31.1a.883.883,0,0,1,1.714-.058l9.218,32.7a1.127,1.127,0,0,0,1.086.827,1.288,1.288,0,0,0,.219-.02l4.75-.915a1.127,1.127,0,0,0,.915-1.212C759.029,497.09,755.32,458.1,750.5,452.347Z" transform="translate(-589.602 -363.544)" fill="#2f2e41"/>
  <path id="Path_3240" data-name="Path 3240" d="M706.051,414.685a2.534,2.534,0,0,0,2.67,2.823l3.46,8.314,2.617-3.879-3.686-7.3a2.548,2.548,0,0,0-5.06.042Z" transform="translate(-572.889 -346.887)" fill="#a0616a"/>
  <path id="Path_3241" data-name="Path 3241" d="M791.68,507.728a2.534,2.534,0,0,0,2.123-3.254l7.279-5.3-4.382-1.641-6.24,5.286a2.548,2.548,0,0,0,1.22,4.911Z" transform="translate(-634.809 -410.554)" fill="#a0616a"/>
  <path id="Path_3242" data-name="Path 3242" d="M726.547,450.793a4.3,4.3,0,0,1-.831-.082,4.109,4.109,0,0,1-3.011-2.423l-4.847-5.91a1.134,1.134,0,0,1,.28-1.683l3.448-2.135a1.134,1.134,0,0,1,1.566.376l3.416,5.628,6.542-4.835a2.45,2.45,0,0,1,2.85,3.921l-6.53,5.956A4.1,4.1,0,0,1,726.547,450.793Z" transform="translate(-581.542 -366.316)" fill="#2f2e41"/>
  <path id="Path_3243" data-name="Path 3243" d="M810.785,465.167h-.027a1.136,1.136,0,0,1-.834-.4l-3.066-3.577a1.134,1.134,0,0,1,.232-1.681l5.741-3.827-5.2-6.253a2.45,2.45,0,0,1,3.751-3.07l6.321,6.177a4.164,4.164,0,0,1-.926,6.789l-5.166,5.482A1.136,1.136,0,0,1,810.785,465.167Z" transform="translate(-648.103 -371.801)" fill="#2f2e41"/>
  <path id="Path_3244" data-name="Path 3244" d="M785.144,441.861a1.162,1.162,0,0,1-.147-.009,1.124,1.124,0,0,1-.935-.773l-2.3-7.063a.777.777,0,0,1,.4-.939l.075-.035c.068-.032.135-.064.2-.095a8.208,8.208,0,0,1,3.428-.762,7.894,7.894,0,0,1,4.325,1.3.789.789,0,0,1,.227,1.082l-4.322,6.77A1.123,1.123,0,0,1,785.144,441.861Z" transform="translate(-629.504 -361.674)" fill="#e6e6e6"/>
  <circle id="Ellipse_154" data-name="Ellipse 154" cx="2.474" cy="2.474" r="2.474" transform="translate(161.849 52.91)" fill="#2f2e41"/>
  <path id="Path_3245" data-name="Path 3245" d="M776.663,361.365h0a6.552,6.552,0,0,0-6.552,6.552v2.772h3.409l1.631-2.772.489,2.772h10.346l-2.772-2.772a6.552,6.552,0,0,0-6.552-6.552Z" transform="translate(-620.82 -308.7)" fill="#2f2e41"/>
  <path id="Path_3246" data-name="Path 3246" d="M834.809,357.55a3.818,3.818,0,0,1,4.153-2.62,5.29,5.29,0,0,1,3.565,2.946,29.012,29.012,0,0,1,1.585,4.518,8.182,8.182,0,0,0,2.468,4.028,3.672,3.672,0,0,0,4.432.238,5.07,5.07,0,0,1-9.444,1.81,10.964,10.964,0,0,1-1.016-3.843,8.4,8.4,0,0,0-1.225-3.765,3.114,3.114,0,0,0-3.478-1.295Z" transform="translate(-669.214 -303.861)" fill="#2f2e41"/>
  <path id="Path_3247" data-name="Path 3247" d="M482.888,301.8h0a8.5,8.5,0,0,1-8.5-8.5c0-1.539,0-2.715,0-2.882a33.138,33.138,0,0,1,3.87-15.1,33.213,33.213,0,0,0-6.39,19.128c0,.167,0,1.343,0,2.881a8.5,8.5,0,0,0,8.5,8.5h0a8.51,8.51,0,0,0,8.187-6.2A8.472,8.472,0,0,1,482.888,301.8Z" transform="translate(-397.729 -244.337)" fill="#3f3d56"/>
  <path id="Path_3248" data-name="Path 3248" d="M567.693,279.455a16.128,16.128,0,0,1,14.026,22.531,16.127,16.127,0,1,0-27.07-16.88A16.1,16.1,0,0,1,567.693,279.455Z" transform="translate(-459.652 -244.401)" fill="#3f3d56"/>
  <path id="Path_3249" data-name="Path 3249" d="M582.813,488.325h0a8.766,8.766,0,0,1-8.767-8.626c-.107-6.665-.162-14.879-.162-15.817a23.687,23.687,0,0,1,.976-6.745h0a23.953,23.953,0,0,1,1.384-3.2,27.731,27.731,0,0,0-3.9,7.232h0a23.689,23.689,0,0,0-.976,6.745c0,.939.055,9.153.162,15.819a8.766,8.766,0,0,0,8.767,8.624h0a8.77,8.77,0,0,0,8.417-6.31A8.734,8.734,0,0,1,582.813,488.325Z" transform="translate(-472.155 -377.944)" fill="#3f3d56"/>
  <path id="Path_3250" data-name="Path 3250" d="M126.539,547.212h3.089L131.1,535.3h-4.56Z" transform="translate(-94.652 -400.407)" fill="#ffb8b8"/>
  <path id="Path_3251" data-name="Path 3251" d="M0,0H9.709V3.751H3.751A3.751,3.751,0,0,1,0,0H0Z" transform="translate(40.934 149.674) rotate(179.997)" fill="#2f2e41"/>
  <path id="Path_3252" data-name="Path 3252" d="M82.539,547.212h3.089L87.1,535.3h-4.56Z" transform="translate(-61.739 -400.407)" fill="#ffb8b8"/>
  <path id="Path_3253" data-name="Path 3253" d="M0,0H9.709V3.751H3.751A3.751,3.751,0,0,1,0,0H0Z" transform="translate(29.846 149.674) rotate(179.997)" fill="#2f2e41"/>
  <path id="Path_3254" data-name="Path 3254" d="M258.647,597.69l-3.018-.159a1.178,1.178,0,0,1-1.113-1.252l3.607-39.932,16.609,4.482,1.6-.437-5,35.35a1.183,1.183,0,0,1-1.1.994l-3.253.152a1.178,1.178,0,0,1-1.243-1.208l.589-21.217a.393.393,0,0,0-.777-.091l-5.684,22.38a1.171,1.171,0,0,1-1.151.939Z" transform="translate(-235.148 -454.549)" fill="#2f2e41"/>
  <circle id="Ellipse_155" data-name="Ellipse 155" cx="6.189" cy="6.189" r="6.189" transform="translate(26.253 56.748)" fill="#ffb8b8"/>
  <path id="Path_3255" data-name="Path 3255" d="M265.48,445.179l.681,14.683.246,5.342a1.17,1.17,0,0,0,.775,1.052l15.96,5.781a1.129,1.129,0,0,0,.4.071,1.17,1.17,0,0,0,1.175-1.207l-.654-26.4a9.306,9.306,0,0,0-7.747-8.99c-.154-.024-.311-.047-.468-.068a9.135,9.135,0,0,0-7.349,2.379A9.383,9.383,0,0,0,265.48,445.179Z" transform="translate(-243.342 -364.059)" fill="#ccc"/>
  <path id="Path_3256" data-name="Path 3256" d="M345.773,535.634a2.536,2.536,0,0,1-1.353-3.837l-5.412-7.2,4.67-.289,4.424,6.879a2.548,2.548,0,0,1-2.329,4.444Z" transform="translate(-298.35 -430.586)" fill="#ffb8b8"/>
  <path id="Path_3257" data-name="Path 3257" d="M323.919,476.366a1.17,1.17,0,0,1-.64-.635L315.125,456.3a3.141,3.141,0,1,1,5.792-2.431l8.154,19.427a1.179,1.179,0,0,1-.63,1.542l-3.62,1.519A1.17,1.17,0,0,1,323.919,476.366Z" transform="translate(-280.302 -376.457)" fill="#ccc"/>
  <path id="Path_3258" data-name="Path 3258" d="M298.094,499.661l7.832-15a1.229,1.229,0,0,1,1.657-.52l11.368,5.937a1.229,1.229,0,0,1,.52,1.657l-7.832,15a1.229,1.229,0,0,1-1.657.52l-11.368-5.937A1.229,1.229,0,0,1,298.094,499.661Z" transform="translate(-267.643 -400.437)" fill="#3f3d56"/>
  <path id="Path_3259" data-name="Path 3259" d="M285.431,500.83a2.536,2.536,0,0,0-3.91-1.124l-7.5-4.978L274,499.408l7.128,4.01a2.548,2.548,0,0,0,4.3-2.587Z" transform="translate(-249.727 -408.457)" fill="#ffb8b8"/>
  <path id="Path_3260" data-name="Path 3260" d="M254.745,463.97l-6.133-4.858a4.325,4.325,0,0,1-1.971-6.838l5.568-7.3a2.544,2.544,0,0,1,4.316,2.592l-4.406,7.207,6.475,3.071a1.178,1.178,0,0,1,.491,1.693l-2.614,4.136a1.18,1.18,0,0,1-.8.532l-.019,0A1.183,1.183,0,0,1,254.745,463.97Z" transform="translate(-228.528 -370.545)" fill="#ccc"/>
  <path id="Path_3261" data-name="Path 3261" d="M278.813,380.394a.538.538,0,0,1,.468-.71,1.242,1.242,0,0,1,.876.432,3.487,3.487,0,0,0,.774.665.666.666,0,0,0,.876-.158,1.219,1.219,0,0,0-.047-.946,9.3,9.3,0,0,1-.411-2.462,4.335,4.335,0,0,1,.62-2.633,3.483,3.483,0,0,1,2.985-1.269,20.058,20.058,0,0,1,3.353.594,1.126,1.126,0,0,0,1.1-.184,1.413,1.413,0,0,0,.057-1.261,8.758,8.758,0,0,0-1.327-3.163,4.762,4.762,0,0,0-3.039-1.711,7.292,7.292,0,0,0-3.392.385,9.1,9.1,0,0,0-4.456,3.1,7.367,7.367,0,0,0-1.406,5.443,6.72,6.72,0,0,0,2.491,4.247Z" transform="translate(-251.048 -313.313)" fill="#2f2e41"/>
  <path id="Path_3262" data-name="Path 3262" d="M572.033,681.675a11.59,11.59,0,0,1-4.3-18.014A11.591,11.591,0,1,0,583.5,680.409,11.584,11.584,0,0,1,572.033,681.675Z" transform="translate(-465.88 -534.82)" fill="#3f3d56"/>
</svg>
