<svg width="24" height="24" viewBox="0 0 24 24" fill="none" xmlns="http://www.w3.org/2000/svg">
<g clip-path="url(#clip0_10549_2641)">
<path d="M20.9785 7.13058H13.63L15.0889 6.6443L16.2168 5.59452L17.5645 5.1453L18.3349 5.56227L18.9121 4.69608L19.7991 4.40036C20.0742 4.3089 20.2598 4.05159 20.2598 3.76139C20.2598 3.4712 20.0742 3.21389 19.7991 3.12242L11.7132 0.427112C11.575 0.381067 11.425 0.381067 11.2868 0.427112L3.20086 3.12242C2.92581 3.21398 2.74023 3.47124 2.74023 3.76144C2.74023 4.05163 2.92581 4.30895 3.20086 4.40041L6.7832 5.59452L8.05157 6.69115L9.37003 7.13062H2.02148C1.64935 7.13062 1.34766 7.43223 1.34766 7.80445V19.2595H21.6523V7.80445C21.6523 7.43223 21.3506 7.13058 20.9785 7.13058Z" fill="url(#paint0_linear_10549_2641)"/>
<path d="M7.08328 9.71294C7.17277 9.77282 9.29955 11.1738 11.5 11.1738C13.7005 11.1738 15.8272 9.77282 15.9167 9.71294C16.1043 9.58792 16.2168 9.37733 16.2168 9.15231V5.59473L11.7132 7.09593C11.6441 7.11897 11.5717 7.13079 11.5 7.13079C11.4283 7.13079 11.3559 7.11893 11.2868 7.09593L6.7832 5.59473V9.15231C6.7832 9.37733 6.89573 9.58792 7.08328 9.71294ZM18.2383 11.1738C18.6107 11.1738 18.9121 10.8724 18.9121 10.4999V4.69629L17.5645 5.14551V10.4999C17.5645 10.8724 17.8658 11.1738 18.2383 11.1738ZM22.3262 17.912H0.673828C0.301695 17.912 0 18.2137 0 18.5859C0 19.7023 0.905041 20.6073 2.02148 20.6073H20.9785C22.095 20.6073 23 19.7023 23 18.5859C23 18.2137 22.6983 17.912 22.3262 17.912Z" fill="url(#paint1_linear_10549_2641)"/>
</g>
<defs>
<linearGradient id="paint0_linear_10549_2641" x1="11.5" y1="19.2595" x2="11.5" y2="0.392657" gradientUnits="userSpaceOnUse">
<stop stop-color="#5558FF"/>
<stop offset="1" stop-color="#00C0FF"/>
</linearGradient>
<linearGradient id="paint1_linear_10549_2641" x1="11.5" y1="20.6073" x2="11.5" y2="4.69633" gradientUnits="userSpaceOnUse">
<stop stop-color="#ADDCFF"/>
<stop offset="0.5028" stop-color="#EAF6FF"/>
<stop offset="1" stop-color="#EAF6FF"/>
</linearGradient>
<clipPath id="clip0_10549_2641">
<rect width="24" height="24" fill="white"/>
</clipPath>
</defs>
</svg>
