<svg width="20" height="21" viewBox="0 0 20 21" fill="none" xmlns="http://www.w3.org/2000/svg">
<g clip-path="url(#clip0_11929_17633)">
<path d="M18.75 10.4998C18.7503 10.309 18.7078 10.1206 18.6256 9.94844C18.5434 9.77627 18.4236 9.62471 18.2751 9.50494L17.1481 8.56619L17.6642 7.22341C17.7311 7.04536 17.7577 6.85468 17.7421 6.6651C17.7265 6.47553 17.669 6.29177 17.5739 6.12706C17.4788 5.96235 17.3483 5.82078 17.1919 5.71253C17.0354 5.60429 16.857 5.53207 16.6693 5.50106L15.2237 5.25143L14.9991 3.8305C14.9681 3.64279 14.8958 3.46429 14.7876 3.30785C14.6793 3.15141 14.5377 3.02092 14.3729 2.92578C14.2082 2.83063 14.0244 2.7732 13.8348 2.75761C13.6452 2.74202 13.4544 2.76867 13.2764 2.83563L11.8997 3.34283L10.9949 2.22467C10.8711 2.08238 10.7182 1.9683 10.5466 1.89012C10.375 1.81194 10.1886 1.77148 10 1.77148C9.81141 1.77148 9.62501 1.81194 9.45338 1.89012C9.28176 1.9683 9.1289 2.08238 9.00512 2.22467L8.06637 3.35138L6.72394 2.83563C6.54584 2.76862 6.3551 2.74193 6.16545 2.75749C5.9758 2.77306 5.79196 2.83048 5.62717 2.92563C5.46238 3.02078 5.32074 3.15129 5.21245 3.30776C5.10416 3.46422 5.03191 3.64276 5.00091 3.8305L4.75159 5.27643L3.3313 5.50044C3.14355 5.53146 2.96502 5.60371 2.80854 5.71199C2.65206 5.82027 2.52152 5.96189 2.42632 6.12666C2.33113 6.29143 2.27364 6.47525 2.25798 6.6649C2.24233 6.85454 2.26891 7.0453 2.33581 7.22345L2.84302 8.6004L1.72427 9.50494C1.57731 9.62578 1.45896 9.77769 1.37772 9.94974C1.29648 10.1218 1.25438 10.3097 1.25444 10.5C1.2545 10.6902 1.29672 10.8781 1.37807 11.0501C1.45941 11.2221 1.57786 11.3739 1.72489 11.4947L2.8519 12.4334L2.33581 13.7762C2.2689 13.9542 2.24229 14.1449 2.2579 14.3345C2.27352 14.5241 2.33096 14.7078 2.4261 14.8726C2.52124 15.0373 2.65172 15.1789 2.80813 15.2871C2.96454 15.3954 3.14301 15.4676 3.33069 15.4986L4.77631 15.7482L5.00092 17.1691C5.03199 17.3568 5.10427 17.5353 5.21256 17.6917C5.32085 17.8481 5.46245 17.9785 5.62718 18.0737C5.79191 18.1688 5.97568 18.2262 6.16527 18.2419C6.35486 18.2575 6.54555 18.2309 6.72364 18.164L8.10029 17.6568L9.00513 18.775C9.12585 18.9221 9.2777 19.0406 9.44973 19.122C9.62176 19.2033 9.8097 19.2455 10 19.2455C10.1903 19.2455 10.3782 19.2033 10.5503 19.122C10.7223 19.0406 10.8742 18.9221 10.9949 18.775L11.9336 17.6483L13.2761 18.164C13.4542 18.231 13.645 18.2576 13.8346 18.2421C14.0242 18.2265 14.2081 18.1691 14.3729 18.0739C14.5376 17.9788 14.6793 17.8483 14.7876 17.6918C14.8959 17.5354 14.9681 17.3569 14.9992 17.1691L15.2485 15.7232L16.6688 15.4992C16.8565 15.4682 17.035 15.3959 17.1915 15.2876C17.348 15.1794 17.4785 15.0377 17.5737 14.873C17.6689 14.7082 17.7264 14.5244 17.7421 14.3347C17.7577 14.1451 17.7311 13.9543 17.6643 13.7762L17.157 12.3992L18.2758 11.4947C18.4241 11.3748 18.5437 11.2232 18.6257 11.051C18.7078 10.8789 18.7503 10.6905 18.75 10.4998Z" fill="#838383"/>
<g clip-path="url(#clip1_11929_17633)">
<path d="M11.6694 6.80957L10.9132 7.56582L12.9444 9.59707L13.7007 8.84082C14.0913 8.4502 14.0913 7.81738 13.7007 7.42676L13.085 6.80957C12.6944 6.41895 12.0616 6.41895 11.671 6.80957H11.6694ZM10.56 7.91895L6.91785 11.5627C6.75535 11.7252 6.6366 11.9268 6.57098 12.1471L6.01785 14.0268C5.97879 14.1596 6.01473 14.3018 6.1116 14.3986C6.20848 14.4955 6.35066 14.5314 6.48191 14.4939L8.3616 13.9408C8.58191 13.8752 8.78348 13.7564 8.94598 13.5939L12.5913 9.9502L10.56 7.91895Z" fill="white"/>
</g>
</g>
<defs>
<clipPath id="clip0_11929_17633">
<rect width="20" height="20" fill="white" transform="translate(0 0.5)"/>
</clipPath>
<clipPath id="clip1_11929_17633">
<rect width="8" height="8" fill="white" transform="translate(6.00223 6.50781)"/>
</clipPath>
</defs>
</svg>
