<svg id="edit" viewBox="0 0 20 20" fill="none"
xmlns="http://www.w3.org/2000/svg">
<path d="M16.1669 6.11655L13.8836 3.83321C13.5856 3.55329 13.1951 3.39268 12.7864 3.38192C12.3776 3.37117 11.9792 3.51102 11.6669 3.77488L4.16691 11.2749C3.89755 11.5465 3.72983 11.9026 3.69191 12.2832L3.33358 15.7582C3.32235 15.8803 3.33819 16.0033 3.37996 16.1185C3.42174 16.2338 3.48842 16.3384 3.57525 16.4249C3.65311 16.5021 3.74546 16.5632 3.84699 16.6047C3.94852 16.6462 4.05724 16.6672 4.16691 16.6665H4.24191L7.71691 16.3499C8.09758 16.312 8.45361 16.1442 8.72525 15.8749L16.2252 8.37488C16.5163 8.06735 16.6737 7.65697 16.6627 7.23366C16.6518 6.81035 16.4735 6.40864 16.1669 6.11655ZM13.3336 8.89988L11.1002 6.66655L12.7252 4.99988L15.0002 7.27488L13.3336 8.89988Z" fill="#FFC42A" />
</svg>
