<svg id="Group_1348" data-name="Group 1348" xmlns="http://www.w3.org/2000/svg" width="200" height="138.513" viewBox="0 0 200 138.513">
  <path id="Path_421" data-name="Path 421" d="M685.729,462.141c0,12.535-7.452,16.912-16.644,16.912s-16.644-4.377-16.644-16.912,16.644-28.482,16.644-28.482S685.729,449.606,685.729,462.141Z" transform="translate(-542.729 -367.429)" fill="#29acc4"/>
  <path id="Path_422" data-name="Path 422" d="M649.808,390.646l7.094-12.979L649.835,389l.077-4.717,4.889-9.39-4.869,8.141.138-8.484,5.236-7.475-5.214,6.141.086-15.557-.518,19.712-5.3-8.115,5.238,9.779-.5,9.475-.015-.251-6.137-8.574,6.118,9.463L649,390.332l-.011.018.005.1-1.258,12.644h1.681l.2-1.021,6.1-9.44-6.088,8.506Z" transform="translate(-523.889 -291.43)" fill="#3f3d56"/>
  <path id="Path_423" data-name="Path 423" d="M860.213,130.406c0,23.945-14.235,32.306-31.795,32.306s-31.8-8.361-31.8-32.306S828.418,76,828.418,76,860.213,106.461,860.213,130.406Z" transform="translate(-660.213 -75.999)" fill="#f2f2f2"/>
  <path id="Path_424" data-name="Path 424" d="M845.863,83.051l.326-20.04L859.74,38.218l-13.5,21.649.146-9.011,9.34-17.937-9.3,15.552h0l.263-16.206,10-14.28-9.96,11.732L846.894,0,845.86,39.34l.085-1.623L835.777,22.152l10.005,18.68-.947,18.1-.028-.48L833.084,42.072l11.687,18.076-.119,2.264-.021.034.01.186-2.4,45.921h3.212l.385-23.719L857.492,66.8Z" transform="translate(-678.816)" fill="#3f3d56"/>
  <path id="Path_425" data-name="Path 425" d="M258.67,634.138c0,7.147-46.363,33.97-100.561,33.97s-98.134-13.882-98.134-21.029,42.858,1.348,97.056,1.348S258.67,626.991,258.67,634.138Z" transform="translate(-59.976 -529.595)" fill="#3f3d56"/>
  <path id="Path_426" data-name="Path 426" d="M258.67,634.138c0,7.147-46.363,33.97-100.561,33.97s-98.134-13.882-98.134-21.029,42.858,1.348,97.056,1.348S258.67,626.991,258.67,634.138Z" transform="translate(-59.976 -529.595)" opacity="0.1"/>
  <path id="Path_427" data-name="Path 427" d="M258.67,631.3c0,7.147-46.363,25.882-100.561,25.882s-98.134-5.794-98.134-12.941,42.858-6.74,97.056-6.74S258.67,624.15,258.67,631.3Z" transform="translate(-59.976 -526.753)" fill="#3f3d56"/>
  <ellipse id="Ellipse_73" data-name="Ellipse 73" cx="41.673" cy="3.223" rx="41.673" ry="3.223" transform="translate(57.559 115.618)" opacity="0.1"/>
  <path id="Path_428" data-name="Path 428" d="M414.094,368.965s12.2.226,9.941,2.372-10.732,0-10.732,0Z" transform="translate(-347.875 -314.714)" fill="#c9c9c9"/>
  <path id="Path_429" data-name="Path 429" d="M267.4,227.818s4.926-.88,6.638,3.1,5.23,15.317,5.23,15.317,9.413,6.231,11.125,6.026,4.639.213,4.1,2.081-.3,3.986-1.535,4.245-3.2-2.218-4.706-1.025-14.912-3.166-15.773-4.069-8.014-20.462-8.014-20.462S264.756,227.754,267.4,227.818Z" transform="translate(-226.602 -199.637)" fill="#29acc4"/>
  <path id="Path_430" data-name="Path 430" d="M247.058,605.607l.565,4.744-4.744,1.243-2.711-1.243v-4.18Z" transform="translate(-195.694 -493.463)" fill="#c9c9c9"/>
  <path id="Path_431" data-name="Path 431" d="M178.124,622.078l.565,4.744-4.744,1.243-2.711-1.243v-4.18Z" transform="translate(-139.525 -506.884)" fill="#c9c9c9"/>
  <path id="Path_432" data-name="Path 432" d="M250.985,396.134l2.146,7.794,3.163,15.815a15.575,15.575,0,0,1-.9,8.472c-1.807,4.632-5.083,19.769-4.406,20.672s-7.682,1.582-7.569.678,1.243-13.33,1.243-13.33,1.582-10.957,2.372-12.313-3.615-4.744-3.615-4.744-1.13,12.991-2.824,14.12-1.469,18.639-2.259,18.865-6.552,1.13-7.23,0,0-19.995,0-19.995,3.841-14.346,3.05-16.38-.339-10.732-.339-10.732-2.937-6.665-1.356-10.167Z" transform="translate(-199.169 -335.84)" fill="#2f2e41"/>
  <path id="Path_433" data-name="Path 433" d="M285.275,142.949s-4.744,5.874-4.519,8.472-7.456-4.744-7.456-4.744,5.535-7.456,5.535-9.037S285.275,142.949,285.275,142.949Z" transform="translate(-233.798 -126.033)" fill="#c9c9c9"/>
  <circle id="Ellipse_74" data-name="Ellipse 74" cx="7.456" cy="7.456" r="7.456" transform="translate(43.965 4.207)" fill="#c9c9c9"/>
  <path id="Path_434" data-name="Path 434" d="M232.952,215.945a13.693,13.693,0,0,0-.7,3.887c.038.778,2.1,1.289,4.961,1.623,2.649.311,5.978.469,9,.55,3.178.086,6.019.086,7.384.086,4.067,0,.791-2.6-.791-3.841s-1.243-18.865-1.13-21.124-1.017-8.811-1.017-10.054-2.658-4.486-2.658-4.486-.618,1.775-3.1-.6a13.208,13.208,0,0,0-5.761-3.05c-2.485.9-6.665,10.845-6.891,12.539-.092.688-.016,4.211.138,8.234.223,5.88.611,12.83.879,13.568A5.374,5.374,0,0,1,232.952,215.945Z" transform="translate(-200.32 -159.877)" fill="#29acc4"/>
  <path id="Path_435" data-name="Path 435" d="M226.972,338.413l.791,2.824-3.05,3.163-1.017-4.406Z" transform="translate(-182.273 -275.747)" fill="#c9c9c9"/>
  <path id="Path_436" data-name="Path 436" d="M295.235,691.57s2.372,2.711,4.18.9,1.694-2.937,2.033-2.937,5.422,4.519,5.422,4.519,8.7,2.033,3.954,3.5-18.187.452-18.187,0-.339-6.439.9-6.439Z" transform="translate(-249.519 -575.923)" fill="#2f2e41"/>
  <path id="Path_437" data-name="Path 437" d="M226.3,708.041s2.372,2.711,4.18.9,1.694-2.937,2.033-2.937,5.422,4.519,5.422,4.519,8.7,2.033,3.954,3.5-18.187.452-18.187,0-.339-6.439.9-6.439Z" transform="translate(-193.35 -589.344)" fill="#2f2e41"/>
  <path id="Path_438" data-name="Path 438" d="M279.582,96.052c-.241.156-.554.313-.8.158a36.046,36.046,0,0,1-2-6.926,3.394,3.394,0,0,1,.2-2.466,6.053,6.053,0,0,0,.579-.814,5.508,5.508,0,0,0,.136-1.5,2.97,2.97,0,0,1,2.13-2.136,28.046,28.046,0,0,0,3.032-.931,23.048,23.048,0,0,0,2.463-1.733,3.17,3.17,0,0,1,2.842-.561c.825.333,1.339,1.174,2.118,1.6a6.179,6.179,0,0,0,1.734.5,11.1,11.1,0,0,1,4.507,2.094,3.273,3.273,0,0,1,.82.846c1,1.647-.791,3.887,0,5.644l-1.709-1.348a5.95,5.95,0,0,0-1.526-.97,2.011,2.011,0,0,0-1.75.079,3.632,3.632,0,0,0-1.169,2.2c-.252.811-.809,1.71-1.658,1.69-1.155-.028-1.558-1.64-2.595-2.15a2,2,0,0,0-2.1.372,4.31,4.31,0,0,0-1.175,1.9,5.174,5.174,0,0,1-.588,1.327c-.31.424-.707.458-1.038.774A16.312,16.312,0,0,1,279.582,96.052Z" transform="translate(-236.532 -78.437)" fill="#2f2e41"/>
  <path id="Path_439" data-name="Path 439" d="M233.732,248.386A52.644,52.644,0,0,0,238,253.9c2.649.311,5.978.469,9,.55a7.135,7.135,0,0,0-1.992-1.835c-1.469-.9-4.97-11.635-4.97-11.635s4.293-11.07,5.422-15.25-3.276-6.552-3.276-6.552c-2.033-1.694-5.535,2.259-5.535,2.259s-1.787,5.391-3.477,10.719c.223,5.88.611,12.83.879,13.568A5.375,5.375,0,0,1,233.732,248.386Z" transform="translate(-201.101 -192.318)" opacity="0.1"/>
  <path id="Path_440" data-name="Path 440" d="M227.316,214.294s4.406,2.372,3.276,6.552-5.422,15.25-5.422,15.25,3.5,10.732,4.97,11.635,3.5,3.05,1.92,4.18-2.711,2.937-3.841,2.372-1.13-3.728-3.05-3.728-9.715-11.748-9.828-12.991,6.439-21.011,6.439-21.011S225.283,212.6,227.316,214.294Z" transform="translate(-186.57 -188.341)" fill="#29acc4"/>
  <path id="Path_441" data-name="Path 441" d="M492.32,372.2l-1.271-1.271a3.953,3.953,0,0,0-5.59,0l-24.65,24.65-15.49-15.49-9.16-9.16a3.953,3.953,0,0,0-5.59,0L429.3,372.2a3.953,3.953,0,0,0,0,5.59l24.65,24.65-24.65,24.65a3.952,3.952,0,0,0,0,5.59l1.271,1.271a3.953,3.953,0,0,0,5.59,0l24.65-24.65,24.65,24.65a3.953,3.953,0,0,0,5.59,0l1.271-1.271a3.953,3.953,0,0,0,0-5.59l-24.65-24.65,24.65-24.65a3.953,3.953,0,0,0,0-5.59Z" transform="translate(-359.966 -315.376)" fill="#ff6584"/>
  <path id="Path_442" data-name="Path 442" d="M429.643,580.287l23.918-23.918-.23-.23-22.808,22.808a3.937,3.937,0,0,0-.88,1.34Z" transform="translate(-361.189 -467.228)" opacity="0.1"/>
  <path id="Path_443" data-name="Path 443" d="M430.182,373.006a3.953,3.953,0,0,1,5.59,0l24.65,24.65,24.65-24.65a3.953,3.953,0,0,1,5.59,0l1.271,1.271a3.952,3.952,0,0,1,.88,4.25l.732-.732a3.953,3.953,0,0,0,0-5.59l-1.271-1.271a3.953,3.953,0,0,0-5.59,0l-24.65,24.65-24.65-24.65a3.953,3.953,0,0,0-5.59,0l-1.271,1.271a3.937,3.937,0,0,0-.88,1.34Z" transform="translate(-361.189 -315.376)" opacity="0.1"/>
  <path id="Path_444" data-name="Path 444" d="M634.745,547.436l-1.842,1.842,24.65,24.65a3.952,3.952,0,0,1,.88,4.25l.732-.732a3.953,3.953,0,0,0,0-5.59Z" transform="translate(-526.81 -460.137)" opacity="0.1"/>
  <path id="Path_445" data-name="Path 445" d="M93.319,532.1c0,10.411-6.189,14.046-13.824,14.046S65.672,542.513,65.672,532.1,79.5,508.447,79.5,508.447,93.319,521.691,93.319,532.1Z" transform="translate(-64.617 -428.368)" fill="#29acc4"/>
  <path id="Path_446" data-name="Path 446" d="M53.323,459.844l5.892-10.779-5.87,9.413.064-3.918,4.061-7.8-4.044,6.762.114-7.046,4.348-6.209-4.33,5.1.071-12.92-.43,16.371-4.4-6.74,4.35,8.121-.412,7.869-.012-.209-5.1-7.121,5.081,7.859-.051.984-.009.015,0,.081L51.6,470.18H53l.168-.848,5.069-7.84-5.056,7.065Z" transform="translate(-38.806 -352.369)" fill="#3f3d56"/>
</svg>
