<svg>

    <defs>
        <svg id="folder-alt" width="21" height="16" viewBox="0 0 40 40" fill="none" xmlns="http://www.w3.org/2000/svg">
            <path d="M0.269631 16.0936C0.126239 14.9028 1.05591 13.8545 2.25529 13.8545H37.7447C38.9441 13.8545 39.8738 14.9028 39.7304 16.0936L37.7574 32.4777C37.5154 34.4873 35.8103 35.9994 33.7861 35.9994H6.21389C4.18972 35.9994 2.48458 34.4873 2.24258 32.4777L0.269631 16.0936Z" fill="#FDDD35"/>
            <path d="M2.5 8V14.1587H37.5V11.9798C37.5 10.8753 36.6046 9.97984 35.5 9.97984H21.4809C21.0683 9.97984 20.6657 9.85221 20.3285 9.61445L15.7199 6.36538C15.3826 6.12763 14.9801 6 14.5675 6H4.5C3.39543 6 2.5 6.89543 2.5 8Z" fill="#FAC800"/>
        </svg>
    </defs>

    <defs>
        <svg id="description-alt" width="15" height="20" viewBox="0 0 15 20" fill="none" xmlns="http://www.w3.org/2000/svg">
            <path d="M14.7558 4.41083L10.5892 0.244167C10.4329 0.0879169 10.2208 0 10 0H2.5C1.12125 0 0 1.12125 0 2.5V17.5C0 18.8787 1.12125 20 2.5 20H12.5C13.8787 20 15 18.8787 15 17.5V5C15 4.77917 14.9121 4.56708 14.7558 4.41083ZM13.1917 5H10.3162C10.1417 5 10 4.85833 10 4.68375V1.80833C10 1.6825 10.1521 1.61958 10.2412 1.70833L13.2917 4.75875C13.3808 4.84792 13.3175 5 13.1917 5Z" fill="url(#paint0_linear_276_12022)"/>
            <defs>
                <linearGradient id="paint0_linear_276_12022" x1="-1.31417" y1="2.78042" x2="14.7196" y2="18.8142" gradientUnits="userSpaceOnUse">
                    <stop stop-color="#00D2FF"/>
                    <stop offset="1" stop-color="#3A7BD5"/>
                </linearGradient>
            </defs>
        </svg>
    </defs>

    <defs>
        <svg id="word-ic" xmlns="http://www.w3.org/2000/svg" width="33.595" height="41.743" viewBox="0 0 33.595 41.743">
        <g id="Group_3333" data-name="Group 3333" transform="translate(-94.684 -23)">
            <path id="Path_3751" data-name="Path 3751" d="M24.334,3H10.074A4.074,4.074,0,0,0,6,7.074V39.669a4.074,4.074,0,0,0,4.074,4.074H34.52a4.074,4.074,0,0,0,4.074-4.074V17.26Z" transform="translate(89.184 20.5)" fill="#fff" stroke="#e5e5e5" stroke-linecap="round" stroke-linejoin="round" stroke-width="1"/>
            <g id="Group_3332" data-name="Group 3332">
            <text id="w" transform="translate(102.98 53.218)" fill="#0060e6" font-size="20" font-family="OpenSans-Bold, Open Sans" font-weight="700"><tspan x="0" y="0">w</tspan></text>
            </g>
        </g>
        </svg>
    </defs>

    <defs>
        <svg id="jpeg-ic" version="1.1" id="Capa_1" xmlns="http://www.w3.org/2000/svg" xmlns:xlink="http://www.w3.org/1999/xlink" x="0px" y="0px"
        viewBox="0 0 52 52" style="enable-background:new 0 0 52 52;" xml:space="preserve">
        <rect x="2" y="1" style="fill:#424A60;stroke:#E7ECED;stroke-width:2;stroke-miterlimit:10;" width="48" height="50"/>
        <circle style="fill:#EFCE4A;" cx="14" cy="13.569" r="4.569"/>
        <rect x="2" y="41" style="fill:#E7ECED;" width="48" height="10"/>
        <polygon style="fill:#1A9172;" points="49,32.111 48,31 36,20 25.5,31.5 30.983,36.983 35,41 49,41 "/>
        <polygon style="fill:#25AE88;" points="30.983,36.983 20.017,26.017 3,41 35,41 "/>
        </svg>
    </defs>

    <defs>
        <svg id="gif-ic" version="1.1" id="Layer_1" xmlns="http://www.w3.org/2000/svg" xmlns:xlink="http://www.w3.org/1999/xlink" x="0px" y="0px"
            viewBox="0 0 512 512" style="enable-background:new 0 0 512 512;" xml:space="preserve">
        <path style="fill:#E2E5E7;" d="M128,0c-17.6,0-32,14.4-32,32v448c0,17.6,14.4,32,32,32h320c17.6,0,32-14.4,32-32V128L352,0H128z"/>
        <path style="fill:#B0B7BD;" d="M384,128h96L352,0v96C352,113.6,366.4,128,384,128z"/>
        <polygon style="fill:#CAD1D8;" points="480,224 384,128 480,128 "/>
        <path style="fill:#A066AA;" d="M416,416c0,8.8-7.2,16-16,16H48c-8.8,0-16-7.2-16-16V256c0-8.8,7.2-16,16-16h352c8.8,0,16,7.2,16,16
            V416z"/>
        <g>
            <path style="fill:#FFFFFF;" d="M199.84,374.16c-9.088,7.536-20.224,10.752-31.472,10.752c-26.88,0-45.936-15.36-45.936-45.808
            c0-25.84,20.096-45.92,47.072-45.92c10.112,0,21.232,3.456,29.168,11.264c7.808,7.664-3.456,19.056-11.12,12.288
            c-4.736-4.624-11.392-8.064-18.048-8.064c-15.472,0-30.432,12.4-30.432,30.432c0,18.944,12.528,30.448,29.296,30.448
            c7.792,0,14.448-2.304,19.184-5.76V348.08h-19.184c-11.392,0-10.24-15.632,0-15.632h25.584c4.736,0,9.072,3.6,9.072,7.568v27.248
            C203.024,369.552,202.016,371.712,199.84,374.16z"/>
            <path style="fill:#FFFFFF;" d="M224.944,303.152c0-10.496,16.896-10.88,16.896,0v73.024c0,10.624-16.896,10.88-16.896,0V303.152z"
            />
            <path style="fill:#FFFFFF;" d="M281.12,312.096v20.336h32.608c4.608,0,9.216,4.608,9.216,9.088c0,4.224-4.608,7.664-9.216,7.664
            H281.12v26.864c0,4.48-3.2,7.936-7.68,7.936c-5.632,0-9.072-3.456-9.072-7.936v-72.656c0-4.608,3.456-7.936,9.072-7.936h44.912
            c5.632,0,8.96,3.328,8.96,7.936c0,4.096-3.328,8.688-8.96,8.688H281.12V312.096z"/>
        </g>
        <path style="fill:#CAD1D8;" d="M400,432H96v16h304c8.8,0,16-7.2,16-16v-16C416,424.8,408.8,432,400,432z"/>
        </svg>
    </defs>

    <defs>
        <svg id="svg-ic" version="1.1" id="Layer_1" xmlns="http://www.w3.org/2000/svg" xmlns:xlink="http://www.w3.org/1999/xlink" x="0px" y="0px"
        viewBox="0 0 512 512" style="enable-background:new 0 0 512 512;" xml:space="preserve">
        <path style="fill:#E2E5E7;" d="M128,0c-17.6,0-32,14.4-32,32v448c0,17.6,14.4,32,32,32h320c17.6,0,32-14.4,32-32V128L352,0H128z"/>
        <path style="fill:#B0B7BD;" d="M384,128h96L352,0v96C352,113.6,366.4,128,384,128z"/>
        <polygon style="fill:#CAD1D8;" points="480,224 384,128 480,128 "/>
        <path style="fill:#F7B84E;" d="M416,416c0,8.8-7.2,16-16,16H48c-8.8,0-16-7.2-16-16V256c0-8.8,7.2-16,16-16h352c8.8,0,16,7.2,16,16
            V416z"/>
        <g>
            <path style="fill:#FFFFFF;" d="M96.816,314.656c2.944-24.816,40.416-29.28,58.08-15.712c8.704,7.024-0.512,18.16-8.192,12.528
            c-9.472-6.016-30.96-8.832-33.648,4.464c-3.456,20.992,52.192,8.976,51.312,42.992c-0.896,32.496-47.984,33.264-65.648,18.672
            c-4.224-3.44-4.096-9.056-1.792-12.528c3.328-3.312,7.04-4.464,11.392-0.896c10.48,7.168,37.488,12.544,39.392-5.648
            C146.064,339.616,92.848,351.008,96.816,314.656z"/>
            <path style="fill:#FFFFFF;" d="M209.12,378.256l-33.776-70.752c-4.992-10.112,10.112-18.416,15.728-7.808l11.392,25.712
            l14.704,33.776l14.448-33.776l11.392-25.712c5.12-9.712,19.952-3.584,15.616,7.04L226,378.256
            C223.056,386.32,213.984,388.224,209.12,378.256z"/>
            <path style="fill:#FFFFFF;" d="M345.76,374.16c-9.088,7.536-20.224,10.752-31.472,10.752c-26.88,0-45.936-15.36-45.936-45.808
            c0-25.84,20.096-45.92,47.072-45.92c10.112,0,21.232,3.456,29.168,11.264c7.792,7.664-3.456,19.056-11.12,12.288
            c-4.736-4.624-11.392-8.064-18.048-8.064c-15.472,0-30.432,12.4-30.432,30.432c0,18.944,12.528,30.448,29.296,30.448
            c7.792,0,14.448-2.304,19.184-5.76V348.08h-19.184c-11.392,0-10.24-15.632,0-15.632h25.584c4.736,0,9.072,3.6,9.072,7.568v27.248
            C348.96,369.552,347.936,371.712,345.76,374.16z"/>
        </g>
        <path style="fill:#CAD1D8;" d="M400,432H96v16h304c8.8,0,16-7.2,16-16v-16C416,424.8,408.8,432,400,432z"/>
        </svg>
    </defs>

    <defs>
        <svg id="pdf-ic" xmlns="http://www.w3.org/2000/svg" width="33.595" height="41.743" viewBox="0 0 33.595 41.743">
        <g id="Group_3333" data-name="Group 3333" transform="translate(-94.684 -23)">
            <path id="Path_3751" data-name="Path 3751" d="M24.334,3H10.074A4.074,4.074,0,0,0,6,7.074V39.669a4.074,4.074,0,0,0,4.074,4.074H34.52a4.074,4.074,0,0,0,4.074-4.074V17.26Z" transform="translate(89.184 20.5)" fill="#fff" stroke="#e5e5e5" stroke-linecap="round" stroke-linejoin="round" stroke-width="1"/>
            <path id="Path_3759" data-name="Path 3759" d="M5.313,25a1.846,1.846,0,0,1-1-.957A2.444,2.444,0,0,1,4.5,21.529a6.067,6.067,0,0,1,2.044-1.794,17.5,17.5,0,0,1,3.378-1.47,44.892,44.892,0,0,0,2.421-5.076,16.568,16.568,0,0,1-.98-2.952,6.332,6.332,0,0,1-.1-2.589,2.462,2.462,0,0,1,1.481-1.876A2.377,2.377,0,0,1,14.108,5.6a1.6,1.6,0,0,1,1.087.832,2.834,2.834,0,0,1,.289,1.226,7.283,7.283,0,0,1-.107,1.4,22.444,22.444,0,0,1-1.185,4.089,24.967,24.967,0,0,0,2.234,3.843,13.112,13.112,0,0,1,3.04.114,3.648,3.648,0,0,1,2.188,1.06,1.929,1.929,0,0,1,.456,1.181,2.651,2.651,0,0,1-.315,1.283,2.37,2.37,0,0,1-.807.948,1.951,1.951,0,0,1-1.162.315,3.862,3.862,0,0,1-2.127-.95,13.019,13.019,0,0,1-2.076-2.165,26.555,26.555,0,0,0-4.552.925,25.771,25.771,0,0,1-2.325,3.442,6.158,6.158,0,0,1-2.113,1.794A1.807,1.807,0,0,1,5.313,25Zm3.143-4.333a11.436,11.436,0,0,0-1.046.542,4.457,4.457,0,0,0-1.475,1.247.745.745,0,0,0-.091.823.518.518,0,0,0,.059.1.606.606,0,0,0,.08-.027,4.635,4.635,0,0,0,1.447-1.3q.544-.667,1.026-1.381Zm3.738-3.031q1.142-.266,2.3-.44-.623-.953-1.162-1.956-.536,1.212-1.14,2.393Zm5.575,1.026a8.736,8.736,0,0,0,.991.934,2.269,2.269,0,0,0,1.135.583.244.244,0,0,0,.16-.034.7.7,0,0,0,.214-.285A.994.994,0,0,0,20.4,19.4a.217.217,0,0,0-.059-.144,2.085,2.085,0,0,0-1.181-.476,8.834,8.834,0,0,0-1.395-.121Zm-4.536-7.991a15.27,15.27,0,0,0,.456-1.887,5.368,5.368,0,0,0,.087-1.06A1.4,1.4,0,0,0,13.7,7.27a1.178,1.178,0,0,0-.33.091c-.2.08-.36.242-.447.645a4.757,4.757,0,0,0,.1,1.874c.055.253.123.517.205.789Z" transform="translate(98.4 29.314)" fill="#ca0e18"/>
        </g>
        </svg>
    </defs>

    <defs>
        <svg id="csv-ic" xmlns="http://www.w3.org/2000/svg" width="33.595" height="41.743" viewBox="0 0 33.595 41.743">
        <g id="Group_3333" data-name="Group 3333" transform="translate(-95 -23)">
            <path id="Path_3751" data-name="Path 3751" d="M24.334,3H10.074A4.074,4.074,0,0,0,6,7.074V39.669a4.074,4.074,0,0,0,4.074,4.074H34.52a4.074,4.074,0,0,0,4.074-4.074V17.26Z" transform="translate(89.5 20.5)" fill="#fff" stroke="#e5e5e5" stroke-linecap="round" stroke-linejoin="round" stroke-width="1"/>
            <text id="X" transform="translate(105 53.218)" fill="#3ea26c" font-size="20" font-family="OpenSans-Bold, Open Sans" font-weight="700"><tspan x="0" y="0">X</tspan></text>
        </g>
        </svg>
    </defs>

    <defs>
        <svg id="vnd-ic" xmlns="http://www.w3.org/2000/svg" width="33.595" height="41.743" viewBox="0 0 33.595 41.743">
        <g id="Group_3333" data-name="Group 3333" transform="translate(-94.684 -23)">
            <path id="Path_3751" data-name="Path 3751" d="M24.334,3H10.074A4.074,4.074,0,0,0,6,7.074V39.669a4.074,4.074,0,0,0,4.074,4.074H34.52a4.074,4.074,0,0,0,4.074-4.074V17.26Z" transform="translate(89.184 20.5)" fill="#fff" stroke="#e5e5e5" stroke-linecap="round" stroke-linejoin="round" stroke-width="1"/>
            <text id="P" transform="translate(111.98 53.218)" fill="#ff5e47" font-size="20" font-family="OpenSans-Bold, Open Sans" font-weight="700"><tspan x="-6.279" y="0">P</tspan></text>
        </g>
        </svg>
    </defs>

    <defs>
        <svg id="mp4-ic" version="1.1" id="Layer_1" xmlns="http://www.w3.org/2000/svg" xmlns:xlink="http://www.w3.org/1999/xlink" x="0px" y="0px"
        viewBox="0 0 303.188 303.188" style="enable-background:new 0 0 303.188 303.188;" xml:space="preserve">
        <g>
            <polygon style="fill:#E8E8E8;" points="219.821,0 32.842,0 32.842,303.188 270.346,303.188 270.346,50.525 	"/>
            <g>
            <rect x="90.902" y="61.704" style="fill:#38A3FF;" width="119.89" height="119.89"/>
            <circle style="fill:#FFFFFF;" cx="150.847" cy="121.648" r="45.484"/>
            <path style="fill:#38A3FF;" d="M144.439,143.105c-4.145,2.682-7.537,0.837-7.537-4.1v-34.711c0-4.938,3.392-6.783,7.537-4.102
                l25.622,16.579c4.146,2.683,4.146,7.073,0,9.754L144.439,143.105z"/>
            </g>
            <polygon style="fill:#38A3FF;" points="227.64,25.263 32.842,25.263 32.842,0 219.821,0 	"/>
            <g>
            <path style="fill:#A4A9AD;" d="M103.524,273.871l-9.813-34.557h-0.295c0.46,5.886,0.69,10.458,0.69,13.718v20.839H82.62v-47.979
                h17.262l10.009,34.065h0.263l9.813-34.065h17.295v47.979h-11.913v-21.036c0-1.094,0.017-2.308,0.049-3.643
                c0.033-1.334,0.181-4.605,0.443-9.813h-0.295l-9.681,34.491h-12.341V273.871z"/>
            <path style="fill:#A4A9AD;" d="M182.418,241.152c0,5.361-1.581,9.501-4.742,12.421c-3.162,2.921-7.652,4.381-13.472,4.381h-3.643
                v15.917h-12.963v-47.979h16.605c6.06,0,10.61,1.324,13.652,3.971C180.896,232.51,182.418,236.273,182.418,241.152z
                M160.562,247.387h2.362c1.947,0,3.495-0.546,4.643-1.641c1.149-1.094,1.724-2.604,1.724-4.529c0-3.238-1.795-4.857-5.383-4.857
                h-3.347L160.562,247.387L160.562,247.387z"/>
            <path style="fill:#A4A9AD;" d="M223.242,264.583h-5.283v9.288H205.16v-9.288h-19.133v-9.517l19.953-29.175h11.979v29.011h5.283
                L223.242,264.583L223.242,264.583z M205.16,254.902v-5.579c0-1.05,0.038-2.467,0.115-4.25c0.076-1.783,0.136-2.718,0.18-2.806
                h-0.36c-0.744,1.685-1.587,3.26-2.527,4.726l-5.316,7.909H205.16z"/>
            </g>
            <polygon style="fill:#D1D3D3;" points="219.821,50.525 270.346,50.525 219.821,0 	"/>
        </g>
        </svg>
    </defs>

    <defs>
        <svg id="other-ic" width="32px" height="32px" viewBox="0 0 32 32" id="icon" xmlns="http://www.w3.org/2000/svg">
        <defs>
            <style>
            .cls-1 {
                fill: none;
            }
            </style>
        </defs>
        <title>document--unknown</title>
        <circle cx="8.9999" cy="28.5" r="1.5"/>
        <path d="M10,25H8V21h2a2,2,0,0,0,0-4H8a2.0023,2.0023,0,0,0-2,2v.5H4V19a4.0045,4.0045,0,0,1,4-4h2a4,4,0,0,1,0,8Z"/>
        <path d="M27.7,9.3l-7-7A.9085.9085,0,0,0,20,2H10A2.0058,2.0058,0,0,0,8,4v8h2V4h8v6a2.0058,2.0058,0,0,0,2,2h6V28H14v2H26a2.0058,2.0058,0,0,0,2-2V10A.9092.9092,0,0,0,27.7,9.3ZM20,10V4.4L25.6,10Z"/>
        <rect id="_Transparent_Rectangle_" data-name="&lt;Transparent Rectangle&gt;" class="cls-1" width="32" height="32"/>
        </svg>
    </defs>

    <defs>
        <svg id="video-ic" xmlns="http://www.w3.org/2000/svg" enable-background="new 0 0 24 24" height="24px" viewBox="0 0 24 24" width="24px" fill="#ff0000">
            <g>
                <rect fill="none" height="24" width="24" y="0"/>
            </g>
            <g>
                <path d="M20,4H4C2.9,4,2,4.9,2,6v12c0,1.1,0.9,2,2,2h16c1.1,0,2-0.9,2-2V6C22,4.9,21.1,4,20,4z M9.5,16.5v-9l7,4.5L9.5,16.5z"/>
            </g>
        </svg>
    </defs>

    <defs>
        <svg id="file" width="15" height="21" viewBox="0 0 15 21" fill="none" xmlns="http://www.w3.org/2000/svg">
            <path d="M14.7558 4.91083L10.5892 0.744167C10.4329 0.587917 10.2208 0.5 10 0.5H2.5C1.12125 0.5 0 1.62125 0 3V18C0 19.3787 1.12125 20.5 2.5 20.5H12.5C13.8787 20.5 15 19.3787 15 18V5.5C15 5.27917 14.9121 5.06708 14.7558 4.91083ZM13.1917 5.5H10.3162C10.1417 5.5 10 5.35833 10 5.18375V2.30833C10 2.1825 10.1521 2.11958 10.2412 2.20833L13.2917 5.25875C13.3808 5.34792 13.3175 5.5 13.1917 5.5Z" fill="url(#paint0_linear_796_8269)"/>
            <defs>
            <linearGradient id="paint0_linear_796_8269" x1="-1.31417" y1="3.28042" x2="14.7196" y2="19.3142" gradientUnits="userSpaceOnUse">
            <stop stop-color="#00D2FF"/>
            <stop offset="1" stop-color="#3A7BD5"/>
            </linearGradient>
            </defs>
        </svg>

    </defs>

</svg>