<svg width="15" height="21" viewBox="0 0 15 21" fill="none" xmlns="http://www.w3.org/2000/svg">
<path d="M14.7558 4.91083L10.5892 0.744167C10.4329 0.587917 10.2208 0.5 10 0.5H2.5C1.12125 0.5 0 1.62125 0 3V18C0 19.3787 1.12125 20.5 2.5 20.5H12.5C13.8787 20.5 15 19.3787 15 18V5.5C15 5.27917 14.9121 5.06708 14.7558 4.91083ZM13.1917 5.5H10.3162C10.1417 5.5 10 5.35833 10 5.18375V2.30833C10 2.1825 10.1521 2.11958 10.2412 2.20833L13.2917 5.25875C13.3808 5.34792 13.3175 5.5 13.1917 5.5Z" fill="url(#paint0_linear_796_8269)"/>
<defs>
<linearGradient id="paint0_linear_796_8269" x1="-1.31417" y1="3.28042" x2="14.7196" y2="19.3142" gradientUnits="userSpaceOnUse">
<stop stop-color="#00D2FF"/>
<stop offset="1" stop-color="#3A7BD5"/>
</linearGradient>
</defs>
</svg>
