<svg width="42" height="42" viewBox="0 0 42 42" fill="none" xmlns="http://www.w3.org/2000/svg">
	<path d="M37.4062 12.4688H8.53125C7.0815 12.4688 5.90625 13.644 5.90625 15.0938V37.4062C5.90625 38.856 7.0815 40.0312 8.53125 40.0312H37.4062C38.856 40.0312 40.0312 38.856 40.0312 37.4062V15.0938C40.0312 13.644 38.856 12.4688 37.4062 12.4688Z" fill="#FFDE6B"/>
	<path d="M36.0938 8.53125V33.4688C36.0938 34.1649 35.8172 34.8326 35.3249 35.3249C34.8326 35.8172 34.1649 36.0938 33.4688 36.0938H12.4688C11.7726 36.0938 11.1049 35.8172 10.6126 35.3249C10.1203 34.8326 9.84375 34.1649 9.84375 33.4688V4.59375C9.84375 3.89756 10.1203 3.22988 10.6126 2.73759C11.1049 2.24531 11.7726 1.96875 12.4688 1.96875H29.5312L36.0938 8.53125Z" fill="#F1F9FF"/>
	<path d="M34.7812 40.0312H4.59375C3.89756 40.0312 3.22988 39.7547 2.73759 39.2624C2.24531 38.7701 1.96875 38.1024 1.96875 37.4062V11.1562C1.96875 10.4601 2.24531 9.79238 2.73759 9.30009C3.22988 8.80781 3.89756 8.53125 4.59375 8.53125H12.4688C13.1649 8.53125 13.8326 8.80781 14.3249 9.30009C14.8172 9.79238 15.0938 10.4601 15.0938 11.1562V16.4062H29.5312C30.2274 16.4062 30.8951 16.6828 31.3874 17.1751C31.8797 17.6674 32.1562 18.3351 32.1562 19.0312V37.4062C32.1562 38.1024 32.4328 38.7701 32.9251 39.2624C33.4174 39.7547 34.0851 40.0312 34.7812 40.0312Z" fill="#FFF0A6"/>
	<path d="M32.1562 13.125H22.9688C22.7947 13.125 22.6278 13.0559 22.5047 12.9328C22.3816 12.8097 22.3125 12.6428 22.3125 12.4688C22.3125 12.2947 22.3816 12.1278 22.5047 12.0047C22.6278 11.8816 22.7947 11.8125 22.9688 11.8125H32.1562C32.3303 11.8125 32.4972 11.8816 32.6203 12.0047C32.7434 12.1278 32.8125 12.2947 32.8125 12.4688C32.8125 12.6428 32.7434 12.8097 32.6203 12.9328C32.4972 13.0559 32.3303 13.125 32.1562 13.125Z" fill="#C6DBE2"/>
	<path d="M22.9688 9.1875H18.375C18.201 9.1875 18.034 9.11836 17.911 8.99529C17.7879 8.87222 17.7188 8.7053 17.7188 8.53125C17.7188 8.3572 17.7879 8.19028 17.911 8.06721C18.034 7.94414 18.201 7.875 18.375 7.875H22.9688C23.1428 7.875 23.3097 7.94414 23.4328 8.06721C23.5559 8.19028 23.625 8.3572 23.625 8.53125C23.625 8.7053 23.5559 8.87222 23.4328 8.99529C23.3097 9.11836 23.1428 9.1875 22.9688 9.1875Z" fill="#C6DBE2"/>
	<path d="M36.0938 8.53125H32.1562C31.4601 8.53125 30.7924 8.25469 30.3001 7.76241C29.8078 7.27012 29.5312 6.60244 29.5312 5.90625V1.96875L36.0938 8.53125Z" fill="#C6DBE2"/>
	<path d="M20.3438 13.125H19.0312C18.8572 13.125 18.6903 13.0559 18.5672 12.9328C18.4441 12.8097 18.375 12.6428 18.375 12.4688C18.375 12.2947 18.4441 12.1278 18.5672 12.0047C18.6903 11.8816 18.8572 11.8125 19.0312 11.8125H20.3438C20.5178 11.8125 20.6847 11.8816 20.8078 12.0047C20.9309 12.1278 21 12.2947 21 12.4688C21 12.6428 20.9309 12.8097 20.8078 12.9328C20.6847 13.0559 20.5178 13.125 20.3438 13.125Z" fill="#C6DBE2"/>
	<path d="M15.0938 21.6562L10.5 26.9062H13.125V34.7812H17.0625V26.9062H19.6875L15.0938 21.6562Z" fill="#FFB875"/>
</svg>
