<svg width="20" height="21" viewBox="0 0 20 21" fill="none" xmlns="http://www.w3.org/2000/svg">
<path d="M10.5132 2.34376C10.2117 2.10807 9.78834 2.10807 9.48684 2.34376L8.10406 3.42455L6.36616 3.17994C5.98717 3.12659 5.62058 3.33824 5.47729 3.69313L4.82018 5.3205L3.19281 5.97761C2.83792 6.1209 2.62627 6.48749 2.67962 6.86648L2.92423 8.60438L1.84344 9.98716C1.60775 10.2887 1.60775 10.712 1.84344 11.0135L2.92423 12.3962L2.67962 14.1342C2.62627 14.5132 2.83792 14.8797 3.19281 15.0231L4.82018 15.6802L5.47729 17.3075C5.62058 17.6624 5.98717 17.8741 6.36616 17.8207L8.10406 17.5761L9.48684 18.6569C9.78834 18.8926 10.2117 18.8926 10.5132 18.6569L11.8959 17.5761L13.6338 17.8207C14.0128 17.8741 14.3794 17.6624 14.5228 17.3075L15.1798 15.6802L16.8072 15.0231C17.1621 14.8797 17.3738 14.5132 17.3204 14.1342L17.0758 12.3962L18.1566 11.0135C18.3923 10.712 18.3923 10.2887 18.1566 9.98716L17.0758 8.60438L17.3204 6.86648C17.3738 6.48749 17.1621 6.1209 16.8072 5.97761L15.1798 5.3205L14.5228 3.69313C14.3794 3.33824 14.0128 3.12659 13.6338 3.17994L11.8959 3.42455L10.5132 2.34376Z" fill="#FA1228"/>
<path fill-rule="evenodd" clip-rule="evenodd" d="M8.82149 8.14252C8.49599 7.81708 7.96839 7.81708 7.64296 8.14252C7.31752 8.46795 7.31752 8.99561 7.64296 9.32103L8.82149 10.4995L7.64296 11.678C7.31752 12.0035 7.31752 12.5311 7.64296 12.8565C7.96839 13.182 8.49599 13.182 8.82149 12.8565L9.99999 11.678L11.1785 12.8565C11.5039 13.182 12.0316 13.182 12.357 12.8565C12.6824 12.5311 12.6824 12.0035 12.357 11.678L11.1785 10.4995L12.357 9.32103C12.6824 8.99561 12.6824 8.46795 12.357 8.14252C12.0316 7.81709 11.5039 7.81709 11.1785 8.14252L9.99999 9.32103L8.82149 8.14252Z" fill="white"/>
</svg>
