<svg width="209" height="209" viewBox="0 0 209 209" fill="none" xmlns="http://www.w3.org/2000/svg">
<mask id="mask0_11015_14499" style="mask-type:luminance" maskUnits="userSpaceOnUse" x="0" y="0" width="209" height="209">
<path d="M208.645 0H0.35498V208.29H208.645V0Z" fill="white"/>
</mask>
<g mask="url(#mask0_11015_14499)">
<path d="M104.5 186.767C150.514 186.767 187.816 149.465 187.816 103.451C187.816 57.4366 150.514 20.1346 104.5 20.1346C58.486 20.1346 21.1841 57.4366 21.1841 103.451C21.1841 149.465 58.486 186.767 104.5 186.767Z" fill="url(#paint0_linear_11015_14499)"/>
<path d="M73.2565 44.1268H137.505C143.64 44.1268 148.614 49.1001 148.614 55.2356V140.655C148.614 146.79 143.64 151.763 137.505 151.763H73.2565C67.121 151.763 62.1477 146.79 62.1477 140.655V55.2356C62.1477 49.1001 67.121 44.1268 73.2565 44.1268Z" fill="white"/>
<path d="M73.187 58.0129H101.098C102.977 58.0129 104.5 59.5362 104.5 61.415C104.5 63.2938 102.977 64.8171 101.098 64.8171H73.187C71.3082 64.8171 69.7849 63.2938 69.7849 61.415C69.7849 59.5362 71.3082 58.0129 73.187 58.0129Z" fill="#011625"/>
<path d="M73.187 77.3145H135.813C137.692 77.3145 139.215 78.8377 139.215 80.7165C139.215 82.5953 137.692 84.1186 135.813 84.1186H73.187C71.3082 84.1186 69.7849 82.5953 69.7849 80.7165C69.7849 78.8377 71.3082 77.3145 73.187 77.3145Z" fill="#D5D5D5"/>
<path d="M73.187 96.616H135.813C137.692 96.616 139.215 98.1393 139.215 100.018C139.215 101.897 137.692 103.42 135.813 103.42H73.187C71.3082 103.42 69.7849 101.897 69.7849 100.018C69.7849 98.1393 71.3082 96.616 73.187 96.616Z" fill="#D5D5D5"/>
<path d="M73.187 115.917H135.813C137.692 115.917 139.215 117.441 139.215 119.32C139.215 121.198 137.692 122.722 135.813 122.722H73.187C71.3082 122.722 69.7849 121.198 69.7849 119.32C69.7849 117.441 71.3082 115.917 73.187 115.917Z" fill="#D5D5D5"/>
<path d="M73.187 135.219H135.813C137.692 135.219 139.215 136.742 139.215 138.621C139.215 140.5 137.692 142.023 135.813 142.023H73.187C71.3082 142.023 69.7849 140.5 69.7849 138.621C69.7849 136.742 71.3082 135.219 73.187 135.219Z" fill="#D5D5D5"/>
<path d="M200.417 32.2322H158.703C156.76 32.2322 155.184 33.8909 155.184 35.9363V56.5702C155.184 58.6156 156.76 60.2743 158.703 60.2743H200.417C202.362 60.2743 203.937 58.6156 203.937 56.5702V35.9363C203.937 33.8909 202.362 32.2322 200.417 32.2322Z" fill="white"/>
<path d="M165.598 50.6839C167.899 50.6839 169.764 48.819 169.764 46.5181C169.764 44.2172 167.899 42.3523 165.598 42.3523C163.298 42.3523 161.433 44.2172 161.433 46.5181C161.433 48.819 163.298 50.6839 165.598 50.6839Z" fill="#CCC6D9"/>
<path d="M179.484 42.3523H193.37C195.671 42.3523 197.536 44.2172 197.536 46.5181C197.536 48.819 195.671 50.6839 193.37 50.6839H179.484C177.183 50.6839 175.319 48.819 175.319 46.5181C175.319 44.2172 177.183 42.3523 179.484 42.3523Z" fill="#D5D5D5"/>
<path fill-rule="evenodd" clip-rule="evenodd" d="M128.877 156.608C137.819 156.608 146.129 153.903 153.035 149.267L181.292 176.242L191.541 164.351L164.273 138.323C169.309 131.235 172.27 122.571 172.27 113.215C172.27 89.2487 152.842 69.8208 128.877 69.8208C104.911 69.8208 85.4829 89.2487 85.4829 113.215C85.4829 137.18 104.911 156.608 128.877 156.608ZM165.889 113.215C165.889 133.504 149.44 149.953 129.151 149.953C108.861 149.953 92.4134 133.504 92.4134 113.215C92.4134 92.925 108.861 76.477 129.151 76.477C149.44 76.477 165.889 92.925 165.889 113.215Z" fill="#CCC6D9"/>
<path d="M129.148 150.663C150.046 150.663 166.987 133.877 166.987 113.171C166.987 92.4647 150.046 75.6786 129.148 75.6786C108.249 75.6786 91.3083 92.4647 91.3083 113.171C91.3083 133.877 108.249 150.663 129.148 150.663Z" fill="white" fill-opacity="0.3"/>
<path d="M135.69 113.171L144.847 104.049C145.705 103.147 146.175 101.948 146.157 100.706C146.14 99.4647 145.636 98.2795 144.753 97.4012C143.869 96.5236 142.677 96.0224 141.428 96.005C140.179 95.9876 138.972 96.4542 138.064 97.3068L128.886 106.429L119.729 97.3068C119.288 96.8437 118.759 96.473 118.171 96.2161C117.584 95.9599 116.951 95.8231 116.309 95.8141C115.668 95.8051 115.031 95.9238 114.437 96.1633C113.842 96.4035 113.302 96.759 112.848 97.2103C112.395 97.6609 112.037 98.1976 111.796 98.7885C111.554 99.3793 111.435 100.013 111.444 100.651C111.453 101.288 111.59 101.917 111.848 102.501C112.106 103.085 112.479 103.611 112.946 104.049L122.118 113.171L112.946 122.293C112.479 122.731 112.106 123.257 111.848 123.841C111.59 124.425 111.453 125.054 111.444 125.691C111.435 126.329 111.554 126.962 111.796 127.553C112.037 128.144 112.395 128.681 112.848 129.131C113.302 129.582 113.842 129.938 114.437 130.178C115.031 130.418 115.668 130.537 116.309 130.528C116.951 130.519 117.584 130.382 118.171 130.126C118.759 129.869 119.288 129.498 119.729 129.035L128.907 119.913L138.085 129.035C139.001 129.837 140.19 130.262 141.412 130.222C142.632 130.183 143.792 129.683 144.654 128.823C145.516 127.963 146.016 126.809 146.052 125.596C146.088 124.382 145.657 123.201 144.847 122.293L135.69 113.171Z" fill="#FF4040"/>
<path d="M181.29 176.243L191.539 164.353L193.082 165.827C194.58 167.256 195.476 169.253 195.575 171.378C195.673 173.504 194.965 175.584 193.607 177.16C192.248 178.736 190.351 179.679 188.331 179.783C186.311 179.886 184.335 179.141 182.838 177.712L181.294 176.238L181.29 176.243Z" fill="#E1DCEB"/>
<path fill-rule="evenodd" clip-rule="evenodd" d="M39.4537 63.3007C39.4412 62.3106 39.3169 61.3115 39.0684 60.3061C38.197 56.7777 34.3103 54.5122 30.1737 53.9797C26.0391 53.4472 21.7386 54.6594 20.0813 57.7289C19.1336 59.4834 19.0031 60.9956 19.3905 62.271C19.7758 63.5395 20.6909 64.5907 21.933 65.4106C25.3962 67.6928 31.4616 68.1587 34.2291 67.2047C35.5087 66.7624 36.7591 66.2299 37.9762 65.6203C37.2805 69.6098 34.6866 73.3888 31.2248 76.7944C23.7014 84.1963 12.0275 89.8146 5.66975 91.8801C5.32815 91.9912 5.13861 92.3696 5.24484 92.7265C5.35107 93.0833 5.71418 93.2833 6.05578 93.1722C12.5392 91.0657 24.4408 85.328 32.1129 77.7796C36.0766 73.8811 38.9003 69.4917 39.3829 64.8774C48.3428 59.8778 55.7003 50.8067 61.9914 43.1722C62.2253 42.891 62.1941 42.4626 61.9226 42.2182C61.6511 41.9759 61.2429 42.0065 61.0089 42.2898C54.9741 49.6118 47.9707 58.3211 39.4537 63.3007ZM38.1512 64.0262C38.2005 62.9132 38.0956 61.7829 37.8131 60.6429C37.0597 57.5887 33.5966 55.7828 30.0154 55.3218C27.8207 55.0399 25.5635 55.2725 23.7931 56.0987C22.6801 56.6173 21.7636 57.3699 21.211 58.394C20.4854 59.7375 20.3285 60.8866 20.6257 61.8614C20.9235 62.8431 21.6623 63.6318 22.6246 64.265C25.7808 66.3459 31.3033 66.7881 33.8222 65.9189C35.3073 65.4072 36.7494 64.7684 38.1512 64.0262Z" fill="#011625"/>
<path d="M198.23 131.917C200.531 131.917 202.396 130.052 202.396 127.751C202.396 125.45 200.531 123.585 198.23 123.585C195.93 123.585 194.065 125.45 194.065 127.751C194.065 130.052 195.93 131.917 198.23 131.917Z" fill="#417BA4"/>
<path fill-rule="evenodd" clip-rule="evenodd" d="M40.891 156.491C41.6346 156.213 42.4171 155.842 43.0204 155.305C43.7369 154.668 44.0285 153.848 44.2236 152.984C44.475 151.874 44.5756 150.692 44.8804 149.581C44.9929 149.168 45.2102 149.011 45.3033 148.943C45.5386 148.768 45.7768 148.72 46.0003 148.738C46.2656 148.759 46.6301 148.864 46.8703 149.332C46.9043 149.399 46.9487 149.502 46.9786 149.641C47.0001 149.744 47.0147 150.064 47.0376 150.196C47.0952 150.522 47.1432 150.848 47.189 151.175C47.3396 152.264 47.4264 153.19 47.9027 154.191C48.5491 155.55 49.1969 156.381 50.0752 156.749C50.925 157.105 51.9401 157.038 53.2377 156.759C53.3613 156.728 53.4835 156.701 53.6043 156.678C54.1764 156.574 54.7235 156.969 54.836 157.569C54.9485 158.168 54.5847 158.752 54.0174 158.884C53.8994 158.911 53.7827 158.937 53.6675 158.961C51.9137 159.418 49.8836 161.048 48.7039 162.476C48.3408 162.916 47.8083 164.147 47.2654 164.932C46.8647 165.511 46.4141 165.893 46.0358 166.028C45.7823 166.119 45.5692 166.104 45.3928 166.058C45.1359 165.993 44.9235 165.846 44.7603 165.613C44.6714 165.486 44.5888 165.316 44.5493 165.098C44.5305 164.993 44.5284 164.727 44.5291 164.607C44.418 164.206 44.2826 163.815 44.184 163.41C43.9487 162.446 43.487 161.836 42.9385 161.029C42.4254 160.274 41.8741 159.799 41.0659 159.421C40.9611 159.394 40.1127 159.175 39.8134 159.05C39.376 158.866 39.167 158.558 39.0914 158.392C38.9629 158.111 38.9497 157.865 38.9754 157.66C39.0136 157.357 39.1427 157.098 39.3719 156.889C39.5135 156.759 39.7253 156.633 40.0092 156.571C40.2279 156.523 40.8098 156.495 40.891 156.491ZM45.867 154.919C45.9059 155.011 45.9483 155.104 45.9927 155.198C46.939 157.187 47.9978 158.299 49.2851 158.838L49.3281 158.855C48.4672 159.528 47.6875 160.28 47.0925 161C46.8467 161.298 46.5224 161.914 46.1711 162.546C45.8525 161.456 45.3317 160.685 44.6763 159.72C44.175 158.984 43.6508 158.43 43.0058 157.979C43.5064 157.709 43.9834 157.392 44.3993 157.023C45.0915 156.407 45.549 155.694 45.867 154.919Z" fill="#417BA4"/>
</g>
<defs>
<linearGradient id="paint0_linear_11015_14499" x1="103.856" y1="-6.99506" x2="105.562" y2="285.598" gradientUnits="userSpaceOnUse">
<stop stop-color="#F2F2F2"/>
<stop offset="1" stop-color="#EFEFEF"/>
</linearGradient>
</defs>
</svg>
