<svg width="209" height="209" viewBox="0 0 209 209" fill="none" xmlns="http://www.w3.org/2000/svg">
<path d="M199.306 73.7095C199.306 39.9207 171.886 12.5295 138.061 12.5295H138.06C126.325 12.5295 115.362 15.8273 106.046 21.5443C96.7305 15.8273 85.7669 12.5295 74.0319 12.5295H74.0318C40.2067 12.5295 12.7861 39.9208 12.7861 73.7095V73.7096C12.7861 85.432 16.0874 96.3838 21.8106 105.69C16.0874 114.995 12.7861 125.947 12.7861 137.669V137.67C12.7861 171.458 40.2068 198.85 74.0318 198.85H74.0319C85.7669 198.85 96.7305 195.552 106.046 189.835C115.362 195.552 126.325 198.85 138.06 198.85H138.061C171.886 198.85 199.306 171.458 199.306 137.67V137.669C199.306 125.947 196.005 114.995 190.282 105.69C196.005 96.3838 199.306 85.432 199.306 73.7096V73.7095Z" fill="#DEF2FF"/>
<path d="M172.976 143.334L174.956 144.534C176.193 145.284 177.744 145.284 178.981 144.534L180.961 143.334L179.76 145.313C179.01 146.548 179.01 148.098 179.76 149.333L180.961 151.312L178.981 150.111C177.744 149.362 176.193 149.362 174.956 150.111L172.976 151.312L174.177 149.333C174.927 148.098 174.927 146.548 174.177 145.313L172.976 143.334Z" fill="#94E3FF"/>
<path d="M172.976 151.832C172.841 151.832 172.708 151.78 172.607 151.68C172.437 151.51 172.405 151.247 172.53 151.042L173.731 149.063C174.383 147.99 174.383 146.656 173.731 145.583L172.53 143.605C172.405 143.399 172.437 143.136 172.607 142.966C172.777 142.797 173.041 142.765 173.246 142.889L175.227 144.089C176.301 144.74 177.636 144.74 178.71 144.089L180.691 142.889C180.896 142.765 181.16 142.797 181.33 142.966C181.5 143.136 181.532 143.399 181.407 143.605L180.206 145.583C179.554 146.656 179.554 147.99 180.206 149.063L181.407 151.042C181.532 151.247 181.5 151.51 181.33 151.68C181.16 151.849 180.896 151.881 180.691 151.757L178.71 150.557C177.636 149.906 176.301 149.906 175.227 150.557L173.246 151.757C173.162 151.808 173.069 151.832 172.976 151.832ZM174.525 144.882L174.623 145.043C175.476 146.449 175.476 148.197 174.623 149.603L174.525 149.764L174.686 149.666C176.094 148.813 177.843 148.813 179.251 149.666L179.412 149.764L179.314 149.603C178.46 148.197 178.46 146.449 179.314 145.043L179.412 144.882L179.251 144.98C177.843 145.833 176.094 145.833 174.686 144.98L174.525 144.882Z" fill="#3B5C91"/>
<path d="M176.969 32.2772L179.219 31.7267C180.623 31.3831 181.72 30.2875 182.064 28.8842L182.615 26.6366L183.166 28.8842C183.51 30.2874 184.607 31.383 186.012 31.7267L188.262 32.2772L186.012 32.8278C184.607 33.1714 183.51 34.267 183.166 35.6703L182.615 37.9179L182.064 35.6703C181.72 34.267 180.623 33.1714 179.219 32.8278L176.969 32.2772Z" fill="#FFD385"/>
<path d="M182.615 38.4386C182.375 38.4386 182.166 38.2747 182.109 38.0417L181.558 35.7941C181.259 34.575 180.315 33.6321 179.095 33.3335L176.845 32.783C176.611 32.7259 176.447 32.5171 176.447 32.2772C176.447 32.0373 176.611 31.8285 176.845 31.7714L179.095 31.2209C180.315 30.9223 181.259 29.9795 181.558 28.7603L182.109 26.5127C182.166 26.2797 182.375 26.1158 182.615 26.1158C182.855 26.1158 183.064 26.2797 183.122 26.5127L183.673 28.7603C183.972 29.9795 184.915 30.9223 186.136 31.2209L188.386 31.7714C188.619 31.8285 188.783 32.0373 188.783 32.2772C188.783 32.5171 188.619 32.7259 188.386 32.783L186.136 33.3335C184.915 33.6321 183.972 34.575 183.673 35.7941L183.122 38.0417C183.064 38.2747 182.855 38.4386 182.615 38.4386ZM179.16 32.2773L179.343 32.322C180.942 32.7133 182.179 33.9488 182.57 35.5464L182.615 35.7291L182.66 35.5464C183.052 33.9488 184.289 32.7133 185.888 32.322L186.071 32.2773L185.888 32.2325C184.289 31.8412 183.052 30.6057 182.66 29.0081L182.615 28.8255L182.57 29.0081C182.179 30.6057 180.942 31.8412 179.343 32.2325L179.16 32.2773Z" fill="#3B5C91"/>
<path d="M18.2786 65.1118L20.114 71.9546C20.4227 73.1053 21.8626 73.4907 22.7059 72.6483L27.7205 67.6391C28.5638 66.7967 28.178 65.3583 27.026 65.05L20.1759 63.2165C19.024 62.9081 17.9699 63.9611 18.2786 65.1118Z" fill="#FFD385"/>
<path d="M21.6199 73.6242C21.4392 73.6242 21.2561 73.6004 21.0746 73.5518C20.3516 73.3583 19.8043 72.8116 19.6105 72.0894L17.7751 65.2466C17.5813 64.5244 17.7817 63.7776 18.3109 63.2489C18.8402 62.7202 19.5879 62.5201 20.3109 62.7136L27.161 64.547C27.884 64.7405 28.4313 65.2873 28.625 66.0095C28.8187 66.7317 28.6184 67.4786 28.0891 68.0073L23.0745 73.0166C22.6781 73.4125 22.1592 73.6242 21.6199 73.6242ZM18.7821 64.977L20.6176 71.8198C20.7137 72.1784 20.9855 72.4498 21.3444 72.5459C21.7034 72.642 22.0746 72.5426 22.3373 72.2801L27.3519 67.2709C27.6147 67.0084 27.7142 66.6376 27.618 66.2791C27.5218 65.9205 27.2501 65.6491 26.8912 65.553L20.0411 63.7195C19.6821 63.6235 19.311 63.7228 19.0482 63.9853C18.7854 64.2477 18.6859 64.6185 18.7821 64.977Z" fill="#3B5C91"/>
<path d="M117.961 189.671L119.124 182.683C119.319 181.508 118.168 180.562 117.051 180.98L110.411 183.469C109.295 183.887 109.05 185.356 109.972 186.113L115.449 190.613C116.37 191.37 117.765 190.847 117.961 189.671Z" fill="#FF9494"/>
<path d="M116.426 191.489C115.957 191.489 115.497 191.327 115.118 191.015L109.64 186.515C109.062 186.04 108.791 185.316 108.913 184.579C109.036 183.841 109.528 183.244 110.228 182.981L116.868 180.493C117.569 180.23 118.333 180.357 118.911 180.832C119.489 181.307 119.761 182.031 119.638 182.769L118.475 189.757C118.353 190.494 117.861 191.091 117.16 191.354C116.919 191.444 116.671 191.489 116.426 191.489ZM117.599 181.401C117.477 181.401 117.354 181.423 117.235 181.468L110.595 183.956C110.247 184.087 110.003 184.383 109.942 184.749C109.881 185.115 110.016 185.475 110.303 185.711L115.78 190.211C116.067 190.446 116.446 190.509 116.794 190.379C117.142 190.249 117.386 189.952 117.447 189.586L118.61 182.598C118.671 182.232 118.536 181.872 118.249 181.636C118.06 181.482 117.832 181.401 117.599 181.401Z" fill="#3B5C91"/>
<path d="M23.2354 164.598L25.2349 162.6C25.6917 162.144 25.6917 161.404 25.2349 160.948C24.7782 160.492 24.0376 160.492 23.5808 160.948L21.5812 162.945L19.5817 160.948C19.125 160.492 18.3843 160.492 17.9276 160.948C17.4708 161.404 17.4708 162.144 17.9276 162.6L19.9271 164.598L17.9276 166.595C17.4708 167.051 17.4708 167.791 17.9276 168.247C18.3843 168.704 19.1249 168.704 19.5817 168.247L21.5812 166.25L23.5808 168.247C24.0376 168.704 24.7782 168.704 25.2349 168.247C25.6917 167.791 25.6917 167.051 25.2349 166.595L23.2354 164.598Z" fill="#FF9494"/>
<path d="M92.5157 23.4459H89.9833V20.9162C89.9833 20.3383 89.5143 19.8698 88.9357 19.8698C88.3572 19.8698 87.8883 20.3383 87.8883 20.9162V23.4459H85.3558C84.7773 23.4459 84.3083 23.9144 84.3083 24.4922C84.3083 25.0701 84.7773 25.5386 85.3559 25.5386H87.8883V28.0683C87.8883 28.6462 88.3573 29.1147 88.9358 29.1147C89.5143 29.1147 89.9833 28.6462 89.9833 28.0684V25.5386H92.5157C93.0942 25.5386 93.5632 25.0701 93.5632 24.4922C93.5631 23.9143 93.0941 23.4459 92.5157 23.4459Z" fill="#FF9494"/>
<path d="M158.67 113.64L131.227 112.724C130.448 112.698 129.731 113.126 129.409 113.81C129.087 114.493 129.222 115.297 129.754 115.848L140.349 126.833C133.01 138.053 120.095 144.687 106.304 144.227C88.9033 143.646 73.9216 131.828 69.8707 115.486C69.5269 114.1 68.7059 112.839 67.5584 111.936C66.5354 111.131 65.2738 110.628 63.9644 110.495C63.9254 110.491 63.8864 110.488 63.8469 110.484C63.8141 110.481 63.7809 110.479 63.7476 110.476C63.7106 110.474 63.6737 110.471 63.6373 110.469L63.631 110.469C63.5852 110.466 63.5394 110.464 63.4935 110.463L63.4898 110.463C61.3611 110.392 59.3672 111.261 58.0201 112.849C57.3777 113.606 56.9126 114.506 56.6749 115.452C56.4227 116.458 56.4218 117.485 56.6724 118.505C58.0049 123.919 60.2491 129.052 63.3415 133.76C66.3556 138.347 70.1023 142.425 74.4785 145.88C78.8542 149.335 83.7385 152.072 88.9956 154.015C94.3898 156.01 100.047 157.118 105.809 157.311C109.337 157.428 112.91 157.197 116.428 156.624C119.996 156.043 123.51 155.099 126.872 153.816C130.171 152.557 133.351 150.964 136.323 149.08C139.268 147.213 142.028 145.049 144.526 142.647C146.453 140.795 148.235 138.791 149.84 136.673L156.314 143.385C156.672 143.755 157.16 143.962 157.664 143.978C157.911 143.987 158.162 143.949 158.403 143.862C159.135 143.6 159.628 142.936 159.653 142.183L160.536 115.563C160.57 114.537 159.735 113.676 158.67 113.64Z" fill="#C1D9E0"/>
<path d="M113.79 163.507L113.789 163.507C113.715 163.206 113.609 162.917 113.476 162.642C113.472 162.635 113.469 162.628 113.466 162.621C113.442 162.572 113.417 162.523 113.391 162.476C113.386 162.467 113.381 162.458 113.377 162.449C113.351 162.402 113.324 162.355 113.296 162.308C113.293 162.301 113.288 162.295 113.284 162.288C113.161 162.083 113.022 161.887 112.868 161.703C112.866 161.701 112.864 161.699 112.863 161.697C112.83 161.658 112.797 161.62 112.763 161.583C112.752 161.571 112.742 161.559 112.731 161.547C112.7 161.513 112.668 161.48 112.636 161.446C112.621 161.432 112.607 161.418 112.593 161.403C112.562 161.372 112.53 161.341 112.498 161.31C112.482 161.295 112.466 161.281 112.45 161.266C112.418 161.236 112.385 161.207 112.352 161.178C112.336 161.164 112.319 161.15 112.303 161.136C112.269 161.108 112.235 161.079 112.2 161.051C112.189 161.042 112.177 161.033 112.165 161.024C112.095 160.969 112.022 160.915 111.948 160.864C111.929 160.851 111.911 160.837 111.891 160.824C111.861 160.803 111.829 160.783 111.798 160.763C111.772 160.747 111.746 160.73 111.72 160.714C111.69 160.695 111.659 160.677 111.628 160.659C111.6 160.643 111.571 160.626 111.542 160.61C111.512 160.593 111.482 160.577 111.452 160.561C111.421 160.545 111.39 160.529 111.359 160.514C111.329 160.499 111.3 160.484 111.27 160.47C111.236 160.454 111.202 160.438 111.168 160.423C111.14 160.411 111.112 160.398 111.083 160.386C111.043 160.368 111.002 160.352 110.961 160.336C110.938 160.327 110.915 160.318 110.892 160.309C110.829 160.285 110.765 160.263 110.7 160.242C110.679 160.235 110.659 160.229 110.638 160.223C110.592 160.208 110.546 160.194 110.499 160.181C110.473 160.174 110.446 160.167 110.42 160.16C110.378 160.149 110.336 160.139 110.293 160.129C110.265 160.122 110.237 160.116 110.209 160.11C110.167 160.101 110.125 160.093 110.083 160.085C110.055 160.08 110.026 160.075 109.998 160.07C109.954 160.063 109.911 160.056 109.867 160.05C109.84 160.046 109.812 160.042 109.784 160.039C109.736 160.033 109.688 160.028 109.639 160.024C109.616 160.021 109.592 160.019 109.569 160.017C109.497 160.011 109.424 160.007 109.351 160.005C109.256 160.001 109.161 160.001 109.066 160.003L109.011 160.005C107.917 160.03 106.811 160.024 105.722 159.988C104.362 159.943 102.989 159.848 101.641 159.706C101.525 159.694 101.407 159.686 101.29 159.682C100.1 159.642 98.9482 160.034 98.0465 160.786C97.14 161.542 96.5708 162.591 96.4437 163.742C96.31 164.952 96.6729 166.14 97.4655 167.089C97.5101 167.142 97.5562 167.194 97.6029 167.245C97.617 167.261 97.6314 167.276 97.6457 167.291C97.6801 167.328 97.715 167.364 97.7505 167.399C97.7658 167.415 97.7811 167.43 97.7966 167.445C97.8406 167.488 97.8852 167.53 97.9306 167.571C97.9365 167.576 97.9421 167.581 97.948 167.587C97.9982 167.631 98.0495 167.674 98.1014 167.717C98.1194 167.731 98.1377 167.746 98.1559 167.76C98.192 167.789 98.2284 167.817 98.2652 167.844C98.2855 167.859 98.3057 167.874 98.3262 167.889C98.3673 167.919 98.4091 167.947 98.4512 167.976C98.466 167.986 98.4804 167.996 98.4953 168.006C98.5489 168.041 98.6033 168.075 98.6583 168.108C98.6819 168.122 98.7059 168.135 98.7298 168.149C98.7649 168.169 98.8001 168.189 98.8356 168.208C98.8618 168.222 98.888 168.236 98.9144 168.25C98.9515 168.269 98.989 168.288 99.0267 168.306C99.0539 168.319 99.081 168.332 99.1086 168.345C99.1611 168.369 99.214 168.392 99.2673 168.415C99.2963 168.427 99.3257 168.438 99.3551 168.45C99.3889 168.463 99.4228 168.476 99.4569 168.489C99.488 168.5 99.519 168.511 99.5504 168.522C99.5856 168.534 99.6211 168.546 99.6567 168.557C99.9728 168.658 100.302 168.729 100.641 168.764C102.219 168.93 103.826 169.041 105.417 169.094C106.69 169.136 107.983 169.143 109.262 169.113L109.326 169.112C110.588 169.081 111.761 168.578 112.628 167.696C113.495 166.814 113.953 165.659 113.918 164.442C113.909 164.121 113.864 163.809 113.79 163.507Z" fill="#C1D9E0"/>
<path d="M155.492 145.324C155.487 145.309 155.482 145.293 155.477 145.278C155.464 145.237 155.45 145.197 155.435 145.156C155.428 145.137 155.421 145.118 155.414 145.099C155.366 144.974 155.314 144.852 155.255 144.732C155.243 144.707 155.231 144.682 155.218 144.657C155.202 144.625 155.186 144.594 155.169 144.563C155.153 144.534 155.137 144.505 155.121 144.477C155.105 144.449 155.09 144.422 155.074 144.395C155.044 144.344 155.012 144.293 154.979 144.243C154.964 144.22 154.949 144.198 154.933 144.175C154.91 144.141 154.887 144.107 154.863 144.074C154.848 144.052 154.832 144.031 154.816 144.009C154.785 143.968 154.754 143.928 154.722 143.888C154.713 143.876 154.703 143.863 154.693 143.851C154.652 143.8 154.608 143.75 154.564 143.7C154.551 143.685 154.536 143.67 154.522 143.655C154.488 143.617 154.454 143.581 154.418 143.544C154.404 143.53 154.39 143.515 154.375 143.5C154.326 143.451 154.277 143.403 154.225 143.356C153.385 142.587 152.286 142.142 151.131 142.104C151.131 142.104 151.13 142.104 151.13 142.104C149.781 142.059 148.475 142.574 147.547 143.516C145.848 145.242 144.012 146.873 142.09 148.363C141.108 149.124 140.493 150.21 140.358 151.42C140.223 152.629 140.585 153.818 141.377 154.767C141.41 154.807 141.445 154.846 141.479 154.885C141.489 154.896 141.499 154.907 141.509 154.918C141.536 154.948 141.564 154.977 141.592 155.007C141.601 155.016 141.609 155.025 141.618 155.034C141.654 155.071 141.691 155.107 141.728 155.143C141.735 155.15 141.742 155.156 141.749 155.162C141.78 155.192 141.811 155.221 141.844 155.25C141.854 155.26 141.865 155.269 141.876 155.279C141.91 155.309 141.944 155.338 141.979 155.367C141.984 155.371 141.989 155.376 141.995 155.38C142.035 155.413 142.076 155.445 142.117 155.477C142.126 155.484 142.136 155.492 142.146 155.499C142.179 155.524 142.213 155.549 142.246 155.573C142.257 155.58 142.267 155.588 142.278 155.595C142.321 155.625 142.364 155.655 142.408 155.684C142.451 155.712 142.495 155.74 142.54 155.767C142.551 155.774 142.561 155.78 142.572 155.786C142.61 155.809 142.648 155.831 142.687 155.853C142.694 155.857 142.702 155.862 142.709 155.866C142.756 155.892 142.803 155.917 142.85 155.941C142.857 155.944 142.863 155.947 142.869 155.95C142.911 155.971 142.952 155.991 142.994 156.011C143.004 156.016 143.015 156.021 143.025 156.025C143.122 156.07 143.22 156.111 143.32 156.15C143.329 156.153 143.338 156.156 143.347 156.16C143.389 156.176 143.432 156.191 143.476 156.206C143.484 156.209 143.493 156.212 143.502 156.215C143.949 156.366 144.42 156.453 144.904 156.469C146.032 156.507 147.139 156.152 148.019 155.47C150.269 153.726 152.418 151.817 154.407 149.797C155.274 148.915 155.733 147.76 155.699 146.543C155.687 146.124 155.616 145.715 155.492 145.324Z" fill="#C1D9E0"/>
<path d="M57.2506 128.467C56.2749 126.362 55.4359 124.177 54.7545 121.967C54.7319 121.894 54.709 121.82 54.6866 121.747C54.1114 119.851 52.351 118.531 50.3062 118.463C49.8064 118.447 49.3082 118.507 48.8256 118.642C46.326 119.342 44.8878 121.874 45.6198 124.287C46.433 126.967 47.4448 129.619 48.6272 132.169C48.9959 132.965 49.5883 133.638 50.3403 134.117C50.3845 134.145 50.4293 134.173 50.4744 134.199C50.4975 134.213 50.5209 134.226 50.5442 134.239C50.5659 134.252 50.5875 134.264 50.6094 134.276C50.6411 134.294 50.6733 134.31 50.7054 134.327C50.7188 134.334 50.7321 134.341 50.7456 134.348C50.7832 134.367 50.8212 134.385 50.8592 134.404C50.8671 134.407 50.875 134.411 50.8829 134.415C50.925 134.435 50.9674 134.454 51.0101 134.472C51.0139 134.474 51.0177 134.476 51.0216 134.477C51.067 134.497 51.1127 134.515 51.1588 134.534C51.1598 134.534 51.1609 134.535 51.1619 134.535C51.2569 134.572 51.3529 134.607 51.45 134.638C51.4501 134.638 51.4501 134.638 51.4502 134.638C51.8806 134.777 52.331 134.857 52.7885 134.872C53.5084 134.896 54.2082 134.764 54.8684 134.481C56.0201 133.987 56.9022 133.089 57.3521 131.953C57.8021 130.817 57.766 129.579 57.2506 128.467Z" fill="#C1D9E0"/>
<path d="M172.061 105.398L172.06 105.353C172.051 105.032 172.006 104.719 171.931 104.417C171.931 104.417 171.931 104.417 171.931 104.417C171.856 104.116 171.75 103.827 171.617 103.552C171.614 103.545 171.61 103.538 171.607 103.531C171.583 103.482 171.558 103.434 171.532 103.386C171.528 103.377 171.523 103.368 171.518 103.36C171.492 103.312 171.466 103.265 171.438 103.218C171.434 103.212 171.43 103.205 171.426 103.198C171.302 102.992 171.163 102.797 171.009 102.612C171.007 102.611 171.006 102.609 171.004 102.607C170.972 102.568 170.938 102.53 170.904 102.493C170.894 102.481 170.883 102.469 170.873 102.458C170.841 102.423 170.809 102.39 170.777 102.357C170.763 102.342 170.749 102.328 170.735 102.314C170.704 102.282 170.672 102.251 170.639 102.221C170.624 102.206 170.608 102.191 170.592 102.176C170.56 102.147 170.527 102.117 170.494 102.089C170.478 102.074 170.461 102.061 170.444 102.046C170.411 102.018 170.377 101.989 170.342 101.961C170.331 101.952 170.319 101.943 170.307 101.934C170.236 101.879 170.164 101.825 170.089 101.774C170.071 101.761 170.052 101.747 170.033 101.734C170.002 101.713 169.971 101.694 169.939 101.673C169.914 101.657 169.888 101.64 169.862 101.624C169.832 101.605 169.801 101.588 169.77 101.57C169.742 101.553 169.713 101.537 169.684 101.52C169.654 101.504 169.624 101.488 169.594 101.471C169.563 101.455 169.532 101.439 169.501 101.424C169.471 101.409 169.442 101.394 169.412 101.38C169.378 101.364 169.344 101.349 169.31 101.333C169.282 101.321 169.254 101.308 169.225 101.296C169.185 101.279 169.144 101.263 169.103 101.247C169.08 101.238 169.057 101.228 169.034 101.219C168.971 101.196 168.907 101.173 168.842 101.152C168.822 101.145 168.801 101.139 168.78 101.133C168.734 101.119 168.688 101.104 168.641 101.091C168.615 101.084 168.588 101.078 168.562 101.071C168.52 101.06 168.478 101.049 168.435 101.039C168.407 101.033 168.379 101.027 168.351 101.021C168.309 101.012 168.267 101.003 168.225 100.995C168.197 100.99 168.169 100.985 168.14 100.98C168.097 100.973 168.053 100.966 168.009 100.96C167.982 100.956 167.954 100.952 167.927 100.949C167.879 100.943 167.83 100.938 167.782 100.934C167.758 100.932 167.735 100.929 167.711 100.927C167.639 100.922 167.566 100.917 167.493 100.915H167.493C167.398 100.912 167.302 100.911 167.207 100.913C164.603 100.977 162.544 103.072 162.616 105.583L162.617 105.617C162.646 106.671 162.643 107.738 162.607 108.789C162.563 110.105 162.468 111.435 162.323 112.741C162.189 113.95 162.551 115.139 163.344 116.088C163.388 116.141 163.434 116.193 163.481 116.244C163.495 116.26 163.51 116.275 163.524 116.29C163.558 116.327 163.593 116.363 163.628 116.398C163.644 116.414 163.659 116.429 163.675 116.444C163.718 116.487 163.763 116.528 163.808 116.569C163.814 116.574 163.82 116.58 163.826 116.586C163.876 116.63 163.927 116.674 163.979 116.716C163.997 116.731 164.016 116.745 164.034 116.76C164.07 116.788 164.106 116.816 164.143 116.843C164.163 116.858 164.184 116.874 164.205 116.888C164.245 116.918 164.286 116.946 164.327 116.974C164.343 116.984 164.358 116.995 164.374 117.005C164.427 117.04 164.481 117.074 164.536 117.107C164.56 117.121 164.584 117.135 164.609 117.149C164.643 117.169 164.678 117.188 164.713 117.207C164.739 117.222 164.766 117.236 164.793 117.25C164.829 117.268 164.866 117.286 164.902 117.304C164.93 117.318 164.958 117.332 164.987 117.345C165.039 117.369 165.092 117.392 165.145 117.414C165.175 117.427 165.205 117.438 165.235 117.45C165.268 117.463 165.301 117.476 165.334 117.488C165.366 117.5 165.397 117.511 165.429 117.522C165.464 117.534 165.498 117.545 165.532 117.556C165.563 117.566 165.593 117.576 165.624 117.585L165.624 117.585C165.912 117.671 166.211 117.732 166.518 117.764C166.635 117.776 166.753 117.785 166.871 117.788C168.06 117.828 169.212 117.436 170.113 116.685C171.02 115.93 171.589 114.88 171.717 113.73C171.886 112.201 171.998 110.645 172.05 109.104C172.091 107.877 172.095 106.63 172.061 105.398Z" fill="#C1D9E0"/>
<path d="M136.543 158.58C136.543 158.58 136.543 158.58 136.543 158.58C136.509 158.445 136.47 158.311 136.423 158.179C136.419 158.167 136.414 158.156 136.41 158.145C136.39 158.09 136.37 158.035 136.348 157.981C136.321 157.914 136.292 157.847 136.261 157.781C135.893 156.985 135.3 156.311 134.548 155.832C133.819 155.367 132.972 155.106 132.099 155.077C132.099 155.077 132.099 155.077 132.099 155.077C131.38 155.053 130.681 155.184 130.021 155.467C127.768 156.434 125.425 157.259 123.057 157.922C121.846 158.261 120.846 159.035 120.24 160.1C119.634 161.166 119.495 162.397 119.85 163.566C119.866 163.62 119.884 163.673 119.902 163.726C119.908 163.743 119.914 163.759 119.919 163.776C119.933 163.813 119.946 163.85 119.96 163.886C119.967 163.904 119.975 163.922 119.982 163.94C119.997 163.977 120.012 164.014 120.028 164.05C120.034 164.065 120.041 164.081 120.047 164.096C120.07 164.146 120.093 164.195 120.117 164.244C120.122 164.254 120.127 164.264 120.132 164.274C120.152 164.313 120.172 164.352 120.193 164.391C120.202 164.409 120.212 164.426 120.221 164.444C120.239 164.475 120.256 164.506 120.274 164.536C120.285 164.554 120.296 164.573 120.307 164.591C120.326 164.622 120.345 164.653 120.365 164.684C120.375 164.7 120.384 164.716 120.395 164.731C120.423 164.775 120.452 164.817 120.482 164.86C120.494 164.877 120.506 164.893 120.518 164.909C120.538 164.937 120.558 164.964 120.578 164.99C120.593 165.01 120.608 165.029 120.624 165.049C120.642 165.072 120.66 165.095 120.679 165.118C120.695 165.137 120.711 165.157 120.728 165.177C120.747 165.199 120.766 165.221 120.785 165.243C120.811 165.272 120.837 165.301 120.864 165.33C120.887 165.355 120.91 165.38 120.934 165.405C120.955 165.426 120.976 165.447 120.997 165.468C121.013 165.484 121.03 165.501 121.047 165.517C121.069 165.539 121.092 165.56 121.114 165.581C121.13 165.595 121.146 165.61 121.162 165.624C121.186 165.646 121.21 165.668 121.235 165.689C121.246 165.699 121.259 165.709 121.271 165.719C121.328 165.768 121.386 165.815 121.446 165.861C121.451 165.865 121.457 165.87 121.463 165.874C121.492 165.897 121.522 165.918 121.553 165.94C121.565 165.949 121.577 165.958 121.589 165.967C121.619 165.988 121.65 166.009 121.681 166.03C121.692 166.037 121.702 166.044 121.713 166.052C121.825 166.126 121.94 166.195 122.058 166.26C122.058 166.26 122.059 166.26 122.059 166.26C122.096 166.281 122.134 166.3 122.172 166.32C122.18 166.324 122.188 166.328 122.196 166.332C122.234 166.351 122.272 166.37 122.31 166.388C122.315 166.39 122.319 166.392 122.324 166.395C122.451 166.454 122.581 166.508 122.713 166.557C122.714 166.557 122.714 166.557 122.714 166.557C122.756 166.572 122.798 166.587 122.841 166.601C122.848 166.603 122.854 166.606 122.861 166.608C122.903 166.622 122.946 166.636 122.99 166.648C123.385 166.767 123.802 166.837 124.231 166.851C124.73 166.868 125.227 166.808 125.709 166.673C128.487 165.896 131.235 164.927 133.877 163.794C135.029 163.3 135.911 162.402 136.362 161.267C136.706 160.397 136.765 159.467 136.543 158.58Z" fill="#C1D9E0"/>
<path d="M90.7246 159.475C90.705 159.41 90.6842 159.346 90.6616 159.282C90.6568 159.268 90.6512 159.254 90.6461 159.241C90.6275 159.19 90.6088 159.139 90.5883 159.088C90.5615 159.022 90.5331 158.956 90.5029 158.891C89.9886 157.778 89.0564 156.925 87.878 156.487C85.574 155.631 83.3067 154.614 81.1389 153.464C80.491 153.121 79.7598 152.926 79.0245 152.902C78.1656 152.873 77.3147 153.071 76.5638 153.473C75.7894 153.889 75.1541 154.506 74.7268 155.257C73.4757 157.458 74.3165 160.234 76.6009 161.445C76.7515 161.525 76.9025 161.604 77.0539 161.683C79.457 162.934 81.9597 164.045 84.5008 164.988C84.9946 165.172 85.5115 165.274 86.0372 165.291C88.0476 165.358 89.8817 164.187 90.601 162.376C90.9744 161.436 91.0138 160.426 90.7249 159.475C90.7247 159.475 90.7247 159.475 90.7246 159.475Z" fill="#C1D9E0"/>
<path d="M70.2141 145.962C70.1905 145.931 70.1666 145.901 70.1421 145.872C70.1154 145.839 70.088 145.807 70.0603 145.775C70.0379 145.749 70.0153 145.724 69.9922 145.698C69.9574 145.66 69.9218 145.622 69.8854 145.585C69.8706 145.569 69.8557 145.554 69.8406 145.539C69.7917 145.49 69.7419 145.442 69.6902 145.394C69.5729 145.287 69.4561 145.179 69.3397 145.071C69.3376 145.069 69.3355 145.067 69.3334 145.065C69.2189 144.958 69.1047 144.851 68.991 144.743C68.1983 143.992 67.4269 143.215 66.6806 142.418C66.3398 142.053 66.0045 141.685 65.6746 141.313C65.6586 141.294 65.6425 141.276 65.6266 141.258C65.4731 141.085 65.3209 140.91 65.1699 140.735C65.1473 140.709 65.1248 140.682 65.1022 140.656C64.9502 140.479 64.7991 140.301 64.6497 140.122C63.7855 139.087 62.5005 138.467 61.1242 138.421H61.1239C59.9943 138.383 58.8875 138.738 58.0072 139.421C55.9799 140.994 55.661 143.867 57.2963 145.825C57.4644 146.027 57.6344 146.227 57.8054 146.427C57.8376 146.464 57.8696 146.502 57.9019 146.539C58.0687 146.733 58.2369 146.926 58.4064 147.118C58.4346 147.15 58.4629 147.182 58.4912 147.214C58.6659 147.411 58.8416 147.608 59.019 147.803C59.0213 147.806 59.0236 147.808 59.026 147.811C59.2085 148.012 59.3928 148.212 59.5781 148.41C59.6036 148.438 59.6291 148.465 59.6546 148.492C59.8392 148.69 60.025 148.886 60.2122 149.081C60.2256 149.095 60.2392 149.109 60.2527 149.123C60.6422 149.529 61.0373 149.929 61.4373 150.324C61.4542 150.341 61.4712 150.358 61.4881 150.374C62.048 150.926 62.6175 151.468 63.1961 151.997C64.0359 152.765 65.1347 153.21 66.2898 153.248C67.6396 153.294 68.946 152.778 69.874 151.835C71.4666 150.216 71.576 147.751 70.2493 146.008C70.2376 145.992 70.226 145.977 70.2141 145.962Z" fill="#C1D9E0"/>
<path d="M44.3852 111.533C44.4201 111.568 44.4558 111.602 44.4918 111.635C44.5016 111.644 44.5114 111.654 44.5213 111.663C44.5583 111.697 44.5958 111.73 44.6339 111.763C44.6409 111.769 44.648 111.775 44.6551 111.781C44.876 111.968 45.1151 112.137 45.3695 112.282C45.3715 112.284 45.3736 112.285 45.3756 112.286C45.6878 112.464 46.0229 112.609 46.3757 112.715L46.3758 112.715C46.7694 112.833 47.1842 112.904 47.6141 112.919C47.7086 112.922 47.8046 112.922 47.8995 112.92C49.1613 112.889 50.3334 112.386 51.2006 111.504C52.0677 110.622 52.526 109.467 52.491 108.25L52.489 108.178C52.4601 107.124 52.4632 106.056 52.4983 105.006C52.5428 103.677 52.6398 102.336 52.7867 101.019C52.8467 100.481 52.808 99.9476 52.6774 99.4371C52.6635 99.383 52.6486 99.3291 52.6327 99.2754C52.6287 99.2622 52.625 99.2488 52.621 99.2355C52.6031 99.1776 52.5839 99.1201 52.5636 99.0629C52.5582 99.0474 52.5528 99.032 52.5471 99.0166C52.5264 98.9599 52.5045 98.9037 52.4814 98.8478C52.4754 98.8334 52.4693 98.8191 52.4632 98.8048C52.4388 98.7475 52.4135 98.6904 52.3866 98.634C52.3819 98.6242 52.3769 98.6144 52.3721 98.6045C52.3453 98.5492 52.3173 98.4942 52.288 98.4398C52.2844 98.4332 52.281 98.4264 52.2775 98.4197C52.2461 98.3621 52.2131 98.3052 52.179 98.2487C52.1727 98.2381 52.1665 98.2276 52.1601 98.2171C52.1263 98.162 52.0911 98.1075 52.0549 98.0536C52.0477 98.043 52.0405 98.0325 52.0333 98.0219C51.996 97.9675 51.9575 97.9136 51.9176 97.8604C51.9118 97.8527 51.9057 97.8449 51.8998 97.8372C51.8573 97.7813 51.8137 97.7259 51.7683 97.6714C50.9766 96.7221 49.8497 96.126 48.5952 95.993C48.4773 95.9805 48.3578 95.9722 48.2397 95.9683C47.0505 95.9286 45.8994 96.3201 44.9981 97.0704C44.0916 97.8251 43.5217 98.8738 43.3934 100.023C43.2214 101.565 43.1078 103.136 43.0558 104.691C43.0147 105.919 43.011 107.166 43.0449 108.399L43.0472 108.48C43.0492 108.55 43.0532 108.619 43.0584 108.687C43.06 108.71 43.0624 108.731 43.0644 108.753C43.0687 108.8 43.0734 108.847 43.0791 108.893C43.0822 108.919 43.0856 108.944 43.0892 108.969C43.0953 109.012 43.1021 109.056 43.1095 109.099C43.1137 109.124 43.118 109.149 43.1227 109.174C43.1313 109.219 43.1409 109.264 43.1509 109.31C43.1556 109.331 43.1598 109.352 43.1648 109.373C43.18 109.437 43.1965 109.501 43.2146 109.564C43.2187 109.579 43.2234 109.593 43.2276 109.607C43.2423 109.656 43.2576 109.706 43.274 109.755C43.2824 109.78 43.2914 109.804 43.3003 109.829C43.3136 109.867 43.3272 109.904 43.3415 109.941C43.352 109.969 43.3628 109.995 43.3738 110.022C43.3879 110.057 43.4025 110.091 43.4174 110.125C43.4294 110.153 43.4413 110.18 43.4537 110.207C43.4694 110.241 43.4859 110.274 43.5025 110.308C43.5152 110.334 43.5276 110.36 43.5409 110.386C43.5688 110.44 43.5978 110.493 43.6279 110.546C43.6445 110.575 43.6622 110.604 43.6795 110.633C43.6955 110.659 43.7113 110.686 43.7279 110.712C43.7473 110.743 43.7673 110.774 43.7875 110.804C43.8028 110.827 43.8182 110.85 43.8339 110.873C43.8556 110.905 43.8776 110.936 43.9 110.967C43.9147 110.987 43.9297 111.007 43.9447 111.027C43.9691 111.059 43.9936 111.092 44.0188 111.124C44.0299 111.138 44.0414 111.151 44.0527 111.165C44.1501 111.285 44.2535 111.4 44.3626 111.51C44.3702 111.518 44.3776 111.525 44.3852 111.533Z" fill="#C1D9E0"/>
<path d="M162.309 94.5767C162.347 94.6014 162.385 94.6259 162.423 94.6495C162.443 94.6621 162.464 94.6741 162.484 94.6863C162.52 94.7079 162.556 94.7291 162.592 94.7497C162.614 94.7616 162.635 94.7732 162.656 94.7848C162.693 94.8048 162.73 94.8244 162.768 94.8435C162.788 94.8541 162.809 94.8646 162.83 94.8749C162.869 94.8943 162.909 94.9129 162.949 94.9312C162.968 94.94 162.987 94.949 163.007 94.9575C163.051 94.9771 163.096 94.9959 163.141 95.0142C163.156 95.0203 163.171 95.0268 163.186 95.0328C163.245 95.056 163.304 95.0782 163.364 95.0992C163.365 95.0996 163.367 95.1002 163.368 95.1007C163.828 95.2611 164.313 95.3521 164.811 95.3687C165.31 95.3854 165.807 95.3256 166.288 95.191C168.789 94.4924 170.229 91.961 169.498 89.5482C168.731 87.0137 167.786 84.5042 166.688 82.0817C166.624 81.9419 166.561 81.8025 166.496 81.6635C166.128 80.8674 165.536 80.1932 164.783 79.7139C164.053 79.2487 163.206 78.9874 162.334 78.9583C161.615 78.9343 160.916 79.0654 160.257 79.348C159.105 79.8417 158.222 80.739 157.771 81.8745C157.321 83.0101 157.356 84.2479 157.87 85.3601C158.877 87.5355 159.738 89.7971 160.43 92.0823C160.714 93.0231 161.291 93.8347 162.097 94.4296C162.15 94.4686 162.203 94.5062 162.258 94.5428C162.275 94.5544 162.292 94.5654 162.309 94.5767Z" fill="#C1D9E0"/>
<path d="M145.443 68.4253C145.639 68.6053 145.834 68.7872 146.028 68.9703C146.042 68.9834 146.056 68.9965 146.07 69.0096C146.261 69.1905 146.451 69.373 146.64 69.5568C146.653 69.5693 146.666 69.5817 146.678 69.5942C146.871 69.7818 147.062 69.9707 147.251 70.1611C147.258 70.1676 147.264 70.174 147.27 70.1804C147.465 70.3761 147.658 70.5732 147.85 70.7718C148.349 71.2892 148.838 71.816 149.315 72.3512C149.513 72.5734 149.709 72.797 149.903 73.0219C149.909 73.0284 149.915 73.0349 149.92 73.0414C150.011 73.1471 150.102 73.253 150.192 73.3593C150.288 73.4729 150.384 73.5869 150.48 73.7012C150.517 73.7462 150.556 73.7901 150.595 73.8334C150.603 73.8431 150.612 73.8526 150.621 73.8622C150.66 73.9051 150.7 73.9474 150.741 73.9888C150.744 73.9917 150.747 73.9945 150.749 73.9975C150.789 74.0378 150.83 74.0772 150.872 74.116C150.878 74.1218 150.884 74.1277 150.89 74.1335C150.935 74.1748 150.98 74.2152 151.026 74.2546C151.028 74.2564 151.03 74.2582 151.032 74.26C151.08 74.3004 151.128 74.3398 151.177 74.3783C151.177 74.379 151.178 74.3797 151.179 74.3803C151.23 74.42 151.281 74.4586 151.333 74.4962C151.333 74.4965 151.334 74.4968 151.334 74.4972C151.439 74.5727 151.547 74.6439 151.657 74.7106L151.657 74.7107C152.356 75.1328 153.164 75.3765 154.007 75.4047C155.136 75.4424 156.242 75.0878 157.122 74.4062C159.15 72.8349 159.471 69.9621 157.837 68.0022C157.309 67.3696 156.767 66.7454 156.212 66.1305C156.212 66.1304 156.212 66.1303 156.212 66.1302C155.879 65.7611 155.541 65.3955 155.198 65.0336C155.188 65.0228 155.178 65.0118 155.167 65.0009C154.832 64.6473 154.493 64.2972 154.15 63.9511C154.13 63.9304 154.109 63.9098 154.088 63.8891C153.939 63.7385 153.788 63.5886 153.637 63.4396C153.613 63.4162 153.59 63.3926 153.566 63.3692C153.4 63.2058 153.233 63.0433 153.065 62.8818C153.041 62.8586 153.016 62.8356 152.992 62.8124C152.851 62.6774 152.71 62.5431 152.568 62.4094C152.525 62.3689 152.482 62.3284 152.439 62.288C152.274 62.1335 152.108 61.9795 151.941 61.8269C151.101 61.0571 150.002 60.6119 148.846 60.5733H148.845C147.497 60.5283 146.191 61.0428 145.263 61.9847C143.472 63.8039 143.552 66.6932 145.443 68.4253Z" fill="#C1D9E0"/>
<path d="M60.906 70.409C60.9527 70.4518 61.0005 70.4933 61.0487 70.5341C61.0597 70.5434 61.0707 70.5527 61.0818 70.5619C61.129 70.601 61.1768 70.6394 61.2255 70.6766C61.2344 70.6835 61.2436 70.6901 61.2526 70.6969C61.2948 70.7288 61.3375 70.7599 61.3807 70.7902C61.3933 70.799 61.4057 70.8079 61.4182 70.8166C61.4663 70.8497 61.515 70.8819 61.5642 70.9131C61.5798 70.923 61.5955 70.9327 61.6112 70.9424C61.6513 70.9673 61.6917 70.9915 61.7325 71.0151C61.7465 71.0232 61.7604 71.0316 61.7745 71.0396C61.8225 71.0667 61.8711 71.0927 61.92 71.1182C61.9411 71.1291 61.9622 71.1399 61.9834 71.1506C62.0238 71.1709 62.0646 71.1906 62.1055 71.2097C62.1332 71.2227 62.1612 71.2352 62.1891 71.2476C62.2232 71.2628 62.2574 71.2776 62.2918 71.2919C62.317 71.3024 62.3422 71.3129 62.3675 71.3229C62.4143 71.3415 62.4614 71.3595 62.5088 71.3765C62.5353 71.3861 62.5621 71.3951 62.5888 71.4042C62.6192 71.4146 62.6497 71.4247 62.6803 71.4344C62.7074 71.443 62.7343 71.4518 62.7616 71.46H62.7616C63.1611 71.5799 63.5781 71.6495 64.003 71.6637C65.3511 71.7087 66.6563 71.1946 67.584 70.2533C69.2842 68.5281 71.1214 66.8985 73.0444 65.41C74.51 64.2756 75.0843 62.4618 74.6751 60.8032C74.6628 60.7535 74.6493 60.704 74.6353 60.6546C74.6284 60.6299 74.6213 60.6053 74.6139 60.5808C74.5987 60.5309 74.5827 60.4811 74.5657 60.4315C74.558 60.4088 74.5499 60.3862 74.5417 60.3635C74.5232 60.3121 74.504 60.2609 74.4835 60.21C74.4759 60.1912 74.4679 60.1727 74.4601 60.154C74.44 60.106 74.4191 60.0582 74.3972 60.0107C74.3893 59.9936 74.3814 59.9765 74.3732 59.9594C74.349 59.9085 74.3236 59.8579 74.2972 59.8076C74.2901 59.7941 74.2832 59.7804 74.276 59.7669C74.2462 59.7116 74.215 59.6567 74.1827 59.6023C74.1749 59.5892 74.1672 59.5761 74.1593 59.5631C74.1259 59.5079 74.0911 59.4534 74.055 59.3992C74.0476 59.3882 74.0401 59.3771 74.0327 59.3661C73.9947 59.3103 73.9556 59.2549 73.9148 59.2002C73.9093 59.1929 73.9036 59.1856 73.898 59.1783C73.8542 59.1203 73.8091 59.0628 73.762 59.0063C72.8977 57.9689 71.6117 57.3476 70.2335 57.3016H70.2334C69.1055 57.264 67.9999 57.6183 67.1202 58.2992C64.869 60.0418 62.7187 61.9491 60.7288 63.9682C59.8606 64.8492 59.4009 66.0043 59.4343 67.2208C59.4677 68.4374 59.9904 69.5697 60.906 70.409Z" fill="#C1D9E0"/>
<path d="M127.262 57.321C129.565 58.1781 131.832 59.1965 133.999 60.3479C134.648 60.6925 135.38 60.8877 136.117 60.9123C136.975 60.9409 137.825 60.7434 138.576 60.341C139.35 59.926 139.985 59.3099 140.413 58.5591C141.019 57.4937 141.159 56.2631 140.806 55.0941C140.453 53.9251 139.649 52.9576 138.543 52.3699C136.003 51.0204 133.346 49.8266 130.645 48.8217C130.151 48.6376 129.633 48.5353 129.106 48.5177H129.106C127.097 48.4507 125.263 49.6211 124.543 51.43C124.092 52.5651 124.125 53.803 124.639 54.9157C125.153 56.0284 126.084 56.8826 127.262 57.321Z" fill="#C1D9E0"/>
<path d="M80.5927 57.9466C80.6392 57.9762 80.6861 58.005 80.7335 58.0329C80.7431 58.0386 80.753 58.0439 80.7626 58.0495C80.8008 58.0717 80.8391 58.0936 80.8778 58.1147C80.886 58.1192 80.8944 58.1233 80.9027 58.1277C80.9434 58.1496 80.9843 58.1711 81.0256 58.1917C81.031 58.1944 81.0364 58.1969 81.0418 58.1995C81.0863 58.2216 81.1311 58.2431 81.1762 58.2638C81.1789 58.265 81.1816 58.2661 81.1842 58.2673C81.2323 58.2893 81.2807 58.3104 81.3295 58.3307C81.3299 58.3308 81.3303 58.331 81.3307 58.3312C81.8707 58.5559 82.4509 58.6829 83.0431 58.7027C83.7612 58.7266 84.4596 58.5957 85.1186 58.3135C87.3723 57.3486 89.7158 56.5243 92.0838 55.8634C94.5106 55.1861 95.9391 52.7821 95.3542 50.435C95.3541 50.4349 95.3541 50.4347 95.354 50.4345C95.3452 50.3991 95.3361 50.3638 95.3263 50.3285C95.3165 50.2928 95.3063 50.2572 95.2955 50.2216C95.011 49.2804 94.4345 48.4684 93.6285 47.8734C92.8404 47.2915 91.9017 46.9666 90.9138 46.9336H90.9135C90.4153 46.917 89.9189 46.9766 89.4378 47.1109C86.6601 47.8861 83.9114 48.853 81.2682 49.9847C78.8896 51.0031 77.8181 53.6998 78.8797 55.996C79.248 56.7925 79.8404 57.467 80.5927 57.9466Z" fill="#C1D9E0"/>
<path d="M101.239 49.5595C101.24 49.5816 101.243 49.6035 101.245 49.6255C101.249 49.6722 101.254 49.7189 101.259 49.7652C101.263 49.7904 101.266 49.8155 101.27 49.8407C101.276 49.8842 101.282 49.9276 101.29 49.9708C101.294 49.9957 101.298 50.0206 101.303 50.0453C101.312 50.0909 101.321 50.1362 101.331 50.1813C101.336 50.2023 101.34 50.2235 101.345 50.2445C101.36 50.3089 101.377 50.3728 101.395 50.4361C101.399 50.4504 101.404 50.4644 101.408 50.4787C101.423 50.5281 101.438 50.5774 101.454 50.6261C101.463 50.6512 101.472 50.676 101.481 50.701C101.494 50.7385 101.508 50.7759 101.522 50.8129C101.532 50.84 101.543 50.867 101.554 50.8939C101.568 50.9284 101.583 50.9626 101.598 50.9967C101.61 51.024 101.622 51.0513 101.634 51.0783C101.65 51.1122 101.666 51.1456 101.683 51.179C101.696 51.205 101.708 51.2313 101.721 51.2571C101.749 51.3111 101.778 51.3645 101.808 51.4173C101.825 51.4466 101.843 51.4752 101.86 51.5041C101.876 51.5307 101.892 51.5574 101.908 51.5837C101.928 51.6145 101.948 51.6449 101.968 51.6753C101.983 51.6985 101.999 51.7216 102.014 51.7445C102.036 51.7759 102.058 51.8071 102.081 51.838C102.095 51.8582 102.11 51.8781 102.125 51.898C102.149 51.9305 102.174 51.963 102.199 51.9949C102.21 52.0088 102.222 52.0225 102.233 52.0363C102.331 52.1563 102.434 52.2714 102.543 52.3813C102.551 52.3889 102.558 52.3967 102.566 52.4042C102.6 52.4389 102.636 52.4729 102.672 52.5065C102.682 52.5157 102.692 52.5248 102.702 52.5338C102.739 52.5677 102.776 52.6012 102.814 52.634C102.821 52.6399 102.828 52.6459 102.835 52.6519C103.056 52.8397 103.295 53.0078 103.55 53.1538C103.552 53.1549 103.554 53.156 103.556 53.1571C104.216 53.5346 104.979 53.7627 105.795 53.7899C105.889 53.7931 105.985 53.7935 106.08 53.7912L106.095 53.7909C107.189 53.7654 108.295 53.7709 109.384 53.8073C110.756 53.8531 112.141 53.9492 113.501 54.0928C113.619 54.1052 113.738 54.1135 113.855 54.1175C115.045 54.157 116.196 53.7654 117.098 53.0147C118.004 52.2597 118.574 51.2106 118.702 50.0606C118.762 49.5215 118.722 48.9867 118.591 48.4752C118.577 48.423 118.563 48.3709 118.548 48.3192C118.543 48.305 118.539 48.2907 118.535 48.2765C118.518 48.2194 118.498 48.1627 118.479 48.1063C118.473 48.09 118.467 48.0736 118.461 48.0574C118.441 48.0014 118.419 47.9459 118.396 47.8908C118.39 47.8756 118.383 47.8604 118.377 47.8453C118.353 47.7887 118.328 47.7324 118.301 47.6766C118.296 47.6659 118.291 47.6554 118.285 47.6447C118.259 47.5901 118.231 47.5359 118.202 47.4822C118.199 47.4753 118.195 47.4682 118.191 47.4613C118.16 47.4039 118.127 47.3472 118.093 47.2909C118.087 47.2801 118.081 47.2693 118.074 47.2586C118.04 47.2036 118.005 47.1494 117.969 47.0956C117.962 47.0849 117.954 47.0742 117.947 47.0635C117.91 47.0091 117.871 46.9554 117.832 46.9023C117.826 46.8944 117.819 46.8866 117.814 46.8788C117.771 46.8229 117.727 46.7676 117.682 46.7132C116.89 45.7641 115.763 45.1685 114.508 45.0359C112.916 44.8677 111.294 44.7551 109.689 44.7015C108.416 44.6591 107.122 44.6526 105.844 44.6823L105.821 44.6829C104.557 44.7138 103.385 45.2165 102.518 46.0985C101.651 46.9805 101.193 48.1361 101.228 49.3526C101.23 49.422 101.234 49.4909 101.239 49.5595Z" fill="#C1D9E0"/>
<path d="M56.4282 100.131H56.4288L57.714 100.175C57.7701 100.181 57.8263 100.186 57.8831 100.187L67.706 100.515C67.7508 100.517 67.7951 100.517 67.8395 100.515L84.0334 101.061C84.0334 101.061 84.0334 101.061 84.0339 101.061C84.8144 101.087 85.5329 100.656 85.8542 99.9705C86.1755 99.2846 86.035 98.4782 85.4995 97.9292L74.7689 86.9281C82.1101 75.7196 95.0202 69.0925 108.803 69.5526C126.203 70.1335 141.185 81.952 145.236 98.2934C145.58 99.6799 146.401 100.941 147.548 101.843C148.693 102.744 150.137 103.267 151.613 103.317C153.743 103.388 155.738 102.517 157.085 100.928C157.727 100.17 158.192 99.2696 158.429 98.3229C158.656 97.4176 158.678 96.4959 158.498 95.5779C158.496 95.5724 158.495 95.5668 158.494 95.5607C158.486 95.5222 158.478 95.4837 158.47 95.4452C158.467 95.4316 158.464 95.4173 158.461 95.4031C158.451 95.358 158.44 95.3134 158.429 95.2683C156.197 86.243 151.409 77.9743 144.581 71.3551C137.725 64.7083 129.133 60.0411 119.733 57.8583C116.312 57.0636 112.782 56.6007 109.24 56.4824C105.698 56.3642 102.144 56.5906 98.6784 57.1554C95.2969 57.7059 91.9591 58.5848 88.7588 59.7671C85.6176 60.9276 82.5768 62.3919 79.7213 64.1193C76.8945 65.8291 74.2239 67.8122 71.784 70.0127C69.3762 72.1841 67.173 74.5856 65.2335 77.1519L58.7797 70.5357C58.4232 70.1702 57.9382 69.9659 57.4381 69.9492C57.189 69.9409 56.9363 69.9793 56.6935 70.0672C55.9649 70.3316 55.4738 70.9932 55.4487 71.7438L54.5633 98.2081C54.5289 99.2346 55.3638 100.096 56.4282 100.131Z" fill="#C1D9E0"/>
<path d="M116.183 100.628C116.126 100.556 116.068 100.483 116.009 100.412C116.008 100.411 116.007 100.41 116.007 100.41C115.951 100.342 115.894 100.276 115.837 100.209C115.832 100.204 115.827 100.198 115.822 100.192C115.769 100.132 115.716 100.072 115.661 100.013C115.652 100.003 115.643 99.9921 115.633 99.9819C115.571 99.9143 115.508 99.8474 115.444 99.7812C114.484 98.7913 113.353 98.0013 112.083 97.4331C110.767 96.8444 109.36 96.5213 107.902 96.4726C106.443 96.4239 105.018 96.6525 103.666 97.1521C102.361 97.6343 101.18 98.3471 100.155 99.2708C99.1311 100.194 98.3146 101.283 97.7285 102.507C97.1212 103.774 96.7894 105.13 96.7424 106.537C96.6953 107.943 96.9357 109.318 97.4569 110.624C97.96 111.883 98.7019 113.024 99.6621 114.014C99.7212 114.075 99.7809 114.135 99.8412 114.194C99.8667 114.219 99.8927 114.244 99.9183 114.268C99.9534 114.302 99.9882 114.336 100.024 114.37C100.057 114.401 100.091 114.431 100.124 114.462C100.153 114.488 100.181 114.514 100.209 114.54C100.248 114.575 100.287 114.608 100.326 114.642C100.35 114.663 100.374 114.685 100.398 114.705C100.442 114.742 100.486 114.778 100.529 114.815C100.55 114.832 100.57 114.849 100.591 114.866C100.638 114.904 100.686 114.943 100.735 114.98C100.752 114.994 100.769 115.008 100.786 115.021C100.838 115.061 100.89 115.1 100.942 115.14C100.956 115.15 100.97 115.161 100.984 115.171C101.04 115.213 101.096 115.253 101.152 115.293C101.164 115.301 101.175 115.309 101.186 115.317C101.245 115.359 101.305 115.4 101.365 115.44C101.373 115.446 101.382 115.452 101.39 115.458C101.453 115.5 101.516 115.541 101.579 115.582C101.586 115.586 101.592 115.59 101.598 115.594C101.664 115.636 101.73 115.677 101.796 115.717C101.801 115.72 101.805 115.723 101.809 115.725C101.878 115.767 101.946 115.807 102.016 115.847C102.018 115.849 102.021 115.85 102.023 115.852C102.094 115.893 102.166 115.933 102.237 115.972C102.239 115.972 102.24 115.973 102.241 115.974C102.314 116.013 102.387 116.052 102.461 116.091C102.461 116.091 102.462 116.091 102.462 116.091C102.646 116.186 102.833 116.277 103.023 116.362C104.339 116.951 105.746 117.274 107.204 117.322C108.663 117.371 110.088 117.143 111.44 116.643C112.745 116.161 113.926 115.448 114.951 114.524C115.975 113.601 116.791 112.512 117.378 111.288C117.985 110.021 118.317 108.665 118.364 107.258C118.411 105.852 118.17 104.477 117.649 103.171C117.284 102.257 116.792 101.405 116.183 100.628Z" fill="#C1D9E0"/>
<path d="M148.416 97.9517C145.801 97.9517 143.493 96.1954 142.804 93.6806C138.095 76.4848 122.344 64.4751 104.5 64.4751C90.1165 64.4751 76.9105 72.2316 69.8618 84.7657L81.4786 96.3053C81.7556 96.5804 81.8391 96.9952 81.6901 97.3559C81.5411 97.7164 81.1891 97.9517 80.7986 97.9517C80.7985 97.9517 64.5565 97.9471 64.5565 97.9471C64.5253 97.9502 64.4936 97.9517 64.4616 97.9517H54.6335C54.5933 97.9517 54.5534 97.9492 54.5139 97.9443L53.1777 97.9439C52.6452 97.9437 52.2136 97.5125 52.2136 96.9805V69.5514C52.2136 69.1622 52.448 68.8113 52.8077 68.6619C52.9274 68.6121 53.0531 68.588 53.1777 68.588C53.4278 68.588 53.6736 68.6852 53.858 68.8683L61.3634 76.3239C61.5515 76.033 61.7422 75.7448 61.9342 75.4609C63.7698 72.7467 65.8777 70.1946 68.1994 67.8755C70.5211 65.5563 73.076 63.4506 75.793 61.617C78.5376 59.7648 81.4723 58.1736 84.5156 56.8877C87.6163 55.5777 90.8611 54.5715 94.16 53.8972C97.5416 53.2059 101.02 52.8554 104.5 52.8554C107.979 52.8554 111.458 53.2059 114.84 53.8972C124.132 55.7966 132.714 60.2479 139.658 66.77C146.574 73.265 151.543 81.5054 154.028 90.6003C154.511 92.3668 154.15 94.2139 153.038 95.668C151.929 97.1193 150.244 97.9517 148.416 97.9517Z" fill="#FFD385"/>
<path d="M155.038 90.665C155.036 90.6593 155.034 90.6536 155.033 90.6473C155.024 90.6077 155.015 90.5682 155.005 90.5286C155.002 90.5145 154.998 90.5 154.995 90.4854C154.983 90.439 154.971 90.3932 154.958 90.3469C152.426 81.08 147.364 72.6849 140.319 66.0681C133.244 59.4236 124.501 54.8886 115.033 52.9536C111.588 52.2491 108.044 51.8918 104.5 51.8918C100.956 51.8918 97.4121 52.2491 93.967 52.9536C90.6057 53.6404 87.2992 54.6657 84.1402 56.0004C81.0396 57.3105 78.0495 58.9315 75.2534 60.8186C72.4853 62.6865 69.8826 64.8319 67.5175 67.1944C65.1837 69.5257 63.0621 72.0882 61.2095 74.8121L54.5381 68.1853C54.1695 67.8193 53.6779 67.6245 53.1775 67.6245C52.9283 67.6245 52.6771 67.6729 52.4373 67.7724C51.7179 68.0713 51.2493 68.7732 51.2493 69.5512V96.9804C51.2493 98.0442 52.1125 98.9071 53.1775 98.9071H53.178L54.464 98.9076C54.5203 98.9123 54.5766 98.9149 54.6334 98.9149H64.4617C64.5066 98.9149 64.5509 98.9133 64.5952 98.9102L80.7983 98.9149C80.7983 98.9149 80.7983 98.9149 80.7988 98.9149C81.5797 98.9149 82.2834 98.4447 82.5816 97.7235C82.8798 97.0023 82.7124 96.1722 82.1588 95.6223L71.0664 84.6038C78.0287 72.7458 90.71 65.4385 104.5 65.4385C121.91 65.4385 137.279 77.1564 141.874 93.9347C142.264 95.3583 143.127 96.6351 144.304 97.5297C145.478 98.4233 146.939 98.9149 148.416 98.9149C150.547 98.9149 152.511 97.9448 153.805 96.2529C154.421 95.4458 154.856 94.4976 155.061 93.5092C155.257 92.5641 155.249 91.6091 155.038 90.665ZM148.416 96.9882C146.23 96.9882 144.311 95.5317 143.734 93.4264C139.018 76.205 123.215 63.5118 104.5 63.5118C89.0226 63.5118 75.5375 72.1933 68.6669 84.9371L80.7988 96.9882L64.4623 96.9835C64.4623 96.9851 64.4617 96.9866 64.4617 96.9882H54.6334C54.634 96.9861 54.6345 96.9835 54.6345 96.9809L53.178 96.9804V69.5512L61.5379 77.8552C61.9226 77.2282 62.3214 76.6091 62.7337 76.0004C64.5347 73.3369 66.6032 70.8322 68.8812 68.5566C71.1597 66.281 73.6666 64.2143 76.333 62.4152C79.0259 60.5978 81.9055 59.0367 84.8914 57.775C87.9336 56.4898 91.1171 55.5026 94.3532 54.8407C97.6717 54.1627 101.086 53.8185 104.5 53.8185C107.914 53.8185 111.328 54.1627 114.647 54.8407C128.307 57.6334 139.946 65.9415 147.136 77.3303C149.75 81.4701 151.776 86.017 153.098 90.8541C153.941 93.9425 151.62 96.9882 148.416 96.9882Z" fill="#3B5C91"/>
<path d="M104.444 155.435C98.7844 155.435 93.1992 154.5 87.8431 152.657C82.6215 150.86 77.7397 148.244 73.3334 144.881C68.9262 141.518 65.1162 137.501 62.0091 132.941C58.8209 128.263 56.4517 123.124 54.9671 117.668C54.4865 115.902 54.8485 114.056 55.9602 112.603C57.0697 111.154 58.7539 110.322 60.581 110.322C63.1997 110.322 65.507 112.078 66.1958 114.593C70.9052 131.789 86.6566 143.799 104.5 143.799C118.891 143.799 132.101 136.036 139.147 123.492L127.672 111.965C127.397 111.689 127.316 111.275 127.465 110.916C127.615 110.556 127.966 110.322 128.356 110.322H155.814C156.347 110.322 156.779 110.753 156.779 111.285L156.786 138.876C156.787 139.266 156.551 139.618 156.19 139.767C156.071 139.816 155.946 139.84 155.822 139.84C155.57 139.84 155.323 139.741 155.138 139.556L147.61 131.993C145.944 134.56 144.042 136.987 141.945 139.22C139.572 141.745 136.936 144.038 134.108 146.036C131.254 148.051 128.187 149.778 124.992 151.169C121.736 152.586 118.32 153.665 114.84 154.377C111.406 155.079 107.908 155.435 104.444 155.435Z" fill="#A1E7FF"/>
<path d="M157.743 111.285C157.743 110.221 156.879 109.359 155.814 109.359H128.356C127.576 109.359 126.874 109.827 126.575 110.546C126.276 111.264 126.438 112.092 126.988 112.644L137.945 123.65C130.985 135.521 118.299 142.835 104.5 142.835C87.0897 142.835 71.7212 131.118 67.1261 114.339C66.7362 112.916 65.8735 111.639 64.6964 110.744C63.6471 109.946 62.3694 109.468 61.0563 109.376C61.0172 109.374 60.9781 109.371 60.9385 109.369C60.9056 109.367 60.8723 109.365 60.8389 109.364C60.8019 109.363 60.7649 109.361 60.7284 109.361H60.7221C60.6763 109.36 60.6304 109.359 60.5845 109.359H60.5809C58.4509 109.359 56.4872 110.328 55.1939 112.018C54.5772 112.824 54.1425 113.772 53.9366 114.76C53.7182 115.81 53.7515 116.874 54.0361 117.921C55.5489 123.48 57.9635 128.716 61.2116 133.484C64.3774 138.129 68.2583 142.221 72.7476 145.647C77.2364 149.072 82.2095 151.737 87.5287 153.568C92.9865 155.446 98.6774 156.398 104.443 156.398C107.973 156.398 111.536 156.035 115.033 155.32C118.579 154.595 122.06 153.496 125.377 152.052C128.632 150.635 131.757 148.876 134.664 146.823C137.545 144.788 140.232 142.452 142.648 139.879C144.512 137.894 146.226 135.759 147.759 133.51L154.454 140.235C154.824 140.606 155.319 140.803 155.823 140.803C156.07 140.803 156.32 140.756 156.558 140.657C157.28 140.36 157.751 139.656 157.751 138.876L157.743 111.285ZM147.441 130.457C140.275 142.099 128.497 150.601 114.647 153.433C113.164 153.736 111.686 153.971 110.214 154.14C108.277 154.363 106.351 154.472 104.443 154.472C81.842 154.472 61.8273 139.209 55.8977 117.416C55.0761 114.396 57.2775 111.42 60.3703 111.29C60.4401 111.287 60.5105 111.286 60.5809 111.286H60.5845C62.7697 111.286 64.6891 112.742 65.2657 114.847C69.9817 132.068 85.785 144.762 104.5 144.762C119.982 144.762 133.472 136.075 140.34 123.324L128.356 111.286H155.814L155.822 138.876L147.441 130.457Z" fill="#3B5C91"/>
<path d="M104.445 167.647C102.877 167.647 101.291 167.589 99.7313 167.474C98.7299 167.4 97.8172 166.94 97.1614 166.181C96.5057 165.421 96.1854 164.452 96.2595 163.451C96.4041 161.501 98.0495 159.973 100.005 159.973C100.099 159.973 100.193 159.976 100.287 159.983C101.661 160.085 103.061 160.136 104.445 160.136C105.553 160.136 106.679 160.103 107.79 160.038L107.847 160.035C107.921 160.03 107.997 160.028 108.073 160.028C110.057 160.028 111.705 161.579 111.823 163.559C111.884 164.56 111.55 165.525 110.883 166.275C110.217 167.026 109.298 167.472 108.296 167.532L108.232 167.536C106.973 167.61 105.7 167.647 104.445 167.647Z" fill="white"/>
<path d="M100.006 160.936C100.075 160.936 100.145 160.939 100.215 160.944C101.614 161.047 103.037 161.1 104.445 161.1C105.572 161.1 106.717 161.066 107.847 161L107.903 160.996C107.96 160.993 108.017 160.991 108.073 160.991C109.541 160.991 110.772 162.134 110.861 163.616C110.953 165.156 109.779 166.478 108.238 166.571L108.175 166.574C106.936 166.647 105.681 166.684 104.445 166.684C102.9 166.684 101.338 166.626 99.8026 166.513C98.263 166.399 97.1074 165.06 97.2213 163.522C97.3301 162.055 98.5559 160.936 100.006 160.936ZM100.006 159.009C98.815 159.009 97.6769 159.455 96.801 160.264C95.9203 161.078 95.3864 162.185 95.2979 163.38C95.2047 164.637 95.6072 165.855 96.4311 166.81C97.255 167.764 98.4018 168.341 99.6602 168.434C101.243 168.551 102.853 168.611 104.445 168.611C105.719 168.611 107.012 168.573 108.288 168.498L108.352 168.494C109.613 168.418 110.768 167.858 111.605 166.914C112.442 165.971 112.862 164.759 112.786 163.501C112.637 161.013 110.566 159.065 108.073 159.065C107.978 159.065 107.883 159.068 107.788 159.073L107.733 159.076C106.641 159.141 105.535 159.173 104.445 159.173C103.084 159.173 101.709 159.122 100.358 159.022C100.241 159.014 100.123 159.009 100.006 159.009Z" fill="#3B5C91"/>
<path d="M123.173 164.675C121.544 164.675 120.109 163.636 119.601 162.089C118.955 160.121 120.033 157.995 122.002 157.35C124.388 156.569 126.743 155.616 129.001 154.519C129.519 154.268 130.071 154.14 130.644 154.14C132.074 154.14 133.402 154.97 134.027 156.254C134.933 158.116 134.155 160.368 132.29 161.274C129.726 162.519 127.053 163.601 124.345 164.488C123.965 164.612 123.57 164.675 123.173 164.675Z" fill="white"/>
<path d="M130.644 155.104C131.68 155.104 132.676 155.682 133.159 156.675C133.835 158.062 133.257 159.733 131.868 160.407C129.344 161.634 126.711 162.699 124.044 163.572C123.755 163.667 123.462 163.712 123.173 163.712C121.998 163.712 120.904 162.965 120.518 161.789C120.037 160.323 120.836 158.746 122.303 158.266C124.73 157.471 127.126 156.502 129.423 155.385C129.817 155.194 130.234 155.104 130.644 155.104ZM130.644 153.177H130.644C129.924 153.177 129.23 153.337 128.58 153.653C126.36 154.731 124.046 155.667 121.702 156.435C120.503 156.828 119.529 157.663 118.959 158.788C118.389 159.912 118.292 161.191 118.685 162.389C119.323 164.333 121.126 165.639 123.173 165.639C123.673 165.639 124.168 165.559 124.645 165.403C127.395 164.503 130.109 163.405 132.712 162.14C133.847 161.589 134.699 160.629 135.111 159.438C135.523 158.246 135.446 156.966 134.894 155.832C134.499 155.021 133.884 154.344 133.117 153.874C132.372 153.418 131.517 153.177 130.644 153.177Z" fill="#3B5C91"/>
<path d="M84.9488 164.381C84.5307 164.381 84.1168 164.311 83.7187 164.173C81.0263 163.242 78.3704 162.117 75.825 160.829C73.9756 159.893 73.233 157.629 74.1696 155.782C74.8136 154.512 76.0996 153.722 77.5258 153.722C78.1109 153.722 78.6975 153.863 79.2222 154.128C81.4658 155.263 83.8063 156.255 86.1788 157.075C88.1377 157.753 89.1796 159.896 88.5013 161.853C87.9774 163.365 86.5497 164.381 84.9488 164.381Z" fill="white"/>
<path d="M77.5257 154.686C77.9504 154.686 78.3815 154.783 78.7864 154.988C81.069 156.142 83.45 157.151 85.8631 157.986C87.3219 158.49 88.095 160.08 87.5899 161.538C87.1897 162.692 86.1068 163.417 84.9487 163.417C84.6453 163.417 84.3369 163.367 84.0341 163.263C81.3831 162.346 78.7677 161.238 76.2606 159.969C74.8834 159.273 74.3324 157.593 75.0298 156.217C75.5223 155.246 76.5055 154.686 77.5257 154.686ZM77.5257 152.759C76.6663 152.759 75.8225 152.993 75.0855 153.436C74.3254 153.893 73.7111 154.554 73.3092 155.347C72.1323 157.668 73.0654 160.513 75.3892 161.688C77.9736 162.996 80.6699 164.138 83.4031 165.083C83.9027 165.256 84.4228 165.344 84.9487 165.344C86.9603 165.344 88.7542 164.068 89.4125 162.168C89.8254 160.977 89.7492 159.697 89.198 158.563C88.6468 157.429 87.6865 156.577 86.4942 156.165C84.1629 155.359 81.8628 154.384 79.6578 153.269C78.9987 152.935 78.2614 152.759 77.5257 152.759Z" fill="#3B5C91"/>
<path d="M143.488 153.213C142.391 153.213 141.352 152.737 140.637 151.907C139.982 151.147 139.662 150.177 139.737 149.177C139.812 148.176 140.273 147.265 141.034 146.611C142.938 144.974 144.749 143.192 146.418 141.314C147.131 140.511 148.156 140.051 149.231 140.051C150.151 140.051 151.037 140.387 151.725 140.998C152.476 141.664 152.923 142.582 152.982 143.584C153.042 144.585 152.708 145.55 152.041 146.3C150.15 148.428 148.097 150.448 145.939 152.303C145.257 152.89 144.386 153.213 143.488 153.213Z" fill="white"/>
<path d="M149.231 141.014C149.891 141.014 150.553 141.246 151.085 141.719C152.24 142.742 152.345 144.507 151.32 145.66C149.457 147.757 147.435 149.746 145.31 151.573C144.782 152.027 144.133 152.249 143.488 152.249C142.702 152.249 141.921 151.92 141.368 151.279C140.361 150.11 140.493 148.347 141.663 147.341C143.599 145.676 145.442 143.863 147.139 141.953C147.691 141.332 148.459 141.015 149.231 141.014ZM149.231 139.088C149.231 139.088 149.231 139.088 149.23 139.088C147.88 139.088 146.592 139.666 145.697 140.674C144.056 142.52 142.276 144.272 140.405 145.881C139.448 146.703 138.87 147.848 138.776 149.105C138.682 150.362 139.083 151.58 139.906 152.535C140.804 153.578 142.11 154.176 143.488 154.176C144.617 154.176 145.711 153.77 146.568 153.034C148.759 151.15 150.843 149.1 152.762 146.939C153.6 145.997 154.02 144.785 153.945 143.526C153.87 142.268 153.309 141.114 152.366 140.278C151.5 139.51 150.387 139.088 149.231 139.088Z" fill="#3B5C91"/>
<path d="M64.8098 152.595C63.8901 152.595 63.0045 152.259 62.3159 151.649C60.1848 149.761 58.162 147.71 56.3039 145.555C54.951 143.986 55.1282 141.61 56.6988 140.259C57.3809 139.672 58.2519 139.349 59.1511 139.349C60.2473 139.349 61.2861 139.824 62.001 140.654C63.6405 142.555 65.4252 144.364 67.3057 146.03C68.8565 147.404 68.9989 149.783 67.6233 151.332C66.9103 152.135 65.8848 152.595 64.8098 152.595Z" fill="white"/>
<path d="M59.1512 140.312C59.9367 140.312 60.7175 140.641 61.2703 141.282C62.9376 143.216 64.7529 145.056 66.6657 146.751C67.8206 147.774 67.9263 149.539 66.9018 150.693C66.3495 151.314 65.5814 151.632 64.8098 151.632C64.1502 151.632 63.4882 151.4 62.9559 150.928C60.8567 149.068 58.8645 147.049 57.0345 144.927C56.0271 143.758 56.1586 141.995 57.3282 140.989C57.8561 140.535 58.5052 140.312 59.1512 140.312ZM59.1514 138.386H59.1511C58.0209 138.386 56.9265 138.792 56.0696 139.529C54.096 141.227 53.8733 144.213 55.5732 146.184C57.4592 148.372 59.5126 150.453 61.6761 152.37C62.5411 153.136 63.6541 153.559 64.8098 153.559C66.1605 153.559 67.4489 152.98 68.3448 151.971C70.0733 150.025 69.8943 147.036 67.9457 145.31C66.0971 143.672 64.3429 141.894 62.7317 140.025C61.8334 138.983 60.5285 138.386 59.1514 138.386Z" fill="#3B5C91"/>
<path d="M50.7017 134.037C49.2503 134.037 47.9543 133.227 47.3193 131.924C46.0714 129.363 44.988 126.693 44.0993 123.988C43.7861 123.035 43.8633 122.017 44.3165 121.122C44.7698 120.227 45.5449 119.562 46.499 119.249C46.8795 119.124 47.2742 119.061 47.6719 119.061C49.3001 119.061 50.7354 120.1 51.2435 121.646C52.0262 124.029 52.9805 126.381 54.0799 128.637C54.5195 129.539 54.5811 130.558 54.2535 131.506C53.9258 132.454 53.2481 133.218 52.3452 133.657C51.8274 133.909 51.2745 134.037 50.7017 134.037Z" fill="white"/>
<path d="M47.6719 120.024C48.8471 120.024 49.9408 120.771 50.3272 121.947C51.1236 124.371 52.0944 126.763 53.2129 129.058C53.8885 130.445 53.3111 132.116 51.9231 132.791C51.5292 132.983 51.1122 133.073 50.7017 133.073C49.6658 133.073 48.6704 132.496 48.1864 131.503C46.9575 128.981 45.8907 126.352 45.0156 123.688C44.5342 122.223 45.333 120.645 46.7998 120.164C47.0892 120.069 47.383 120.024 47.6719 120.024ZM47.672 118.098C47.1719 118.098 46.676 118.177 46.1982 118.334C43.7234 119.145 42.3707 121.817 43.183 124.289C44.0853 127.035 45.1852 129.746 46.4523 132.346C46.8474 133.157 47.4619 133.834 48.2295 134.303C48.9744 134.759 49.8293 135 50.7017 135C51.422 135 52.117 134.84 52.7674 134.523C53.9018 133.972 54.7534 133.012 55.1651 131.82C55.5768 130.629 55.4994 129.348 54.9471 128.215C53.8668 125.998 52.929 123.687 52.1598 121.346C51.5214 119.403 49.7179 118.098 47.672 118.098Z" fill="#3B5C91"/>
<path d="M164.149 112.407C164.055 112.407 163.961 112.403 163.867 112.397C161.8 112.243 160.243 110.438 160.397 108.373C160.5 106.992 160.552 105.588 160.552 104.2C160.552 103.093 160.519 101.969 160.453 100.859L160.451 100.823C160.327 98.7563 161.909 96.9736 163.979 96.8495C164.054 96.845 164.131 96.8427 164.207 96.8427C166.191 96.8427 167.838 98.3935 167.957 100.373L167.96 100.419C168.033 101.675 168.071 102.947 168.071 104.2C168.071 105.774 168.012 107.366 167.895 108.93C167.75 110.88 166.105 112.407 164.149 112.407Z" fill="white"/>
<path d="M164.207 97.806C165.674 97.8059 166.905 98.9486 166.994 100.431L166.997 100.476C167.07 101.712 167.106 102.965 167.106 104.2C167.106 105.75 167.048 107.317 166.934 108.858C166.824 110.326 165.599 111.444 164.149 111.444C164.079 111.444 164.009 111.441 163.939 111.436C162.399 111.322 161.244 109.982 161.359 108.444C161.463 107.04 161.516 105.613 161.516 104.2C161.516 103.074 161.482 101.931 161.416 100.802L161.414 100.766C161.321 99.2263 162.495 97.9035 164.036 97.8111C164.094 97.8077 164.15 97.806 164.207 97.806ZM164.207 95.8793H164.207C164.112 95.8793 164.015 95.8822 163.921 95.8879C161.321 96.0438 159.332 98.2837 159.489 100.881L159.491 100.916C159.555 102.006 159.587 103.112 159.587 104.2C159.587 105.565 159.536 106.945 159.435 108.301C159.342 109.558 159.744 110.777 160.567 111.731C161.391 112.686 162.537 113.264 163.796 113.357C163.913 113.366 164.032 113.37 164.149 113.37C165.339 113.37 166.477 112.925 167.353 112.116C168.234 111.303 168.768 110.197 168.857 109.001C168.975 107.413 169.035 105.797 169.035 104.2C169.035 102.928 168.997 101.637 168.922 100.363L168.919 100.316C168.77 97.8279 166.7 95.8793 164.207 95.8793Z" fill="#3B5C91"/>
<path d="M44.7961 111.487C42.8121 111.487 41.1648 109.936 41.0459 107.957L41.0409 107.873C40.9669 106.616 40.9294 105.344 40.9294 104.09C40.9294 102.502 40.9895 100.896 41.1081 99.3178C41.2545 97.3694 42.9 95.8432 44.8543 95.8432C44.9485 95.8432 45.0441 95.8468 45.1384 95.8539C46.1399 95.9289 47.0521 96.3891 47.707 97.1494C48.362 97.9099 48.6813 98.8795 48.6061 99.8799C48.5016 101.272 48.4486 102.689 48.4486 104.09C48.4486 105.197 48.4817 106.321 48.547 107.431L48.5515 107.507C48.6757 109.574 47.0933 111.356 45.024 111.48C44.9476 111.485 44.871 111.487 44.7961 111.487Z" fill="white"/>
<path d="M44.8543 96.8066C44.9245 96.8066 44.9951 96.8092 45.0663 96.8145C46.6057 96.9299 47.7601 98.2701 47.6445 99.8078C47.5381 101.224 47.4842 102.665 47.4842 104.09C47.4842 105.216 47.5179 106.359 47.5843 107.488L47.5889 107.564C47.6814 109.104 46.5072 110.426 44.9662 110.519C44.9092 110.522 44.8525 110.524 44.7961 110.524C43.3289 110.524 42.0977 109.381 42.0086 107.899L42.0036 107.816C41.9308 106.579 41.8939 105.325 41.8939 104.09C41.8939 102.526 41.9531 100.945 42.0699 99.39C42.18 97.9234 43.4057 96.8067 44.8543 96.8066ZM44.8545 94.8799V95.2652V96.8066V94.8799C43.6646 94.88 42.5272 95.325 41.6515 96.133C40.7707 96.9456 40.2362 98.0512 40.1465 99.2458C40.0261 100.848 39.9651 102.478 39.9651 104.09C39.9651 105.362 40.0031 106.654 40.0782 107.929L40.0832 108.013C40.2328 110.502 42.3029 112.45 44.7961 112.45C44.8907 112.45 44.9866 112.448 45.0814 112.442C46.3414 112.366 47.4961 111.805 48.3333 110.862C49.1704 109.919 49.5898 108.707 49.5142 107.449L49.5098 107.374C49.4456 106.283 49.413 105.178 49.413 104.09C49.413 102.713 49.4651 101.32 49.5679 99.952C49.6623 98.6951 49.2612 97.4767 48.4381 96.5212C47.6152 95.5657 46.469 94.9876 45.2107 94.8933C45.0924 94.8844 44.9726 94.8799 44.8545 94.8799Z" fill="#3B5C91"/>
<path d="M161.341 89.2667C159.711 89.2667 158.276 88.2269 157.768 86.6792C156.987 84.2957 156.034 81.9432 154.937 79.6869C154.498 78.7846 154.437 77.7656 154.765 76.8176C155.093 75.8696 155.771 75.106 156.675 74.6675C157.192 74.4164 157.744 74.2892 158.316 74.2892C159.746 74.2892 161.074 75.1192 161.699 76.4038C162.945 78.9653 164.027 81.636 164.914 84.3418C165.559 86.3098 164.481 88.4351 162.511 89.0795C162.131 89.2037 161.737 89.2667 161.341 89.2667Z" fill="white"/>
<path d="M158.316 75.2525C159.352 75.2525 160.348 75.831 160.832 76.8249C162.059 79.3474 163.124 81.9773 163.998 84.6416C164.478 86.1071 163.678 87.6841 162.211 88.164C161.922 88.2585 161.629 88.3034 161.341 88.3034C160.165 88.3034 159.071 87.5563 158.685 86.3794C157.89 83.9548 156.921 81.5614 155.804 79.2658C155.129 77.8788 155.708 76.208 157.096 75.534C157.49 75.343 157.906 75.2525 158.316 75.2525ZM158.316 73.3259C158.316 73.3259 158.316 73.3259 158.316 73.3259C157.597 73.3259 156.903 73.4858 156.253 73.8011C155.118 74.3521 154.266 75.3115 153.854 76.5027C153.441 77.6939 153.518 78.9743 154.069 80.1079C155.148 82.3252 156.084 84.637 156.852 86.979C157.168 87.9431 157.771 88.7635 158.597 89.3515C159.404 89.9263 160.353 90.2301 161.341 90.2301C161.84 90.2301 162.334 90.151 162.811 89.9951C165.287 89.1853 166.641 86.5148 165.831 84.042C164.93 81.2949 163.832 78.5834 162.567 75.9828C162.172 75.1713 161.557 74.4937 160.789 74.0235C160.044 73.5671 159.189 73.3259 158.316 73.3259Z" fill="#3B5C91"/>
<path d="M149.875 68.9712C148.778 68.9712 147.738 68.495 147.023 67.6647C145.385 65.7625 143.602 63.9524 141.722 62.2846C140.172 60.9094 140.032 58.531 141.408 56.9828C142.121 56.1811 143.146 55.7213 144.22 55.7213C145.141 55.7213 146.027 56.0579 146.716 56.669C148.846 58.5588 150.867 60.6103 152.724 62.7666C154.076 64.3366 153.897 66.7124 152.325 68.0628C151.643 68.6486 150.773 68.9712 149.875 68.9712Z" fill="white"/>
<path d="M144.22 56.6846C144.88 56.6846 145.543 56.9169 146.075 57.3893C148.173 59.2507 150.164 61.2713 151.993 63.3948C152.999 64.5639 152.867 66.3268 151.696 67.3325C151.169 67.7858 150.52 68.0079 149.875 68.0079C149.089 68.0079 148.307 67.6785 147.755 67.0365C146.089 65.1017 144.274 63.2605 142.363 61.5644C141.209 60.5403 141.104 58.7755 142.129 57.6225C142.682 57.0014 143.449 56.6846 144.22 56.6846ZM144.22 54.7579C144.22 54.7579 144.22 54.7579 144.22 54.7579C142.871 54.758 141.583 55.3357 140.687 56.343C138.957 58.2884 139.135 61.2769 141.082 63.0049C142.929 64.6441 144.682 66.4233 146.292 68.2929C147.191 69.3362 148.497 69.9346 149.875 69.9346C151.004 69.9346 152.098 69.5292 152.954 68.7931C154.929 67.0963 155.154 64.111 153.455 62.1384C151.57 59.9498 149.518 57.8673 147.356 55.9488C146.491 55.1809 145.377 54.758 144.22 54.7579Z" fill="#3B5C91"/>
<path d="M59.7961 68.2091C58.875 68.2091 57.9883 67.8722 57.2994 67.2605C56.5489 66.594 56.103 65.6755 56.044 64.6741C55.985 63.6727 56.3199 62.7083 56.9871 61.9585C58.8799 59.8313 60.9343 57.8128 63.0932 55.959C63.7749 55.3737 64.6448 55.0513 65.5427 55.0513C66.6403 55.0513 67.68 55.5279 68.395 56.3588C69.7462 57.9292 69.5667 60.305 67.9947 61.6549C66.0898 63.2905 64.2772 65.0715 62.607 66.9485C61.8942 67.7496 60.8696 68.2091 59.7961 68.2091Z" fill="white"/>
<path d="M65.5427 56.0147C66.3292 56.0147 67.1109 56.3444 67.6637 56.9868C68.67 58.1562 68.5367 59.9191 67.3661 60.9243C65.4286 62.5879 63.585 64.3995 61.8863 66.3085C61.3341 66.9291 60.5667 67.2457 59.7961 67.2457C59.1356 67.2457 58.4727 67.0133 57.9402 66.5405C56.7863 65.516 56.6824 63.7512 57.708 62.5985C59.5721 60.5034 61.5955 58.5154 63.7219 56.6895C64.2494 56.2366 64.8977 56.0147 65.5427 56.0147ZM65.5428 54.088H65.5427C64.4142 54.0881 63.321 54.4931 62.4646 55.2285C60.273 57.1104 58.1876 59.1594 56.2663 61.3185C55.4281 62.2606 55.0072 63.4724 55.0814 64.7307C55.1555 65.989 55.7157 67.1431 56.6588 67.9805C57.5245 68.7491 58.6386 69.1724 59.7961 69.1724C61.1449 69.1724 62.4322 68.595 63.3279 67.5884C64.9695 65.7436 66.7512 63.993 68.6234 62.3853C70.5987 60.6892 70.8243 57.704 69.1264 55.7308C68.2279 54.6868 66.9218 54.088 65.5428 54.088Z" fill="#3B5C91"/>
<path d="M131.51 54.5855C130.924 54.5855 130.337 54.4448 129.811 54.1787C127.568 53.0419 125.228 52.0488 122.857 51.2268C121.908 50.898 121.144 50.2198 120.706 49.3171C120.268 48.4144 120.208 47.3954 120.537 46.4477C121.062 44.9373 122.489 43.9225 124.089 43.9225C124.508 43.9225 124.923 43.9926 125.322 44.1308C128.013 45.0636 130.668 46.1905 133.213 47.4802C135.062 48.417 135.803 50.6817 134.865 52.5284C134.221 53.7973 132.935 54.5855 131.51 54.5855Z" fill="white"/>
<path d="M124.089 44.8858C124.393 44.8858 124.702 44.9357 125.005 45.0409C127.656 45.9595 130.27 47.0693 132.777 48.3393C134.153 49.037 134.703 50.7174 134.005 52.0926C133.512 53.0631 132.529 53.6223 131.51 53.6223C131.085 53.6223 130.653 53.5249 130.248 53.3196C127.966 52.1632 125.585 51.1529 123.173 50.3168C121.714 49.8112 120.942 48.2204 121.448 46.7635C121.849 45.6097 122.932 44.8859 124.089 44.8858ZM124.089 42.9592H124.089C122.079 42.9593 120.285 44.2343 119.626 46.1319C119.213 47.3227 119.288 48.6031 119.838 49.7374C120.389 50.8716 121.349 51.7238 122.541 52.137C124.871 52.9448 127.171 53.9208 129.375 55.0379C130.035 55.3722 130.773 55.5489 131.51 55.5489C132.369 55.5489 133.212 55.315 133.949 54.8726C134.709 54.4162 135.323 53.7563 135.725 52.9643C136.296 51.8402 136.394 50.5613 136.002 49.3633C135.61 48.1652 134.775 47.1914 133.649 46.6212C131.066 45.3119 128.37 44.1678 125.638 43.2208C125.137 43.0472 124.616 42.9592 124.089 42.9592Z" fill="#3B5C91"/>
<path d="M78.3924 54.1324C76.9615 54.1324 75.6332 53.3019 75.0084 52.0166C74.1029 50.1538 74.8834 47.9024 76.7482 46.9979C79.313 45.7539 81.9869 44.6743 84.6957 43.7893C85.0752 43.6653 85.4686 43.6024 85.865 43.6024C87.495 43.6024 88.9308 44.6428 89.4378 46.1912C89.75 47.1447 89.6718 48.1625 89.2177 49.0572C88.7635 49.9519 87.9878 50.6163 87.0333 50.9282C84.6473 51.7078 82.2919 52.6587 80.0325 53.7546C79.5156 54.0052 78.9638 54.1324 78.3924 54.1324Z" fill="white"/>
<path d="M85.865 44.5657C87.0412 44.5657 88.1356 45.3132 88.5211 46.4906C89.001 47.9563 88.2007 49.5331 86.7334 50.0125C84.3059 50.8056 81.9097 51.7731 79.6112 52.8879C79.218 53.0787 78.8019 53.169 78.3923 53.169C77.3553 53.169 76.3593 52.5902 75.8759 51.5958C75.2016 50.2086 75.7807 48.5381 77.1694 47.8645C79.695 46.6395 82.3281 45.5764 84.9955 44.7049C85.284 44.6106 85.577 44.5657 85.865 44.5657ZM85.8652 42.639C85.8651 42.639 85.8649 42.639 85.8649 42.639C85.3664 42.6391 84.8722 42.718 84.3959 42.8736C81.6457 43.7722 78.9309 44.8683 76.3269 46.1313C73.9838 47.2679 73.0031 50.0968 74.1408 52.4374C74.5355 53.2493 75.1501 53.9272 75.9181 54.3977C76.6634 54.8543 77.519 55.0957 78.3923 55.0957C79.1109 55.0957 79.8044 54.936 80.4537 54.6211C82.6739 53.5442 84.9885 52.6098 87.333 51.8437C89.8088 51.0348 91.1641 48.3647 90.3543 45.8916C90.0385 44.9271 89.4353 44.1064 88.6098 43.5181C87.8027 42.943 86.8536 42.639 85.8652 42.639Z" fill="#3B5C91"/>
<path d="M109.034 48.3202C108.94 48.3202 108.845 48.3167 108.751 48.3097C107.363 48.2062 105.952 48.1536 104.555 48.1536C103.447 48.1536 102.321 48.1867 101.21 48.252L101.193 48.253C101.119 48.2575 101.042 48.2597 100.967 48.2597C98.9828 48.2598 97.3356 46.7091 97.2166 44.7292C97.0923 42.6622 98.6748 40.8795 100.744 40.7554L100.769 40.7539C102.026 40.68 103.3 40.6426 104.555 40.6426C106.137 40.6426 107.738 40.7021 109.311 40.8195C110.313 40.8942 111.225 41.354 111.88 42.1142C112.535 42.8744 112.855 43.8439 112.78 44.8443C112.635 46.7932 110.989 48.32 109.034 48.3202C109.034 48.3202 109.034 48.3202 109.034 48.3202Z" fill="white"/>
<path d="M104.555 41.6059C106.114 41.6059 107.69 41.6646 109.239 41.7802C110.779 41.895 111.934 43.2348 111.819 44.7726C111.709 46.2395 110.483 47.3568 109.034 47.3569C108.964 47.3569 108.894 47.3543 108.823 47.349C107.411 47.2437 105.976 47.1903 104.555 47.1903C103.428 47.1903 102.283 47.2239 101.154 47.2903L101.137 47.2913C101.08 47.2948 101.023 47.2964 100.967 47.2964C99.4995 47.2964 98.2684 46.1538 98.1793 44.6715C98.0867 43.1322 99.2609 41.8094 100.802 41.717L100.825 41.7157C102.064 41.6428 103.319 41.6059 104.555 41.6059ZM104.555 39.6793C103.281 39.6793 101.988 39.7173 100.712 39.7923L100.688 39.7937C99.4269 39.8693 98.2721 40.4303 97.435 41.3734C96.5978 42.3165 96.1784 43.5288 96.2541 44.7869C96.4036 47.2745 98.4736 49.2231 100.967 49.2231C101.062 49.2231 101.158 49.2202 101.253 49.2145L101.267 49.2137C102.359 49.1495 103.466 49.117 104.555 49.117C105.928 49.117 107.315 49.1686 108.679 49.2703C108.797 49.2791 108.917 49.2836 109.034 49.2836C110.224 49.2835 111.362 48.8382 112.238 48.0298C113.118 47.2168 113.653 46.111 113.742 44.916C113.836 43.6591 113.434 42.4408 112.611 41.4857C111.788 40.5304 110.641 39.9527 109.383 39.8588C107.786 39.7397 106.161 39.6793 104.555 39.6793Z" fill="#3B5C91"/>
<path d="M98.606 166.685C98.6946 165.489 99.2284 164.383 100.109 163.569C100.985 162.76 102.123 162.314 103.314 162.314C103.431 162.314 103.549 162.319 103.666 162.327C105.017 162.427 106.393 162.478 107.753 162.478C108.843 162.478 109.949 162.445 111.042 162.381L111.096 162.378C111.191 162.372 111.287 162.369 111.381 162.369C111.811 162.369 112.229 162.429 112.626 162.538C112.075 160.528 110.233 159.065 108.073 159.065C107.978 159.065 107.882 159.068 107.788 159.073L107.733 159.076C106.641 159.141 105.535 159.173 104.445 159.173C103.084 159.173 101.709 159.122 100.357 159.022C100.241 159.014 100.122 159.009 100.005 159.009C98.8148 159.009 97.6767 159.455 96.8007 160.264C95.92 161.078 95.3862 162.185 95.2976 163.38C95.2045 164.637 95.6069 165.855 96.4308 166.81C97.053 167.531 97.8594 168.036 98.7587 168.28C98.6188 167.768 98.5656 167.23 98.606 166.685Z" fill="#E6E6E6" fill-opacity="0.1"/>
<path d="M122.267 162.092C122.837 160.968 123.811 160.132 125.01 159.74C127.355 158.972 129.669 158.036 131.888 156.958C132.538 156.642 133.232 156.482 133.952 156.482H133.952C134.377 156.482 134.797 156.539 135.202 156.65C135.125 156.372 135.023 156.098 134.894 155.832C134.499 155.021 133.884 154.344 133.117 153.874C132.372 153.418 131.517 153.177 130.644 153.177H130.644C129.924 153.177 129.23 153.337 128.58 153.653C126.36 154.731 124.046 155.667 121.702 156.435C120.503 156.827 119.529 157.663 118.959 158.788C118.389 159.912 118.292 161.191 118.685 162.389C119.189 163.925 120.421 165.062 121.926 165.472C121.614 164.339 121.733 163.148 122.267 162.092Z" fill="#E6E6E6" fill-opacity="0.1"/>
<path d="M76.6175 158.651C77.0195 157.859 77.6337 157.198 78.3938 156.741C79.1308 156.298 79.9747 156.064 80.834 156.064C81.5698 156.064 82.307 156.24 82.9661 156.574C85.076 157.641 87.273 158.579 89.5011 159.364C89.4247 159.091 89.3245 158.823 89.198 158.563C88.6468 157.429 87.6865 156.577 86.4942 156.165C84.1629 155.359 81.8628 154.384 79.6578 153.269C78.9987 152.935 78.2614 152.759 77.5257 152.759C76.6663 152.759 75.8225 152.993 75.0855 153.436C74.3254 153.893 73.7111 154.554 73.3092 155.347C72.1323 157.668 73.0654 160.513 75.3892 161.688C75.6949 161.843 76.0024 161.995 76.3112 162.145C75.9724 161.024 76.0472 159.776 76.6175 158.651Z" fill="#E6E6E6" fill-opacity="0.1"/>
<path d="M142.084 152.41C142.178 151.153 142.757 150.008 143.713 149.185C145.584 147.576 147.365 145.825 149.005 143.979C149.901 142.971 151.189 142.393 152.539 142.393C152.539 142.393 152.539 142.393 152.539 142.393C152.964 142.393 153.383 142.45 153.786 142.56C153.548 141.684 153.061 140.895 152.366 140.278C151.5 139.51 150.387 139.088 149.231 139.088C149.231 139.088 149.231 139.088 149.23 139.088C147.88 139.088 146.592 139.666 145.697 140.674C144.056 142.52 142.276 144.272 140.405 145.881C139.448 146.703 138.87 147.848 138.776 149.105C138.682 150.362 139.083 151.58 139.906 152.535C140.526 153.255 141.339 153.762 142.236 154.008C142.096 153.495 142.043 152.956 142.084 152.41Z" fill="#E6E6E6" fill-opacity="0.1"/>
<path d="M68.7781 146.28C68.5509 145.928 68.2739 145.601 67.9454 145.31C67.7035 145.095 67.4632 144.878 67.2246 144.659C67.7308 145.209 68.2492 145.75 68.7781 146.28Z" fill="#E6E6E6"/>
<path d="M58.8813 149.489C57.1814 147.517 57.4041 144.532 59.3777 142.834C60.2346 142.097 61.329 141.69 62.4592 141.69H62.4595C63.3055 141.69 64.124 141.916 64.838 142.332C64.113 141.581 63.4095 140.811 62.7315 140.025C61.8331 138.983 60.5282 138.386 59.1511 138.386H59.1508C58.0206 138.386 56.9263 138.792 56.0694 139.529C54.0957 141.227 53.8731 144.213 55.573 146.184C57.126 147.985 58.7928 149.714 60.5409 151.339C59.975 150.732 59.4211 150.115 58.8813 149.489Z" fill="#E6E6E6" fill-opacity="0.2"/>
<path d="M68.7781 146.28C68.5509 145.928 68.2739 145.601 67.9454 145.31C67.7035 145.095 67.4632 144.878 67.2246 144.659C67.7308 145.209 68.2492 145.75 68.7781 146.28Z" fill="#E6E6E6"/>
<path d="M46.4913 127.594C45.679 125.121 47.0317 122.45 49.5065 121.639C49.9843 121.482 50.4802 121.403 50.9803 121.403C51.4122 121.403 51.8332 121.461 52.2349 121.571C52.2099 121.496 52.1845 121.421 52.1598 121.346C51.5214 119.403 49.718 118.098 47.672 118.098C47.1719 118.098 46.676 118.177 46.1982 118.334C43.7234 119.145 42.3707 121.817 43.183 124.289C44.0853 127.035 45.1852 129.746 46.4523 132.346C46.8474 133.157 47.4619 133.834 48.2295 134.303C48.5835 134.52 48.9625 134.687 49.3562 134.804C48.2586 132.464 47.2961 130.043 46.4913 127.594Z" fill="#E6E6E6" fill-opacity="0.1"/>
<path d="M162.744 111.606C162.844 110.25 162.896 108.87 162.896 107.505C162.896 106.416 162.863 105.311 162.799 104.221L162.797 104.186C162.641 101.588 164.629 99.3486 167.229 99.1926C167.324 99.187 167.42 99.1841 167.515 99.1841H167.515C167.945 99.1841 168.362 99.2433 168.759 99.352C168.209 97.3427 166.367 95.8793 164.207 95.8793H164.207C164.112 95.8793 164.015 95.8822 163.921 95.8879C161.321 96.0438 159.332 98.2837 159.489 100.881L159.491 100.916C159.555 102.006 159.587 103.112 159.587 104.2C159.587 105.565 159.536 106.945 159.435 108.301C159.342 109.558 159.744 110.777 160.567 111.731C161.19 112.453 161.996 112.958 162.896 113.203C162.756 112.69 162.703 112.152 162.744 111.606Z" fill="#E6E6E6" fill-opacity="0.1"/>
<path d="M43.3915 111.318L43.3865 111.233C43.3115 109.959 43.2734 108.667 43.2734 107.395C43.2734 105.783 43.3345 104.153 43.4548 102.551C43.5446 101.356 44.0791 100.25 44.9598 99.4378C45.8355 98.6298 46.9729 98.1848 48.1629 98.1847C48.2809 98.1847 48.4007 98.1891 48.5189 98.198C48.8256 98.221 49.1254 98.2732 49.4156 98.3521C49.2332 97.6848 48.9031 97.061 48.4381 96.5212C47.6151 95.5657 46.4689 94.9875 45.2106 94.8932C45.0924 94.8844 44.9726 94.8799 44.8545 94.8799C43.6646 94.88 42.5272 95.325 41.6515 96.133C40.7707 96.9456 40.2362 98.0512 40.1465 99.2458C40.0261 100.848 39.9651 102.478 39.9651 104.09C39.9651 105.362 40.0031 106.654 40.0782 107.929L40.0832 108.013C40.207 110.073 41.6463 111.761 43.5517 112.283C43.4668 111.973 43.4115 111.65 43.3915 111.318Z" fill="#E6E6E6" fill-opacity="0.1"/>
<path d="M157.377 83.4127C156.826 82.2791 156.749 80.9987 157.162 79.8075C157.574 78.6163 158.427 77.6568 159.561 77.1059C160.211 76.7905 160.905 76.6306 161.624 76.6306C162.082 76.6306 162.534 76.6976 162.969 76.8263C162.837 76.544 162.703 76.2626 162.567 75.9828C162.172 75.1713 161.557 74.4937 160.789 74.0235C160.044 73.5671 159.189 73.3259 158.316 73.3259H158.316C157.597 73.3259 156.903 73.4858 156.253 73.8011C155.118 74.3521 154.266 75.3115 153.854 76.5027C153.441 77.6939 153.518 78.9743 154.069 80.1079C155.148 82.3252 156.084 84.637 156.852 86.979C157.168 87.9431 157.771 88.7635 158.597 89.3515C159.054 89.6771 159.557 89.9156 160.086 90.0613C159.332 87.7955 158.422 85.5598 157.377 83.4127Z" fill="#E6E6E6" fill-opacity="0.1"/>
<path d="M58.3899 68.0355C58.3158 66.7772 58.7366 65.5655 59.5749 64.6234C61.4961 62.4642 63.5816 60.4151 65.7731 58.5333C66.6296 57.7979 67.7227 57.3929 68.8512 57.3928H68.8513C69.2776 57.3928 69.6968 57.4502 70.0993 57.5601C69.9208 56.9052 69.5981 56.279 69.1266 55.7309C68.2281 54.6868 66.922 54.088 65.5431 54.088H65.5429C64.4145 54.0881 63.3213 54.4931 62.4649 55.2285C60.2732 57.1104 58.1878 59.1594 56.2666 61.3185C55.4283 62.2606 55.0075 63.4724 55.0816 64.7307C55.1557 65.989 55.716 67.1431 56.6591 67.9805C57.2068 68.4668 57.8541 68.8144 58.5489 69.0044C58.4636 68.6912 58.4094 68.3671 58.3899 68.0355Z" fill="#E6E6E6" fill-opacity="0.1"/>
<path d="M122.935 49.4367C123.594 47.5391 125.387 46.2641 127.397 46.264H127.397C127.924 46.264 128.445 46.352 128.946 46.5255C131.354 47.3602 133.734 48.3481 136.034 49.4672C136.023 49.4326 136.014 49.3978 136.002 49.3633C135.61 48.1652 134.775 47.1914 133.649 46.6211C131.066 45.3118 128.37 44.1678 125.638 43.2207C125.137 43.0472 124.616 42.9592 124.089 42.9592H124.089C122.079 42.9593 120.285 44.2343 119.626 46.132C119.213 47.3228 119.288 48.6032 119.838 49.7375C120.389 50.8716 121.349 51.7239 122.541 52.1371C122.642 52.1723 122.744 52.2082 122.845 52.2441C122.589 51.327 122.616 50.3553 122.935 49.4367Z" fill="#E6E6E6" fill-opacity="0.1"/>
<path d="M79.6353 49.4361C82.2393 48.173 84.9541 47.077 87.7043 46.1784C88.1806 46.0228 88.6748 45.9438 89.1733 45.9438H89.1735C89.5991 45.9438 90.0173 46.0005 90.4201 46.1106C90.4 46.0375 90.3782 45.9645 90.3544 45.8916C90.0385 44.9271 89.4353 44.1064 88.6098 43.5181C87.8027 42.943 86.8536 42.639 85.8652 42.639H85.8649C85.3664 42.639 84.8722 42.7179 84.3959 42.8736C81.6457 43.7722 78.9309 44.8682 76.327 46.1312C73.9838 47.2678 73.0031 50.0967 74.1408 52.4373C74.5355 53.2493 75.1501 53.9271 75.9181 54.3976C76.3011 54.6323 76.7134 54.8097 77.1422 54.927C76.5527 52.7795 77.5589 50.4432 79.6353 49.4361Z" fill="#E6E6E6" fill-opacity="0.1"/>
<path d="M99.5624 48.0917C99.4868 46.8336 99.9062 45.6213 100.743 44.6782C101.58 43.7351 102.735 43.1741 103.997 43.0984L104.02 43.097C105.297 43.0221 106.59 42.984 107.864 42.984C109.47 42.984 111.094 43.0444 112.691 43.1636C112.999 43.1866 113.299 43.2388 113.59 43.3178C113.407 42.65 113.077 42.0257 112.611 41.4857C111.788 40.5305 110.641 39.9527 109.383 39.8589C107.786 39.7397 106.161 39.6793 104.555 39.6793C103.281 39.6793 101.988 39.7173 100.712 39.7923L100.688 39.7937C99.4269 39.8693 98.2721 40.4303 97.435 41.3734C96.5978 42.3165 96.1784 43.5288 96.2541 44.7869C96.3778 46.8453 97.817 48.5334 99.7223 49.0551C99.6375 48.7457 99.5823 48.4237 99.5624 48.0917Z" fill="#E6E6E6" fill-opacity="0.1"/>
<path d="M111.465 111.104C115.313 107.261 115.313 101.029 111.465 97.1859C107.618 93.3425 101.38 93.3425 97.532 97.1859C93.6845 101.029 93.6845 107.261 97.532 111.104C101.38 114.948 107.618 114.948 111.465 111.104Z" fill="#FF9494"/>
<path d="M104.5 95.2666C109.409 95.2666 113.388 99.2416 113.388 104.145C113.388 109.049 109.409 113.024 104.5 113.024C99.5913 113.024 95.6121 109.049 95.6121 104.145C95.6121 99.2416 99.5913 95.2666 104.5 95.2666ZM104.5 93.3399C103.041 93.3399 101.624 93.6258 100.289 94.1898C99.0008 94.7341 97.8442 95.5129 96.8515 96.5047C95.8587 97.4964 95.0791 98.6517 94.5342 99.9386C93.9696 101.272 93.6833 102.687 93.6833 104.145C93.6833 105.603 93.9696 107.018 94.5342 108.351C95.0791 109.638 95.8587 110.794 96.8515 111.785C97.8443 112.777 99.0009 113.556 100.289 114.1C101.624 114.664 103.041 114.95 104.5 114.95C105.959 114.95 107.376 114.664 108.711 114.1C109.999 113.556 111.156 112.777 112.149 111.785C113.141 110.794 113.921 109.638 114.466 108.351C115.031 107.018 115.317 105.603 115.317 104.145C115.317 102.687 115.031 101.272 114.466 99.9386C113.921 98.6517 113.141 97.4963 112.149 96.5047C111.156 95.5129 109.999 94.7341 108.711 94.1898C107.376 93.6259 105.959 93.3399 104.5 93.3399Z" fill="#3B5C91"/>
<path d="M147.136 77.3303C145.635 75.4749 144.003 73.7159 142.248 72.0673C135.173 65.4228 126.429 60.8878 116.962 58.9528C113.517 58.2483 109.973 57.8911 106.429 57.8911C102.885 57.8911 99.3408 58.2483 95.8957 58.9528C92.5344 59.6397 89.2279 60.665 86.0689 61.9996C82.9683 63.3097 79.9782 64.9308 77.1821 66.8179C74.4141 68.6862 71.8113 70.8311 69.4462 73.1936C67.1124 75.5249 64.9908 78.0874 63.1382 80.8113L56.4668 74.1846C56.0982 73.8185 55.6066 73.6237 55.1062 73.6237C54.857 73.6237 54.6058 73.6722 54.366 73.7716C53.6466 74.0705 53.178 74.7725 53.178 75.5504V69.5511L61.5378 77.8551C61.9225 77.2282 62.3213 76.6091 62.7336 76.0003C64.5347 73.3368 66.6031 70.8321 68.8811 68.5566C71.1597 66.281 73.6665 64.2142 76.3329 62.4151C79.0259 60.5978 81.9054 59.0367 84.8914 57.7749C87.9336 56.4898 91.1171 55.5025 94.3532 54.8407C97.6717 54.1627 101.086 53.8185 104.5 53.8185C107.914 53.8185 111.328 54.1627 114.647 54.8407C128.307 57.6333 139.946 65.9415 147.136 77.3303Z" fill="#F8B949"/>
<path d="M155.099 90.9764C153.156 86.0545 150.471 81.4539 147.136 77.3303C139.946 65.9415 128.307 57.6334 114.647 54.8407C111.328 54.1627 107.914 53.8185 104.5 53.8185C101.086 53.8185 97.6717 54.1627 94.3532 54.8407C91.1171 55.5026 87.9336 56.4898 84.8914 57.775C81.9055 59.0367 79.0259 60.5978 76.333 62.4152C73.6666 64.2143 71.1597 66.281 68.8812 68.5566C66.6032 70.8322 64.5347 73.3369 62.7337 76.0004C62.3214 76.6091 61.9226 77.2282 61.5379 77.8552L53.178 69.5512V98.9071H53.1775C52.1125 98.9071 51.2493 98.0442 51.2493 96.9804V69.5512C51.2493 68.7732 51.7179 68.0713 52.4373 67.7724C52.6771 67.6729 52.9283 67.6245 53.1775 67.6245C53.6779 67.6245 54.1695 67.8193 54.5381 68.1853L61.2095 74.8121C63.0621 72.0882 65.1837 69.5257 67.5175 67.1944C69.8826 64.8319 72.4853 62.6865 75.2534 60.8186C78.0495 58.9315 81.0396 57.3105 84.1402 56.0004C87.2992 54.6657 90.6057 53.6404 93.967 52.9536C97.4121 52.2491 100.956 51.8918 104.5 51.8918C108.044 51.8918 111.588 52.2491 115.033 52.9536C124.501 54.8886 133.244 59.4236 140.319 66.0681C147.364 72.6849 152.426 81.08 154.958 90.3469C154.971 90.3932 154.983 90.439 154.995 90.4854C154.998 90.5 155.002 90.5145 155.005 90.5286C155.015 90.5682 155.024 90.6077 155.033 90.6473C155.034 90.6536 155.036 90.6593 155.038 90.665C155.06 90.7687 155.081 90.8728 155.099 90.9764Z" fill="#3B5C91"/>
<path d="M110.214 154.14C108.277 154.363 106.351 154.472 104.443 154.472C81.8419 154.472 61.8272 139.209 55.8976 117.416C55.076 114.396 57.2774 111.42 60.3702 111.29C60.207 111.683 60.0804 112.089 59.9944 112.502C59.7754 113.552 59.8093 114.616 60.0939 115.663C61.6067 121.223 64.0208 126.459 67.2694 131.226C70.4347 135.871 74.3161 139.963 78.8054 143.389C83.2942 146.814 88.2673 149.479 93.5864 151.31C98.9531 153.157 104.546 154.109 110.214 154.14Z" fill="#57D4FF"/>
<path d="M125.777 151.875C125.644 151.934 125.51 151.994 125.377 152.052C122.06 153.496 118.579 154.595 115.033 155.32C111.536 156.035 107.973 156.398 104.443 156.398C98.6774 156.398 92.9865 155.446 87.5287 153.568C82.2095 151.737 77.2364 149.072 72.7476 145.647C68.2583 142.221 64.3774 138.129 61.2116 133.484C57.9635 128.716 55.5489 123.48 54.0361 117.921C53.7515 116.874 53.7182 115.81 53.9366 114.76C54.1425 113.772 54.5772 112.824 55.1939 112.018C56.4872 110.328 58.4509 109.359 60.5809 109.359H60.5845C60.6304 109.359 60.6763 109.36 60.7221 109.361H60.7284C60.7649 109.361 60.8019 109.363 60.8389 109.364C60.8723 109.365 60.9056 109.367 60.9385 109.369C60.9781 109.371 61.0172 109.374 61.0563 109.376C61.2132 109.388 61.3691 109.404 61.5249 109.427C61.4311 109.534 61.3399 109.646 61.2518 109.76C60.8931 110.229 60.596 110.746 60.3703 111.29C57.2775 111.42 55.0761 114.396 55.8977 117.416C61.8273 139.209 81.842 154.472 104.443 154.472C106.351 154.472 108.277 154.363 110.214 154.14C110.31 154.14 110.405 154.14 110.501 154.14C114.031 154.14 117.594 153.778 121.091 153.063C122.669 152.74 124.234 152.343 125.777 151.875Z" fill="#3B5C91"/>
<path d="M98.6291 111.47C98.0646 110.137 97.7783 108.721 97.7783 107.264C97.7783 105.806 98.0645 104.39 98.6291 103.057C99.174 101.77 99.9537 100.615 100.946 99.6232C101.939 98.6315 103.096 97.8527 104.384 97.3084C105.719 96.7444 107.136 96.4585 108.595 96.4585C110.054 96.4585 111.471 96.7444 112.806 97.3084C112.843 97.3239 112.879 97.3403 112.915 97.3561C112.676 97.0606 112.421 96.7763 112.149 96.5046C111.156 95.5129 109.999 94.7341 108.711 94.1898C107.376 93.6258 105.959 93.3398 104.5 93.3398C103.041 93.3398 101.624 93.6258 100.289 94.1898C99.0008 94.7341 97.8442 95.5129 96.8515 96.5046C95.8587 97.4963 95.0791 98.6517 94.5342 99.9385C93.9696 101.272 93.6833 102.687 93.6833 104.145C93.6833 105.603 93.9696 107.018 94.5342 108.351C95.0791 109.638 95.8587 110.794 96.8515 111.785C97.816 112.749 98.9355 113.511 100.18 114.052C99.5448 113.269 99.0248 112.404 98.6291 111.47Z" fill="#CCCCCC"/>
</svg>
