<svg width="83" height="68" viewBox="0 0 83 68" fill="none" xmlns="http://www.w3.org/2000/svg">
	<path d="M47.6828 58.0721V0H42.2931C28.4508 2.17559 14.645 4.18819 0.753906 6.27714V61.204C14.421 63.3039 28.2636 65.4035 42.0185 67.5791H47.6453V58.0715L47.6828 58.0721ZM27.3256 46.0177C25.602 42.8107 24.0905 39.5196 22.7994 36.1617C21.5486 39.3489 19.8234 42.3517 18.4104 45.4745C16.4347 45.4745 14.4592 45.3766 12.4835 45.3113C14.7966 41.3623 17.0349 37.3806 19.423 33.4642C17.3977 29.4172 15.1586 25.4575 13.0705 21.4432L19.0481 21.1487C20.3861 24.2168 21.862 27.2514 22.9749 30.3962C24.2257 27.0566 25.9387 23.8685 27.4642 20.692C29.507 20.5691 31.5532 20.4598 33.6039 20.3657C31.2017 24.6594 28.7803 28.9636 26.3382 33.2792C28.8388 37.6304 31.3395 42.0363 33.8413 46.4316C31.665 46.2791 29.5018 46.1596 27.3256 46.0177Z" fill="#4F9573" />
	<path d="M49.959 7.5271V11.6939H59.5249V17.8407H49.959V21.213H59.5249V27.3598H49.959V30.732H59.5249V36.8681H49.959V40.2404H59.5249V46.3324H49.959V49.9005H59.5249V55.8515H49.959V60.0183H82.9952V7.52749L49.959 7.5271ZM75.7047 55.8956H61.8002V49.9454H75.7047V55.8956ZM75.7047 46.3765H61.8002V40.2305H75.7047V46.3765ZM75.7047 36.8575H61.8002V30.7221H75.7047V36.8575ZM75.7047 27.3384H61.8002V21.2031H75.7047V27.3384ZM75.7047 17.8193H61.8002V11.6947H75.7047V17.8193Z" fill="#4F9573" />
</svg>
