<svg width="60" height="61" viewBox="0 0 60 61" fill="none" xmlns="http://www.w3.org/2000/svg">
	<rect y="0.5" width="60" height="60" rx="12" fill="#F8C002" fill-opacity="0.1" />
	<path d="M33 15.9043V22.1001C33 22.9402 33 23.3602 33.1635 23.6811C33.3073 23.9633 33.5368 24.1928 33.819 24.3366C34.1399 24.5001 34.5599 24.5001 35.4 24.5001H41.5958M36 32H24M36 38H24M27 26H24M33 15.5H25.2C22.6798 15.5 21.4196 15.5 20.457 15.9905C19.6103 16.4219 18.9219 17.1103 18.4905 17.957C18 18.9196 18 20.1798 18 22.7V38.3C18 40.8202 18 42.0804 18.4905 43.043C18.9219 43.8897 19.6103 44.5781 20.457 45.0095C21.4196 45.5 22.6798 45.5 25.2 45.5H34.8C37.3202 45.5 38.5804 45.5 39.543 45.0095C40.3897 44.5781 41.0781 43.8897 41.5095 43.043C42 42.0804 42 40.8202 42 38.3V24.5L33 15.5Z" stroke="#F8C002" stroke-width="1.6" stroke-linecap="round" stroke-linejoin="round" />
</svg>
