<svg width="60" height="61" viewBox="0 0 60 61" fill="none" xmlns="http://www.w3.org/2000/svg">
	<rect y="0.5" width="60" height="60" rx="12" fill="#9FBCFD" fill-opacity="0.1" />
	<path d="M31.5 23L29.8267 19.6534C29.3451 18.6902 29.1043 18.2086 28.7451 17.8567C28.4274 17.5456 28.0445 17.309 27.6241 17.164C27.1487 17 26.6103 17 25.5334 17H19.8C18.1198 17 17.2798 17 16.638 17.327C16.0735 17.6146 15.6146 18.0735 15.327 18.638C15 19.2798 15 20.1198 15 21.8V23M15 23H37.8C40.3202 23 41.5804 23 42.543 23.4905C43.3897 23.9219 44.0781 24.6103 44.5095 25.457C45 26.4196 45 27.6798 45 30.2V36.8C45 39.3202 45 40.5804 44.5095 41.543C44.0781 42.3897 43.3897 43.0781 42.543 43.5095C41.5804 44 40.3202 44 37.8 44H22.2C19.6798 44 18.4196 44 17.457 43.5095C16.6103 43.0781 15.9219 42.3897 15.4905 41.543C15 40.5804 15 39.3202 15 36.8V23Z" stroke="#62BCFF" stroke-width="1.6" stroke-linecap="round" stroke-linejoin="round" />
</svg>
