<svg width="21" height="24" viewBox="0 0 21 24" fill="none" xmlns="http://www.w3.org/2000/svg">
	<path d="M8.18515 12.4306C7.64792 12.111 6.99077 11.9613 6.33229 12.0086C5.70904 12.0011 5.0862 12.0398 4.47119 12.1243V17.4545H5.83212V15.5212C5.98769 15.5305 6.14389 15.5305 6.29946 15.5212C7.02262 15.5602 7.73444 15.3567 8.27533 14.9562C8.65678 14.6072 8.85716 14.1473 8.83285 13.6764C8.84574 13.2027 8.60922 12.7478 8.18515 12.4306ZM6.51287 14.6216C6.43868 14.624 6.36435 14.6198 6.29121 14.6091L6.33222 14.6023C6.17968 14.6171 6.02559 14.6171 5.87313 14.6023V12.9821C6.05843 12.946 6.24859 12.93 6.43882 12.9344C7.12753 12.9344 7.51285 13.2339 7.51285 13.7241C7.53519 14.2012 7.08751 14.603 6.51287 14.6216Z" fill="white" />
	<path d="M15.2929 -0.1009L15.2482 -0.15H15.1819H3.18185C1.89404 -0.15 0.85 0.893983 0.85 2.1818V21.8182C0.85 23.106 1.89399 24.15 3.1818 24.15H18.4546C19.7424 24.15 20.7864 23.106 20.7864 21.8182V6.00001V5.94202L20.7473 5.89911L15.2929 -0.1009ZM2.24092 21.8182H2.09092C2.24092 21.8182 2.24092 21.8182 2.24092 21.818V21.8174V21.8163V21.8148V21.8128V21.8105V21.8077V21.8044V21.8008V21.7967V21.7923V21.7874V21.782V21.7763V21.7702V21.7636V21.7567V21.7493V21.7415V21.7333V21.7248V21.7158V21.7064V21.6966V21.6865V21.6759V21.6649V21.6536V21.6419V21.6297V21.6172V21.6043V21.5911V21.5774V21.5634V21.549V21.5342V21.519V21.5035V21.4876V21.4713V21.4547V21.4377V21.4203V21.4026V21.3845V21.366V21.3472V21.3281V21.3086V21.2887V21.2685V21.2479V21.227V21.2058V21.1842V21.1622V21.1399V21.1173V21.0944V21.0711V21.0474V21.0235V20.9992V20.9746V20.9496V20.9244V20.8988V20.8729V20.8466V20.8201V20.7932V20.766V20.7385V20.7107V20.6826V20.6542V20.6255V20.5964V20.5671V20.5374V20.5075V20.4772V20.4467V20.4159V20.3847V20.3533V20.3216V20.2896V20.2573V20.2248V20.1919V20.1588V20.1254V20.0917V20.0577V20.0235V19.989V19.9542V19.9191V19.8838V19.8482V19.8123V19.7762V19.7398V19.7032V19.6663V19.6292V19.5917V19.5541V19.5162V19.478V19.4396V19.4009V19.362V19.3229V19.2835V19.2439V19.204V19.1639V19.1236V19.083V19.0422V19.0012V18.9599V18.9184V18.8767V18.8348V18.7926V18.7502V18.7077V18.6649V18.6218V18.5786V18.5351V18.4915V18.4476V18.4036V18.3593V18.3148V18.2701V18.2253V18.1802V18.1349V18.0894V18.0438V17.9979V17.9519V17.9057V17.8592V17.8126V17.7659V17.7189V17.6718V17.6244V17.577V17.5293V17.4814V17.4334V17.3852V17.3369V17.2884V17.2397V17.1909V17.1418V17.0927V17.0434V16.9939V16.9443V16.8945V16.8445V16.7945V16.7442V16.6938V16.6433V16.5927V16.5419V16.4909V16.4398V16.3886V16.3373V16.2858V16.2342V16.1824V16.1305V16.0785V16.0264V15.9742V15.9218V15.8693V15.8167V15.764V15.7112V15.6582V15.6052V15.552V15.4987V15.4454V15.3919V15.3383V15.2846V15.2308V15.177V15.123V15.0689V15.0147V14.9605V14.9062V14.8517V14.7972V14.7426V14.6879V14.6332V14.5783V14.5234V14.4684V14.4134V14.3582V14.303V14.2477V14.1924V14.137V14.0815V14.026V13.9704V13.9147V13.859V13.8032V13.7474V13.6915V13.6356V13.5796V13.5236V13.4675V13.4114V13.3553V13.2991V13.2428V13.1866V13.1303V13.0739V13.0176V12.9612V12.9047V12.8483V12.7918V12.7353V12.6788V12.6222V12.5656V12.5091V12.4525V12.3959V12.3392V12.2826V12.226V12.1693V12.1127V12.056V11.9993V11.9427V11.886V11.8294V11.7727V11.7161V11.6594V11.6028V11.5462V11.4896V11.433V11.3764V11.3199V11.2633V11.2068V11.1503V11.0939V11.0375V10.981V10.9247V10.8683V10.812V10.7557V10.6995V10.6433V10.5871V10.531V10.4749V10.4189V10.3629V10.307V10.2511V10.1953V10.1395V10.0837V10.0281V9.97246V9.91691V9.86142V9.80599V9.75063V9.69534V9.64011V9.58495V9.52987V9.47486V9.41992V9.36507V9.31029V9.25559V9.20097V9.14643V9.09198V9.03762V8.98335V8.92916V8.87507V8.82107V8.76717V8.71337V8.65966V8.60605V8.55255V8.49915V8.44585V8.39266V8.33958V8.28661V8.23375V8.18101V8.12838V8.07587V8.02347V7.9712V7.91905V7.86702V7.81512V7.76335V7.7117V7.66019V7.6088V7.55756V7.50644V7.45546V7.40463V7.35393V7.30337V7.25296V7.2027V7.15258V7.10261V7.05279V7.00312V6.95361V6.90425V6.85505V6.80601V6.75713V6.70841V6.65986V6.61147V6.56325V6.51519V6.46731V6.4196V6.37206V6.3247V6.27752V6.23052V6.18369V6.13705V6.0906V6.04433V5.99824V5.95235V5.90664V5.86113V5.81582V5.77069V5.72577V5.68104V5.63652V5.5922V5.54808V5.50417V5.46046V5.41697V5.37368V5.33061V5.28776V5.24511V5.20269V5.16048V5.1185V5.07674V5.0352V4.99389V4.95281V4.91195V4.87133V4.83094V4.79078V4.75086V4.71117V4.67173V4.63253V4.59357V4.55485V4.51638V4.47816V4.44019V4.40246V4.365V4.32778V4.29082V4.25412V4.21768V4.1815V4.14558V4.10993V4.07454V4.03942V4.00457V3.96999V3.93569V3.90165V3.8679V3.83442V3.80122V3.76831V3.73567V3.70332V3.67126V3.63948V3.608V3.5768V3.5459V3.51529V3.48498V3.45497V3.42526V3.39584V3.36673V3.33793V3.30943V3.28124V3.25336V3.22579V3.19853V3.17159V3.14497V3.11866V3.09267V3.06701V3.04166V3.01664V2.99195V2.96759V2.94355V2.91985V2.89648V2.87345V2.85075V2.82839V2.80637V2.78469V2.76335V2.74236V2.72171V2.70142V2.68147V2.66188V2.64263V2.62375V2.60522V2.58704V2.56923V2.55178V2.53469V2.51797V2.50161V2.48563V2.47001V2.45476V2.43989V2.42539V2.41127V2.39753V2.38416V2.37118V2.35858V2.34637V2.33454V2.32311V2.31206V2.3014V2.29114V2.28127V2.2718V2.26273V2.25406V2.24578V2.23792V2.23045V2.2234V2.21675V2.21052V2.20469V2.19928V2.19428V2.1897V2.18554V2.1818C2.24092 1.66216 2.66221 1.24088 3.18185 1.24088H12.8501V6.54545C12.8501 7.23078 13.4056 7.78637 14.091 7.78637H19.3956L19.3955 21.8182C19.3955 22.3379 18.9742 22.7592 18.4546 22.7592H3.18185C2.66221 22.7592 2.24092 22.3379 2.24092 21.8182ZM14.241 6.39545V1.24092H14.5696L19.2087 6.39549L14.241 6.39545Z" fill="white" stroke="white" stroke-width="0.3" />
	<path d="M12.3606 12.6158C11.783 12.1758 11.0676 11.9595 10.3449 12.0063C9.83925 12.0027 9.33421 12.0408 8.83472 12.1201V17.3649C9.25366 17.4213 9.67603 17.4481 10.0987 17.4453C10.9125 17.5059 11.7207 17.268 12.3738 16.7755C12.9424 16.2115 13.2408 15.4274 13.1921 14.6253C13.247 13.8606 12.9384 13.115 12.3606 12.6158ZM12.0146 14.6253C12.008 15.8913 11.3494 16.4874 10.3449 16.4807V16.4741C10.2166 16.4869 10.0873 16.4869 9.95902 16.4741V12.9843C10.1252 12.9489 10.2948 12.9332 10.4646 12.9373C11.271 12.8803 11.9705 13.4922 12.0271 14.3041C12.0346 14.4113 12.0304 14.519 12.0146 14.6253Z" fill="white" />
	<path d="M14.2893 17.4545H15.503V15.2604H17.4248V14.2561H15.503V13.0111H17.562V12H14.2893V17.4545Z" fill="white" />
</svg>
