<svg width="60" height="61" viewBox="0 0 60 61" fill="none" xmlns="http://www.w3.org/2000/svg">
	<rect y="0.5" width="60" height="60" rx="12" fill="#3F419F" fill-opacity="0.05" />
	<path d="M19.9744 41.6576C20.8869 39.5078 23.0174 38 25.5 38H34.5C36.9826 38 39.1131 39.5078 40.0256 41.6576M36 26.75C36 30.0637 33.3137 32.75 30 32.75C26.6863 32.75 24 30.0637 24 26.75C24 23.4363 26.6863 20.75 30 20.75C33.3137 20.75 36 23.4363 36 26.75ZM45 30.5C45 38.7843 38.2843 45.5 30 45.5C21.7157 45.5 15 38.7843 15 30.5C15 22.2157 21.7157 15.5 30 15.5C38.2843 15.5 45 22.2157 45 30.5Z" stroke="#3F419F" stroke-width="1.6" stroke-linecap="round" stroke-linejoin="round" />
</svg>
