<svg width="60" height="61" viewBox="0 0 60 61" fill="none" xmlns="http://www.w3.org/2000/svg">
	<rect y="0.5" width="60" height="60" rx="12" fill="#07DF0F" fill-opacity="0.05" />
	<path d="M45 44V41C45 38.2042 43.0878 35.8551 40.5 35.189M35.25 17.4361C37.4489 18.3262 39 20.482 39 23C39 25.518 37.4489 27.6738 35.25 28.5639M37.5 44C37.5 41.2044 37.5 39.8065 37.0433 38.7039C36.4343 37.2337 35.2663 36.0657 33.7961 35.4567C32.6935 35 31.2957 35 28.5 35H24C21.2044 35 19.8065 35 18.7039 35.4567C17.2337 36.0657 16.0657 37.2337 15.4567 38.7039C15 39.8065 15 41.2044 15 44M32.25 23C32.25 26.3137 29.5637 29 26.25 29C22.9363 29 20.25 26.3137 20.25 23C20.25 19.6863 22.9363 17 26.25 17C29.5637 17 32.25 19.6863 32.25 23Z" stroke="#07DF0F" stroke-width="1.6" stroke-linecap="round" stroke-linejoin="round" />
</svg>
