<svg width="24" height="24" viewBox="0 0 24 24" fill="none" xmlns="http://www.w3.org/2000/svg">
	<path d="M14.25 2.26953V6.40007C14.25 6.96012 14.25 7.24015 14.3726 7.45406C14.4805 7.64222 14.6526 7.7952 14.8643 7.89108C15.1049 8.00007 15.4199 8.00007 16.05 8.00007H20.6969M14.25 2H8.4C6.50982 2 5.56473 2 4.84278 2.32698C4.20774 2.6146 3.69143 3.07354 3.36785 3.63803C3 4.27976 3 5.11984 3 6.8V17.2C3 18.8802 3 19.7202 3.36785 20.362C3.69143 20.9265 4.20774 21.3854 4.84278 21.673C5.56473 22 6.50982 22 8.4 22H15.6C17.4902 22 18.4353 22 19.1572 21.673C19.7923 21.3854 20.3086 20.9265 20.6321 20.362C21 19.7202 21 18.8802 21 17.2V8L14.25 2Z" stroke="white" stroke-width="1.6" stroke-linecap="round" stroke-linejoin="round" />
	<path d="M9.59387 18C9.15943 18 8.77938 17.7076 8.66798 17.2877L7 11H7.77184C8.24105 11 8.64717 11.3262 8.74832 11.7844L9.68064 16.0073H9.74566L11.1069 11.64C11.2255 11.2593 11.578 11 11.9768 11C12.3974 11 12.7633 11.2879 12.8623 11.6968L13.9075 16.0142H13.9725L15.2158 11.7218C15.3396 11.2942 15.7312 11 16.1763 11H17L14.8709 17.3466C14.74 17.7369 14.3743 18 13.9625 18C13.5293 18 13.15 17.7093 13.0374 17.2911L11.9494 13.2524H11.8916L10.501 17.3499C10.3691 17.7386 10.0043 18 9.59387 18Z" fill="white" />
</svg>
